ply
format ascii 1.0
comment Created by Blender 2.70 (sub 0) - www.blender.org, source file: 'Hexapod Version 4.blend'
element vertex 232
property float x
property float y
property float z
property float nx
property float ny
property float nz
element face 64
property list uchar uint vertex_indices
end_header
0.185548 0.421206 0.334718 -0.000000 0.719634 0.694353
0.000000 0.421206 0.334718 -0.000000 0.719634 0.694353
0.000000 0.269661 0.491781 -0.000000 0.719634 0.694353
0.185548 0.269661 0.491781 -0.000000 0.719634 0.694353
0.185548 0.421206 0.334718 0.530411 0.550406 0.644762
0.185548 0.269661 0.491781 0.530411 0.550406 0.644762
0.288631 0.240140 0.404486 0.530411 0.550406 0.644762
0.324710 0.368555 0.292878 0.530411 0.550406 0.644762
0.185548 0.421206 0.334718 0.403566 0.899932 0.165094
0.324710 0.368555 0.292878 0.403566 0.899932 0.165094
0.288631 0.415070 0.116186 0.403566 0.899932 0.165094
0.185548 0.467450 0.093975 0.403566 0.899932 0.165094
0.185548 0.421206 0.334718 -0.000000 0.982046 0.188640
0.185548 0.467450 0.093975 -0.000000 0.982046 0.188640
0.000000 0.467450 0.093975 -0.000000 0.982046 0.188640
0.000000 0.421206 0.334718 -0.000000 0.982046 0.188640
0.264476 -0.169101 -0.293096 0.951200 -0.296853 -0.084240
0.344442 0.010376 -0.031434 0.951200 -0.296853 -0.084240
0.301386 -0.170630 0.129065 0.951200 -0.296853 -0.084240
0.231417 -0.308689 -0.183310 0.951200 -0.296853 -0.084240
0.264476 -0.169101 -0.293096 0.894089 -0.402557 -0.196347
0.231417 -0.308689 -0.183310 0.894089 -0.402557 -0.196347
0.164240 -0.342977 -0.393046 0.894089 -0.402557 -0.196347
0.164779 -0.295927 -0.512917 0.894089 -0.402557 -0.196347
0.264476 -0.169101 -0.293096 0.913577 -0.062547 -0.401826
0.164779 -0.295927 -0.512917 0.913577 -0.062547 -0.401826
0.164240 -0.183115 -0.518807 0.913577 -0.062547 -0.401826
0.231417 -0.029513 -0.402882 0.913577 -0.062547 -0.401826
0.264476 -0.169101 -0.293096 0.957057 -0.016776 -0.289414
0.231417 -0.029513 -0.402882 0.957057 -0.016776 -0.289414
0.301386 0.191381 -0.191934 0.957057 -0.016776 -0.289414
0.344442 0.010376 -0.031434 0.957057 -0.016776 -0.289414
0.185548 0.406407 -0.083512 0.000000 0.723067 -0.690778
0.172221 0.251716 -0.245434 0.000000 0.723067 -0.690778
0.000000 0.251716 -0.245434 0.000000 0.723067 -0.690778
0.000000 0.406407 -0.083512 0.000000 0.723067 -0.690778
0.185548 0.406407 -0.083512 0.000000 0.945635 -0.325230
0.000000 0.406407 -0.083512 0.000000 0.945635 -0.325230
0.000000 0.467450 0.093975 0.000000 0.945635 -0.325230
0.185548 0.467450 0.093975 0.000000 0.945635 -0.325230
0.185548 0.406407 -0.083512 0.450505 0.851136 -0.269469
0.185548 0.467450 0.093975 0.450505 0.851136 -0.269469
0.288631 0.415070 0.116186 0.450505 0.851136 -0.269469
0.324710 0.357456 -0.020794 0.450505 0.851136 -0.269469
0.185548 0.406407 -0.083512 0.511039 0.590333 -0.624777
0.324710 0.357456 -0.020794 0.511039 0.590333 -0.624777
0.301386 0.191381 -0.191934 0.511039 0.590333 -0.624777
0.172221 0.251716 -0.245434 0.511039 0.590333 -0.624777
0.078928 -0.338202 -0.586191 0.611022 -0.737320 -0.288117
0.164779 -0.295927 -0.512917 0.611022 -0.737320 -0.288117
0.164240 -0.342977 -0.393046 0.611022 -0.737320 -0.288117
0.092255 -0.382713 -0.444627 0.611022 -0.737320 -0.288117
0.078928 -0.338202 -0.586191 0.000000 -0.953957 -0.299944
0.092255 -0.382713 -0.444627 0.000000 -0.953957 -0.299944
0.000000 -0.382713 -0.444627 0.000000 -0.953957 -0.299944
0.000000 -0.338202 -0.586191 0.000000 -0.953957 -0.299944
0.078928 -0.338202 -0.586191 0.000000 0.038585 -0.999255
0.000000 -0.338202 -0.586191 0.000000 0.038585 -0.999255
0.000000 -0.209141 -0.581208 0.000000 0.038585 -0.999255
0.092255 -0.209141 -0.581208 0.000000 0.038585 -0.999255
0.078928 -0.338202 -0.586191 0.660740 -0.037745 -0.749665
0.092255 -0.209141 -0.581208 0.660740 -0.037745 -0.749665
0.164240 -0.183115 -0.518807 0.660740 -0.037745 -0.749665
0.164779 -0.295927 -0.512917 0.660740 -0.037745 -0.749665
0.185548 0.014799 0.418230 0.510670 -0.616128 0.599669
0.172221 -0.230965 0.182565 0.510670 -0.616128 0.599669
0.301386 -0.170630 0.129065 0.510670 -0.616128 0.599669
0.324710 0.063750 0.355512 0.510670 -0.616128 0.599669
0.185548 0.014799 0.418230 0.527822 -0.190977 0.827606
0.324710 0.063750 0.355512 0.527822 -0.190977 0.827606
0.288631 0.240140 0.404486 0.527822 -0.190977 0.827606
0.185548 0.269661 0.491781 0.527822 -0.190977 0.827606
0.185548 0.014799 0.418230 0.000000 -0.277275 0.960791
0.185548 0.269661 0.491781 0.000000 -0.277275 0.960791
0.000000 0.269661 0.491781 0.000000 -0.277275 0.960791
0.000000 0.014799 0.418230 0.000000 -0.277275 0.960791
0.185548 0.014799 0.418230 0.000000 -0.692121 0.721782
0.000000 0.014799 0.418230 0.000000 -0.692121 0.721782
0.000000 -0.230965 0.182565 0.000000 -0.692121 0.721782
0.172221 -0.230965 0.182565 0.000000 -0.692121 0.721782
0.371097 0.210603 0.167359 0.944979 0.065846 0.320434
0.324710 0.368555 0.292878 0.944979 0.065846 0.320434
0.288631 0.240140 0.404486 0.944979 0.065846 0.320434
0.324710 0.063750 0.355512 0.944979 0.065846 0.320434
0.371097 0.210603 0.167359 0.979494 -0.186709 0.075703
0.324710 0.063750 0.355512 0.979494 -0.186709 0.075703
0.301386 -0.170630 0.129065 0.979494 -0.186709 0.075703
0.344442 0.010376 -0.031434 0.979494 -0.186709 0.075703
0.371097 0.210603 0.167359 0.979208 0.061594 -0.193282
0.344442 0.010376 -0.031434 0.979208 0.061594 -0.193282
0.301386 0.191381 -0.191934 0.979208 0.061594 -0.193282
0.324710 0.357456 -0.020794 0.979208 0.061594 -0.193282
0.371097 0.210603 0.167359 0.928467 0.371184 -0.013134
0.324710 0.357456 -0.020794 0.928467 0.371184 -0.013134
0.288631 0.415070 0.116186 0.928467 0.371184 -0.013134
0.324710 0.368555 0.292878 0.928467 0.371184 -0.013134
0.132238 0.017016 -0.439477 0.000000 0.531030 -0.847353
0.092255 -0.209141 -0.581208 0.000000 0.531030 -0.847353
0.000000 -0.209141 -0.581208 0.000000 0.531030 -0.847353
0.000000 0.017016 -0.439477 0.000000 0.531030 -0.847353
0.132238 0.017016 -0.439477 0.000000 0.637195 -0.770702
0.000000 0.017016 -0.439477 0.000000 0.637195 -0.770702
0.000000 0.251716 -0.245434 0.000000 0.637195 -0.770702
0.172221 0.251716 -0.245434 0.000000 0.637195 -0.770702
0.132238 0.017016 -0.439477 0.510043 0.499429 -0.700305
0.172221 0.251716 -0.245434 0.510043 0.499429 -0.700305
0.301386 0.191381 -0.191934 0.510043 0.499429 -0.700305
0.231417 -0.029513 -0.402882 0.510043 0.499429 -0.700305
0.132238 0.017016 -0.439477 0.495907 0.387369 -0.777189
0.231417 -0.029513 -0.402882 0.495907 0.387369 -0.777189
0.164240 -0.183115 -0.518807 0.495907 0.387369 -0.777189
0.092255 -0.209141 -0.581208 0.495907 0.387369 -0.777189
0.132238 -0.355218 -0.146714 0.449047 -0.893399 0.013941
0.092255 -0.382713 -0.444627 0.449047 -0.893399 0.013941
0.164240 -0.342977 -0.393046 0.449047 -0.893399 0.013941
0.231417 -0.308689 -0.183310 0.449047 -0.893399 0.013941
0.132238 -0.355218 -0.146714 0.490830 -0.832702 0.256306
0.231417 -0.308689 -0.183310 0.490830 -0.832702 0.256306
0.301386 -0.170630 0.129065 0.490830 -0.832702 0.256306
0.172221 -0.230965 0.182565 0.490830 -0.832702 0.256306
0.132238 -0.355218 -0.146714 0.000000 -0.935605 0.353049
0.172221 -0.230965 0.182565 0.000000 -0.935605 0.353049
0.000000 -0.230965 0.182565 0.000000 -0.935605 0.353049
0.000000 -0.355218 -0.146714 0.000000 -0.935605 0.353049
0.132238 -0.355218 -0.146714 0.000000 -0.995768 0.091900
0.000000 -0.355218 -0.146714 0.000000 -0.995768 0.091900
0.000000 -0.382713 -0.444627 0.000000 -0.995768 0.091900
0.092255 -0.382713 -0.444627 0.000000 -0.995768 0.091900
-0.185548 0.421206 0.334718 0.000000 0.719634 0.694353
-0.185548 0.269661 0.491781 0.000000 0.719634 0.694353
-0.185548 0.421206 0.334718 0.000000 0.982046 0.188640
-0.185548 0.467450 0.093975 0.000000 0.982046 0.188640
-0.185548 0.421206 0.334718 -0.403566 0.899932 0.165094
-0.185548 0.467450 0.093975 -0.403566 0.899932 0.165094
-0.288631 0.415070 0.116186 -0.403566 0.899932 0.165094
-0.324710 0.368555 0.292878 -0.403566 0.899932 0.165094
-0.185548 0.421206 0.334718 -0.530411 0.550406 0.644762
-0.324710 0.368555 0.292878 -0.530411 0.550406 0.644762
-0.288631 0.240140 0.404486 -0.530411 0.550406 0.644762
-0.185548 0.269661 0.491781 -0.530411 0.550406 0.644762
-0.264476 -0.169101 -0.293096 -0.951200 -0.296853 -0.084240
-0.231417 -0.308689 -0.183310 -0.951200 -0.296853 -0.084240
-0.301386 -0.170630 0.129065 -0.951200 -0.296853 -0.084240
-0.344442 0.010376 -0.031434 -0.951200 -0.296853 -0.084240
-0.264476 -0.169101 -0.293096 -0.957057 -0.016776 -0.289414
-0.344442 0.010376 -0.031434 -0.957057 -0.016776 -0.289414
-0.301386 0.191381 -0.191934 -0.957057 -0.016776 -0.289414
-0.231417 -0.029513 -0.402882 -0.957057 -0.016776 -0.289414
-0.264476 -0.169101 -0.293096 -0.913577 -0.062547 -0.401826
-0.231417 -0.029513 -0.402882 -0.913577 -0.062547 -0.401826
-0.164240 -0.183115 -0.518807 -0.913577 -0.062547 -0.401826
-0.164779 -0.295927 -0.512917 -0.913577 -0.062547 -0.401826
-0.264476 -0.169101 -0.293096 -0.894089 -0.402557 -0.196347
-0.164779 -0.295927 -0.512917 -0.894089 -0.402557 -0.196347
-0.164240 -0.342977 -0.393046 -0.894089 -0.402557 -0.196347
-0.231417 -0.308689 -0.183310 -0.894089 -0.402557 -0.196347
-0.185548 0.406407 -0.083512 -0.000000 0.723067 -0.690778
-0.172221 0.251716 -0.245434 -0.000000 0.723067 -0.690778
-0.185548 0.406407 -0.083512 -0.511039 0.590333 -0.624777
-0.172221 0.251716 -0.245434 -0.511039 0.590333 -0.624777
-0.301386 0.191381 -0.191934 -0.511039 0.590333 -0.624777
-0.324710 0.357456 -0.020794 -0.511039 0.590333 -0.624777
-0.185548 0.406407 -0.083512 -0.450505 0.851136 -0.269469
-0.324710 0.357456 -0.020794 -0.450505 0.851136 -0.269469
-0.288631 0.415070 0.116186 -0.450505 0.851136 -0.269469
-0.185548 0.467450 0.093975 -0.450505 0.851136 -0.269469
-0.185548 0.406407 -0.083512 -0.000000 0.945635 -0.325230
-0.185548 0.467450 0.093975 -0.000000 0.945635 -0.325230
-0.078928 -0.338202 -0.586191 -0.611022 -0.737320 -0.288117
-0.092255 -0.382713 -0.444627 -0.611022 -0.737320 -0.288117
-0.164240 -0.342977 -0.393046 -0.611022 -0.737320 -0.288117
-0.164779 -0.295927 -0.512917 -0.611022 -0.737320 -0.288117
-0.078928 -0.338202 -0.586191 -0.660740 -0.037745 -0.749665
-0.164779 -0.295927 -0.512917 -0.660740 -0.037745 -0.749665
-0.164240 -0.183115 -0.518807 -0.660740 -0.037745 -0.749665
-0.092255 -0.209141 -0.581208 -0.660740 -0.037745 -0.749665
-0.078928 -0.338202 -0.586191 0.000000 0.038585 -0.999255
-0.092255 -0.209141 -0.581208 0.000000 0.038585 -0.999255
-0.078928 -0.338202 -0.586191 0.000000 -0.953957 -0.299944
-0.092255 -0.382713 -0.444627 0.000000 -0.953957 -0.299944
-0.185548 0.014799 0.418230 -0.510670 -0.616128 0.599669
-0.324710 0.063750 0.355512 -0.510670 -0.616128 0.599669
-0.301386 -0.170630 0.129065 -0.510670 -0.616128 0.599669
-0.172221 -0.230965 0.182565 -0.510670 -0.616128 0.599669
-0.185548 0.014799 0.418230 -0.000000 -0.692121 0.721782
-0.172221 -0.230965 0.182565 -0.000000 -0.692121 0.721782
-0.185548 0.014799 0.418230 0.000000 -0.277275 0.960791
-0.185548 0.269661 0.491781 0.000000 -0.277275 0.960791
-0.185548 0.014799 0.418230 -0.527822 -0.190977 0.827606
-0.185548 0.269661 0.491781 -0.527822 -0.190977 0.827606
-0.288631 0.240140 0.404486 -0.527822 -0.190977 0.827606
-0.324710 0.063750 0.355512 -0.527822 -0.190977 0.827606
-0.371097 0.210603 0.167359 -0.944980 0.065846 0.320434
-0.324710 0.063750 0.355512 -0.944980 0.065846 0.320434
-0.288631 0.240140 0.404486 -0.944980 0.065846 0.320434
-0.324710 0.368555 0.292878 -0.944980 0.065846 0.320434
-0.371097 0.210603 0.167359 -0.928467 0.371183 -0.013134
-0.324710 0.368555 0.292878 -0.928467 0.371183 -0.013134
-0.288631 0.415070 0.116186 -0.928467 0.371183 -0.013134
-0.324710 0.357456 -0.020794 -0.928467 0.371183 -0.013134
-0.371097 0.210603 0.167359 -0.979208 0.061594 -0.193282
-0.324710 0.357456 -0.020794 -0.979208 0.061594 -0.193282
-0.301386 0.191381 -0.191934 -0.979208 0.061594 -0.193282
-0.344442 0.010376 -0.031434 -0.979208 0.061594 -0.193282
-0.371097 0.210603 0.167359 -0.979494 -0.186709 0.075703
-0.344442 0.010376 -0.031434 -0.979494 -0.186709 0.075703
-0.301386 -0.170630 0.129065 -0.979494 -0.186709 0.075703
-0.324710 0.063750 0.355512 -0.979494 -0.186709 0.075703
-0.132238 0.017016 -0.439477 0.000000 0.531030 -0.847353
-0.092255 -0.209141 -0.581208 0.000000 0.531030 -0.847353
-0.132238 0.017016 -0.439477 -0.495907 0.387369 -0.777189
-0.092255 -0.209141 -0.581208 -0.495907 0.387369 -0.777189
-0.164240 -0.183115 -0.518807 -0.495907 0.387369 -0.777189
-0.231417 -0.029513 -0.402882 -0.495907 0.387369 -0.777189
-0.132238 0.017016 -0.439477 -0.510043 0.499429 -0.700305
-0.231417 -0.029513 -0.402882 -0.510043 0.499429 -0.700305
-0.301386 0.191381 -0.191934 -0.510043 0.499429 -0.700305
-0.172221 0.251716 -0.245434 -0.510043 0.499429 -0.700305
-0.132238 0.017016 -0.439477 0.000000 0.637195 -0.770702
-0.172221 0.251716 -0.245434 0.000000 0.637195 -0.770702
-0.132238 -0.355218 -0.146714 -0.449047 -0.893399 0.013941
-0.231417 -0.308689 -0.183310 -0.449047 -0.893399 0.013941
-0.164240 -0.342977 -0.393046 -0.449047 -0.893399 0.013941
-0.092255 -0.382713 -0.444627 -0.449047 -0.893399 0.013941
-0.132238 -0.355218 -0.146714 0.000000 -0.995768 0.091900
-0.092255 -0.382713 -0.444627 0.000000 -0.995768 0.091900
-0.132238 -0.355218 -0.146714 -0.000000 -0.935605 0.353049
-0.172221 -0.230965 0.182565 -0.000000 -0.935605 0.353049
-0.132238 -0.355218 -0.146714 -0.490830 -0.832702 0.256306
-0.172221 -0.230965 0.182565 -0.490830 -0.832702 0.256306
-0.301386 -0.170630 0.129065 -0.490830 -0.832702 0.256306
-0.231417 -0.308689 -0.183310 -0.490830 -0.832702 0.256306
4 0 1 2 3
4 4 5 6 7
4 8 9 10 11
4 12 13 14 15
4 16 17 18 19
4 20 21 22 23
4 24 25 26 27
4 28 29 30 31
4 32 33 34 35
4 36 37 38 39
4 40 41 42 43
4 44 45 46 47
4 48 49 50 51
4 52 53 54 55
4 56 57 58 59
4 60 61 62 63
4 64 65 66 67
4 68 69 70 71
4 72 73 74 75
4 76 77 78 79
4 80 81 82 83
4 84 85 86 87
4 88 89 90 91
4 92 93 94 95
4 96 97 98 99
4 100 101 102 103
4 104 105 106 107
4 108 109 110 111
4 112 113 114 115
4 116 117 118 119
4 120 121 122 123
4 124 125 126 127
4 128 129 2 1
4 130 15 14 131
4 132 133 134 135
4 136 137 138 139
4 140 141 142 143
4 144 145 146 147
4 148 149 150 151
4 152 153 154 155
4 156 35 34 157
4 158 159 160 161
4 162 163 164 165
4 166 167 38 37
4 168 169 170 171
4 172 173 174 175
4 176 177 58 57
4 178 55 54 179
4 180 181 182 183
4 184 185 78 77
4 186 75 74 187
4 188 189 190 191
4 192 193 194 195
4 196 197 198 199
4 200 201 202 203
4 204 205 206 207
4 208 99 98 209
4 210 211 212 213
4 214 215 216 217
4 218 219 102 101
4 220 221 222 223
4 224 225 126 125
4 226 123 122 227
4 228 229 230 231
