ply
format ascii 1.0
comment Created by Blender 2.70 (sub 0) - www.blender.org, source file: 'Hexapod Version 4.blend'
element vertex 434
property float x
property float y
property float z
property float nx
property float ny
property float nz
element face 112
property list uchar uint vertex_indices
end_header
0.083680 0.043121 0.591052 0.963858 0.265177 -0.025663
0.083680 0.032217 0.472263 0.963858 0.265177 -0.025663
0.073220 0.069646 0.472263 0.963858 0.265177 -0.025663
0.073220 0.081732 0.591052 0.963858 0.265177 -0.025663
0.083680 0.043121 0.591052 0.940557 0.300882 0.157548
0.073220 0.081732 0.591052 0.940557 0.300882 0.157548
0.065085 0.080101 0.631443 0.940557 0.300882 0.157548
0.073220 0.053180 0.645580 0.940557 0.300882 0.157548
0.083680 0.043121 0.591052 0.919073 -0.294009 0.262418
0.073220 0.053180 0.645580 0.919073 -0.294009 0.262418
0.065085 0.021043 0.631443 0.919073 -0.294009 0.262418
0.073220 0.004510 0.591052 0.919073 -0.294009 0.262418
0.083680 0.043121 0.591052 0.963920 -0.265194 0.023026
0.073220 0.004510 0.591052 0.963920 -0.265194 0.023026
0.073220 -0.005213 0.472263 0.963920 -0.265194 0.023026
0.083680 0.032217 0.472263 0.963920 -0.265194 0.023026
0.041840 -0.062963 -0.124727 0.506134 -0.846393 0.165674
0.041840 -0.087473 -0.246115 0.506134 -0.846393 0.165674
0.073220 -0.061103 -0.211090 0.506134 -0.846393 0.165674
0.073220 -0.040227 -0.100612 0.506134 -0.846393 0.165674
0.041840 -0.062963 -0.124727 0.489386 -0.865407 0.107568
0.073220 -0.040227 -0.100612 0.489386 -0.865407 0.107568
0.073220 -0.024456 0.042305 0.489386 -0.865407 0.107568
0.041840 -0.040957 0.036277 0.489386 -0.865407 0.107568
0.041840 -0.062963 -0.124727 0.014991 -0.990360 0.137701
0.041840 -0.040957 0.036277 0.014991 -0.990360 0.137701
0.000000 -0.041833 0.031802 0.014991 -0.990360 0.137701
0.000000 -0.066465 -0.142626 0.014991 -0.990360 0.137701
0.041840 -0.062963 -0.124727 -0.003163 -0.980257 0.197704
0.000000 -0.066465 -0.142626 -0.003163 -0.980257 0.197704
0.000000 -0.092726 -0.272965 -0.003163 -0.980257 0.197704
0.041840 -0.087473 -0.246115 -0.003163 -0.980257 0.197704
0.041840 0.063674 -0.148944 -0.196434 0.966058 -0.167764
0.041840 0.040600 -0.291608 -0.196434 0.966058 -0.167764
0.000000 0.025425 -0.320209 -0.196434 0.966058 -0.167764
0.000000 0.053556 -0.168011 -0.196434 0.966058 -0.167764
0.041840 0.063674 -0.148944 -0.123115 0.988114 -0.092050
0.000000 0.053556 -0.168011 -0.123115 0.988114 -0.092050
0.000000 0.074707 0.025456 -0.123115 0.988114 -0.092050
0.041840 0.077236 0.030222 -0.123115 0.988114 -0.092050
0.041840 0.063674 -0.148944 0.243969 0.968379 -0.052173
0.041840 0.077236 0.030222 0.243969 0.968379 -0.052173
0.073220 0.065843 0.038056 0.243969 0.968379 -0.052173
0.073220 0.061366 -0.117608 0.243969 0.968379 -0.052173
0.041840 0.063674 -0.148944 0.151842 0.977847 -0.144084
0.073220 0.061366 -0.117608 0.151842 0.977847 -0.144084
0.073220 0.044874 -0.243458 0.151842 0.977847 -0.144084
0.041840 0.040600 -0.291608 0.151842 0.977847 -0.144084
0.041840 0.094603 0.591052 -0.000000 0.994526 -0.104492
0.041840 0.082122 0.472263 -0.000000 0.994526 -0.104492
0.000000 0.082122 0.472263 -0.000000 0.994526 -0.104492
0.000000 0.094603 0.591052 -0.000000 0.994526 -0.104492
0.041840 0.094603 0.591052 0.000000 0.999912 0.013248
0.000000 0.094603 0.591052 0.000000 0.999912 0.013248
0.000000 0.093880 0.645580 0.000000 0.999912 0.013248
0.041840 0.093880 0.645580 0.000000 0.999912 0.013248
0.041840 0.094603 0.591052 0.450295 0.890816 0.060681
0.041840 0.093880 0.645580 0.450295 0.890816 0.060681
0.065085 0.080101 0.631443 0.450295 0.890816 0.060681
0.073220 0.081732 0.591052 0.450295 0.890816 0.060681
0.041840 0.094603 0.591052 0.372768 0.923003 -0.095446
0.073220 0.081732 0.591052 0.372768 0.923003 -0.095446
0.073220 0.069646 0.472263 0.372768 0.923003 -0.095446
0.041840 0.082122 0.472263 0.372768 0.923003 -0.095446
0.041840 -0.027210 0.261305 0.425502 -0.903597 0.049606
0.041840 -0.040957 0.036277 0.425502 -0.903597 0.049606
0.073220 -0.024456 0.042305 0.425502 -0.903597 0.049606
0.073220 -0.013826 0.261305 0.425502 -0.903597 0.049606
0.041840 -0.027210 0.261305 0.380671 -0.923858 0.039710
0.073220 -0.013826 0.261305 0.380671 -0.923858 0.039710
0.073220 -0.005213 0.472263 0.380671 -0.923858 0.039710
0.041840 -0.017689 0.472263 0.380671 -0.923858 0.039710
0.041840 -0.027210 0.261305 -0.000000 -0.998983 0.045088
0.041840 -0.017689 0.472263 -0.000000 -0.998983 0.045088
0.000000 -0.017689 0.472263 -0.000000 -0.998983 0.045088
0.000000 -0.027210 0.261305 -0.000000 -0.998983 0.045088
0.041840 -0.027210 0.261305 0.007111 -0.998033 0.062292
0.000000 -0.027210 0.261305 0.007111 -0.998033 0.062292
0.000000 -0.041833 0.031802 0.007111 -0.998033 0.062292
0.041840 -0.040957 0.036277 0.007111 -0.998033 0.062292
0.041840 -0.077055 -0.487553 0.058200 -0.046068 -0.997241
0.000000 -0.077055 -0.487553 0.058200 -0.046068 -0.997241
0.000000 -0.032306 -0.492062 0.058200 -0.046068 -0.997241
0.041840 -0.029777 -0.487295 0.058200 -0.046068 -0.997241
0.041840 -0.077055 -0.487553 0.798083 0.114173 -0.591632
0.041840 -0.029777 -0.487295 0.798083 0.114173 -0.591632
0.065085 -0.027764 -0.446685 0.798083 0.114173 -0.591632
0.073220 -0.066797 -0.452109 0.798083 0.114173 -0.591632
0.041840 -0.077055 -0.487553 0.698203 -0.629685 -0.340600
0.073220 -0.066797 -0.452109 0.698203 -0.629685 -0.340600
0.065085 -0.092898 -0.410612 0.698203 -0.629685 -0.340600
0.041840 -0.110626 -0.435406 0.698203 -0.629685 -0.340600
0.041840 -0.077055 -0.487553 0.038731 -0.825762 -0.562687
0.041840 -0.110626 -0.435406 0.038731 -0.825762 -0.562687
0.000000 -0.111502 -0.439881 0.038731 -0.825762 -0.562687
0.000000 -0.077055 -0.487553 0.038731 -0.825762 -0.562687
0.041840 -0.008360 0.591052 0.373447 -0.924683 0.074153
0.041840 -0.017689 0.472263 0.373447 -0.924683 0.074153
0.073220 -0.005213 0.472263 0.373447 -0.924683 0.074153
0.073220 0.004510 0.591052 0.373447 -0.924683 0.074153
0.041840 -0.008360 0.591052 0.420287 -0.831452 0.363383
0.073220 0.004510 0.591052 0.420287 -0.831452 0.363383
0.065085 0.021043 0.631443 0.420287 -0.831452 0.363383
0.041840 0.012480 0.645580 0.420287 -0.831452 0.363383
0.041840 -0.008360 0.591052 0.000000 -0.934106 0.356995
0.041840 0.012480 0.645580 0.000000 -0.934106 0.356995
0.000000 0.012480 0.645580 0.000000 -0.934106 0.356995
0.000000 -0.008360 0.591052 0.000000 -0.934106 0.356995
0.041840 -0.008360 0.591052 0.000000 -0.996930 0.078294
0.000000 -0.008360 0.591052 0.000000 -0.996930 0.078294
0.000000 -0.017689 0.472263 0.000000 -0.996930 0.078294
0.041840 -0.017689 0.472263 0.000000 -0.996930 0.078294
0.041840 0.079860 0.261305 -0.029261 0.999433 -0.016643
0.041840 0.077236 0.030222 -0.029261 0.999433 -0.016643
0.000000 0.074707 0.025456 -0.029261 0.999433 -0.016643
0.000000 0.079860 0.261305 -0.029261 0.999433 -0.016643
0.041840 0.079860 0.261305 -0.000000 0.999943 -0.010724
0.000000 0.079860 0.261305 -0.000000 0.999943 -0.010724
0.000000 0.082122 0.472263 -0.000000 0.999943 -0.010724
0.041840 0.082122 0.472263 -0.000000 0.999943 -0.010724
0.041840 0.079860 0.261305 0.380944 0.924521 -0.011903
0.041840 0.082122 0.472263 0.380944 0.924521 -0.011903
0.073220 0.069646 0.472263 0.380944 0.924521 -0.011903
0.073220 0.066476 0.261305 0.380944 0.924521 -0.011903
0.041840 0.079860 0.261305 0.367924 0.929832 -0.006664
0.073220 0.066476 0.261305 0.367924 0.929832 -0.006664
0.073220 0.065843 0.038056 0.367924 0.929832 -0.006664
0.041840 0.077236 0.030222 0.367924 0.929832 -0.006664
0.041840 0.056533 0.663757 0.555793 0.428521 0.712365
0.073220 0.053180 0.645580 0.555793 0.428521 0.712365
0.065085 0.080101 0.631443 0.555793 0.428521 0.712365
0.041840 0.093880 0.645580 0.555793 0.428521 0.712365
0.041840 0.056533 0.663757 0.000000 0.437607 0.899167
0.041840 0.093880 0.645580 0.000000 0.437607 0.899167
0.000000 0.093880 0.645580 0.000000 0.437607 0.899167
0.000000 0.056533 0.663757 0.000000 0.437607 0.899167
0.041840 0.056533 0.663757 0.000000 -0.381408 0.924407
0.000000 0.056533 0.663757 0.000000 -0.381408 0.924407
0.000000 0.012480 0.645580 0.000000 -0.381408 0.924407
0.041840 0.012480 0.645580 0.000000 -0.381408 0.924407
0.041840 0.056533 0.663757 0.497070 -0.383244 0.778489
0.041840 0.012480 0.645580 0.497070 -0.383244 0.778489
0.065085 0.021043 0.631443 0.497070 -0.383244 0.778489
0.073220 0.053180 0.645580 0.497070 -0.383244 0.778489
0.083680 0.026325 0.261305 0.970692 0.240309 -0.002943
0.083680 0.021545 0.042491 0.970692 0.240309 -0.002943
0.073220 0.065843 0.038056 0.970692 0.240309 -0.002943
0.073220 0.066476 0.261305 0.970692 0.240309 -0.002943
0.083680 0.026325 0.261305 0.965497 0.260354 -0.005592
0.073220 0.066476 0.261305 0.965497 0.260354 -0.005592
0.073220 0.069646 0.472263 0.965497 0.260354 -0.005592
0.083680 0.032217 0.472263 0.965497 0.260354 -0.005592
0.083680 0.026325 0.261305 0.965473 -0.260348 0.008951
0.083680 0.032217 0.472263 0.965473 -0.260348 0.008951
0.073220 -0.005213 0.472263 0.965473 -0.260348 0.008951
0.073220 -0.013826 0.261305 0.965473 -0.260348 0.008951
0.083680 0.026325 0.261305 0.971722 -0.235980 0.008306
0.073220 -0.013826 0.261305 0.971722 -0.235980 0.008306
0.073220 -0.024456 0.042305 0.971722 -0.235980 0.008306
0.083680 0.021545 0.042491 0.971722 -0.235980 0.008306
0.083680 0.013975 -0.099868 0.979204 0.200923 -0.028094
0.083680 -0.003007 -0.213411 0.979204 0.200923 -0.028094
0.073220 0.044874 -0.243458 0.979204 0.200923 -0.028094
0.073220 0.061366 -0.117608 0.979204 0.200923 -0.028094
0.083680 0.013975 -0.099868 0.975372 0.220388 -0.008908
0.073220 0.061366 -0.117608 0.975372 0.220388 -0.008908
0.073220 0.065843 0.038056 0.975372 0.220388 -0.008908
0.083680 0.021545 0.042491 0.975372 0.220388 -0.008908
0.083680 0.013975 -0.099868 0.978725 -0.204493 0.016731
0.083680 0.021545 0.042491 0.978725 -0.204493 0.016731
0.073220 -0.024456 0.042305 0.978725 -0.204493 0.016731
0.073220 -0.040227 -0.100612 0.978725 -0.204493 0.016731
0.083680 0.013975 -0.099868 0.982696 -0.182635 0.030864
0.073220 -0.040227 -0.100612 0.982696 -0.182635 0.030864
0.073220 -0.061103 -0.211090 0.982696 -0.182635 0.030864
0.083680 -0.003007 -0.213411 0.982696 -0.182635 0.030864
0.041840 -0.108729 -0.352301 0.579729 -0.814749 0.009900
0.041840 -0.110626 -0.435406 0.579729 -0.814749 0.009900
0.065085 -0.092898 -0.410612 0.579729 -0.814749 0.009900
0.073220 -0.087051 -0.332770 0.579729 -0.814749 0.009900
0.041840 -0.108729 -0.352301 0.497385 -0.849494 0.175980
0.073220 -0.087051 -0.332770 0.497385 -0.849494 0.175980
0.073220 -0.061103 -0.211090 0.497385 -0.849494 0.175980
0.041840 -0.087473 -0.246115 0.497385 -0.849494 0.175980
0.041840 -0.108729 -0.352301 -0.002481 -0.980505 0.196478
0.041840 -0.087473 -0.246115 -0.002481 -0.980505 0.196478
0.000000 -0.092726 -0.272965 -0.002481 -0.980505 0.196478
0.000000 -0.112232 -0.370201 -0.002481 -0.980505 0.196478
0.041840 -0.108729 -0.352301 0.050208 -0.998710 0.007625
0.000000 -0.112232 -0.370201 0.050208 -0.998710 0.007625
0.000000 -0.111502 -0.439881 0.050208 -0.998710 0.007625
0.041840 -0.110626 -0.435406 0.050208 -0.998710 0.007625
0.041840 0.009446 -0.413186 -0.000378 0.883898 -0.467680
0.041840 -0.029777 -0.487295 -0.000378 0.883898 -0.467680
0.000000 -0.032306 -0.492062 -0.000378 0.883898 -0.467680
0.000000 -0.000671 -0.432253 -0.000378 0.883898 -0.467680
0.041840 0.009446 -0.413186 -0.156054 0.959362 -0.235097
0.000000 -0.000671 -0.432253 -0.156054 0.959362 -0.235097
0.000000 0.025425 -0.320209 -0.156054 0.959362 -0.235097
0.041840 0.040600 -0.291608 -0.156054 0.959362 -0.235097
0.041840 0.009446 -0.413186 0.284970 0.926415 -0.246064
0.041840 0.040600 -0.291608 0.284970 0.926415 -0.246064
0.073220 0.044874 -0.243458 0.284970 0.926415 -0.246064
0.073220 0.008196 -0.377267 0.284970 0.926415 -0.246064
0.041840 0.009446 -0.413186 0.562275 0.719008 -0.408503
0.073220 0.008196 -0.377267 0.562275 0.719008 -0.408503
0.065085 -0.027764 -0.446685 0.562275 0.719008 -0.408503
0.041840 -0.029777 -0.487295 0.562275 0.719008 -0.408503
0.083680 -0.036022 -0.345777 0.972234 0.165305 -0.165637
0.073220 -0.066797 -0.452109 0.972234 0.165305 -0.165637
0.065085 -0.027764 -0.446685 0.972234 0.165305 -0.165637
0.073220 0.008196 -0.377267 0.972234 0.165305 -0.165637
0.083680 -0.036022 -0.345777 0.980610 0.189576 -0.049638
0.073220 0.008196 -0.377267 0.980610 0.189576 -0.049638
0.073220 0.044874 -0.243458 0.980610 0.189576 -0.049638
0.083680 -0.003007 -0.213411 0.980610 0.189576 -0.049638
0.083680 -0.036022 -0.345777 0.982318 -0.182374 0.042328
0.083680 -0.003007 -0.213411 0.982318 -0.182374 0.042328
0.073220 -0.061103 -0.211090 0.982318 -0.182374 0.042328
0.073220 -0.087051 -0.332770 0.982318 -0.182374 0.042328
0.083680 -0.036022 -0.345777 0.963496 -0.263949 -0.044797
0.073220 -0.087051 -0.332770 0.963496 -0.263949 -0.044797
0.065085 -0.092898 -0.410612 0.963496 -0.263949 -0.044797
0.073220 -0.066797 -0.452109 0.963496 -0.263949 -0.044797
-0.083680 0.043121 0.591052 -0.963858 0.265177 -0.025663
-0.073220 0.081732 0.591052 -0.963858 0.265177 -0.025663
-0.073220 0.069646 0.472263 -0.963858 0.265177 -0.025663
-0.083680 0.032217 0.472263 -0.963858 0.265177 -0.025663
-0.083680 0.043121 0.591052 -0.963920 -0.265194 0.023026
-0.083680 0.032217 0.472263 -0.963920 -0.265194 0.023026
-0.073220 -0.005213 0.472263 -0.963920 -0.265194 0.023026
-0.073220 0.004510 0.591052 -0.963920 -0.265194 0.023026
-0.083680 0.043121 0.591052 -0.919073 -0.294009 0.262418
-0.073220 0.004510 0.591052 -0.919073 -0.294009 0.262418
-0.065085 0.021043 0.631443 -0.919073 -0.294009 0.262418
-0.073220 0.053180 0.645580 -0.919073 -0.294009 0.262418
-0.083680 0.043121 0.591052 -0.940557 0.300882 0.157548
-0.073220 0.053180 0.645580 -0.940557 0.300882 0.157548
-0.065085 0.080101 0.631443 -0.940557 0.300882 0.157548
-0.073220 0.081732 0.591052 -0.940557 0.300882 0.157548
-0.041840 -0.062963 -0.124727 -0.506134 -0.846393 0.165674
-0.073220 -0.040227 -0.100612 -0.506134 -0.846393 0.165674
-0.073220 -0.061103 -0.211090 -0.506134 -0.846393 0.165674
-0.041840 -0.087473 -0.246115 -0.506134 -0.846393 0.165674
-0.041840 -0.062963 -0.124727 0.003163 -0.980257 0.197704
-0.041840 -0.087473 -0.246115 0.003163 -0.980257 0.197704
0.000000 -0.092726 -0.272965 0.003163 -0.980257 0.197704
0.000000 -0.066465 -0.142626 0.003163 -0.980257 0.197704
-0.041840 -0.062963 -0.124727 -0.014991 -0.990360 0.137701
0.000000 -0.066465 -0.142626 -0.014991 -0.990360 0.137701
0.000000 -0.041833 0.031802 -0.014991 -0.990360 0.137701
-0.041840 -0.040957 0.036277 -0.014991 -0.990360 0.137701
-0.041840 -0.062963 -0.124727 -0.489386 -0.865408 0.107568
-0.041840 -0.040957 0.036277 -0.489386 -0.865408 0.107568
-0.073220 -0.024456 0.042305 -0.489386 -0.865408 0.107568
-0.073220 -0.040227 -0.100612 -0.489386 -0.865408 0.107568
-0.041840 0.063674 -0.148944 0.196434 0.966058 -0.167764
0.000000 0.053556 -0.168011 0.196434 0.966058 -0.167764
0.000000 0.025425 -0.320209 0.196434 0.966058 -0.167764
-0.041840 0.040600 -0.291608 0.196434 0.966058 -0.167764
-0.041840 0.063674 -0.148944 -0.151842 0.977847 -0.144084
-0.041840 0.040600 -0.291608 -0.151842 0.977847 -0.144084
-0.073220 0.044874 -0.243458 -0.151842 0.977847 -0.144084
-0.073220 0.061366 -0.117608 -0.151842 0.977847 -0.144084
-0.041840 0.063674 -0.148944 -0.243969 0.968379 -0.052173
-0.073220 0.061366 -0.117608 -0.243969 0.968379 -0.052173
-0.073220 0.065843 0.038056 -0.243969 0.968379 -0.052173
-0.041840 0.077236 0.030222 -0.243969 0.968379 -0.052173
-0.041840 0.063674 -0.148944 0.123115 0.988114 -0.092050
-0.041840 0.077236 0.030222 0.123115 0.988114 -0.092050
0.000000 0.074707 0.025456 0.123115 0.988114 -0.092050
0.000000 0.053556 -0.168011 0.123115 0.988114 -0.092050
-0.041840 0.094603 0.591052 0.000000 0.994526 -0.104492
-0.041840 0.082122 0.472263 0.000000 0.994526 -0.104492
-0.041840 0.094603 0.591052 -0.372768 0.923003 -0.095446
-0.041840 0.082122 0.472263 -0.372768 0.923003 -0.095446
-0.073220 0.069646 0.472263 -0.372768 0.923003 -0.095446
-0.073220 0.081732 0.591052 -0.372768 0.923003 -0.095446
-0.041840 0.094603 0.591052 -0.450295 0.890816 0.060681
-0.073220 0.081732 0.591052 -0.450295 0.890816 0.060681
-0.065085 0.080101 0.631443 -0.450295 0.890816 0.060681
-0.041840 0.093880 0.645580 -0.450295 0.890816 0.060681
-0.041840 0.094603 0.591052 -0.000000 0.999912 0.013248
-0.041840 0.093880 0.645580 -0.000000 0.999912 0.013248
-0.041840 -0.027210 0.261305 -0.425502 -0.903597 0.049606
-0.073220 -0.013826 0.261305 -0.425502 -0.903597 0.049606
-0.073220 -0.024456 0.042305 -0.425502 -0.903597 0.049606
-0.041840 -0.040957 0.036277 -0.425502 -0.903597 0.049606
-0.041840 -0.027210 0.261305 -0.007111 -0.998033 0.062292
-0.041840 -0.040957 0.036277 -0.007111 -0.998033 0.062292
0.000000 -0.041833 0.031802 -0.007111 -0.998033 0.062292
0.000000 -0.027210 0.261305 -0.007111 -0.998033 0.062292
-0.041840 -0.027210 0.261305 -0.000000 -0.998983 0.045088
-0.041840 -0.017689 0.472263 -0.000000 -0.998983 0.045088
-0.041840 -0.027210 0.261305 -0.380671 -0.923858 0.039710
-0.041840 -0.017689 0.472263 -0.380671 -0.923858 0.039710
-0.073220 -0.005213 0.472263 -0.380671 -0.923858 0.039710
-0.073220 -0.013826 0.261305 -0.380671 -0.923858 0.039710
-0.041840 -0.077055 -0.487553 -0.058200 -0.046068 -0.997241
-0.041840 -0.029777 -0.487295 -0.058200 -0.046068 -0.997241
0.000000 -0.032306 -0.492062 -0.058200 -0.046068 -0.997241
0.000000 -0.077055 -0.487553 -0.058200 -0.046068 -0.997241
-0.041840 -0.077055 -0.487553 -0.038730 -0.825762 -0.562687
0.000000 -0.077055 -0.487553 -0.038730 -0.825762 -0.562687
0.000000 -0.111502 -0.439881 -0.038730 -0.825762 -0.562687
-0.041840 -0.110626 -0.435406 -0.038730 -0.825762 -0.562687
-0.041840 -0.077055 -0.487553 -0.698203 -0.629685 -0.340600
-0.041840 -0.110626 -0.435406 -0.698203 -0.629685 -0.340600
-0.065085 -0.092898 -0.410612 -0.698203 -0.629685 -0.340600
-0.073220 -0.066797 -0.452109 -0.698203 -0.629685 -0.340600
-0.041840 -0.077055 -0.487553 -0.798083 0.114173 -0.591632
-0.073220 -0.066797 -0.452109 -0.798083 0.114173 -0.591632
-0.065085 -0.027764 -0.446685 -0.798083 0.114173 -0.591632
-0.041840 -0.029777 -0.487295 -0.798083 0.114173 -0.591632
-0.041840 -0.008360 0.591052 -0.373447 -0.924683 0.074153
-0.073220 0.004510 0.591052 -0.373447 -0.924683 0.074153
-0.073220 -0.005213 0.472263 -0.373447 -0.924683 0.074153
-0.041840 -0.017689 0.472263 -0.373447 -0.924683 0.074153
-0.041840 -0.008360 0.591052 -0.000000 -0.996930 0.078293
-0.041840 -0.017689 0.472263 -0.000000 -0.996930 0.078293
0.000000 -0.017689 0.472263 -0.000000 -0.996930 0.078293
0.000000 -0.008360 0.591052 -0.000000 -0.996930 0.078293
-0.041840 -0.008360 0.591052 -0.000000 -0.934106 0.356995
-0.041840 0.012480 0.645580 -0.000000 -0.934106 0.356995
-0.041840 -0.008360 0.591052 -0.420286 -0.831452 0.363383
-0.041840 0.012480 0.645580 -0.420286 -0.831452 0.363383
-0.065085 0.021043 0.631443 -0.420286 -0.831452 0.363383
-0.073220 0.004510 0.591052 -0.420286 -0.831452 0.363383
-0.041840 0.079860 0.261305 0.029261 0.999433 -0.016643
0.000000 0.079860 0.261305 0.029261 0.999433 -0.016643
0.000000 0.074707 0.025456 0.029261 0.999433 -0.016643
-0.041840 0.077236 0.030222 0.029261 0.999433 -0.016643
-0.041840 0.079860 0.261305 -0.367924 0.929832 -0.006664
-0.041840 0.077236 0.030222 -0.367924 0.929832 -0.006664
-0.073220 0.065843 0.038056 -0.367924 0.929832 -0.006664
-0.073220 0.066476 0.261305 -0.367924 0.929832 -0.006664
-0.041840 0.079860 0.261305 -0.380944 0.924521 -0.011903
-0.073220 0.066476 0.261305 -0.380944 0.924521 -0.011903
-0.073220 0.069646 0.472263 -0.380944 0.924521 -0.011903
-0.041840 0.082122 0.472263 -0.380944 0.924521 -0.011903
-0.041840 0.079860 0.261305 0.000000 0.999943 -0.010724
-0.041840 0.082122 0.472263 0.000000 0.999943 -0.010724
-0.041840 0.056533 0.663757 -0.555793 0.428521 0.712365
-0.041840 0.093880 0.645580 -0.555793 0.428521 0.712365
-0.065085 0.080101 0.631443 -0.555793 0.428521 0.712365
-0.073220 0.053180 0.645580 -0.555793 0.428521 0.712365
-0.041840 0.056533 0.663757 -0.497070 -0.383244 0.778489
-0.073220 0.053180 0.645580 -0.497070 -0.383244 0.778489
-0.065085 0.021043 0.631443 -0.497070 -0.383244 0.778489
-0.041840 0.012480 0.645580 -0.497070 -0.383244 0.778489
-0.041840 0.056533 0.663757 0.000000 -0.381408 0.924407
-0.041840 0.012480 0.645580 0.000000 -0.381408 0.924407
-0.041840 0.056533 0.663757 -0.000000 0.437607 0.899167
-0.041840 0.093880 0.645580 -0.000000 0.437607 0.899167
-0.083680 0.026325 0.261305 -0.970692 0.240309 -0.002943
-0.073220 0.066476 0.261305 -0.970692 0.240309 -0.002943
-0.073220 0.065843 0.038056 -0.970692 0.240309 -0.002943
-0.083680 0.021545 0.042491 -0.970692 0.240309 -0.002943
-0.083680 0.026325 0.261305 -0.971722 -0.235980 0.008306
-0.083680 0.021545 0.042491 -0.971722 -0.235980 0.008306
-0.073220 -0.024456 0.042305 -0.971722 -0.235980 0.008306
-0.073220 -0.013826 0.261305 -0.971722 -0.235980 0.008306
-0.083680 0.026325 0.261305 -0.965473 -0.260348 0.008951
-0.073220 -0.013826 0.261305 -0.965473 -0.260348 0.008951
-0.073220 -0.005213 0.472263 -0.965473 -0.260348 0.008951
-0.083680 0.032217 0.472263 -0.965473 -0.260348 0.008951
-0.083680 0.026325 0.261305 -0.965497 0.260354 -0.005592
-0.083680 0.032217 0.472263 -0.965497 0.260354 -0.005592
-0.073220 0.069646 0.472263 -0.965497 0.260354 -0.005592
-0.073220 0.066476 0.261305 -0.965497 0.260354 -0.005592
-0.083680 0.013975 -0.099868 -0.979204 0.200923 -0.028094
-0.073220 0.061366 -0.117608 -0.979204 0.200923 -0.028094
-0.073220 0.044874 -0.243458 -0.979204 0.200923 -0.028094
-0.083680 -0.003007 -0.213411 -0.979204 0.200923 -0.028094
-0.083680 0.013975 -0.099868 -0.982696 -0.182635 0.030864
-0.083680 -0.003007 -0.213411 -0.982696 -0.182635 0.030864
-0.073220 -0.061103 -0.211090 -0.982696 -0.182635 0.030864
-0.073220 -0.040227 -0.100612 -0.982696 -0.182635 0.030864
-0.083680 0.013975 -0.099868 -0.978725 -0.204493 0.016731
-0.073220 -0.040227 -0.100612 -0.978725 -0.204493 0.016731
-0.073220 -0.024456 0.042305 -0.978725 -0.204493 0.016731
-0.083680 0.021545 0.042491 -0.978725 -0.204493 0.016731
-0.083680 0.013975 -0.099868 -0.975372 0.220388 -0.008908
-0.083680 0.021545 0.042491 -0.975372 0.220388 -0.008908
-0.073220 0.065843 0.038056 -0.975372 0.220388 -0.008908
-0.073220 0.061366 -0.117608 -0.975372 0.220388 -0.008908
-0.041840 -0.108729 -0.352301 -0.579729 -0.814749 0.009900
-0.073220 -0.087051 -0.332770 -0.579729 -0.814749 0.009900
-0.065085 -0.092898 -0.410612 -0.579729 -0.814749 0.009900
-0.041840 -0.110626 -0.435406 -0.579729 -0.814749 0.009900
-0.041840 -0.108729 -0.352301 -0.050208 -0.998710 0.007625
-0.041840 -0.110626 -0.435406 -0.050208 -0.998710 0.007625
0.000000 -0.111502 -0.439881 -0.050208 -0.998710 0.007625
0.000000 -0.112232 -0.370201 -0.050208 -0.998710 0.007625
-0.041840 -0.108729 -0.352301 0.002481 -0.980505 0.196478
0.000000 -0.112232 -0.370201 0.002481 -0.980505 0.196478
0.000000 -0.092726 -0.272965 0.002481 -0.980505 0.196478
-0.041840 -0.087473 -0.246115 0.002481 -0.980505 0.196478
-0.041840 -0.108729 -0.352301 -0.497385 -0.849493 0.175979
-0.041840 -0.087473 -0.246115 -0.497385 -0.849493 0.175979
-0.073220 -0.061103 -0.211090 -0.497385 -0.849493 0.175979
-0.073220 -0.087051 -0.332770 -0.497385 -0.849493 0.175979
-0.041840 0.009446 -0.413186 0.000378 0.883898 -0.467680
0.000000 -0.000671 -0.432253 0.000378 0.883898 -0.467680
0.000000 -0.032306 -0.492062 0.000378 0.883898 -0.467680
-0.041840 -0.029777 -0.487295 0.000378 0.883898 -0.467680
-0.041840 0.009446 -0.413186 -0.562275 0.719008 -0.408503
-0.041840 -0.029777 -0.487295 -0.562275 0.719008 -0.408503
-0.065085 -0.027764 -0.446685 -0.562275 0.719008 -0.408503
-0.073220 0.008196 -0.377267 -0.562275 0.719008 -0.408503
-0.041840 0.009446 -0.413186 -0.284970 0.926415 -0.246064
-0.073220 0.008196 -0.377267 -0.284970 0.926415 -0.246064
-0.073220 0.044874 -0.243458 -0.284970 0.926415 -0.246064
-0.041840 0.040600 -0.291608 -0.284970 0.926415 -0.246064
-0.041840 0.009446 -0.413186 0.156055 0.959362 -0.235097
-0.041840 0.040600 -0.291608 0.156055 0.959362 -0.235097
0.000000 0.025425 -0.320209 0.156055 0.959362 -0.235097
0.000000 -0.000671 -0.432253 0.156055 0.959362 -0.235097
-0.083680 -0.036022 -0.345777 -0.972234 0.165305 -0.165637
-0.073220 0.008196 -0.377267 -0.972234 0.165305 -0.165637
-0.065085 -0.027764 -0.446685 -0.972234 0.165305 -0.165637
-0.073220 -0.066797 -0.452109 -0.972234 0.165305 -0.165637
-0.083680 -0.036022 -0.345777 -0.963496 -0.263949 -0.044797
-0.073220 -0.066797 -0.452109 -0.963496 -0.263949 -0.044797
-0.065085 -0.092898 -0.410612 -0.963496 -0.263949 -0.044797
-0.073220 -0.087051 -0.332770 -0.963496 -0.263949 -0.044797
-0.083680 -0.036022 -0.345777 -0.982318 -0.182374 0.042328
-0.073220 -0.087051 -0.332770 -0.982318 -0.182374 0.042328
-0.073220 -0.061103 -0.211090 -0.982318 -0.182374 0.042328
-0.083680 -0.003007 -0.213411 -0.982318 -0.182374 0.042328
-0.083680 -0.036022 -0.345777 -0.980611 0.189576 -0.049638
-0.083680 -0.003007 -0.213411 -0.980611 0.189576 -0.049638
-0.073220 0.044874 -0.243458 -0.980611 0.189576 -0.049638
-0.073220 0.008196 -0.377267 -0.980611 0.189576 -0.049638
4 0 1 2 3
4 4 5 6 7
4 8 9 10 11
4 12 13 14 15
4 16 17 18 19
4 20 21 22 23
4 24 25 26 27
4 28 29 30 31
4 32 33 34 35
4 36 37 38 39
4 40 41 42 43
4 44 45 46 47
4 48 49 50 51
4 52 53 54 55
4 56 57 58 59
4 60 61 62 63
4 64 65 66 67
4 68 69 70 71
4 72 73 74 75
4 76 77 78 79
4 80 81 82 83
4 84 85 86 87
4 88 89 90 91
4 92 93 94 95
4 96 97 98 99
4 100 101 102 103
4 104 105 106 107
4 108 109 110 111
4 112 113 114 115
4 116 117 118 119
4 120 121 122 123
4 124 125 126 127
4 128 129 130 131
4 132 133 134 135
4 136 137 138 139
4 140 141 142 143
4 144 145 146 147
4 148 149 150 151
4 152 153 154 155
4 156 157 158 159
4 160 161 162 163
4 164 165 166 167
4 168 169 170 171
4 172 173 174 175
4 176 177 178 179
4 180 181 182 183
4 184 185 186 187
4 188 189 190 191
4 192 193 194 195
4 196 197 198 199
4 200 201 202 203
4 204 205 206 207
4 208 209 210 211
4 212 213 214 215
4 216 217 218 219
4 220 221 222 223
4 224 225 226 227
4 228 229 230 231
4 232 233 234 235
4 236 237 238 239
4 240 241 242 243
4 244 245 246 247
4 248 249 250 251
4 252 253 254 255
4 256 257 258 259
4 260 261 262 263
4 264 265 266 267
4 268 269 270 271
4 272 51 50 273
4 274 275 276 277
4 278 279 280 281
4 282 283 54 53
4 284 285 286 287
4 288 289 290 291
4 292 75 74 293
4 294 295 296 297
4 298 299 300 301
4 302 303 304 305
4 306 307 308 309
4 310 311 312 313
4 314 315 316 317
4 318 319 320 321
4 322 107 106 323
4 324 325 326 327
4 328 329 330 331
4 332 333 334 335
4 336 337 338 339
4 340 341 118 117
4 342 343 344 345
4 346 347 348 349
4 350 351 138 137
4 352 135 134 353
4 354 355 356 357
4 358 359 360 361
4 362 363 364 365
4 366 367 368 369
4 370 371 372 373
4 374 375 376 377
4 378 379 380 381
4 382 383 384 385
4 386 387 388 389
4 390 391 392 393
4 394 395 396 397
4 398 399 400 401
4 402 403 404 405
4 406 407 408 409
4 410 411 412 413
4 414 415 416 417
4 418 419 420 421
4 422 423 424 425
4 426 427 428 429
4 430 431 432 433
