ply
format ascii 1.0
comment Created by Blender 2.70 (sub 0) - www.blender.org, source file: 'Hexapod Version 4.blend'
element vertex 274
property float x
property float y
property float z
property float nx
property float ny
property float nz
property float s
property float t
element face 152
property list uchar uint vertex_indices
end_header
-0.043368 -0.059837 0.729432 -0.992492 -0.022095 0.120121 0.223424 0.962594
-0.032526 -0.091831 0.723574 -0.701834 -0.712272 -0.007630 0.171197 0.940331
-0.024950 -0.089104 0.750745 -0.598132 -0.684408 0.416852 0.197126 0.904865
-0.034454 -0.066215 0.764271 -0.736229 -0.121860 0.665639 0.233766 0.911960
-0.024950 -0.040019 0.759732 -0.598132 0.492325 0.632313 0.270253 0.919801
-0.032526 -0.027842 0.735289 -0.701926 0.668599 0.245399 0.280198 0.962594
-0.043368 -0.059837 0.729432 -0.992492 -0.022095 0.120121 0.669143 0.761357
-0.032526 -0.027842 0.735289 -0.701926 0.668599 0.245399 0.669142 0.709514
-0.030357 -0.019901 0.679794 -0.706626 0.701407 0.093051 0.754595 0.711171
-0.040476 -0.049805 0.674636 -0.999451 0.005615 -0.032258 0.754353 0.760347
-0.030357 -0.079709 0.669477 -0.706351 -0.689047 -0.161962 0.755052 0.809518
-0.032526 -0.091831 0.723574 -0.701834 -0.712272 -0.007630 0.670341 0.813235
-0.000000 -0.017177 0.737242 0.000000 0.954253 0.298929 0.331067 0.937542
-0.000000 -0.032324 0.770476 0.000000 0.602313 0.798242 0.298755 0.886536
-0.000000 -0.017177 0.737242 0.000000 0.954253 0.298929 0.916126 0.083363
-0.000000 -0.032324 0.770476 0.000000 0.602313 0.798242 0.866400 0.117613
0.024950 -0.040019 0.759732 0.598132 0.492325 0.632313 0.853226 0.075836
0.032526 -0.027842 0.735289 0.701926 0.668599 0.245399 0.879154 0.040370
-0.000000 -0.017177 0.737242 0.000000 0.954253 0.298929 0.926401 0.317262
0.032526 -0.027842 0.735289 0.701926 0.668599 0.245399 0.874758 0.319301
0.030357 -0.019901 0.679794 0.706626 0.701407 0.093051 0.873101 0.233849
-0.000000 -0.009933 0.681514 0.000000 0.989013 0.147679 0.921919 0.232462
-0.000000 -0.017177 0.737242 0.000000 0.954253 0.298929 0.671182 0.657871
-0.000000 -0.009933 0.681514 0.000000 0.989013 0.147679 0.755981 0.662353
0.043368 -0.059837 0.729432 0.992492 -0.022095 0.120121 0.826928 0.018107
0.034454 -0.066215 0.764271 0.736229 -0.121860 0.665639 0.816586 0.068741
0.024950 -0.089104 0.750745 0.598132 -0.684408 0.416852 0.780098 0.060900
0.032526 -0.091831 0.723574 0.701834 -0.712272 -0.007630 0.770154 0.018107
0.043368 -0.059837 0.729432 0.992492 -0.022095 0.120121 0.822915 0.319301
0.032526 -0.091831 0.723574 0.701834 -0.712272 -0.007630 0.771037 0.318102
0.030357 -0.079709 0.669477 0.706351 -0.689047 -0.161962 0.774754 0.233391
0.040476 -0.049805 0.674636 0.999451 0.005615 -0.032258 0.823925 0.234090
0.000000 -0.102496 0.721622 0.000000 -0.998260 -0.058840 0.719284 0.043159
0.000000 -0.100106 0.758066 0.000000 -0.846034 0.533067 0.751597 0.094165
0.000000 -0.102496 0.721622 0.000000 -0.998260 -0.058840 0.134225 0.897338
0.000000 -0.100106 0.758066 0.000000 -0.846034 0.533067 0.183951 0.863088
0.000000 -0.102496 0.721622 0.000000 -0.998260 -0.058840 0.673708 0.864988
0.000000 -0.089677 0.667757 0.000000 -0.977050 -0.212867 0.757418 0.858385
0.000000 -0.102496 0.721622 0.000000 -0.998260 -0.058840 0.719284 0.314736
0.000000 -0.089677 0.667757 0.000000 -0.977050 -0.212867 0.725887 0.231026
-0.000000 -0.075814 0.597679 0.000000 -0.985015 -0.172338 0.730719 0.122802
0.029634 -0.066040 0.599047 0.709372 -0.693655 -0.124729 0.777931 0.123967
-0.000000 -0.075814 0.597679 0.000000 -0.985015 -0.172338 0.865642 0.853553
-0.029634 -0.066040 0.599047 -0.709372 -0.693655 -0.124729 0.864477 0.806340
-0.000000 -0.075814 0.597679 0.000000 -0.985015 -0.172338 0.182241 0.557990
-0.029634 -0.066040 0.599047 -0.709372 -0.693655 -0.124729 0.181442 0.510352
-0.029232 -0.052477 0.508982 -0.710501 -0.697317 -0.094272 0.320489 0.508109
-0.000000 -0.062165 0.507994 0.000000 -0.991607 -0.129063 0.320590 0.555147
-0.000000 -0.075814 0.597679 0.000000 -0.985015 -0.172338 0.361273 0.317578
-0.000000 -0.062165 0.507994 0.000000 -0.991607 -0.129063 0.364337 0.179233
0.029232 -0.052477 0.508982 0.710501 -0.697317 -0.094272 0.411374 0.179409
0.029634 -0.066040 0.599047 0.709372 -0.693655 -0.124729 0.408910 0.318452
0.000000 -0.068341 0.775884 0.000000 -0.180059 0.983642 0.806264 0.119276
0.000000 -0.068341 0.775884 0.000000 -0.180059 0.983642 0.244087 0.861426
-0.000000 -0.049984 0.395309 0.000000 -0.995636 -0.093265 0.364690 0.006403
0.028025 -0.040670 0.395981 0.708945 -0.701682 -0.070742 0.409600 0.005965
-0.000000 -0.049984 0.395309 0.000000 -0.995636 -0.093265 0.493421 0.555068
-0.028025 -0.040670 0.395981 -0.708945 -0.701682 -0.070742 0.493931 0.510159
-0.000000 -0.049984 0.395309 0.000000 -0.995636 -0.093265 0.360538 0.365575
-0.028025 -0.040670 0.395981 -0.708945 -0.701682 -0.070742 0.315665 0.366285
-0.026742 -0.031461 0.274304 -0.708518 -0.703909 -0.049806 0.314290 0.180150
-0.000000 -0.040361 0.273848 0.000000 -0.997864 -0.065249 0.357293 0.180046
-0.000000 -0.049984 0.395309 0.000000 -0.995636 -0.093265 0.000368 0.365577
-0.000000 -0.040361 0.273848 0.000000 -0.997864 -0.065249 0.003613 0.180046
0.026742 -0.031461 0.274304 0.708518 -0.703909 -0.049806 0.046616 0.180150
0.028025 -0.040670 0.395981 0.708945 -0.701682 -0.070742 0.045241 0.366286
0.039512 -0.036718 0.603151 0.999939 0.004975 -0.008820 0.825220 0.122962
0.029634 -0.007396 0.607255 0.704367 0.701987 0.105045 0.872473 0.121255
0.039512 -0.036718 0.603151 0.999939 0.004975 -0.008820 0.456369 0.318926
0.038976 -0.023413 0.511948 0.999939 0.006104 -0.009186 0.458315 0.178606
0.029232 0.005651 0.514914 0.703421 0.706870 0.074099 0.505051 0.177459
0.029634 -0.007396 0.607255 0.704367 0.701987 0.105045 0.503996 0.319225
-0.000000 0.002379 0.608624 0.000000 0.988281 0.152501 0.868432 0.664294
-0.029634 -0.007396 0.607255 -0.704367 0.701987 0.105045 0.867188 0.711799
-0.000000 0.002379 0.608624 0.000000 0.988281 0.152501 0.919978 0.120011
-0.000000 0.002379 0.608624 0.000000 0.988281 0.152501 0.551883 0.319301
-0.000000 0.015339 0.515903 0.000000 0.994018 0.108951 0.551883 0.176388
-0.000000 0.002379 0.608624 0.000000 0.988281 0.152501 0.180821 0.367378
-0.000000 0.015339 0.515903 0.000000 0.994018 0.108951 0.323733 0.367606
-0.029232 0.005651 0.514914 -0.703421 0.706870 0.074099 0.322588 0.414435
-0.029634 -0.007396 0.607255 -0.704367 0.701987 0.105045 0.180821 0.415264
-0.039512 -0.036718 0.603151 -0.999939 0.004975 -0.008820 0.865481 0.759052
-0.039512 -0.036718 0.603151 -0.999939 0.004975 -0.008820 0.181044 0.462892
-0.038976 -0.023413 0.511948 -0.999939 0.006104 -0.009186 0.321367 0.461169
-0.000000 -0.034384 0.157833 0.000000 -0.998901 -0.046205 0.003041 0.003033
0.026110 -0.025689 0.158215 0.707450 -0.705893 -0.034425 0.044979 0.002797
-0.000000 -0.034384 0.157833 0.000000 -0.998901 -0.046205 0.357864 0.003032
-0.026110 -0.025689 0.158215 -0.707450 -0.705893 -0.034425 0.315926 0.002796
-0.000000 -0.034384 0.157833 0.000000 -0.998901 -0.046205 0.168102 0.682788
-0.026110 -0.025689 0.158215 -0.707450 -0.705893 -0.034425 0.126134 0.682820
-0.025881 -0.021333 0.050037 -0.705802 -0.707602 -0.033174 0.126549 0.517892
-0.000000 -0.029931 0.049493 0.000000 -0.998932 -0.046022 0.168102 0.517562
-0.000000 -0.034384 0.157833 0.000000 -0.998901 -0.046205 0.500675 0.682786
-0.000000 -0.029931 0.049493 0.000000 -0.998932 -0.046022 0.500478 0.517563
0.025881 -0.021333 0.050037 0.705802 -0.707602 -0.033174 0.542031 0.517843
0.026110 -0.025689 0.158215 0.707450 -0.705893 -0.034425 0.542642 0.682769
0.037367 -0.012727 0.397996 0.999878 0.003876 -0.013703 0.454639 0.004290
0.028025 0.015216 0.400011 0.704947 0.708029 0.041475 0.499843 0.002280
0.037367 -0.012727 0.397996 0.999878 0.003876 -0.013703 0.090109 0.366644
0.035656 -0.004758 0.275674 0.999939 0.002686 -0.010437 0.089655 0.179753
0.026742 0.021944 0.277043 0.705527 0.708121 0.027558 0.132639 0.179072
0.028025 0.015216 0.400011 0.704947 0.708029 0.041475 0.135063 0.366644
-0.000000 0.024530 0.400683 0.000000 0.997833 0.065340 0.499743 0.374944
-0.028025 0.015216 0.400011 -0.704947 0.708029 0.041475 0.497759 0.419922
-0.000000 0.024530 0.400683 0.000000 0.997833 0.065340 0.544824 0.000368
-0.000000 0.024530 0.400683 0.000000 0.997833 0.065340 0.180086 0.365860
-0.000000 0.030845 0.277499 0.000000 0.999023 0.044130 0.175567 0.178057
-0.000000 0.024530 0.400683 0.000000 0.997833 0.065340 0.180821 0.365859
-0.000000 0.030845 0.277499 0.000000 0.999023 0.044130 0.185338 0.178057
-0.026742 0.021944 0.277043 -0.705527 0.708121 0.027558 0.228267 0.179072
-0.028025 0.015216 0.400011 -0.704947 0.708029 0.041475 0.225844 0.366643
-0.037367 -0.012727 0.397996 -0.999878 0.003876 -0.013703 0.495677 0.465123
-0.037367 -0.012727 0.397996 -0.999878 0.003876 -0.013703 0.270797 0.366643
-0.035656 -0.004758 0.275674 -0.999939 0.002686 -0.010437 0.271251 0.179753
-0.000000 -0.024882 -0.048945 0.000000 -0.997192 -0.074618 0.501032 0.367378
0.025804 -0.016371 -0.047903 0.703604 -0.708457 -0.054415 0.542450 0.368452
-0.000000 -0.024882 -0.048945 0.000000 -0.997192 -0.074618 0.167368 0.367379
-0.025804 -0.016371 -0.047903 -0.703604 -0.708457 -0.054415 0.125952 0.368503
-0.000000 -0.024882 -0.048945 0.000000 -0.997192 -0.074618 0.835108 0.655903
-0.025804 -0.016371 -0.047903 -0.703604 -0.708457 -0.054415 0.793323 0.656140
-0.025229 -0.007410 -0.141132 -0.701895 -0.704703 -0.103458 0.794793 0.513870
-0.000000 -0.015690 -0.142481 0.000000 -0.990448 -0.137822 0.835108 0.512394
-0.000000 -0.024882 -0.048945 0.000000 -0.997192 -0.074618 0.552618 0.315709
-0.000000 -0.015690 -0.142481 0.000000 -0.990448 -0.137822 0.555338 0.172222
0.025229 -0.007410 -0.141132 0.701895 -0.704703 -0.103458 0.595617 0.174461
0.025804 -0.016371 -0.047903 0.703604 -0.708457 -0.054415 0.594392 0.316736
0.034814 0.000396 0.159360 0.999969 0.000885 -0.005036 0.086804 0.002234
0.026110 0.026481 0.160505 0.706473 0.707327 0.023530 0.128702 0.001442
0.034814 0.000396 0.159360 0.999969 0.000885 -0.005036 0.584572 0.682786
0.034508 0.004462 0.051671 0.999969 -0.000946 -0.002075 0.583543 0.518550
0.025881 0.030256 0.053304 0.707327 0.706290 0.027894 0.625090 0.519198
0.026110 0.026481 0.160505 0.706473 0.707327 0.023530 0.626467 0.682742
-0.000000 0.035176 0.160887 0.000000 0.999359 0.035737 0.190255 0.000368
-0.026110 0.026481 0.160505 -0.706473 0.707327 0.023530 0.232203 0.001442
-0.000000 0.035176 0.160887 0.000000 0.999359 0.035737 0.170649 0.000368
-0.000000 0.035176 0.160887 0.000000 0.999359 0.035737 0.668407 0.682424
-0.000000 0.038855 0.053849 0.000000 0.999176 0.040315 0.666678 0.519223
-0.000000 0.035176 0.160887 0.000000 0.999359 0.035737 0.000368 0.682624
-0.000000 0.038855 0.053849 0.000000 0.999176 0.040315 0.001904 0.519420
-0.025881 0.030256 0.053304 -0.707327 0.706290 0.027894 0.043492 0.519345
-0.026110 0.026481 0.160505 -0.706473 0.707327 0.023530 0.042308 0.682892
-0.034814 0.000396 0.159360 -0.999969 0.000885 -0.005036 0.274100 0.002233
-0.034814 0.000396 0.159360 -0.999969 0.000885 -0.005036 0.084204 0.682887
-0.034508 0.004462 0.051671 -0.999969 -0.000946 -0.002075 0.085038 0.518648
-0.000000 0.001193 -0.236115 0.000000 -0.987701 -0.156285 0.566580 0.027396
0.023504 0.008941 -0.235172 0.709159 -0.694906 -0.118992 0.604559 0.029720
-0.000000 0.001193 -0.236115 0.000000 -0.987701 -0.156285 0.826612 0.367378
-0.023504 0.008941 -0.235172 -0.709159 -0.694906 -0.118992 0.788595 0.368982
-0.000000 0.001193 -0.236115 0.000000 -0.987701 -0.156285 0.499743 0.856839
-0.023504 0.008941 -0.235172 -0.709159 -0.694906 -0.118992 0.462060 0.858669
-0.021567 0.021210 -0.330142 -0.718131 -0.694418 -0.044862 0.457283 0.711922
-0.000000 0.014045 -0.330450 0.000000 -0.998596 -0.052675 0.492053 0.712013
-0.000000 0.001193 -0.236115 0.000000 -0.987701 -0.156285 0.180821 0.853097
-0.000000 0.014045 -0.330450 0.000000 -0.998596 -0.052675 0.192540 0.708536
0.021567 0.021210 -0.330142 0.718131 -0.694418 -0.044862 0.227298 0.709413
0.023504 0.008941 -0.235172 0.709159 -0.694906 -0.118992 0.218440 0.855975
0.034406 0.009165 -0.044778 0.999969 -0.003479 -0.004791 0.583709 0.371373
0.025804 0.034700 -0.041652 0.709098 0.703757 0.043123 0.624935 0.374266
0.034406 0.009165 -0.044778 0.999969 -0.003479 -0.004791 0.635807 0.318137
0.033639 0.017431 -0.137083 0.999847 -0.004212 -0.016480 0.635776 0.177074
0.025229 0.042271 -0.133034 0.710746 0.700125 0.068087 0.676165 0.179295
0.025804 0.034700 -0.041652 0.709098 0.703757 0.043123 0.677051 0.319297
-0.000000 0.043212 -0.040610 0.000000 0.997986 0.063143 0.002097 0.375357
-0.025804 0.034700 -0.041652 -0.709098 0.703757 0.043123 0.043475 0.374415
-0.000000 0.043212 -0.040610 0.000000 0.997986 0.063143 0.666315 0.375160
-0.000000 0.043212 -0.040610 0.000000 0.997986 0.063143 0.718549 0.319301
-0.000000 0.050552 -0.131685 0.000000 0.994507 0.104587 0.716741 0.179872
-0.000000 0.043212 -0.040610 0.000000 0.997986 0.063143 0.669142 0.656354
-0.000000 0.050552 -0.131685 0.000000 0.994507 0.104587 0.673589 0.516986
-0.025229 0.042271 -0.133034 -0.710746 0.700125 0.068087 0.714168 0.517177
-0.025804 0.034700 -0.041652 -0.709098 0.703757 0.043123 0.710632 0.657136
-0.034406 0.009165 -0.044778 -0.999969 -0.003479 -0.004791 0.084697 0.371473
-0.034406 0.009165 -0.044778 -0.999969 -0.003479 -0.004791 0.751890 0.656756
-0.033639 0.017431 -0.137083 -0.999847 -0.004212 -0.016480 0.754593 0.515722
-0.000000 0.011144 -0.426088 0.000000 -0.997772 0.066317 0.188906 0.562855
0.020357 0.017924 -0.426160 0.711325 -0.701590 0.041444 0.221578 0.562244
-0.000000 0.011144 -0.426088 0.000000 -0.997772 0.066317 0.499743 0.566486
-0.020357 0.017924 -0.426160 -0.711325 -0.701590 0.041444 0.467099 0.564966
-0.000000 0.011144 -0.426088 0.000000 -0.997772 0.066317 0.130808 0.912383
-0.020357 0.017924 -0.426160 -0.711325 -0.701590 0.041444 0.098066 0.913315
-0.019721 0.008965 -0.511884 -0.704337 -0.707358 0.059450 0.099172 0.782092
-0.000000 0.002399 -0.511624 0.000000 -0.996185 0.087100 0.130808 0.781393
-0.000000 0.011144 -0.426088 0.000000 -0.997772 0.066317 0.500478 0.912219
-0.000000 0.002399 -0.511624 0.000000 -0.996185 0.087100 0.502702 0.781248
0.019721 0.008965 -0.511884 0.704337 -0.707358 0.059450 0.534322 0.782484
0.020357 0.017924 -0.426160 0.711325 -0.701590 0.041444 0.533199 0.913708
0.031339 0.032186 -0.232343 0.999664 0.007385 -0.024384 0.642254 0.030488
0.023504 0.055430 -0.229514 0.703116 0.707938 0.066530 0.679794 0.030698
0.031339 0.032186 -0.232343 0.999664 0.007385 -0.024384 0.255443 0.858299
0.028757 0.042705 -0.329219 0.999634 0.016694 -0.021119 0.262139 0.709848
0.021567 0.064200 -0.328296 0.695730 0.718284 0.000549 0.296640 0.709793
0.023504 0.055430 -0.229514 0.703116 0.707938 0.066530 0.292942 0.860149
-0.000000 0.063178 -0.228571 0.000000 0.994385 0.105747 0.675571 0.367931
-0.023504 0.055430 -0.229514 -0.703116 0.707938 0.066530 0.713353 0.368536
-0.000000 0.063178 -0.228571 0.000000 0.994385 0.105747 0.717579 0.030810
-0.000000 0.063178 -0.228571 0.000000 0.994385 0.105747 0.331067 0.860690
-0.000000 0.071365 -0.327989 0.000000 0.999908 0.011139 0.331067 0.708798
-0.000000 0.063178 -0.228571 0.000000 0.994385 0.105747 0.349347 0.860251
-0.000000 0.071365 -0.327989 0.000000 0.999908 0.011139 0.353572 0.708419
-0.021567 0.064200 -0.328296 -0.695730 0.718284 0.000549 0.387958 0.710372
-0.023504 0.055430 -0.229514 -0.703116 0.707938 0.066530 0.387472 0.860770
-0.031339 0.032186 -0.232343 -0.999664 0.007385 -0.024384 0.750892 0.369036
-0.031339 0.032186 -0.232343 -0.999664 0.007385 -0.024384 0.425007 0.859964
-0.028757 0.042705 -0.329219 -0.999634 0.016694 -0.021119 0.422444 0.711386
-0.000000 -0.002280 -0.575653 0.000000 -0.998108 0.061190 0.505680 0.683522
0.019509 0.004215 -0.575976 0.705100 -0.707816 0.042634 0.536976 0.684706
-0.000000 -0.002280 -0.575653 0.000000 -0.998108 0.061190 0.129488 0.683628
-0.019509 0.004215 -0.575976 -0.705100 -0.707816 0.042634 0.098176 0.684281
-0.000000 -0.002280 -0.575653 0.000000 -0.998108 0.061190 0.837928 0.491411
-0.019509 0.004215 -0.575976 -0.705100 -0.707816 0.042634 0.835843 0.456270
-0.019509 0.002053 -0.619508 -0.707083 -0.706229 0.035066 0.905541 0.452653
-0.000000 -0.004442 -0.619185 0.000000 -0.998749 0.049593 0.912409 0.486991
-0.000000 -0.002280 -0.575653 0.000000 -0.998108 0.061190 0.904558 0.657136
-0.000000 -0.004442 -0.619185 0.000000 -0.998749 0.049593 0.854745 0.601588
0.019509 0.002053 -0.619508 0.707083 -0.706229 0.035066 0.883786 0.582021
0.019509 0.004215 -0.575976 0.705100 -0.707816 0.042634 0.930766 0.633633
0.027142 0.038265 -0.426374 0.999878 0.006439 -0.014008 0.253788 0.561763
0.020357 0.058607 -0.426589 0.701193 0.709616 -0.068850 0.286396 0.560831
0.027142 0.038265 -0.426374 0.999878 0.006439 -0.014008 0.565690 0.916962
0.026295 0.028664 -0.512663 0.999969 -0.003632 -0.006500 0.565910 0.784595
0.019721 0.048363 -0.513443 0.708762 0.701590 -0.073336 0.597589 0.786553
0.020357 0.058607 -0.426589 0.701193 0.709616 -0.068850 0.598107 0.920039
-0.000000 0.065387 -0.426660 0.000000 0.995972 -0.089602 0.369449 0.558725
-0.020357 0.058607 -0.426589 -0.701193 0.709616 -0.068850 0.402345 0.561748
-0.000000 0.065387 -0.426660 0.000000 0.995972 -0.089602 0.319362 0.558725
-0.000000 0.065387 -0.426660 0.000000 0.995972 -0.089602 0.630793 0.920800
-0.000000 0.054930 -0.513703 0.000000 0.994934 -0.100497 0.629308 0.787220
-0.000000 0.065387 -0.426660 0.000000 0.995972 -0.089602 0.000368 0.918750
-0.000000 0.054930 -0.513703 0.000000 0.994934 -0.100497 0.004119 0.785216
-0.019721 0.048363 -0.513443 -0.708762 0.701590 -0.073336 0.035844 0.785087
-0.020357 0.058607 -0.426589 -0.701193 0.709616 -0.068850 0.033061 0.918543
-0.027142 0.038265 -0.426374 -0.999878 0.006439 -0.014008 0.434915 0.563588
-0.027142 0.038265 -0.426374 -0.999878 0.006439 -0.014008 0.065525 0.916017
-0.026295 0.028664 -0.512663 -0.999969 -0.003632 -0.006500 0.067553 0.783667
-0.000000 -0.005636 -0.643230 0.000000 -0.969604 -0.244575 0.835843 0.562711
0.019509 0.000858 -0.643552 0.677450 -0.690848 -0.252480 0.865201 0.555356
-0.000000 -0.005636 -0.643230 0.000000 -0.969604 -0.244575 0.953195 0.472666
-0.019509 0.000858 -0.643552 -0.677450 -0.690848 -0.252480 0.937510 0.446782
-0.014451 0.005516 -0.651748 -0.459883 -0.496994 -0.735862 0.950175 0.441843
-0.000000 0.000326 -0.654277 0.000000 -0.616810 -0.787072 0.968405 0.457010
-0.000000 0.000326 -0.654277 0.000000 -0.616810 -0.787072 0.836050 0.540884
0.014451 0.005516 -0.651748 0.459883 -0.496994 -0.735862 0.859678 0.542934
0.026012 0.023700 -0.576944 0.999969 -0.002838 -0.001953 0.568316 0.686330
0.019509 0.043185 -0.577912 0.708975 0.703665 -0.046907 0.599588 0.687863
0.026012 0.023700 -0.576944 0.999969 -0.002838 -0.001953 0.955091 0.609070
0.026012 0.021538 -0.620476 1.000000 0.000000 0.000000 0.906126 0.561952
0.019509 0.041023 -0.621444 0.707083 0.706229 -0.035066 0.925690 0.539064
0.019509 0.043185 -0.577912 0.708975 0.703665 -0.046907 0.978145 0.583725
-0.000000 0.049680 -0.578234 0.000000 0.997833 -0.065401 0.004304 0.686659
-0.019509 0.043185 -0.577911 -0.708975 0.703665 -0.046907 0.035518 0.686377
-0.000000 0.049680 -0.578234 0.000000 0.997833 -0.065401 0.630793 0.688673
-0.000000 0.049680 -0.578234 0.000000 0.997833 -0.065401 0.999632 0.557185
-0.000000 0.047518 -0.621766 0.000000 0.998749 -0.049593 0.943380 0.511643
-0.000000 0.049680 -0.578234 0.000000 0.997833 -0.065401 0.840702 0.353491
-0.000000 0.047518 -0.621766 0.000000 0.998749 -0.049593 0.912717 0.360712
-0.019509 0.041023 -0.621444 -0.707083 0.706229 -0.035066 0.905993 0.392643
-0.019509 0.043185 -0.577911 -0.708975 0.703665 -0.046907 0.837295 0.387469
-0.026012 0.023700 -0.576944 -0.999969 -0.002838 -0.001953 0.066812 0.685373
-0.026012 0.023700 -0.576944 -0.999969 -0.002838 -0.001953 0.835843 0.421700
-0.026012 0.021538 -0.620476 -1.000000 0.000000 0.000000 0.903789 0.422674
-0.000000 0.019633 -0.658820 0.000000 -0.049593 -0.998749 0.977735 0.422870
-0.019509 0.019811 -0.655245 -0.577013 -0.040498 -0.815699 0.948622 0.422983
-0.014451 0.034382 -0.653181 -0.459883 0.421613 -0.781487 0.950092 0.404182
-0.000000 0.039296 -0.656213 0.000000 0.535783 -0.844325 0.968305 0.388320
-0.000000 0.019633 -0.658820 0.000000 -0.049593 -0.998749 0.853444 0.510059
-0.000000 0.039296 -0.656213 0.000000 0.535783 -0.844325 0.884457 0.492146
0.014451 0.034382 -0.653181 0.459883 0.421613 -0.781487 0.886237 0.516232
0.019509 0.019811 -0.655245 0.577013 -0.040498 -0.815699 0.874052 0.530626
0.026012 0.020343 -0.644520 0.956298 -0.014496 -0.292001 0.884242 0.540744
0.019509 0.039828 -0.645487 0.677450 0.662404 -0.319681 0.898427 0.521875
-0.000000 0.046323 -0.645810 0.000000 0.940611 -0.339427 0.952225 0.372396
-0.019509 0.039828 -0.645488 -0.677450 0.662404 -0.319681 0.937460 0.399614
-0.000000 0.046323 -0.645810 0.000000 0.940611 -0.339427 0.907087 0.492146
-0.026012 0.020343 -0.644520 -0.956298 -0.014496 -0.292001 0.934262 0.423002
4 0 1 2 3
4 0 3 4 5
4 6 7 8 9
4 6 9 10 11
4 12 5 4 13
4 14 15 16 17
4 18 19 20 21
4 22 23 8 7
4 24 17 16 25
4 24 25 26 27
4 28 29 30 31
4 28 31 20 19
4 32 27 26 33
4 34 35 2 1
4 36 11 10 37
4 38 39 30 29
4 40 41 30 39
4 42 37 10 43
4 44 45 46 47
4 48 49 50 51
4 52 33 26 25
4 52 25 16 15
4 53 13 4 3
4 53 3 2 35
4 54 55 50 49
4 56 47 46 57
4 58 59 60 61
4 62 63 64 65
4 66 67 20 31
4 66 31 30 41
4 68 51 50 69
4 68 69 70 71
4 72 73 8 23
4 74 21 20 67
4 75 71 70 76
4 77 78 79 80
4 81 43 10 9
4 81 9 8 73
4 82 80 79 83
4 82 83 46 45
4 84 85 64 63
4 86 61 60 87
4 88 89 90 91
4 92 93 94 95
4 96 97 70 69
4 96 69 50 55
4 98 65 64 99
4 98 99 100 101
4 102 103 79 78
4 104 76 70 97
4 105 101 100 106
4 107 108 109 110
4 111 57 46 83
4 111 83 79 103
4 112 110 109 113
4 112 113 60 59
4 114 115 94 93
4 116 91 90 117
4 118 119 120 121
4 122 123 124 125
4 126 127 100 99
4 126 99 64 85
4 128 95 94 129
4 128 129 130 131
4 132 133 109 108
4 134 106 100 127
4 135 131 130 136
4 137 138 139 140
4 141 87 60 113
4 141 113 109 133
4 142 140 139 143
4 142 143 90 89
4 144 145 124 123
4 146 121 120 147
4 148 149 150 151
4 152 153 154 155
4 156 157 130 129
4 156 129 94 115
4 158 125 124 159
4 158 159 160 161
4 162 163 139 138
4 164 136 130 157
4 165 161 160 166
4 167 168 169 170
4 171 117 90 143
4 171 143 139 163
4 172 170 169 173
4 172 173 120 119
4 174 175 154 153
4 176 151 150 177
4 178 179 180 181
4 182 183 184 185
4 186 187 160 159
4 186 159 124 145
4 188 155 154 189
4 188 189 190 191
4 192 193 169 168
4 194 166 160 187
4 195 191 190 196
4 197 198 199 200
4 201 147 120 173
4 201 173 169 193
4 202 200 199 203
4 202 203 150 149
4 204 205 184 183
4 206 181 180 207
4 208 209 210 211
4 212 213 214 215
4 216 217 190 189
4 216 189 154 175
4 218 185 184 219
4 218 219 220 221
4 222 223 199 198
4 224 196 190 217
4 225 221 220 226
4 227 228 229 230
4 231 177 150 203
4 231 203 199 223
4 232 230 229 233
4 232 233 180 179
4 234 235 214 213
4 236 211 210 237
4 236 237 238 239
4 234 240 241 235
4 242 243 220 219
4 242 219 184 205
4 244 215 214 245
4 244 245 246 247
4 248 249 229 228
4 250 226 220 243
4 251 247 246 252
4 253 254 255 256
4 257 207 180 233
4 257 233 229 249
4 258 256 255 259
4 258 259 210 209
4 260 239 238 261
4 260 261 262 263
4 264 265 266 267
4 264 267 241 240
4 268 269 246 245
4 268 245 214 235
4 268 235 241 267
4 268 267 266 269
4 270 271 255 254
4 272 252 246 269
4 272 269 266 265
4 270 263 262 271
4 273 237 210 259
4 273 259 255 271
4 273 271 262 261
4 273 261 238 237
