ply
format ascii 1.0
comment Created by Blender 2.70 (sub 0) - www.blender.org, source file: 'Hexapod Version 4.blend'
element vertex 324
property float x
property float y
property float z
property float nx
property float ny
property float nz
element face 88
property list uchar uint vertex_indices
end_header
0.035614 0.035719 -0.217184 0.000000 0.898547 -0.438878
0.000000 0.035719 -0.217184 0.000000 0.898547 -0.438878
0.000000 0.081699 -0.123046 0.000000 0.898547 -0.438878
0.042195 0.081699 -0.123046 0.000000 0.898547 -0.438878
0.035614 0.035719 -0.217184 0.650817 0.666641 -0.363355
0.042195 0.081699 -0.123046 0.650817 0.666641 -0.363355
0.074867 0.054344 -0.112706 0.650817 0.666641 -0.363355
0.062825 0.014507 -0.209371 0.650817 0.666641 -0.363355
0.035614 0.035719 -0.217184 0.663444 0.565106 -0.490405
0.062825 0.014507 -0.209371 0.663444 0.565106 -0.490405
0.048885 -0.019113 -0.262415 0.663444 0.565106 -0.490405
0.029118 -0.013075 -0.286755 0.663444 0.565106 -0.490405
0.035614 0.035719 -0.217184 0.000000 0.818712 -0.574205
0.029118 -0.013075 -0.286755 0.000000 0.818712 -0.574205
0.000000 -0.013075 -0.286755 0.000000 0.818712 -0.574205
0.000000 0.035719 -0.217184 0.000000 0.818712 -0.574205
0.073227 -0.049129 -0.185934 0.981320 0.100533 -0.164026
0.062825 0.014507 -0.209371 0.981320 0.100533 -0.164026
0.074867 0.054344 -0.112706 0.981320 0.100533 -0.164026
0.088493 -0.027720 -0.081685 0.981320 0.100533 -0.164026
0.073227 -0.049129 -0.185934 0.980840 -0.154677 -0.118437
0.088493 -0.027720 -0.081685 0.980840 -0.154677 -0.118437
0.079996 -0.109785 -0.050665 0.980840 -0.154677 -0.118437
0.065323 -0.112765 -0.162497 0.980840 -0.154677 -0.118437
0.073227 -0.049129 -0.185934 0.951438 -0.219664 -0.215668
0.065323 -0.112765 -0.162497 0.951438 -0.219664 -0.215668
0.049995 -0.103459 -0.233087 0.951438 -0.219664 -0.215668
0.051997 -0.065541 -0.269387 0.951438 -0.219664 -0.215668
0.073227 -0.049129 -0.185934 0.958392 0.076545 -0.275000
0.051997 -0.065541 -0.269387 0.958392 0.076545 -0.275000
0.048885 -0.019113 -0.262415 0.958392 0.076545 -0.275000
0.062825 0.014507 -0.209371 0.958392 0.076545 -0.275000
0.026952 -0.071011 -0.297204 0.000000 -0.693094 -0.720847
0.029617 -0.118007 -0.252018 0.000000 -0.693094 -0.720847
0.000000 -0.118007 -0.252018 0.000000 -0.693094 -0.720847
0.000000 -0.071011 -0.297204 0.000000 -0.693094 -0.720847
0.026952 -0.071011 -0.297204 0.000000 0.177491 -0.984122
0.000000 -0.071011 -0.297204 0.000000 0.177491 -0.984122
0.000000 -0.013075 -0.286755 0.000000 0.177491 -0.984122
0.029118 -0.013075 -0.286755 0.000000 0.177491 -0.984122
0.026952 -0.071011 -0.297204 0.754105 0.114784 -0.646646
0.029118 -0.013075 -0.286755 0.754105 0.114784 -0.646646
0.048885 -0.019113 -0.262415 0.754105 0.114784 -0.646646
0.051997 -0.065541 -0.269387 0.754105 0.114784 -0.646646
0.026952 -0.071011 -0.297204 0.724150 -0.474548 -0.500411
0.051997 -0.065541 -0.269387 0.724150 -0.474548 -0.500411
0.049995 -0.103459 -0.233087 0.724150 -0.474548 -0.500411
0.029617 -0.118007 -0.252018 0.724150 -0.474548 -0.500411
0.037613 -0.133977 -0.154685 0.607490 -0.791795 -0.063367
0.065323 -0.112765 -0.162497 0.607490 -0.791795 -0.063367
0.079996 -0.109785 -0.050665 0.607490 -0.791795 -0.063367
0.046298 -0.137140 -0.040325 0.607490 -0.791795 -0.063367
0.037613 -0.133977 -0.154685 -0.000000 -0.999618 -0.027641
0.046298 -0.137140 -0.040325 -0.000000 -0.999618 -0.027641
0.000000 -0.137140 -0.040325 -0.000000 -0.999618 -0.027641
0.000000 -0.133977 -0.154685 -0.000000 -0.999618 -0.027641
0.037613 -0.133977 -0.154685 0.000000 -0.986805 -0.161916
0.000000 -0.133977 -0.154685 0.000000 -0.986805 -0.161916
0.000000 -0.118007 -0.252018 0.000000 -0.986805 -0.161916
0.029617 -0.118007 -0.252018 0.000000 -0.986805 -0.161916
0.037613 -0.133977 -0.154685 0.614026 -0.763472 -0.200206
0.029617 -0.118007 -0.252018 0.614026 -0.763472 -0.200206
0.049995 -0.103459 -0.233087 0.614026 -0.763472 -0.200206
0.065323 -0.112765 -0.162497 0.614026 -0.763472 -0.200206
0.056940 0.096038 0.312635 0.595787 -0.074534 0.799676
0.056546 0.008534 0.308534 0.595787 -0.074534 0.799676
0.086857 0.014472 0.282744 0.595787 -0.074534 0.799676
0.097753 0.085625 0.285019 0.595787 -0.074534 0.799676
0.056940 0.096038 0.312635 0.619852 0.519585 0.588060
0.097753 0.085625 0.285019 0.619852 0.519585 0.588060
0.084402 0.140578 0.244335 0.619852 0.519585 0.588060
0.055442 0.162715 0.261504 0.619852 0.519585 0.588060
0.056940 0.096038 0.312635 0.000000 0.608526 0.793534
0.055442 0.162715 0.261504 0.000000 0.608526 0.793534
0.000000 0.162715 0.261504 0.000000 0.608526 0.793534
0.000000 0.096038 0.312635 0.000000 0.608526 0.793534
0.056940 0.096038 0.312635 0.000000 -0.046817 0.998903
0.000000 0.096038 0.312635 0.000000 -0.046817 0.998903
-0.000000 0.008534 0.308534 0.000000 -0.046817 0.998903
0.056546 0.008534 0.308534 0.000000 -0.046817 0.998903
0.050946 0.183942 0.162779 0.000000 0.977656 0.210211
0.000000 0.183942 0.162779 0.000000 0.977656 0.210211
0.000000 0.162715 0.261504 0.000000 0.977656 0.210211
0.055442 0.162715 0.261504 0.000000 0.977656 0.210211
0.050946 0.183942 0.162779 0.626770 0.764730 0.149493
0.055442 0.162715 0.261504 0.626770 0.764730 0.149493
0.084402 0.140578 0.244335 0.626770 0.764730 0.149493
0.090259 0.151553 0.172627 0.626770 0.764730 0.149493
0.050946 0.183942 0.162779 0.694698 0.704760 -0.143902
0.090259 0.151553 0.172627 0.694698 0.704760 -0.143902
0.082920 0.132041 0.062956 0.694698 0.704760 -0.143902
0.046365 0.170006 0.051100 0.694698 0.704760 -0.143902
0.050946 0.183942 0.162779 0.000000 0.992304 -0.123826
0.046365 0.170006 0.051100 0.000000 0.992304 -0.123826
0.000000 0.170006 0.051100 0.000000 0.992304 -0.123826
0.000000 0.183942 0.162779 0.000000 0.992304 -0.123826
0.044613 0.131193 -0.038896 0.000000 0.918245 -0.396013
0.000000 0.131193 -0.038896 0.000000 0.918245 -0.396013
0.000000 0.170006 0.051100 0.000000 0.918245 -0.396013
0.046365 0.170006 0.051100 0.000000 0.918245 -0.396013
0.044613 0.131193 -0.038896 0.727540 0.626840 -0.278850
0.046365 0.170006 0.051100 0.727540 0.626840 -0.278850
0.082920 0.132041 0.062956 0.727540 0.626840 -0.278850
0.079678 0.096580 -0.027042 0.727540 0.626840 -0.278850
0.044613 0.131193 -0.038896 0.690565 0.623660 -0.366290
0.079678 0.096580 -0.027042 0.690565 0.623660 -0.366290
0.074867 0.054344 -0.112706 0.690565 0.623660 -0.366290
0.042195 0.081699 -0.123046 0.690565 0.623660 -0.366290
0.044613 0.131193 -0.038896 0.000000 0.861958 -0.506979
0.042195 0.081699 -0.123046 0.000000 0.861958 -0.506979
0.000000 0.081699 -0.123046 0.000000 0.861958 -0.506979
0.000000 0.131193 -0.038896 0.000000 0.861958 -0.506979
0.106309 0.054384 0.202170 0.974160 0.217073 0.062381
0.090259 0.151553 0.172627 0.974160 0.217073 0.062381
0.084402 0.140578 0.244335 0.974160 0.217073 0.062381
0.097753 0.085625 0.285019 0.974160 0.217073 0.062381
0.106309 0.054384 0.202170 0.977390 -0.093693 0.189553
0.097753 0.085625 0.285019 0.977390 -0.093693 0.189553
0.086857 0.014472 0.282744 0.977390 -0.093693 0.189553
0.095782 -0.042784 0.231713 0.977390 -0.093693 0.189553
0.106309 0.054384 0.202170 0.995790 -0.090985 -0.011156
0.095782 -0.042784 0.231713 0.995790 -0.090985 -0.011156
0.091829 -0.095748 0.134094 0.995790 -0.090985 -0.011156
0.099857 0.018147 0.098525 0.995790 -0.090985 -0.011156
0.106309 0.054384 0.202170 0.987513 0.124594 -0.096406
0.099857 0.018147 0.098525 0.987513 0.124594 -0.096406
0.082920 0.132041 0.062956 0.987513 0.124594 -0.096406
0.090259 0.151553 0.172627 0.987513 0.124594 -0.096406
0.095644 -0.007258 0.008520 0.989037 0.122538 -0.082401
0.079678 0.096580 -0.027042 0.989037 0.122538 -0.082401
0.082920 0.132041 0.062956 0.989037 0.122538 -0.082401
0.099857 0.018147 0.098525 0.989037 0.122538 -0.082401
0.095644 -0.007258 0.008520 0.996243 -0.082095 -0.027585
0.099857 0.018147 0.098525 0.996243 -0.082095 -0.027585
0.091829 -0.095748 0.134094 0.996243 -0.082095 -0.027585
0.087699 -0.111097 0.044083 0.996243 -0.082095 -0.027585
0.095644 -0.007258 0.008520 0.991373 -0.112041 -0.068017
0.087699 -0.111097 0.044083 0.991373 -0.112041 -0.068017
0.079996 -0.109785 -0.050665 0.991373 -0.112041 -0.068017
0.088493 -0.027720 -0.081685 0.991373 -0.112041 -0.068017
0.095644 -0.007258 0.008520 0.986991 0.118001 -0.109196
0.088493 -0.027720 -0.081685 0.986991 0.118001 -0.109196
0.074867 0.054344 -0.112706 0.986991 0.118001 -0.109196
0.079678 0.096580 -0.027042 0.986991 0.118001 -0.109196
0.055363 -0.075173 0.241561 0.590146 -0.498900 0.634686
0.095782 -0.042784 0.231713 0.590146 -0.498900 0.634686
0.086857 0.014472 0.282744 0.590146 -0.498900 0.634686
0.056546 0.008534 0.308534 0.590146 -0.498900 0.634686
0.055363 -0.075173 0.241561 0.000000 -0.624736 0.780836
0.056546 0.008534 0.308534 0.000000 -0.624736 0.780836
-0.000000 0.008534 0.308534 0.000000 -0.624736 0.780836
0.000000 -0.075173 0.241561 0.000000 -0.624736 0.780836
0.055363 -0.075173 0.241561 0.000000 -0.852844 0.522166
0.000000 -0.075173 0.241561 0.000000 -0.852844 0.522166
0.000000 -0.133712 0.145950 0.000000 -0.852844 0.522166
0.053492 -0.133712 0.145950 0.000000 -0.852844 0.522166
0.055363 -0.075173 0.241561 0.675536 -0.647261 0.353136
0.053492 -0.133712 0.145950 0.675536 -0.647261 0.353136
0.091829 -0.095748 0.134094 0.675536 -0.647261 0.353136
0.095782 -0.042784 0.231713 0.675536 -0.647261 0.353136
0.051030 -0.145709 0.055937 0.706199 -0.703366 0.080988
0.087699 -0.111097 0.044083 0.706199 -0.703366 0.080988
0.091829 -0.095748 0.134094 0.706199 -0.703366 0.080988
0.053492 -0.133712 0.145950 0.706199 -0.703366 0.080988
0.051030 -0.145709 0.055937 0.000000 -0.991235 0.132114
0.053492 -0.133712 0.145950 0.000000 -0.991235 0.132114
0.000000 -0.133712 0.145950 0.000000 -0.991235 0.132114
0.000000 -0.145709 0.055937 0.000000 -0.991235 0.132114
0.051030 -0.145709 0.055937 -0.000000 -0.996061 -0.088676
0.000000 -0.145709 0.055937 -0.000000 -0.996061 -0.088676
0.000000 -0.137140 -0.040325 -0.000000 -0.996061 -0.088676
0.046298 -0.137140 -0.040325 -0.000000 -0.996061 -0.088676
0.051030 -0.145709 0.055937 0.644151 -0.760567 -0.081284
0.046298 -0.137140 -0.040325 0.644151 -0.760567 -0.081284
0.079996 -0.109785 -0.050665 0.644151 -0.760567 -0.081284
0.087699 -0.111097 0.044083 0.644151 -0.760567 -0.081284
-0.035614 0.035719 -0.217184 0.000000 0.898547 -0.438878
-0.042195 0.081699 -0.123046 0.000000 0.898547 -0.438878
-0.035614 0.035719 -0.217184 0.000000 0.818712 -0.574205
-0.029118 -0.013075 -0.286755 0.000000 0.818712 -0.574205
-0.035614 0.035719 -0.217184 -0.663445 0.565106 -0.490404
-0.029118 -0.013075 -0.286755 -0.663445 0.565106 -0.490404
-0.048885 -0.019113 -0.262415 -0.663445 0.565106 -0.490404
-0.062825 0.014507 -0.209371 -0.663445 0.565106 -0.490404
-0.035614 0.035719 -0.217184 -0.650817 0.666641 -0.363355
-0.062825 0.014507 -0.209371 -0.650817 0.666641 -0.363355
-0.074867 0.054344 -0.112706 -0.650817 0.666641 -0.363355
-0.042195 0.081699 -0.123046 -0.650817 0.666641 -0.363355
-0.073227 -0.049129 -0.185934 -0.981320 0.100533 -0.164026
-0.088493 -0.027720 -0.081685 -0.981320 0.100533 -0.164026
-0.074867 0.054344 -0.112706 -0.981320 0.100533 -0.164026
-0.062825 0.014507 -0.209371 -0.981320 0.100533 -0.164026
-0.073227 -0.049129 -0.185934 -0.958392 0.076545 -0.275000
-0.062825 0.014507 -0.209371 -0.958392 0.076545 -0.275000
-0.048885 -0.019113 -0.262415 -0.958392 0.076545 -0.275000
-0.051997 -0.065541 -0.269387 -0.958392 0.076545 -0.275000
-0.073227 -0.049129 -0.185934 -0.951438 -0.219664 -0.215668
-0.051997 -0.065541 -0.269387 -0.951438 -0.219664 -0.215668
-0.049995 -0.103459 -0.233087 -0.951438 -0.219664 -0.215668
-0.065323 -0.112765 -0.162497 -0.951438 -0.219664 -0.215668
-0.073227 -0.049129 -0.185934 -0.980840 -0.154677 -0.118437
-0.065323 -0.112765 -0.162497 -0.980840 -0.154677 -0.118437
-0.079996 -0.109785 -0.050665 -0.980840 -0.154677 -0.118437
-0.088493 -0.027720 -0.081685 -0.980840 -0.154677 -0.118437
-0.026952 -0.071011 -0.297204 -0.000000 -0.693094 -0.720847
-0.029617 -0.118007 -0.252018 -0.000000 -0.693094 -0.720847
-0.026952 -0.071011 -0.297204 -0.724150 -0.474548 -0.500411
-0.029617 -0.118007 -0.252018 -0.724150 -0.474548 -0.500411
-0.049995 -0.103459 -0.233087 -0.724150 -0.474548 -0.500411
-0.051997 -0.065541 -0.269387 -0.724150 -0.474548 -0.500411
-0.026952 -0.071011 -0.297204 -0.754105 0.114784 -0.646646
-0.051997 -0.065541 -0.269387 -0.754105 0.114784 -0.646646
-0.048885 -0.019113 -0.262415 -0.754105 0.114784 -0.646646
-0.029118 -0.013075 -0.286755 -0.754105 0.114784 -0.646646
-0.026952 -0.071011 -0.297204 0.000001 0.177491 -0.984122
-0.029118 -0.013075 -0.286755 0.000001 0.177491 -0.984122
0.000000 -0.013075 -0.286755 0.000001 0.177491 -0.984122
0.000000 -0.071011 -0.297204 0.000001 0.177491 -0.984122
-0.037613 -0.133977 -0.154685 -0.607490 -0.791795 -0.063367
-0.046298 -0.137140 -0.040325 -0.607490 -0.791795 -0.063367
-0.079996 -0.109785 -0.050665 -0.607490 -0.791795 -0.063367
-0.065323 -0.112765 -0.162497 -0.607490 -0.791795 -0.063367
-0.037613 -0.133977 -0.154685 -0.614026 -0.763472 -0.200206
-0.065323 -0.112765 -0.162497 -0.614026 -0.763472 -0.200206
-0.049995 -0.103459 -0.233087 -0.614026 -0.763472 -0.200206
-0.029617 -0.118007 -0.252018 -0.614026 -0.763472 -0.200206
-0.037613 -0.133977 -0.154685 -0.000000 -0.986805 -0.161916
-0.029617 -0.118007 -0.252018 -0.000000 -0.986805 -0.161916
-0.037613 -0.133977 -0.154685 0.000000 -0.999618 -0.027641
-0.046298 -0.137140 -0.040325 0.000000 -0.999618 -0.027641
-0.056940 0.096038 0.312635 -0.595787 -0.074534 0.799676
-0.097753 0.085625 0.285019 -0.595787 -0.074534 0.799676
-0.086857 0.014472 0.282744 -0.595787 -0.074534 0.799676
-0.056546 0.008534 0.308534 -0.595787 -0.074534 0.799676
-0.056940 0.096038 0.312635 0.000000 -0.046817 0.998903
-0.056546 0.008534 0.308534 0.000000 -0.046817 0.998903
-0.056940 0.096038 0.312635 0.000000 0.608526 0.793534
-0.055442 0.162715 0.261504 0.000000 0.608526 0.793534
-0.056940 0.096038 0.312635 -0.619852 0.519585 0.588060
-0.055442 0.162715 0.261504 -0.619852 0.519585 0.588060
-0.084402 0.140578 0.244335 -0.619852 0.519585 0.588060
-0.097753 0.085625 0.285019 -0.619852 0.519585 0.588060
-0.050946 0.183942 0.162779 0.000000 0.977656 0.210211
-0.055442 0.162715 0.261504 0.000000 0.977656 0.210211
-0.050946 0.183942 0.162779 0.000000 0.992304 -0.123825
0.000000 0.183942 0.162779 0.000000 0.992304 -0.123825
0.000000 0.170006 0.051100 0.000000 0.992304 -0.123825
-0.046365 0.170006 0.051100 0.000000 0.992304 -0.123825
-0.050946 0.183942 0.162779 -0.694698 0.704760 -0.143902
-0.046365 0.170006 0.051100 -0.694698 0.704760 -0.143902
-0.082920 0.132041 0.062956 -0.694698 0.704760 -0.143902
-0.090259 0.151553 0.172627 -0.694698 0.704760 -0.143902
-0.050946 0.183942 0.162779 -0.626770 0.764729 0.149493
-0.090259 0.151553 0.172627 -0.626770 0.764729 0.149493
-0.084402 0.140578 0.244335 -0.626770 0.764729 0.149493
-0.055442 0.162715 0.261504 -0.626770 0.764729 0.149493
-0.044613 0.131193 -0.038896 0.000000 0.918245 -0.396013
-0.046365 0.170006 0.051100 0.000000 0.918245 -0.396013
-0.044613 0.131193 -0.038896 0.000000 0.861958 -0.506979
-0.042195 0.081699 -0.123046 0.000000 0.861958 -0.506979
-0.044613 0.131193 -0.038896 -0.690565 0.623660 -0.366290
-0.042195 0.081699 -0.123046 -0.690565 0.623660 -0.366290
-0.074867 0.054344 -0.112706 -0.690565 0.623660 -0.366290
-0.079678 0.096580 -0.027042 -0.690565 0.623660 -0.366290
-0.044613 0.131193 -0.038896 -0.727540 0.626840 -0.278850
-0.079678 0.096580 -0.027042 -0.727540 0.626840 -0.278850
-0.082920 0.132041 0.062956 -0.727540 0.626840 -0.278850
-0.046365 0.170006 0.051100 -0.727540 0.626840 -0.278850
-0.106309 0.054384 0.202170 -0.974160 0.217073 0.062381
-0.097753 0.085625 0.285019 -0.974160 0.217073 0.062381
-0.084402 0.140578 0.244335 -0.974160 0.217073 0.062381
-0.090259 0.151553 0.172627 -0.974160 0.217073 0.062381
-0.106309 0.054384 0.202170 -0.987513 0.124594 -0.096406
-0.090259 0.151553 0.172627 -0.987513 0.124594 -0.096406
-0.082920 0.132041 0.062956 -0.987513 0.124594 -0.096406
-0.099857 0.018147 0.098525 -0.987513 0.124594 -0.096406
-0.106309 0.054384 0.202170 -0.995790 -0.090985 -0.011156
-0.099857 0.018147 0.098525 -0.995790 -0.090985 -0.011156
-0.091829 -0.095748 0.134094 -0.995790 -0.090985 -0.011156
-0.095782 -0.042784 0.231713 -0.995790 -0.090985 -0.011156
-0.106309 0.054384 0.202170 -0.977390 -0.093693 0.189553
-0.095782 -0.042784 0.231713 -0.977390 -0.093693 0.189553
-0.086857 0.014472 0.282744 -0.977390 -0.093693 0.189553
-0.097753 0.085625 0.285019 -0.977390 -0.093693 0.189553
-0.095644 -0.007258 0.008520 -0.989037 0.122538 -0.082401
-0.099857 0.018147 0.098525 -0.989037 0.122538 -0.082401
-0.082920 0.132041 0.062956 -0.989037 0.122538 -0.082401
-0.079678 0.096580 -0.027042 -0.989037 0.122538 -0.082401
-0.095644 -0.007258 0.008520 -0.986991 0.118001 -0.109196
-0.079678 0.096580 -0.027042 -0.986991 0.118001 -0.109196
-0.074867 0.054344 -0.112706 -0.986991 0.118001 -0.109196
-0.088493 -0.027720 -0.081685 -0.986991 0.118001 -0.109196
-0.095644 -0.007258 0.008520 -0.991373 -0.112041 -0.068017
-0.088493 -0.027720 -0.081685 -0.991373 -0.112041 -0.068017
-0.079996 -0.109785 -0.050665 -0.991373 -0.112041 -0.068017
-0.087699 -0.111097 0.044083 -0.991373 -0.112041 -0.068017
-0.095644 -0.007258 0.008520 -0.996243 -0.082095 -0.027585
-0.087699 -0.111097 0.044083 -0.996243 -0.082095 -0.027585
-0.091829 -0.095748 0.134094 -0.996243 -0.082095 -0.027585
-0.099857 0.018147 0.098525 -0.996243 -0.082095 -0.027585
-0.055363 -0.075173 0.241561 -0.590146 -0.498900 0.634686
-0.056546 0.008534 0.308534 -0.590146 -0.498900 0.634686
-0.086857 0.014472 0.282744 -0.590146 -0.498900 0.634686
-0.095782 -0.042784 0.231713 -0.590146 -0.498900 0.634686
-0.055363 -0.075173 0.241561 -0.675536 -0.647261 0.353136
-0.095782 -0.042784 0.231713 -0.675536 -0.647261 0.353136
-0.091829 -0.095748 0.134094 -0.675536 -0.647261 0.353136
-0.053492 -0.133712 0.145950 -0.675536 -0.647261 0.353136
-0.055363 -0.075173 0.241561 0.000000 -0.852844 0.522166
-0.053492 -0.133712 0.145950 0.000000 -0.852844 0.522166
-0.055363 -0.075173 0.241561 0.000000 -0.624736 0.780836
-0.056546 0.008534 0.308534 0.000000 -0.624736 0.780836
-0.051030 -0.145709 0.055937 -0.706199 -0.703366 0.080988
-0.053492 -0.133712 0.145950 -0.706199 -0.703366 0.080988
-0.091829 -0.095748 0.134094 -0.706199 -0.703366 0.080988
-0.087699 -0.111097 0.044083 -0.706199 -0.703366 0.080988
-0.051030 -0.145709 0.055937 -0.644151 -0.760567 -0.081284
-0.087699 -0.111097 0.044083 -0.644151 -0.760567 -0.081284
-0.079996 -0.109785 -0.050665 -0.644151 -0.760567 -0.081284
-0.046298 -0.137140 -0.040325 -0.644151 -0.760567 -0.081284
-0.051030 -0.145709 0.055937 0.000000 -0.996061 -0.088676
-0.046298 -0.137140 -0.040325 0.000000 -0.996061 -0.088676
-0.051030 -0.145709 0.055937 0.000000 -0.991235 0.132114
-0.053492 -0.133712 0.145950 0.000000 -0.991235 0.132114
4 0 1 2 3
4 4 5 6 7
4 8 9 10 11
4 12 13 14 15
4 16 17 18 19
4 20 21 22 23
4 24 25 26 27
4 28 29 30 31
4 32 33 34 35
4 36 37 38 39
4 40 41 42 43
4 44 45 46 47
4 48 49 50 51
4 52 53 54 55
4 56 57 58 59
4 60 61 62 63
4 64 65 66 67
4 68 69 70 71
4 72 73 74 75
4 76 77 78 79
4 80 81 82 83
4 84 85 86 87
4 88 89 90 91
4 92 93 94 95
4 96 97 98 99
4 100 101 102 103
4 104 105 106 107
4 108 109 110 111
4 112 113 114 115
4 116 117 118 119
4 120 121 122 123
4 124 125 126 127
4 128 129 130 131
4 132 133 134 135
4 136 137 138 139
4 140 141 142 143
4 144 145 146 147
4 148 149 150 151
4 152 153 154 155
4 156 157 158 159
4 160 161 162 163
4 164 165 166 167
4 168 169 170 171
4 172 173 174 175
4 176 177 2 1
4 178 15 14 179
4 180 181 182 183
4 184 185 186 187
4 188 189 190 191
4 192 193 194 195
4 196 197 198 199
4 200 201 202 203
4 204 35 34 205
4 206 207 208 209
4 210 211 212 213
4 214 215 216 217
4 218 219 220 221
4 222 223 224 225
4 226 227 58 57
4 228 55 54 229
4 230 231 232 233
4 234 235 78 77
4 236 75 74 237
4 238 239 240 241
4 242 243 82 81
4 244 245 246 247
4 248 249 250 251
4 252 253 254 255
4 256 257 98 97
4 258 111 110 259
4 260 261 262 263
4 264 265 266 267
4 268 269 270 271
4 272 273 274 275
4 276 277 278 279
4 280 281 282 283
4 284 285 286 287
4 288 289 290 291
4 292 293 294 295
4 296 297 298 299
4 300 301 302 303
4 304 305 306 307
4 308 309 154 153
4 310 151 150 311
4 312 313 314 315
4 316 317 318 319
4 320 321 170 169
4 322 167 166 323
