ply
format ascii 1.0
comment Created by Blender 2.70 (sub 0) - www.blender.org, source file: 'Hexapod Version 4.blend'
element vertex 232
property float x
property float y
property float z
property float nx
property float ny
property float nz
element face 64
property list uchar uint vertex_indices
end_header
0.029443 0.034003 -0.128551 0.000000 0.829609 -0.558345
0.000000 0.034003 -0.128551 0.000000 0.829609 -0.558345
0.000000 0.071569 -0.072734 0.000000 0.829609 -0.558345
0.029443 0.071569 -0.072734 0.000000 0.829609 -0.558345
0.029443 0.034003 -0.128551 0.734967 0.565140 -0.374754
0.029443 0.071569 -0.072734 0.734967 0.565140 -0.374754
0.051525 0.051713 -0.058536 0.734967 0.565140 -0.374754
0.051525 0.014183 -0.115966 0.734967 0.565140 -0.374754
0.029443 0.034003 -0.128551 0.692485 0.279133 -0.665244
0.051525 0.014183 -0.115966 0.692485 0.279133 -0.665244
0.045800 -0.022854 -0.135381 0.692485 0.279133 -0.665244
0.029443 -0.017083 -0.152072 0.692485 0.279133 -0.665244
0.029443 0.034003 -0.128551 0.000000 0.418209 -0.908351
0.029443 -0.017083 -0.152072 0.000000 0.418209 -0.908351
0.000000 -0.017083 -0.152072 0.000000 0.418209 -0.908351
0.000000 0.034003 -0.128551 0.000000 0.418209 -0.908351
0.058886 -0.045276 -0.078210 0.994781 0.086481 -0.054152
0.051525 0.014183 -0.115966 0.994781 0.086481 -0.054152
0.051525 0.051713 -0.058536 0.994781 0.086481 -0.054152
0.058886 -0.007856 -0.015944 0.994781 0.086481 -0.054152
0.058886 -0.045276 -0.078210 0.994761 -0.088517 0.051132
0.058886 -0.007856 -0.015944 0.994761 -0.088517 0.051132
0.051525 -0.067424 0.026649 0.994761 -0.088517 0.051132
0.051525 -0.104734 -0.040454 0.994761 -0.088517 0.051132
0.058886 -0.045276 -0.078210 0.976884 -0.198044 -0.080477
0.051525 -0.104734 -0.040454 0.976884 -0.198044 -0.080477
0.045800 -0.106323 -0.086822 0.976884 -0.198044 -0.080477
0.051525 -0.071348 -0.122614 0.976884 -0.198044 -0.080477
0.058886 -0.045276 -0.078210 0.976070 0.016850 -0.216801
0.051525 -0.071348 -0.122614 0.976070 0.016850 -0.216801
0.045800 -0.022854 -0.135381 0.976070 0.016850 -0.216801
0.051525 0.014183 -0.115966 0.976070 0.016850 -0.216801
0.029443 -0.080039 -0.137415 0.000000 -0.696687 -0.717376
0.029443 -0.125612 -0.093155 0.000000 -0.696687 -0.717376
0.000000 -0.125612 -0.093155 0.000000 -0.696687 -0.717376
0.000000 -0.080039 -0.137415 0.000000 -0.696687 -0.717376
0.029443 -0.080039 -0.137415 0.000000 -0.226751 -0.973953
0.000000 -0.080039 -0.137415 0.000000 -0.226751 -0.973953
0.000000 -0.017083 -0.152072 0.000000 -0.226751 -0.973953
0.029443 -0.017083 -0.152072 0.000000 -0.226751 -0.973953
0.029443 -0.080039 -0.137415 0.633148 -0.154128 -0.758531
0.029443 -0.017083 -0.152072 0.633148 -0.154128 -0.758531
0.045800 -0.022854 -0.135381 0.633148 -0.154128 -0.758531
0.051525 -0.071348 -0.122614 0.633148 -0.154128 -0.758531
0.029443 -0.080039 -0.137415 0.672243 -0.545357 -0.500675
0.051525 -0.071348 -0.122614 0.672243 -0.545357 -0.500675
0.045800 -0.106323 -0.086822 0.672243 -0.545357 -0.500675
0.029443 -0.125612 -0.093155 0.672243 -0.545357 -0.500675
0.029443 -0.124554 -0.027869 0.733558 -0.595715 0.327135
0.051525 -0.104734 -0.040454 0.733558 -0.595715 0.327135
0.051525 -0.067424 0.026649 0.733558 -0.595715 0.327135
0.029443 -0.087280 0.040846 0.733558 -0.595715 0.327135
0.029443 -0.124554 -0.027869 -0.000000 -0.879007 0.476808
0.029443 -0.087280 0.040846 -0.000000 -0.879007 0.476808
0.000000 -0.087280 0.040846 -0.000000 -0.879007 0.476808
0.000000 -0.124554 -0.027869 -0.000000 -0.879007 0.476808
0.029443 -0.124554 -0.027869 -0.000000 -0.999869 0.016211
0.000000 -0.124554 -0.027869 -0.000000 -0.999869 0.016211
0.000000 -0.125612 -0.093155 -0.000000 -0.999869 0.016211
0.029443 -0.125612 -0.093155 -0.000000 -0.999869 0.016211
0.029443 -0.124554 -0.027869 0.711457 -0.702450 -0.019823
0.029443 -0.125612 -0.093155 0.711457 -0.702450 -0.019823
0.045800 -0.106323 -0.086822 0.711457 -0.702450 -0.019823
0.051525 -0.104734 -0.040454 0.711457 -0.702450 -0.019823
0.029443 0.080269 0.123896 0.661117 0.019276 0.750035
0.029443 0.039896 0.126243 0.661117 0.019276 0.750035
0.045800 0.034065 0.110665 0.661117 0.019276 0.750035
0.051525 0.068922 0.106033 0.661117 0.019276 0.750035
0.029443 0.080269 0.123896 0.651314 0.699791 0.293400
0.051525 0.068922 0.106033 0.651314 0.699791 0.293400
0.045800 0.086127 0.073615 0.651314 0.699791 0.293400
0.029443 0.097948 0.085823 0.651314 0.699791 0.293400
0.029443 0.080269 0.123896 0.000000 0.906995 0.421141
0.029443 0.097948 0.085823 0.000000 0.906995 0.421141
0.000000 0.097948 0.085823 0.000000 0.906995 0.421141
0.000000 0.080269 0.123896 0.000000 0.906995 0.421141
0.029443 0.080269 0.123896 0.000000 0.058050 0.998314
0.000000 0.080269 0.123896 0.000000 0.058050 0.998314
0.000000 0.039896 0.126243 0.000000 0.058050 0.998314
0.029443 0.039896 0.126243 0.000000 0.058050 0.998314
0.029443 0.093966 0.009502 0.000000 0.998642 -0.052101
0.000000 0.093966 0.009502 0.000000 0.998642 -0.052101
0.000000 0.097948 0.085823 0.000000 0.998642 -0.052101
0.029443 0.097948 0.085823 0.000000 0.998642 -0.052101
0.029443 0.093966 0.009502 0.567236 0.822370 -0.044166
0.029443 0.097948 0.085823 0.567236 0.822370 -0.044166
0.045800 0.086127 0.073615 0.567236 0.822370 -0.044166
0.051525 0.079194 0.020238 0.567236 0.822370 -0.044166
0.029443 0.093966 0.009502 0.675464 0.704370 -0.218200
0.051525 0.079194 0.020238 0.675464 0.704370 -0.218200
0.051525 0.051713 -0.058536 0.675464 0.704370 -0.218200
0.029443 0.071569 -0.072734 0.675464 0.704370 -0.218200
0.029443 0.093966 0.009502 0.000000 0.964857 -0.262776
0.029443 0.071569 -0.072734 0.000000 0.964857 -0.262776
0.000000 0.071569 -0.072734 0.000000 0.964857 -0.262776
0.000000 0.093966 0.009502 0.000000 0.964857 -0.262776
0.058886 0.034878 0.052445 0.971264 0.236315 0.028294
0.051525 0.079194 0.020238 0.971264 0.236315 0.028294
0.045800 0.086127 0.073615 0.971264 0.236315 0.028294
0.051525 0.068922 0.106033 0.971264 0.236315 0.028294
0.058886 0.034878 0.052445 0.974108 -0.059513 0.218112
0.051525 0.068922 0.106033 0.974108 -0.059513 0.218112
0.045800 0.034065 0.110665 0.974108 -0.059513 0.218112
0.051525 -0.009437 0.084653 0.974108 -0.059513 0.218112
0.058886 0.034878 0.052445 0.993437 -0.089453 0.071284
0.051525 -0.009437 0.084653 0.993437 -0.089453 0.071284
0.051525 -0.067424 0.026649 0.993437 -0.089453 0.071284
0.058886 -0.007856 -0.015944 0.993437 -0.089453 0.071284
0.058886 0.034878 0.052445 0.993240 0.104762 -0.049984
0.058886 -0.007856 -0.015944 0.993240 0.104762 -0.049984
0.051525 0.051713 -0.058536 0.993240 0.104762 -0.049984
0.051525 0.079194 0.020238 0.993240 0.104762 -0.049984
0.029443 -0.024209 0.095388 0.582893 -0.355198 0.730801
0.051525 -0.009437 0.084653 0.582893 -0.355198 0.730801
0.045800 0.034065 0.110665 0.582893 -0.355198 0.730801
0.029443 0.039896 0.126243 0.582893 -0.355198 0.730801
0.029443 -0.024209 0.095388 -0.000000 -0.433697 0.901059
0.029443 0.039896 0.126243 -0.000000 -0.433697 0.901059
0.000000 0.039896 0.126243 -0.000000 -0.433697 0.901059
0.000000 -0.024209 0.095388 -0.000000 -0.433697 0.901059
0.029443 -0.024209 0.095388 -0.000000 -0.654111 0.756398
0.000000 -0.024209 0.095388 -0.000000 -0.654111 0.756398
0.000000 -0.087280 0.040846 -0.000000 -0.654111 0.756398
0.029443 -0.087280 0.040846 -0.000000 -0.654111 0.756398
0.029443 -0.024209 0.095388 0.687734 -0.494300 0.531685
0.029443 -0.087280 0.040846 0.687734 -0.494300 0.531685
0.051525 -0.067424 0.026649 0.687734 -0.494300 0.531685
0.051525 -0.009437 0.084653 0.687734 -0.494300 0.531685
-0.029443 0.034003 -0.128551 -0.000000 0.829609 -0.558345
-0.029443 0.071569 -0.072734 -0.000000 0.829609 -0.558345
-0.029443 0.034003 -0.128551 0.000000 0.418209 -0.908351
-0.029443 -0.017083 -0.152072 0.000000 0.418209 -0.908351
-0.029443 0.034003 -0.128551 -0.692485 0.279133 -0.665244
-0.029443 -0.017083 -0.152072 -0.692485 0.279133 -0.665244
-0.045800 -0.022854 -0.135381 -0.692485 0.279133 -0.665244
-0.051525 0.014183 -0.115966 -0.692485 0.279133 -0.665244
-0.029443 0.034003 -0.128551 -0.734967 0.565140 -0.374754
-0.051525 0.014183 -0.115966 -0.734967 0.565140 -0.374754
-0.051525 0.051713 -0.058536 -0.734967 0.565140 -0.374754
-0.029443 0.071569 -0.072734 -0.734967 0.565140 -0.374754
-0.058886 -0.045276 -0.078210 -0.994781 0.086481 -0.054152
-0.058886 -0.007856 -0.015944 -0.994781 0.086481 -0.054152
-0.051525 0.051713 -0.058536 -0.994781 0.086481 -0.054152
-0.051525 0.014183 -0.115966 -0.994781 0.086481 -0.054152
-0.058886 -0.045276 -0.078210 -0.976070 0.016850 -0.216801
-0.051525 0.014183 -0.115966 -0.976070 0.016850 -0.216801
-0.045800 -0.022854 -0.135381 -0.976070 0.016850 -0.216801
-0.051525 -0.071348 -0.122614 -0.976070 0.016850 -0.216801
-0.058886 -0.045276 -0.078210 -0.976884 -0.198044 -0.080477
-0.051525 -0.071348 -0.122614 -0.976884 -0.198044 -0.080477
-0.045800 -0.106323 -0.086822 -0.976884 -0.198044 -0.080477
-0.051525 -0.104734 -0.040454 -0.976884 -0.198044 -0.080477
-0.058886 -0.045276 -0.078210 -0.994761 -0.088517 0.051132
-0.051525 -0.104734 -0.040454 -0.994761 -0.088517 0.051132
-0.051525 -0.067424 0.026649 -0.994761 -0.088517 0.051132
-0.058886 -0.007856 -0.015944 -0.994761 -0.088517 0.051132
-0.029443 -0.080039 -0.137415 -0.000000 -0.696687 -0.717376
-0.029443 -0.125612 -0.093155 -0.000000 -0.696687 -0.717376
-0.029443 -0.080039 -0.137415 -0.672243 -0.545357 -0.500675
-0.029443 -0.125612 -0.093155 -0.672243 -0.545357 -0.500675
-0.045800 -0.106323 -0.086822 -0.672243 -0.545357 -0.500675
-0.051525 -0.071348 -0.122614 -0.672243 -0.545357 -0.500675
-0.029443 -0.080039 -0.137415 -0.633148 -0.154128 -0.758531
-0.051525 -0.071348 -0.122614 -0.633148 -0.154128 -0.758531
-0.045800 -0.022854 -0.135381 -0.633148 -0.154128 -0.758531
-0.029443 -0.017083 -0.152072 -0.633148 -0.154128 -0.758531
-0.029443 -0.080039 -0.137415 0.000000 -0.226751 -0.973953
-0.029443 -0.017083 -0.152072 0.000000 -0.226751 -0.973953
-0.029443 -0.124554 -0.027869 -0.733558 -0.595715 0.327135
-0.029443 -0.087280 0.040846 -0.733558 -0.595715 0.327135
-0.051525 -0.067424 0.026649 -0.733558 -0.595715 0.327135
-0.051525 -0.104734 -0.040454 -0.733558 -0.595715 0.327135
-0.029443 -0.124554 -0.027869 -0.711457 -0.702450 -0.019823
-0.051525 -0.104734 -0.040454 -0.711457 -0.702450 -0.019823
-0.045800 -0.106323 -0.086822 -0.711457 -0.702450 -0.019823
-0.029443 -0.125612 -0.093155 -0.711457 -0.702450 -0.019823
-0.029443 -0.124554 -0.027869 0.000000 -0.999869 0.016211
-0.029443 -0.125612 -0.093155 0.000000 -0.999869 0.016211
-0.029443 -0.124554 -0.027869 0.000000 -0.879007 0.476808
-0.029443 -0.087280 0.040846 0.000000 -0.879007 0.476808
-0.029443 0.080269 0.123896 -0.661117 0.019276 0.750035
-0.051525 0.068922 0.106033 -0.661117 0.019276 0.750035
-0.045800 0.034065 0.110665 -0.661117 0.019276 0.750035
-0.029443 0.039896 0.126243 -0.661117 0.019276 0.750035
-0.029443 0.080269 0.123896 -0.000000 0.058050 0.998314
-0.029443 0.039896 0.126243 -0.000000 0.058050 0.998314
-0.029443 0.080269 0.123896 -0.000000 0.906995 0.421141
-0.029443 0.097948 0.085823 -0.000000 0.906995 0.421141
-0.029443 0.080269 0.123896 -0.651314 0.699791 0.293400
-0.029443 0.097948 0.085823 -0.651314 0.699791 0.293400
-0.045800 0.086127 0.073615 -0.651314 0.699791 0.293400
-0.051525 0.068922 0.106033 -0.651314 0.699791 0.293400
-0.029443 0.093966 0.009502 -0.000000 0.998642 -0.052101
-0.029443 0.097948 0.085823 -0.000000 0.998642 -0.052101
-0.029443 0.093966 0.009502 -0.000000 0.964857 -0.262776
-0.029443 0.071569 -0.072734 -0.000000 0.964857 -0.262776
-0.029443 0.093966 0.009502 -0.675464 0.704370 -0.218200
-0.029443 0.071569 -0.072734 -0.675464 0.704370 -0.218200
-0.051525 0.051713 -0.058536 -0.675464 0.704370 -0.218200
-0.051525 0.079194 0.020238 -0.675464 0.704370 -0.218200
-0.029443 0.093966 0.009502 -0.567236 0.822370 -0.044166
-0.051525 0.079194 0.020238 -0.567236 0.822370 -0.044166
-0.045800 0.086127 0.073615 -0.567236 0.822370 -0.044166
-0.029443 0.097948 0.085823 -0.567236 0.822370 -0.044166
-0.058886 0.034878 0.052445 -0.971265 0.236315 0.028294
-0.051525 0.068922 0.106033 -0.971265 0.236315 0.028294
-0.045800 0.086127 0.073615 -0.971265 0.236315 0.028294
-0.051525 0.079194 0.020238 -0.971265 0.236315 0.028294
-0.058886 0.034878 0.052445 -0.993240 0.104762 -0.049984
-0.051525 0.079194 0.020238 -0.993240 0.104762 -0.049984
-0.051525 0.051713 -0.058536 -0.993240 0.104762 -0.049984
-0.058886 -0.007856 -0.015944 -0.993240 0.104762 -0.049984
-0.058886 0.034878 0.052445 -0.993437 -0.089453 0.071284
-0.058886 -0.007856 -0.015944 -0.993437 -0.089453 0.071284
-0.051525 -0.067424 0.026649 -0.993437 -0.089453 0.071284
-0.051525 -0.009437 0.084653 -0.993437 -0.089453 0.071284
-0.058886 0.034878 0.052445 -0.974108 -0.059513 0.218112
-0.051525 -0.009437 0.084653 -0.974108 -0.059513 0.218112
-0.045800 0.034065 0.110665 -0.974108 -0.059513 0.218112
-0.051525 0.068922 0.106033 -0.974108 -0.059513 0.218112
-0.029443 -0.024209 0.095388 -0.582893 -0.355199 0.730801
-0.029443 0.039896 0.126243 -0.582893 -0.355199 0.730801
-0.045800 0.034065 0.110665 -0.582893 -0.355199 0.730801
-0.051525 -0.009437 0.084653 -0.582893 -0.355199 0.730801
-0.029443 -0.024209 0.095388 -0.687734 -0.494300 0.531685
-0.051525 -0.009437 0.084653 -0.687734 -0.494300 0.531685
-0.051525 -0.067424 0.026649 -0.687734 -0.494300 0.531685
-0.029443 -0.087280 0.040846 -0.687734 -0.494300 0.531685
-0.029443 -0.024209 0.095388 0.000000 -0.654111 0.756398
-0.029443 -0.087280 0.040846 0.000000 -0.654111 0.756398
-0.029443 -0.024209 0.095388 -0.000000 -0.433697 0.901059
-0.029443 0.039896 0.126243 -0.000000 -0.433697 0.901059
4 0 1 2 3
4 4 5 6 7
4 8 9 10 11
4 12 13 14 15
4 16 17 18 19
4 20 21 22 23
4 24 25 26 27
4 28 29 30 31
4 32 33 34 35
4 36 37 38 39
4 40 41 42 43
4 44 45 46 47
4 48 49 50 51
4 52 53 54 55
4 56 57 58 59
4 60 61 62 63
4 64 65 66 67
4 68 69 70 71
4 72 73 74 75
4 76 77 78 79
4 80 81 82 83
4 84 85 86 87
4 88 89 90 91
4 92 93 94 95
4 96 97 98 99
4 100 101 102 103
4 104 105 106 107
4 108 109 110 111
4 112 113 114 115
4 116 117 118 119
4 120 121 122 123
4 124 125 126 127
4 128 129 2 1
4 130 15 14 131
4 132 133 134 135
4 136 137 138 139
4 140 141 142 143
4 144 145 146 147
4 148 149 150 151
4 152 153 154 155
4 156 35 34 157
4 158 159 160 161
4 162 163 164 165
4 166 167 38 37
4 168 169 170 171
4 172 173 174 175
4 176 177 58 57
4 178 55 54 179
4 180 181 182 183
4 184 185 78 77
4 186 75 74 187
4 188 189 190 191
4 192 193 82 81
4 194 95 94 195
4 196 197 198 199
4 200 201 202 203
4 204 205 206 207
4 208 209 210 211
4 212 213 214 215
4 216 217 218 219
4 220 221 222 223
4 224 225 226 227
4 228 229 122 121
4 230 119 118 231
