ply
format ascii 1.0
comment Created by Blender 2.70 (sub 0) - www.blender.org, source file: 'Hexapod Version 4.blend'
element vertex 248
property float x
property float y
property float z
property float nx
property float ny
property float nz
property float s
property float t
element face 136
property list uchar uint vertex_indices
end_header
-0.047982 -0.459592 0.230827 -0.976012 -0.171453 0.134007 0.103759 0.643704
-0.033613 -0.481949 0.262414 -0.708090 -0.499130 0.499405 0.042360 0.624243
-0.025602 -0.463590 0.268920 -0.553819 0.199591 0.808344 0.056304 0.594612
-0.035986 -0.443627 0.250585 -0.634541 0.476211 0.608692 0.098553 0.601557
-0.038657 -0.406255 0.207195 -0.619617 0.527940 0.580767 0.186809 0.601319
-0.051542 -0.420117 0.187441 -0.999115 -0.041841 0.002747 0.195779 0.643704
-0.047982 -0.459592 0.230827 -0.976012 -0.171453 0.134007 0.103666 0.683143
-0.051542 -0.420117 0.187441 -0.999115 -0.041841 0.002747 0.196680 0.676945
-0.038657 -0.433980 0.167688 -0.594714 -0.548570 -0.587664 0.204541 0.719789
-0.035986 -0.475557 0.211070 -0.596606 -0.699179 -0.393902 0.115125 0.724355
-0.025602 -0.488716 0.239529 -0.503220 -0.860378 -0.080386 0.065961 0.729334
-0.033613 -0.481949 0.262414 -0.708090 -0.499130 0.499405 0.039444 0.699556
0.000000 -0.378013 0.114652 0.000000 -0.571337 -0.820673 0.330365 0.792742
0.039547 -0.373838 0.121368 0.586779 -0.465499 -0.662526 0.322452 0.856170
0.038657 -0.433980 0.167688 0.594714 -0.548570 -0.587664 0.204542 0.843865
-0.000000 -0.438600 0.161103 0.000000 -0.667287 -0.744774 0.209005 0.782181
0.000000 -0.378013 0.114652 0.000000 -0.571337 -0.820673 0.330364 0.770912
-0.000000 -0.438600 0.161103 0.000000 -0.667287 -0.744774 0.209004 0.781473
-0.039547 -0.373838 0.121368 -0.586779 -0.465499 -0.662526 0.322451 0.707483
-0.039547 -0.298108 0.073826 -0.585253 -0.406354 -0.701651 0.463469 0.687640
0.000000 -0.302045 0.066962 0.000000 -0.501175 -0.865322 0.472671 0.751556
0.000000 -0.302045 0.066962 0.000000 -0.501175 -0.865322 0.472672 0.812097
0.039547 -0.298108 0.073826 0.585253 -0.406354 -0.701651 0.463469 0.876013
0.047982 -0.459592 0.230827 0.976012 -0.171453 0.134007 0.540566 0.543768
0.051542 -0.420117 0.187441 0.999115 -0.041841 0.002747 0.630439 0.524007
0.038657 -0.406255 0.207195 0.619617 0.527940 0.580767 0.630781 0.567329
0.035986 -0.443627 0.250585 0.634541 0.476211 0.608692 0.544533 0.586051
0.025602 -0.463590 0.268920 0.553819 0.199591 0.808344 0.504761 0.601907
0.033613 -0.481949 0.262414 0.708090 -0.499130 0.499405 0.484778 0.575961
0.047982 -0.459592 0.230827 0.976012 -0.171453 0.134007 0.103667 0.880511
0.033613 -0.481949 0.262414 0.708090 -0.499130 0.499405 0.039444 0.864098
0.025602 -0.488716 0.239529 0.503220 -0.860378 -0.080386 0.065961 0.834319
0.035986 -0.475557 0.211070 0.596606 -0.699179 -0.393902 0.115125 0.839299
0.051542 -0.420117 0.187441 0.999115 -0.041841 0.002747 0.196681 0.886709
0.000000 -0.489402 0.272943 0.000000 -0.701529 0.712607 0.452071 0.622816
0.000000 -0.464326 0.282307 0.000000 0.184271 0.982849 0.489395 0.643704
0.000000 -0.489402 0.272943 0.000000 -0.701529 0.712607 0.000354 0.585506
0.000000 -0.464326 0.282307 0.000000 0.184271 0.982849 0.032321 0.557089
0.000000 -0.489402 0.272943 0.000000 -0.701529 0.712607 0.000354 0.742821
0.000000 -0.499572 0.242521 0.000000 -0.998688 -0.050783 0.045470 0.768679
0.000000 -0.489402 0.272943 0.000000 -0.701529 0.712607 0.000354 0.820833
0.000000 -0.499572 0.242521 0.000000 -0.998688 -0.050783 0.045471 0.794975
-0.000000 -0.480879 0.204484 0.000000 -0.828333 -0.560198 0.112830 0.781473
-0.000000 -0.480879 0.204484 0.000000 -0.828333 -0.560198 0.112831 0.782181
0.000000 -0.438305 0.257171 0.000000 0.705649 0.708548 0.546647 0.642313
0.000000 -0.401634 0.213780 0.000000 0.693594 0.720359 0.635901 0.630855
0.000000 -0.438305 0.257171 0.000000 0.705649 0.708548 0.088535 0.546153
0.000000 -0.401634 0.213780 0.000000 0.693594 0.720359 0.178167 0.538176
0.000000 -0.213625 0.019866 0.000000 -0.455855 -0.890011 0.631466 0.645383
0.039547 -0.209767 0.026779 0.587542 -0.368847 -0.720206 0.631078 0.708937
0.039547 -0.298108 0.073826 0.585253 -0.406354 -0.701651 0.473379 0.708055
0.000000 -0.302045 0.066962 0.000000 -0.501175 -0.865322 0.473379 0.644412
0.000000 -0.213625 0.019866 0.000000 -0.455855 -0.890011 0.721064 0.359690
0.000000 -0.302045 0.066962 0.000000 -0.501175 -0.865322 0.562974 0.359969
-0.039547 -0.298108 0.073826 -0.585253 -0.406354 -0.701651 0.563253 0.296327
-0.039547 -0.209767 0.026779 -0.587542 -0.368847 -0.720206 0.720955 0.296135
-0.039547 -0.118063 -0.018335 -0.589160 -0.355052 -0.725791 0.881975 0.293186
0.000000 -0.121825 -0.025295 0.000000 -0.439406 -0.898251 0.882610 0.357011
0.000000 -0.121825 -0.025295 0.000000 -0.439406 -0.898251 0.792998 0.648770
0.039547 -0.118063 -0.018335 0.589160 -0.355052 -0.725791 0.792083 0.712590
0.052729 -0.361312 0.141515 0.999847 -0.014618 -0.008850 0.748903 0.514382
0.039547 -0.348787 0.161663 0.600085 0.458449 0.655477 0.748811 0.557771
0.052729 -0.361312 0.141515 0.999847 -0.014618 -0.008850 0.315218 0.898988
0.052729 -0.286298 0.094418 0.999939 -0.005585 -0.009491 0.455814 0.919241
0.052729 -0.286298 0.094418 0.999939 -0.005585 -0.009491 0.889518 0.512128
0.039547 -0.274487 0.115010 0.594348 0.402966 0.695944 0.888705 0.555233
0.000000 -0.344611 0.168379 0.000000 0.577532 0.816340 0.292863 0.522139
-0.039547 -0.348787 0.161663 -0.600085 0.458449 0.655477 0.304138 0.585307
0.000000 -0.344611 0.168379 0.000000 0.577532 0.816340 0.751365 0.621886
0.000000 -0.270550 0.121874 0.000000 0.501053 0.865383 0.889518 0.618563
0.000000 -0.270550 0.121874 0.000000 0.501053 0.865383 0.428507 0.495717
-0.039547 -0.274487 0.115010 -0.594348 0.402966 0.695944 0.441314 0.557745
-0.052729 -0.361312 0.141515 -0.999847 -0.014618 -0.008850 0.315217 0.664666
-0.052729 -0.361312 0.141515 -0.999847 -0.014618 -0.008850 0.313545 0.627664
-0.052729 -0.286298 0.094418 -0.999939 -0.005585 -0.009491 0.451364 0.599669
-0.052729 -0.286298 0.094418 -0.999939 -0.005585 -0.009491 0.455813 0.644412
0.000000 -0.035719 -0.067178 0.000000 -0.420667 -0.907193 0.151192 0.006011
0.039547 -0.032246 -0.060076 0.586840 -0.340678 -0.734519 0.154795 0.069318
0.039547 -0.118063 -0.018335 0.589160 -0.355052 -0.725791 0.004749 0.078681
0.000000 -0.121825 -0.025295 0.000000 -0.439406 -0.898251 0.000354 0.015183
0.000000 -0.035719 -0.067178 0.000000 -0.420667 -0.907193 0.151129 0.242366
0.000000 -0.121825 -0.025295 0.000000 -0.439406 -0.898251 0.000354 0.232183
-0.039547 -0.118063 -0.018335 -0.589160 -0.355052 -0.725791 0.005174 0.168715
-0.039547 -0.032246 -0.060076 -0.586840 -0.340678 -0.734519 0.155156 0.179084
-0.039547 0.044590 -0.093997 -0.582659 -0.293344 -0.757927 0.286158 0.185606
0.000000 0.041664 -0.101310 0.000000 -0.360729 -0.932646 0.284200 0.248915
0.000000 0.041664 -0.101310 0.000000 -0.360729 -0.932646 0.284303 0.000354
0.039547 0.044590 -0.093997 0.582659 -0.293344 -0.757927 0.285836 0.063675
0.052729 -0.198195 0.047519 0.999969 -0.002106 -0.004456 0.720402 0.373170
0.039547 -0.186623 0.068259 0.591632 0.367290 0.717673 0.721333 0.416054
0.039547 -0.274487 0.115010 0.594348 0.402966 0.695944 0.564160 0.415982
0.052729 -0.286298 0.094418 0.999939 -0.005585 -0.009491 0.562978 0.373170
0.052729 -0.198195 0.047519 0.999969 -0.002106 -0.004456 0.631836 0.751732
0.052729 -0.286298 0.094418 0.999939 -0.005585 -0.009491 0.474339 0.751003
0.052729 -0.106780 0.002547 0.999969 -0.000275 -0.000610 0.792531 0.755423
0.052729 -0.106780 0.002547 0.999969 -0.000275 -0.000610 0.881042 0.376146
0.039547 -0.095496 0.023428 0.589740 0.354839 0.725425 0.881704 0.418848
0.000000 -0.182765 0.075173 0.000000 0.455550 0.890194 0.632540 0.783379
-0.039547 -0.186623 0.068259 -0.591632 0.367290 0.717673 0.632128 0.847070
-0.039547 -0.274487 0.115010 -0.594348 0.402966 0.695944 0.474963 0.845667
0.000000 -0.270550 0.121874 0.000000 0.501053 0.865383 0.475868 0.782257
0.000000 -0.182765 0.075173 0.000000 0.455550 0.890194 0.721146 0.479745
0.000000 -0.270550 0.121874 0.000000 0.501053 0.865383 0.564470 0.479397
0.000000 -0.091735 0.030388 0.000000 0.439375 0.898282 0.881108 0.482445
0.000000 -0.091735 0.030388 0.000000 0.439375 0.898282 0.792520 0.782181
-0.039547 -0.095496 0.023428 -0.589740 0.354839 0.725425 0.792520 0.845780
-0.052729 -0.198195 0.047519 -0.999969 -0.002106 -0.004456 0.721900 0.253343
-0.052729 -0.286298 0.094418 -0.999939 -0.005585 -0.009491 0.564401 0.253383
-0.052729 -0.198195 0.047519 -0.999969 -0.002106 -0.004456 0.630795 0.889942
-0.052729 -0.286298 0.094418 -0.999939 -0.005585 -0.009491 0.473379 0.888465
-0.052729 -0.106780 0.002547 -0.999969 -0.000275 -0.000610 0.791457 0.888474
-0.052729 -0.106780 0.002547 -0.999969 -0.000275 -0.000610 0.882610 0.250356
0.000000 0.107294 -0.123219 0.000000 -0.258492 -0.966002 0.393918 0.000354
0.039547 0.109350 -0.115649 0.580462 -0.210395 -0.786615 0.392085 0.063811
0.000000 0.107294 -0.123219 0.000000 -0.258492 -0.966002 0.393814 0.249649
-0.039547 0.109350 -0.115649 -0.580462 -0.210395 -0.786615 0.392405 0.186180
-0.039547 0.168459 -0.127636 -0.581256 -0.114383 -0.805597 0.486317 0.180461
0.000000 0.167262 -0.135424 0.000000 -0.141057 -0.989990 0.491422 0.244305
0.000000 0.167262 -0.135424 0.000000 -0.141057 -0.989990 0.491490 0.006350
0.039547 0.168459 -0.127636 0.581256 -0.114383 -0.805597 0.485957 0.070159
0.052729 -0.021828 -0.038772 0.999969 -0.002106 -0.005127 0.148858 0.256156
0.039547 -0.011410 -0.017467 0.591388 0.339915 0.731223 0.151957 0.298841
0.039547 -0.095496 0.023428 0.589740 0.354839 0.725425 0.004748 0.308452
0.052729 -0.106780 0.002547 0.999969 -0.000275 -0.000610 0.000354 0.265906
0.052729 -0.021828 -0.038772 0.999969 -0.002106 -0.005127 0.157895 0.112029
0.052729 -0.106780 0.002547 0.999969 -0.000275 -0.000610 0.009032 0.121464
0.052729 0.053369 -0.072059 0.999878 -0.004730 -0.013550 0.287117 0.105992
0.052729 0.053369 -0.072059 0.999878 -0.004730 -0.013550 0.278161 0.250356
0.039547 0.062148 -0.050121 0.594378 0.291971 0.749260 0.279521 0.292828
0.000000 -0.007937 -0.010365 0.000000 0.421644 0.906735 0.155818 0.382635
-0.039547 -0.011410 -0.017467 -0.591388 0.339915 0.731223 0.152016 0.446166
-0.039547 -0.095496 0.023428 -0.589740 0.354839 0.725425 0.004815 0.436322
0.000000 -0.091735 0.030388 0.000000 0.439375 0.898282 0.009499 0.373170
0.000000 -0.007937 -0.010365 0.000000 0.421644 0.906735 0.155659 0.362375
0.000000 -0.091735 0.030388 0.000000 0.439375 0.898282 0.009332 0.371608
0.000000 0.065074 -0.042808 0.000000 0.363384 0.931608 0.281123 0.356573
0.000000 0.065074 -0.042808 0.000000 0.363384 0.931608 0.281276 0.388636
-0.039547 0.062148 -0.050121 -0.594378 0.291971 0.749260 0.279574 0.452379
-0.052729 -0.021828 -0.038772 -0.999969 -0.002106 -0.005127 0.158543 0.136394
-0.052729 -0.106780 0.002547 -0.999969 -0.000275 -0.000610 0.009744 0.125962
-0.052729 -0.021828 -0.038772 -0.999969 -0.002106 -0.005127 0.148849 0.488847
-0.052729 -0.106780 0.002547 -0.999969 -0.000275 -0.000610 0.000354 0.478862
-0.052729 0.053369 -0.072059 -0.999878 -0.004730 -0.013550 0.278147 0.494850
-0.052729 0.053369 -0.072059 -0.999878 -0.004730 -0.013550 0.287722 0.143298
0.000000 0.227659 -0.140443 0.000000 -0.054781 -0.998474 0.588174 0.017777
0.039547 0.228339 -0.132563 0.585681 -0.044099 -0.809320 0.580227 0.082375
0.000000 0.227659 -0.140443 0.000000 -0.054781 -0.998474 0.588179 0.233525
-0.039547 0.228339 -0.132563 -0.585681 -0.044099 -0.809320 0.580664 0.168876
0.000000 0.227659 -0.140443 0.000000 -0.054781 -0.998474 0.588886 0.234842
-0.039547 0.228339 -0.132563 -0.585681 -0.044099 -0.809320 0.589639 0.169662
-0.039547 0.284690 -0.134076 -0.590136 -0.025269 -0.806879 0.680487 0.169609
0.000000 0.284340 -0.141978 0.000092 -0.031373 -0.999481 0.680531 0.234842
0.000000 0.227659 -0.140443 0.000000 -0.054781 -0.998474 0.902285 0.644412
0.000000 0.284340 -0.141978 0.000092 -0.031373 -0.999481 0.902232 0.735744
0.039547 0.284864 -0.134076 0.590167 -0.025178 -0.806848 0.837326 0.736058
0.039547 0.228339 -0.132563 0.585681 -0.044099 -0.809320 0.837327 0.645124
0.052729 0.115520 -0.092939 0.999786 -0.005066 -0.018921 0.381274 0.250356
0.039547 0.121691 -0.070230 0.596545 0.206763 0.775445 0.380066 0.293338
0.052729 0.115520 -0.092939 0.999786 -0.005066 -0.018921 0.390772 0.106572
0.052729 0.172049 -0.104274 0.999817 -0.002960 -0.018067 0.482270 0.112678
0.052729 0.172049 -0.104274 0.999817 -0.002960 -0.018067 0.471719 0.256190
0.039547 0.175639 -0.080912 0.596271 0.109012 0.795312 0.468074 0.298642
0.000000 0.123747 -0.062660 0.000000 0.257515 0.966247 0.378130 0.388744
-0.039547 0.121691 -0.070230 -0.596545 0.206763 0.775445 0.380119 0.452026
0.000000 0.123747 -0.062660 0.000000 0.257515 0.966247 0.377977 0.356619
0.000000 0.176836 -0.073124 0.000000 0.135166 0.990814 0.462279 0.362220
0.000000 0.176836 -0.073124 0.000000 0.135166 0.990814 0.462437 0.383275
-0.039547 0.175639 -0.080912 -0.596271 0.109012 0.795312 0.468132 0.446858
-0.052729 0.115520 -0.092939 -0.999786 -0.005066 -0.018921 0.391378 0.143412
-0.052729 0.115520 -0.092939 -0.999786 -0.005066 -0.018921 0.381261 0.495009
-0.052729 0.172049 -0.104274 -0.999817 -0.002960 -0.018067 0.471712 0.489313
-0.052729 0.172049 -0.104274 -0.999817 -0.002960 -0.018067 0.482913 0.137920
0.000000 0.386940 -0.138619 -0.005768 0.560564 -0.828059 0.890261 0.902842
0.030182 0.387614 -0.132582 0.425916 0.625996 -0.653188 0.845900 0.892703
0.037205 0.369989 -0.135947 0.583422 0.194128 -0.788598 0.840403 0.866494
0.000000 0.369046 -0.143388 -0.001587 0.131809 -0.991272 0.897491 0.873037
0.000000 0.386940 -0.138619 -0.005768 0.560564 -0.828059 0.847409 0.221956
0.000000 0.369046 -0.143388 -0.001587 0.131809 -0.991272 0.817729 0.229245
-0.037205 0.368940 -0.135947 -0.584155 0.190191 -0.789026 0.809528 0.172501
-0.030182 0.386915 -0.132582 -0.434919 0.614673 -0.658010 0.836273 0.177823
-0.019582 0.392105 -0.126506 -0.180456 0.913358 -0.364940 0.853136 0.185764
0.000000 0.393788 -0.129220 -0.007080 0.917753 -0.397046 0.864399 0.214418
0.000000 0.393788 -0.129220 -0.007080 0.917753 -0.397046 0.882872 0.919932
0.019582 0.392416 -0.126506 0.164373 0.920042 -0.355632 0.854027 0.909193
0.052729 0.230376 -0.108923 0.999939 -0.000641 -0.008240 0.562267 0.267924
0.039547 0.232414 -0.085284 0.592456 0.041017 0.804529 0.557279 0.309686
0.052729 0.230376 -0.108923 0.999939 -0.000641 -0.008240 0.574635 0.125254
0.052729 0.230376 -0.108923 0.999939 -0.000641 -0.008240 0.793705 0.647401
0.052729 0.286158 -0.110369 0.999969 -0.000122 0.001465 0.793705 0.737252
0.052729 0.230376 -0.108923 0.999939 -0.000641 -0.008240 0.473379 0.890650
0.052729 0.286158 -0.110369 0.999969 -0.000122 0.001465 0.563209 0.891054
0.039547 0.287416 -0.086663 0.588916 0.024293 0.807794 0.563918 0.934412
0.039547 0.232414 -0.085284 0.592456 0.041017 0.804529 0.475475 0.934296
0.000000 0.233093 -0.077404 0.000000 0.050508 0.998718 0.550249 0.373170
-0.039547 0.232414 -0.085284 -0.592456 0.041047 0.804529 0.557348 0.435954
0.000000 0.233093 -0.077404 0.000000 0.050508 0.998718 0.550082 0.372463
0.000000 0.233093 -0.077404 0.000000 0.050508 0.998718 0.476143 0.999646
0.000000 0.287836 -0.078760 0.000000 0.029939 0.999542 0.564758 0.999646
0.000000 0.233093 -0.077404 0.000000 0.050508 0.998718 0.592130 0.016252
0.000000 0.287836 -0.078760 0.000000 0.029939 0.999542 0.680757 0.016645
-0.039547 0.287381 -0.086663 -0.588977 0.024323 0.807764 0.679578 0.081873
-0.039547 0.232414 -0.085284 -0.592456 0.041047 0.804529 0.591172 0.081604
-0.052729 0.230376 -0.108923 -0.999939 -0.000641 -0.008209 0.575359 0.125962
-0.052729 0.230376 -0.108923 -0.999939 -0.000641 -0.008209 0.562271 0.477719
-0.052729 0.230376 -0.108923 -0.999939 -0.000641 -0.008209 0.588881 0.125254
-0.052729 0.286018 -0.110369 -0.999969 -0.000153 0.001465 0.678514 0.125254
-0.052729 0.230376 -0.108923 -0.999939 -0.000641 -0.008209 0.591934 0.125962
-0.052729 0.286018 -0.110369 -0.999969 -0.000153 0.001465 0.681742 0.126000
0.000000 0.396538 -0.114984 -0.003723 0.998779 -0.048830 0.884705 0.053026
-0.023939 0.394392 -0.114856 -0.244423 0.968108 -0.054781 0.863741 0.085942
-0.019582 0.393405 -0.103007 -0.173009 0.950835 0.256783 0.852267 0.069345
0.000000 0.395137 -0.100492 -0.002045 0.955901 0.293649 0.864282 0.040990
0.000000 0.396538 -0.114984 -0.003723 0.998779 -0.048830 0.769008 0.964390
0.000000 0.395137 -0.100492 -0.002045 0.955901 0.293649 0.748455 0.976216
0.019582 0.393467 -0.103007 0.164892 0.951720 0.258889 0.736726 0.947719
0.023939 0.394532 -0.114856 0.230201 0.972076 -0.045381 0.748419 0.931240
0.000000 0.396538 -0.114984 -0.003723 0.998779 -0.048830 0.871741 0.940730
0.023939 0.394532 -0.114856 0.230201 0.972076 -0.045381 0.837970 0.921275
0.000000 0.396538 -0.114984 -0.003723 0.998779 -0.048830 0.884977 0.203015
-0.023939 0.394392 -0.114856 -0.244423 0.968108 -0.054781 0.865078 0.169604
0.040242 0.388516 -0.114472 0.703909 0.709494 -0.032960 0.728107 0.910100
0.030182 0.389278 -0.096362 0.425916 0.687155 0.588519 0.719809 0.940202
0.037205 0.372078 -0.091298 0.583422 0.264321 0.767907 0.693466 0.935526
0.049607 0.371138 -0.113622 0.962706 0.270241 -0.011505 0.698379 0.897265
0.040242 0.388516 -0.114472 0.703909 0.709494 -0.032960 0.816084 0.901826
0.049607 0.371138 -0.113622 0.962706 0.270241 -0.011505 0.802324 0.872575
0.000000 0.389532 -0.090326 -0.001343 0.648183 0.761467 0.847547 0.032876
-0.030182 0.389138 -0.096362 -0.432966 0.686026 0.584704 0.835276 0.076685
-0.037205 0.371868 -0.091298 -0.585986 0.265023 0.765740 0.808871 0.081257
0.000000 0.372391 -0.083857 -0.000519 0.222785 0.974853 0.818311 0.024712
0.000000 0.389532 -0.090326 -0.001343 0.648183 0.761467 0.731649 0.984189
0.000000 0.372391 -0.083857 -0.000519 0.222785 0.974853 0.702371 0.992191
-0.040242 0.387956 -0.114472 -0.712302 0.700674 -0.040742 0.845207 0.147968
-0.049607 0.370299 -0.113622 -0.963622 0.266854 -0.014771 0.815583 0.134480
-0.040242 0.387956 -0.114472 -0.712302 0.700674 -0.040742 0.842955 0.106927
-0.049607 0.370299 -0.113622 -0.963622 0.266854 -0.014771 0.812747 0.119690
0.000000 0.333158 -0.143734 0.000031 -0.013215 -0.999908 0.902040 0.814524
0.039547 0.333910 -0.135824 0.592792 0.003204 -0.805322 0.837415 0.813309
0.000000 0.333158 -0.143734 0.000031 -0.013215 -0.999908 0.759524 0.233983
-0.039547 0.333211 -0.135824 -0.592730 0.003052 -0.805353 0.756845 0.169773
0.052729 0.335049 -0.112095 0.999084 0.042543 -0.000763 0.641281 0.891623
0.039547 0.336047 -0.088366 0.592059 0.065615 0.803186 0.640269 0.933888
0.052729 0.335049 -0.112095 0.999084 0.042543 -0.000763 0.795302 0.815737
0.000000 0.336380 -0.080456 -0.000092 0.064486 0.997894 0.759558 0.018533
-0.039547 0.335907 -0.088366 -0.592547 0.065981 0.802789 0.755780 0.082704
0.000000 0.336380 -0.080456 -0.000092 0.064486 0.997894 0.643567 0.998106
-0.052729 0.334489 -0.112095 -0.999084 0.042604 -0.001343 0.759408 0.127709
-0.052729 0.334489 -0.112095 -0.999084 0.042604 -0.001343 0.755976 0.125053
4 0 1 2 3
4 0 3 4 5
4 6 7 8 9
4 6 9 10 11
4 12 13 14 15
4 16 17 8 18
4 16 18 19 20
4 12 21 22 13
4 23 24 25 26
4 23 26 27 28
4 29 30 31 32
4 29 32 14 33
4 34 28 27 35
4 36 37 2 1
4 38 11 10 39
4 40 41 31 30
4 42 39 10 9
4 42 9 8 17
4 43 15 14 32
4 43 32 31 41
4 44 35 27 26
4 44 26 25 45
4 46 47 4 3
4 46 3 2 37
4 48 49 50 51
4 52 53 54 55
4 52 55 56 57
4 48 58 59 49
4 60 61 25 24
4 62 33 14 13
4 62 13 22 63
4 60 64 65 61
4 66 67 4 47
4 68 45 25 61
4 68 61 65 69
4 66 70 71 67
4 72 18 8 7
4 73 5 4 67
4 73 67 71 74
4 72 75 19 18
4 76 77 78 79
4 80 81 82 83
4 80 83 84 85
4 76 86 87 77
4 88 89 90 91
4 92 93 50 49
4 92 49 59 94
4 88 95 96 89
4 97 98 99 100
4 101 102 90 89
4 101 89 96 103
4 97 104 105 98
4 106 55 54 107
4 108 109 99 98
4 108 98 105 110
4 106 111 56 55
4 112 113 87 86
4 114 85 84 115
4 114 115 116 117
4 112 118 119 113
4 120 121 122 123
4 124 125 78 77
4 124 77 87 126
4 120 127 128 121
4 129 130 131 132
4 133 134 122 121
4 133 121 128 135
4 129 136 137 130
4 138 83 82 139
4 140 141 131 130
4 140 130 137 142
4 138 143 84 83
4 144 145 119 118
4 146 117 116 147
4 148 149 150 151
4 152 153 154 155
4 156 157 128 127
4 158 126 87 113
4 158 113 119 159
4 156 160 161 157
4 162 163 137 136
4 164 135 128 157
4 164 157 161 165
4 162 166 167 163
4 168 115 84 143
4 169 142 137 163
4 169 163 167 170
4 168 171 116 115
4 172 173 174 175
4 176 177 178 179
4 176 179 180 181
4 172 182 183 173
4 184 185 161 160
4 186 159 119 145
4 187 155 154 188
4 189 190 191 192
4 193 194 167 166
4 195 165 161 185
4 196 192 191 197
4 198 199 200 201
4 202 147 116 171
4 203 170 167 194
4 204 201 200 205
4 206 207 150 149
4 208 209 210 211
4 212 213 214 215
4 216 217 183 182
4 218 181 180 219
4 220 221 222 223
4 224 225 174 173
4 224 173 183 217
4 220 215 214 221
4 226 227 228 229
4 230 231 222 221
4 230 221 214 213
4 226 211 210 227
4 232 179 178 233
4 234 235 228 227
4 234 227 210 209
4 232 219 180 179
4 236 237 154 153
4 238 151 150 239
4 238 239 178 177
4 236 175 174 237
4 240 241 191 190
4 242 188 154 237
4 242 237 174 225
4 240 223 222 241
4 243 244 200 199
4 245 197 191 241
4 245 241 222 231
4 243 229 228 244
4 246 239 150 207
4 247 205 200 244
4 247 244 228 235
4 246 233 178 239
