ply
format ascii 1.0
comment Created by Blender 2.70 (sub 0) - www.blender.org, source file: 'Hexapod Version 4.blend'
element vertex 403
property float x
property float y
property float z
property float nx
property float ny
property float nz
element face 112
property list uchar uint vertex_indices
end_header
0.022734 0.096060 0.759770 -0.000000 0.972577 0.232580
0.000000 0.096060 0.759770 -0.000000 0.972577 0.232580
0.000000 0.086160 0.801168 -0.000000 0.972577 0.232580
0.021957 0.086160 0.801168 -0.000000 0.972577 0.232580
0.022734 0.096060 0.759770 0.605129 0.761079 0.233618
0.021957 0.086160 0.801168 0.605129 0.761079 0.233618
0.034559 0.077246 0.790435 0.605129 0.761079 0.233618
0.039785 0.084693 0.759770 0.605129 0.761079 0.233618
0.022734 0.096060 0.759770 0.569708 0.821773 -0.011064
0.039785 0.084693 0.759770 0.569708 0.821773 -0.011064
0.043986 0.079605 0.631868 0.569708 0.821773 -0.011064
0.025135 0.093127 0.631868 0.569708 0.821773 -0.011064
0.022734 0.096060 0.759770 0.000000 0.999737 -0.022924
0.025135 0.093127 0.631868 0.000000 0.999737 -0.022924
0.000000 0.093127 0.631868 0.000000 0.999737 -0.022924
0.000000 0.096060 0.759770 0.000000 0.999737 -0.022924
0.038243 0.077115 -0.498487 -0.000000 0.999994 -0.003545
0.000000 0.077115 -0.498487 -0.000000 0.999994 -0.003545
0.000000 0.077490 -0.392515 -0.000000 0.999994 -0.003545
0.037935 0.077490 -0.392515 -0.000000 0.999994 -0.003545
0.038243 0.077115 -0.498487 0.646273 0.763105 0.001395
0.037935 0.077490 -0.392515 0.646273 0.763105 0.001395
0.066386 0.053086 -0.392515 0.646273 0.763105 0.001395
0.066924 0.053133 -0.498487 0.646273 0.763105 0.001395
0.038243 0.077115 -0.498487 0.656536 0.657467 -0.369727
0.066924 0.053133 -0.498487 0.656536 0.657467 -0.369727
0.059640 0.034706 -0.535903 0.656536 0.657467 -0.369727
0.038389 0.053223 -0.548998 0.656536 0.657467 -0.369727
0.038243 0.077115 -0.498487 0.000000 0.903977 -0.427581
0.038389 0.053223 -0.548998 0.000000 0.903977 -0.427581
0.000000 0.053223 -0.548999 0.000000 0.903977 -0.427581
0.000000 0.077115 -0.498487 0.000000 0.903977 -0.427581
0.076485 -0.018812 -0.498487 0.991484 0.130080 0.006230
0.066924 0.053133 -0.498487 0.991484 0.130080 0.006230
0.066386 0.053086 -0.392515 0.991484 0.130080 0.006230
0.075870 -0.020127 -0.392515 0.991484 0.130080 0.006230
0.076485 -0.018812 -0.498487 0.991499 -0.130082 0.003002
0.075870 -0.020127 -0.392515 0.991499 -0.130082 0.003002
0.066386 -0.093340 -0.392515 0.991499 -0.130082 0.003002
0.066924 -0.090757 -0.498487 0.991499 -0.130082 0.003002
0.076485 -0.018812 -0.498487 0.963887 -0.154314 -0.217046
0.066924 -0.090757 -0.498487 0.963887 -0.154314 -0.217046
0.059640 -0.071402 -0.535903 0.963887 -0.154314 -0.217046
0.067169 -0.018185 -0.548998 0.963887 -0.154314 -0.217046
0.076485 -0.018812 -0.498487 0.964682 0.154441 -0.213392
0.067169 -0.018185 -0.548998 0.964682 0.154441 -0.213392
0.059640 0.034706 -0.535903 0.964682 0.154441 -0.213392
0.066924 0.053133 -0.498487 0.964682 0.154441 -0.213392
0.045469 0.050592 0.759770 0.965384 0.191893 0.176667
0.039785 0.084693 0.759770 0.965384 0.191893 0.176667
0.034559 0.077246 0.790435 0.965384 0.191893 0.176667
0.038490 0.053095 0.801168 0.965384 0.191893 0.176667
0.045469 0.050592 0.759770 0.961193 -0.191060 0.199006
0.038490 0.053095 0.801168 0.961193 -0.191060 0.199006
0.034559 0.027646 0.790435 0.961193 -0.191060 0.199006
0.039785 0.016490 0.759770 0.961193 -0.191060 0.199006
0.045469 0.050592 0.759770 0.986012 -0.158030 0.052972
0.039785 0.016490 0.759770 0.986012 -0.158030 0.052972
0.043986 -0.001530 0.631868 0.986012 -0.158030 0.052972
0.050270 0.039037 0.631868 0.986012 -0.158030 0.052972
0.045469 0.050592 0.759770 0.987104 0.158205 0.024447
0.050270 0.039037 0.631868 0.987104 0.158205 0.024447
0.043986 0.079605 0.631868 0.987104 0.158205 0.024447
0.039785 0.084693 0.759770 0.987104 0.158205 0.024447
0.038438 -0.017976 -0.565836 0.000000 -0.228863 -0.973459
0.038389 -0.089593 -0.548999 0.000000 -0.228863 -0.973459
0.000000 -0.089593 -0.548999 0.000000 -0.228863 -0.973459
0.000000 -0.017976 -0.565836 0.000000 -0.228863 -0.973459
0.038438 -0.017976 -0.565836 0.000001 0.230135 -0.973159
0.000000 -0.017976 -0.565836 0.000001 0.230135 -0.973159
0.000000 0.053223 -0.548999 0.000001 0.230135 -0.973159
0.038389 0.053223 -0.548998 0.000001 0.230135 -0.973159
0.038438 -0.017976 -0.565836 0.561459 0.226285 -0.795964
0.038389 0.053223 -0.548998 0.561459 0.226285 -0.795964
0.059640 0.034706 -0.535903 0.561459 0.226285 -0.795964
0.067169 -0.018185 -0.548998 0.561459 0.226285 -0.795964
0.038438 -0.017976 -0.565836 0.558958 -0.225277 -0.798008
0.067169 -0.018185 -0.548998 0.558958 -0.225277 -0.798008
0.059640 -0.071402 -0.535903 0.558958 -0.225277 -0.798008
0.038389 -0.089593 -0.548999 0.558958 -0.225277 -0.798008
0.030265 0.086860 0.358556 -0.000000 0.999737 -0.022924
0.000000 0.086860 0.358556 -0.000000 0.999737 -0.022924
0.030265 0.086860 0.358556 0.615779 0.787856 -0.009999
0.025135 0.093127 0.631868 0.615779 0.787856 -0.009999
0.043986 0.079605 0.631868 0.615779 0.787856 -0.009999
0.052964 0.067908 0.358556 0.615779 0.787856 -0.009999
0.030265 0.086860 0.358556 0.658138 0.752871 -0.006307
0.052964 0.067908 0.358556 0.658138 0.752871 -0.006307
0.061770 0.056681 0.043585 0.658138 0.752871 -0.006307
0.035297 0.080713 0.043585 0.658138 0.752871 -0.006307
0.030265 0.086860 0.358556 -0.000000 0.999810 -0.019513
0.035297 0.080713 0.043585 -0.000000 0.999810 -0.019513
0.000000 0.080713 0.043585 -0.000000 0.999810 -0.019513
0.000000 0.086860 0.358556 -0.000000 0.999810 -0.019513
0.060530 0.011050 0.358556 0.989746 0.140703 0.024618
0.052964 0.067908 0.358556 0.989746 0.140703 0.024618
0.043986 0.079605 0.631868 0.989746 0.140703 0.024618
0.050270 0.039037 0.631868 0.989746 0.140703 0.024618
0.060530 0.011050 0.358556 0.988635 -0.140545 0.053374
0.050270 0.039037 0.631868 0.988635 -0.140545 0.053374
0.043986 -0.001530 0.631868 0.988635 -0.140545 0.053374
0.052964 -0.045807 0.358556 0.988635 -0.140545 0.053374
0.060530 0.011050 0.358556 0.991088 -0.125972 0.043319
0.052964 -0.045807 0.358556 0.991088 -0.125972 0.043319
0.061770 -0.087509 0.043585 0.991088 -0.125972 0.043319
0.070594 -0.015414 0.043585 0.991088 -0.125972 0.043319
0.060530 0.011050 0.358556 0.991775 0.126059 0.022166
0.070594 -0.015414 0.043585 0.991775 0.126059 0.022166
0.061770 0.056681 0.043585 0.991775 0.126059 0.022166
0.052964 0.067908 0.358556 0.991775 0.126059 0.022166
0.038243 -0.114739 -0.498487 0.646174 -0.762988 -0.017539
0.066924 -0.090757 -0.498487 0.646174 -0.762988 -0.017539
0.066386 -0.093340 -0.392515 0.646174 -0.762988 -0.017539
0.037935 -0.117744 -0.392515 0.646174 -0.762988 -0.017539
0.038243 -0.114739 -0.498487 -0.000000 -0.999598 -0.028350
0.037935 -0.117744 -0.392515 -0.000000 -0.999598 -0.028350
0.000000 -0.117744 -0.392515 -0.000000 -0.999598 -0.028350
0.000000 -0.114739 -0.498487 -0.000000 -0.999598 -0.028350
0.038243 -0.114739 -0.498487 -0.000000 -0.895208 -0.445649
0.000000 -0.114739 -0.498487 -0.000000 -0.895208 -0.445649
0.000000 -0.089593 -0.548999 -0.000000 -0.895208 -0.445649
0.038389 -0.089593 -0.548999 -0.000000 -0.895208 -0.445649
0.038243 -0.114739 -0.498487 0.652525 -0.653450 -0.383684
0.038389 -0.089593 -0.548999 0.652525 -0.653450 -0.383684
0.059640 -0.071402 -0.535903 0.652525 -0.653450 -0.383684
0.066924 -0.090757 -0.498487 0.652525 -0.653450 -0.383684
0.030265 -0.064760 0.358556 0.608874 -0.779022 0.149656
0.052964 -0.045807 0.358556 0.608874 -0.779022 0.149656
0.043986 -0.001530 0.631868 0.608874 -0.779022 0.149656
0.025135 -0.015053 0.631868 0.608874 -0.779022 0.149656
0.030265 -0.064760 0.358556 -0.000000 -0.983861 0.178934
0.025135 -0.015053 0.631868 -0.000000 -0.983861 0.178934
0.000000 -0.015053 0.631868 -0.000000 -0.983861 0.178934
0.000000 -0.064760 0.358556 -0.000000 -0.983861 0.178934
0.030265 -0.064760 0.358556 0.000000 -0.989149 0.146915
0.000000 -0.064760 0.358556 0.000000 -0.989149 0.146915
0.000000 -0.111541 0.043585 0.000000 -0.989149 0.146915
0.035297 -0.111541 0.043585 0.000000 -0.989149 0.146915
0.030265 -0.064760 0.358556 0.653447 -0.747504 0.119351
0.035297 -0.111541 0.043585 0.653447 -0.747504 0.119351
0.061770 -0.087509 0.043585 0.653447 -0.747504 0.119351
0.052964 -0.045807 0.358556 0.653447 -0.747504 0.119351
0.021698 0.053929 0.814967 0.649101 -0.324552 0.687992
0.021957 0.020030 0.801168 0.649101 -0.324552 0.687992
0.034559 0.027646 0.790435 0.649101 -0.324552 0.687992
0.038490 0.053095 0.801168 0.649101 -0.324552 0.687992
0.021698 0.053929 0.814967 0.666831 0.333416 0.666460
0.038490 0.053095 0.801168 0.666831 0.333416 0.666460
0.034559 0.077246 0.790435 0.666831 0.333416 0.666460
0.021957 0.086160 0.801168 0.666831 0.333416 0.666460
0.021698 0.053929 0.814967 -0.000001 0.393585 0.919288
0.021957 0.086160 0.801168 -0.000001 0.393585 0.919288
0.000000 0.086160 0.801168 -0.000001 0.393585 0.919288
0.000000 0.053929 0.814967 -0.000001 0.393585 0.919288
0.021698 0.053929 0.814967 0.000000 -0.377025 0.926203
0.000000 0.053929 0.814967 0.000000 -0.377025 0.926203
0.000000 0.020030 0.801168 0.000000 -0.377025 0.926203
0.021957 0.020030 0.801168 0.000000 -0.377025 0.926203
0.022734 0.005123 0.759770 0.590130 -0.742215 0.317591
0.039785 0.016490 0.759770 0.590130 -0.742215 0.317591
0.034559 0.027646 0.790435 0.590130 -0.742215 0.317591
0.021957 0.020030 0.801168 0.590130 -0.742215 0.317591
0.022734 0.005123 0.759770 0.000000 -0.940864 0.338784
0.021957 0.020030 0.801168 0.000000 -0.940864 0.338784
0.000000 0.020030 0.801168 0.000000 -0.940864 0.338784
0.000000 0.005123 0.759770 0.000000 -0.940864 0.338784
0.022734 0.005123 0.759770 0.000000 -0.987786 0.155816
0.000000 0.005123 0.759770 0.000000 -0.987786 0.155816
0.000000 -0.015053 0.631868 0.000000 -0.987786 0.155816
0.025135 -0.015053 0.631868 0.000000 -0.987786 0.155816
0.022734 0.005123 0.759770 0.564438 -0.814172 0.136137
0.025135 -0.015053 0.631868 0.564438 -0.814172 0.136137
0.043986 -0.001530 0.631868 0.564438 -0.814172 0.136137
0.039785 0.016490 0.759770 0.564438 -0.814172 0.136137
0.037403 0.078140 -0.209299 -0.000000 0.999948 -0.010175
0.000000 0.078140 -0.209299 -0.000000 0.999948 -0.010175
0.000000 0.080713 0.043585 -0.000000 0.999948 -0.010175
0.035297 0.080713 0.043585 -0.000000 0.999948 -0.010175
0.037403 0.078140 -0.209299 0.669672 0.742655 -0.001507
0.035297 0.080713 0.043585 0.669672 0.742655 -0.001507
0.061770 0.056681 0.043585 0.669672 0.742655 -0.001507
0.065456 0.053005 -0.209299 0.669672 0.742655 -0.001507
0.037403 0.078140 -0.209299 0.659247 0.751925 0.001464
0.065456 0.053005 -0.209299 0.659247 0.751925 0.001464
0.066386 0.053086 -0.392515 0.659247 0.751925 0.001464
0.037935 0.077490 -0.392515 0.659247 0.751925 0.001464
0.037403 0.078140 -0.209299 0.000000 0.999994 -0.003545
0.000000 0.078140 -0.209299 0.000000 0.999994 -0.003545
0.074807 -0.022400 -0.209299 0.992411 0.122285 0.012922
0.065456 0.053005 -0.209299 0.992411 0.122285 0.012922
0.061770 0.056681 0.043585 0.992411 0.122285 0.012922
0.070594 -0.015414 0.043585 0.992411 0.122285 0.012922
0.074807 -0.022400 -0.209299 0.992302 -0.122272 0.019676
0.070594 -0.015414 0.043585 0.992302 -0.122272 0.019676
0.061770 -0.087509 0.043585 0.992302 -0.122272 0.019676
0.065456 -0.097806 -0.209299 0.992302 -0.122272 0.019676
0.074807 -0.022400 -0.209299 0.992060 -0.125725 0.003085
0.065456 -0.097806 -0.209299 0.992060 -0.125725 0.003085
0.066386 -0.093340 -0.392515 0.992060 -0.125725 0.003085
0.075870 -0.020127 -0.392515 0.992060 -0.125725 0.003085
0.074807 -0.022400 -0.209299 0.992046 0.125723 0.006205
0.075870 -0.020127 -0.392515 0.992046 0.125723 0.006205
0.066386 0.053086 -0.392515 0.992046 0.125723 0.006205
0.065456 0.053005 -0.209299 0.992046 0.125723 0.006205
0.037403 -0.122941 -0.209299 0.669150 -0.742077 0.039497
0.065456 -0.097806 -0.209299 0.669150 -0.742077 0.039497
0.061770 -0.087509 0.043585 0.669150 -0.742077 0.039497
0.035297 -0.111541 0.043585 0.669150 -0.742077 0.039497
0.037403 -0.122941 -0.209299 0.000000 -0.998986 0.045032
0.035297 -0.111541 0.043585 0.000000 -0.998986 0.045032
0.000000 -0.111541 0.043585 0.000000 -0.998986 0.045032
0.000000 -0.122941 -0.209299 0.000000 -0.998986 0.045032
0.037403 -0.122941 -0.209299 0.000000 -0.999598 -0.028350
0.000000 -0.122941 -0.209299 0.000000 -0.999598 -0.028350
0.037403 -0.122941 -0.209299 0.659150 -0.751815 -0.017193
0.037935 -0.117744 -0.392515 0.659150 -0.751815 -0.017193
0.066386 -0.093340 -0.392515 0.659150 -0.751815 -0.017193
0.065456 -0.097806 -0.209299 0.659150 -0.751815 -0.017193
-0.022734 0.096060 0.759770 0.000000 0.972577 0.232580
-0.021957 0.086160 0.801168 0.000000 0.972577 0.232580
-0.022734 0.096060 0.759770 -0.000000 0.999737 -0.022924
-0.025135 0.093127 0.631868 -0.000000 0.999737 -0.022924
-0.022734 0.096060 0.759770 -0.569708 0.821773 -0.011064
-0.025135 0.093127 0.631868 -0.569708 0.821773 -0.011064
-0.043986 0.079605 0.631868 -0.569708 0.821773 -0.011064
-0.039785 0.084693 0.759770 -0.569708 0.821773 -0.011064
-0.022734 0.096060 0.759770 -0.605129 0.761079 0.233618
-0.039785 0.084693 0.759770 -0.605129 0.761079 0.233618
-0.034559 0.077246 0.790435 -0.605129 0.761079 0.233618
-0.021957 0.086160 0.801168 -0.605129 0.761079 0.233618
-0.038243 0.077115 -0.498487 -0.000000 0.999994 -0.003545
-0.037935 0.077490 -0.392515 -0.000000 0.999994 -0.003545
-0.038243 0.077115 -0.498487 -0.000000 0.903977 -0.427581
-0.038389 0.053223 -0.548998 -0.000000 0.903977 -0.427581
-0.038243 0.077115 -0.498487 -0.656536 0.657467 -0.369726
-0.038389 0.053223 -0.548998 -0.656536 0.657467 -0.369726
-0.059640 0.034706 -0.535903 -0.656536 0.657467 -0.369726
-0.066924 0.053133 -0.498487 -0.656536 0.657467 -0.369726
-0.038243 0.077115 -0.498487 -0.646273 0.763105 0.001395
-0.066924 0.053133 -0.498487 -0.646273 0.763105 0.001395
-0.066386 0.053086 -0.392515 -0.646273 0.763105 0.001395
-0.037935 0.077490 -0.392515 -0.646273 0.763105 0.001395
-0.076485 -0.018812 -0.498487 -0.991484 0.130080 0.006230
-0.075870 -0.020127 -0.392515 -0.991484 0.130080 0.006230
-0.066386 0.053086 -0.392515 -0.991484 0.130080 0.006230
-0.066924 0.053133 -0.498487 -0.991484 0.130080 0.006230
-0.076485 -0.018812 -0.498487 -0.964682 0.154441 -0.213392
-0.066924 0.053133 -0.498487 -0.964682 0.154441 -0.213392
-0.059640 0.034706 -0.535903 -0.964682 0.154441 -0.213392
-0.067169 -0.018185 -0.548998 -0.964682 0.154441 -0.213392
-0.076485 -0.018812 -0.498487 -0.963887 -0.154314 -0.217045
-0.067169 -0.018185 -0.548998 -0.963887 -0.154314 -0.217045
-0.059640 -0.071402 -0.535903 -0.963887 -0.154314 -0.217045
-0.066924 -0.090757 -0.498487 -0.963887 -0.154314 -0.217045
-0.076485 -0.018812 -0.498487 -0.991499 -0.130082 0.003002
-0.066924 -0.090757 -0.498487 -0.991499 -0.130082 0.003002
-0.066386 -0.093340 -0.392515 -0.991499 -0.130082 0.003002
-0.075870 -0.020127 -0.392515 -0.991499 -0.130082 0.003002
-0.045469 0.050592 0.759770 -0.965384 0.191893 0.176667
-0.038490 0.053095 0.801168 -0.965384 0.191893 0.176667
-0.034559 0.077246 0.790435 -0.965384 0.191893 0.176667
-0.039785 0.084693 0.759770 -0.965384 0.191893 0.176667
-0.045469 0.050592 0.759770 -0.987104 0.158205 0.024447
-0.039785 0.084693 0.759770 -0.987104 0.158205 0.024447
-0.043986 0.079605 0.631868 -0.987104 0.158205 0.024447
-0.050270 0.039037 0.631868 -0.987104 0.158205 0.024447
-0.045469 0.050592 0.759770 -0.986012 -0.158030 0.052972
-0.050270 0.039037 0.631868 -0.986012 -0.158030 0.052972
-0.043986 -0.001530 0.631868 -0.986012 -0.158030 0.052972
-0.039785 0.016490 0.759770 -0.986012 -0.158030 0.052972
-0.045469 0.050592 0.759770 -0.961193 -0.191060 0.199006
-0.039785 0.016490 0.759770 -0.961193 -0.191060 0.199006
-0.034559 0.027646 0.790435 -0.961193 -0.191060 0.199006
-0.038490 0.053095 0.801168 -0.961193 -0.191060 0.199006
-0.038438 -0.017976 -0.565836 0.000000 -0.228863 -0.973459
-0.038389 -0.089593 -0.548999 0.000000 -0.228863 -0.973459
-0.038438 -0.017976 -0.565836 -0.558958 -0.225277 -0.798008
-0.038389 -0.089593 -0.548999 -0.558958 -0.225277 -0.798008
-0.059640 -0.071402 -0.535903 -0.558958 -0.225277 -0.798008
-0.067169 -0.018185 -0.548998 -0.558958 -0.225277 -0.798008
-0.038438 -0.017976 -0.565836 -0.561459 0.226285 -0.795964
-0.067169 -0.018185 -0.548998 -0.561459 0.226285 -0.795964
-0.059640 0.034706 -0.535903 -0.561459 0.226285 -0.795964
-0.038389 0.053223 -0.548998 -0.561459 0.226285 -0.795964
-0.038438 -0.017976 -0.565836 -0.000001 0.230135 -0.973159
-0.038389 0.053223 -0.548998 -0.000001 0.230135 -0.973159
0.000000 0.053223 -0.548999 -0.000001 0.230135 -0.973159
0.000000 -0.017976 -0.565836 -0.000001 0.230135 -0.973159
-0.030265 0.086860 0.358556 -0.000000 0.999737 -0.022924
-0.030265 0.086860 0.358556 0.000000 0.999810 -0.019513
-0.035297 0.080713 0.043585 0.000000 0.999810 -0.019513
-0.030265 0.086860 0.358556 -0.658138 0.752871 -0.006307
-0.035297 0.080713 0.043585 -0.658138 0.752871 -0.006307
-0.061770 0.056681 0.043585 -0.658138 0.752871 -0.006307
-0.052964 0.067908 0.358556 -0.658138 0.752871 -0.006307
-0.030265 0.086860 0.358556 -0.615779 0.787856 -0.009999
-0.052964 0.067908 0.358556 -0.615779 0.787856 -0.009999
-0.043986 0.079605 0.631868 -0.615779 0.787856 -0.009999
-0.025135 0.093127 0.631868 -0.615779 0.787856 -0.009999
-0.060530 0.011050 0.358556 -0.989746 0.140703 0.024618
-0.050270 0.039037 0.631868 -0.989746 0.140703 0.024618
-0.043986 0.079605 0.631868 -0.989746 0.140703 0.024618
-0.052964 0.067908 0.358556 -0.989746 0.140703 0.024618
-0.060530 0.011050 0.358556 -0.991775 0.126059 0.022166
-0.052964 0.067908 0.358556 -0.991775 0.126059 0.022166
-0.061770 0.056681 0.043585 -0.991775 0.126059 0.022166
-0.070594 -0.015414 0.043585 -0.991775 0.126059 0.022166
-0.060530 0.011050 0.358556 -0.991088 -0.125972 0.043319
-0.070594 -0.015414 0.043585 -0.991088 -0.125972 0.043319
-0.061770 -0.087509 0.043585 -0.991088 -0.125972 0.043319
-0.052964 -0.045807 0.358556 -0.991088 -0.125972 0.043319
-0.060530 0.011050 0.358556 -0.988635 -0.140545 0.053374
-0.052964 -0.045807 0.358556 -0.988635 -0.140545 0.053374
-0.043986 -0.001530 0.631868 -0.988635 -0.140545 0.053374
-0.050270 0.039037 0.631868 -0.988635 -0.140545 0.053374
-0.038243 -0.114739 -0.498487 -0.646174 -0.762988 -0.017539
-0.037935 -0.117744 -0.392515 -0.646174 -0.762988 -0.017539
-0.066386 -0.093340 -0.392515 -0.646174 -0.762988 -0.017539
-0.066924 -0.090757 -0.498487 -0.646174 -0.762988 -0.017539
-0.038243 -0.114739 -0.498487 -0.652526 -0.653450 -0.383684
-0.066924 -0.090757 -0.498487 -0.652526 -0.653450 -0.383684
-0.059640 -0.071402 -0.535903 -0.652526 -0.653450 -0.383684
-0.038389 -0.089593 -0.548999 -0.652526 -0.653450 -0.383684
-0.038243 -0.114739 -0.498487 0.000000 -0.895208 -0.445649
-0.038389 -0.089593 -0.548999 0.000000 -0.895208 -0.445649
-0.038243 -0.114739 -0.498487 0.000000 -0.999598 -0.028350
-0.037935 -0.117744 -0.392515 0.000000 -0.999598 -0.028350
-0.030265 -0.064760 0.358556 -0.608874 -0.779022 0.149656
-0.025135 -0.015053 0.631868 -0.608874 -0.779022 0.149656
-0.043986 -0.001530 0.631868 -0.608874 -0.779022 0.149656
-0.052964 -0.045807 0.358556 -0.608874 -0.779022 0.149656
-0.030265 -0.064760 0.358556 -0.653447 -0.747504 0.119351
-0.052964 -0.045807 0.358556 -0.653447 -0.747504 0.119351
-0.061770 -0.087509 0.043585 -0.653447 -0.747504 0.119351
-0.035297 -0.111541 0.043585 -0.653447 -0.747504 0.119351
-0.030265 -0.064760 0.358556 0.000000 -0.989149 0.146915
-0.035297 -0.111541 0.043585 0.000000 -0.989149 0.146915
-0.030265 -0.064760 0.358556 0.000000 -0.983861 0.178934
-0.025135 -0.015053 0.631868 0.000000 -0.983861 0.178934
-0.021698 0.053929 0.814967 -0.649101 -0.324552 0.687992
-0.038490 0.053095 0.801168 -0.649101 -0.324552 0.687992
-0.034559 0.027646 0.790435 -0.649101 -0.324552 0.687992
-0.021957 0.020030 0.801168 -0.649101 -0.324552 0.687992
-0.021698 0.053929 0.814967 0.000000 -0.377025 0.926203
-0.021957 0.020030 0.801168 0.000000 -0.377025 0.926203
-0.021698 0.053929 0.814967 0.000001 0.393585 0.919288
0.000000 0.053929 0.814967 0.000001 0.393585 0.919288
0.000000 0.086160 0.801168 0.000001 0.393585 0.919288
-0.021957 0.086160 0.801168 0.000001 0.393585 0.919288
-0.021698 0.053929 0.814967 -0.666832 0.333416 0.666461
-0.021957 0.086160 0.801168 -0.666832 0.333416 0.666461
-0.034559 0.077246 0.790435 -0.666832 0.333416 0.666461
-0.038490 0.053095 0.801168 -0.666832 0.333416 0.666461
-0.022734 0.005123 0.759770 -0.590130 -0.742215 0.317591
-0.021957 0.020030 0.801168 -0.590130 -0.742215 0.317591
-0.034559 0.027646 0.790435 -0.590130 -0.742215 0.317591
-0.039785 0.016490 0.759770 -0.590130 -0.742215 0.317591
-0.022734 0.005123 0.759770 -0.564438 -0.814172 0.136137
-0.039785 0.016490 0.759770 -0.564438 -0.814172 0.136137
-0.043986 -0.001530 0.631868 -0.564438 -0.814172 0.136137
-0.025135 -0.015053 0.631868 -0.564438 -0.814172 0.136137
-0.022734 0.005123 0.759770 0.000000 -0.987786 0.155816
-0.025135 -0.015053 0.631868 0.000000 -0.987786 0.155816
-0.022734 0.005123 0.759770 0.000000 -0.940864 0.338784
-0.021957 0.020030 0.801168 0.000000 -0.940864 0.338784
-0.037403 0.078140 -0.209299 -0.000000 0.999948 -0.010175
-0.035297 0.080713 0.043585 -0.000000 0.999948 -0.010175
-0.037403 0.078140 -0.209299 -0.000000 0.999994 -0.003545
-0.037403 0.078140 -0.209299 -0.659247 0.751925 0.001464
-0.037935 0.077490 -0.392515 -0.659247 0.751925 0.001464
-0.066386 0.053086 -0.392515 -0.659247 0.751925 0.001464
-0.065456 0.053005 -0.209299 -0.659247 0.751925 0.001464
-0.037403 0.078140 -0.209299 -0.669672 0.742655 -0.001507
-0.065456 0.053005 -0.209299 -0.669672 0.742655 -0.001507
-0.061770 0.056681 0.043585 -0.669672 0.742655 -0.001507
-0.035297 0.080713 0.043585 -0.669672 0.742655 -0.001507
-0.074807 -0.022400 -0.209299 -0.992411 0.122285 0.012922
-0.070594 -0.015414 0.043585 -0.992411 0.122285 0.012922
-0.061770 0.056681 0.043585 -0.992411 0.122285 0.012922
-0.065456 0.053005 -0.209299 -0.992411 0.122285 0.012922
-0.074807 -0.022400 -0.209299 -0.992046 0.125723 0.006205
-0.065456 0.053005 -0.209299 -0.992046 0.125723 0.006205
-0.066386 0.053086 -0.392515 -0.992046 0.125723 0.006205
-0.075870 -0.020127 -0.392515 -0.992046 0.125723 0.006205
-0.074807 -0.022400 -0.209299 -0.992060 -0.125725 0.003085
-0.075870 -0.020127 -0.392515 -0.992060 -0.125725 0.003085
-0.066386 -0.093340 -0.392515 -0.992060 -0.125725 0.003085
-0.065456 -0.097806 -0.209299 -0.992060 -0.125725 0.003085
-0.074807 -0.022400 -0.209299 -0.992302 -0.122272 0.019676
-0.065456 -0.097806 -0.209299 -0.992302 -0.122272 0.019676
-0.061770 -0.087509 0.043585 -0.992302 -0.122272 0.019676
-0.070594 -0.015414 0.043585 -0.992302 -0.122272 0.019676
-0.037403 -0.122941 -0.209299 -0.669150 -0.742077 0.039497
-0.035297 -0.111541 0.043585 -0.669150 -0.742077 0.039497
-0.061770 -0.087509 0.043585 -0.669150 -0.742077 0.039497
-0.065456 -0.097806 -0.209299 -0.669150 -0.742077 0.039497
-0.037403 -0.122941 -0.209299 -0.659150 -0.751815 -0.017193
-0.065456 -0.097806 -0.209299 -0.659150 -0.751815 -0.017193
-0.066386 -0.093340 -0.392515 -0.659150 -0.751815 -0.017193
-0.037935 -0.117744 -0.392515 -0.659150 -0.751815 -0.017193
-0.037403 -0.122941 -0.209299 0.000000 -0.999598 -0.028350
-0.037403 -0.122941 -0.209299 0.000000 -0.998986 0.045032
-0.035297 -0.111541 0.043585 0.000000 -0.998986 0.045032
4 0 1 2 3
4 4 5 6 7
4 8 9 10 11
4 12 13 14 15
4 16 17 18 19
4 20 21 22 23
4 24 25 26 27
4 28 29 30 31
4 32 33 34 35
4 36 37 38 39
4 40 41 42 43
4 44 45 46 47
4 48 49 50 51
4 52 53 54 55
4 56 57 58 59
4 60 61 62 63
4 64 65 66 67
4 68 69 70 71
4 72 73 74 75
4 76 77 78 79
4 80 81 14 13
4 82 83 84 85
4 86 87 88 89
4 90 91 92 93
4 94 95 96 97
4 98 99 100 101
4 102 103 104 105
4 106 107 108 109
4 110 111 112 113
4 114 115 116 117
4 118 119 120 121
4 122 123 124 125
4 126 127 128 129
4 130 131 132 133
4 134 135 136 137
4 138 139 140 141
4 142 143 144 145
4 146 147 148 149
4 150 151 152 153
4 154 155 156 157
4 158 159 160 161
4 162 163 164 165
4 166 167 168 169
4 170 171 172 173
4 174 175 176 177
4 178 179 180 181
4 182 183 184 185
4 186 19 18 187
4 188 189 190 191
4 192 193 194 195
4 196 197 198 199
4 200 201 202 203
4 204 205 206 207
4 208 209 210 211
4 212 213 116 115
4 214 215 216 217
4 218 219 2 1
4 220 15 14 221
4 222 223 224 225
4 226 227 228 229
4 230 231 18 17
4 232 31 30 233
4 234 235 236 237
4 238 239 240 241
4 242 243 244 245
4 246 247 248 249
4 250 251 252 253
4 254 255 256 257
4 258 259 260 261
4 262 263 264 265
4 266 267 268 269
4 270 271 272 273
4 274 67 66 275
4 276 277 278 279
4 280 281 282 283
4 284 285 286 287
4 288 221 14 81
4 289 93 92 290
4 291 292 293 294
4 295 296 297 298
4 299 300 301 302
4 303 304 305 306
4 307 308 309 310
4 311 312 313 314
4 315 316 317 318
4 319 320 321 322
4 323 324 120 119
4 325 117 116 326
4 327 328 329 330
4 331 332 333 334
4 335 336 136 135
4 337 133 132 338
4 339 340 341 342
4 343 344 156 155
4 345 346 347 348
4 349 350 351 352
4 353 354 355 356
4 357 358 359 360
4 361 362 168 167
4 363 165 164 364
4 365 366 176 175
4 367 187 18 231
4 368 369 370 371
4 372 373 374 375
4 376 377 378 379
4 380 381 382 383
4 384 385 386 387
4 388 389 390 391
4 392 393 394 395
4 396 397 398 399
4 400 326 116 213
4 401 211 210 402
