ply
format ascii 1.0
comment Created by Blender 2.70 (sub 0) - www.blender.org, source file: 'Hexapod Version 4.blend'
element vertex 506
property float x
property float y
property float z
property float nx
property float ny
property float nz
element face 136
property list uchar uint vertex_indices
end_header
0.025104 0.453375 -0.024586 -0.000001 0.990380 0.138371
0.000000 0.453375 -0.024586 -0.000001 0.990380 0.138371
0.000000 0.447670 0.016246 -0.000001 0.990380 0.138371
0.025104 0.447670 0.016246 -0.000001 0.990380 0.138371
0.025104 0.453375 -0.024586 0.709733 0.685660 0.161710
0.025104 0.447670 0.016246 0.709733 0.685660 0.161710
0.039051 0.431743 0.005922 0.709733 0.685660 0.161710
0.043932 0.437727 -0.024230 0.709733 0.685660 0.161710
0.025104 0.453375 -0.024586 0.623820 0.640722 -0.447577
0.043932 0.437727 -0.024230 0.623820 0.640722 -0.447577
0.039051 0.419370 -0.053827 0.623820 0.640722 -0.447577
0.025104 0.427784 -0.064705 0.623820 0.640722 -0.447577
0.025104 0.453375 -0.024586 -0.000001 0.843085 -0.537780
0.025104 0.427784 -0.064705 -0.000001 0.843085 -0.537780
0.000000 0.427784 -0.064705 -0.000001 0.843085 -0.537780
0.000000 0.453375 -0.024586 -0.000001 0.843085 -0.537780
0.050208 -0.533795 0.030227 0.989478 -0.003102 0.144652
0.050208 -0.417825 0.027997 0.989478 -0.003102 0.144652
0.043932 -0.420694 0.075582 0.989478 -0.003102 0.144652
0.043932 -0.545273 0.068194 0.989478 -0.003102 0.144652
0.050208 -0.533795 0.030227 0.980070 -0.118803 0.159214
0.043932 -0.545273 0.068194 0.980070 -0.118803 0.159214
0.039051 -0.596953 0.051780 0.980070 -0.118803 0.159214
0.043932 -0.602989 0.025127 0.980070 -0.118803 0.159214
0.050208 -0.533795 0.030227 0.966180 -0.097295 -0.238808
0.043932 -0.602989 0.025127 0.966180 -0.097295 -0.238808
0.039051 -0.573147 0.001119 0.966180 -0.097295 -0.238808
0.043932 -0.522317 -0.007741 0.966180 -0.097295 -0.238808
0.050208 -0.533795 0.030227 0.989142 -0.009246 -0.146674
0.043932 -0.522317 -0.007741 0.989142 -0.009246 -0.146674
0.043932 -0.414955 -0.019589 0.989142 -0.009246 -0.146674
0.050208 -0.417825 0.027997 0.989142 -0.009246 -0.146674
0.025104 0.382829 -0.076646 0.000000 0.076936 -0.997036
0.025104 0.317132 -0.081715 0.000000 0.076936 -0.997036
0.000000 0.317132 -0.081715 0.000000 0.076936 -0.997036
0.000000 0.382829 -0.076646 0.000000 0.076936 -0.997036
0.025104 0.382829 -0.076646 -0.000000 0.256708 -0.966489
0.000000 0.382829 -0.076646 -0.000000 0.256708 -0.966489
0.000000 0.427784 -0.064705 -0.000000 0.256708 -0.966489
0.025104 0.427784 -0.064705 -0.000000 0.256708 -0.966489
0.025104 0.382829 -0.076646 0.607345 0.240929 -0.757024
0.025104 0.427784 -0.064705 0.607345 0.240929 -0.757024
0.039051 0.419370 -0.053827 0.607345 0.240929 -0.757024
0.043932 0.384818 -0.063275 0.607345 0.240929 -0.757024
0.025104 0.382829 -0.076646 0.590431 0.055137 -0.805202
0.043932 0.384818 -0.063275 0.590431 0.055137 -0.805202
0.043932 0.317629 -0.067305 0.590431 0.055137 -0.805202
0.025104 0.317132 -0.081715 0.590431 0.055137 -0.805202
0.025104 -0.626054 0.023427 0.821777 -0.547537 0.157754
0.043932 -0.602989 0.025127 0.821777 -0.547537 0.157754
0.039051 -0.596953 0.051780 0.821777 -0.547537 0.157754
0.025104 -0.622119 0.056809 0.821777 -0.547537 0.157754
0.025104 -0.626054 0.023427 0.000002 -0.993125 0.117058
0.025104 -0.622119 0.056809 0.000002 -0.993125 0.117058
0.000000 -0.622119 0.056809 0.000002 -0.993125 0.117058
0.000000 -0.626054 0.023427 0.000002 -0.993125 0.117058
0.025104 -0.626054 0.023427 0.000001 -0.579228 -0.815165
0.000000 -0.626054 0.023427 0.000001 -0.579228 -0.815165
0.000000 -0.583859 -0.006555 0.000001 -0.579228 -0.815165
0.025104 -0.583859 -0.006555 0.000001 -0.579228 -0.815165
0.025104 -0.626054 0.023427 0.632765 -0.436490 -0.639597
0.025104 -0.583859 -0.006555 0.632765 -0.436490 -0.639597
0.039051 -0.573147 0.001119 0.632765 -0.436490 -0.639597
0.043932 -0.602989 0.025127 0.632765 -0.436490 -0.639597
0.025104 0.398738 0.030325 0.594670 0.028495 0.803465
0.025104 0.321109 0.033571 0.594670 0.028495 0.803465
0.043932 0.320612 0.019160 0.594670 0.028495 0.803465
0.043932 0.396749 0.016954 0.594670 0.028495 0.803465
0.025104 0.398738 0.030325 0.653586 0.251585 0.713814
0.043932 0.396749 0.016954 0.653586 0.251585 0.713814
0.039051 0.431743 0.005922 0.653586 0.251585 0.713814
0.025104 0.447670 0.016246 0.653586 0.251585 0.713814
0.025104 0.398738 0.030325 0.000000 0.276510 0.961011
0.025104 0.447670 0.016246 0.000000 0.276510 0.961011
0.000000 0.447670 0.016246 0.000000 0.276510 0.961011
0.000000 0.398738 0.030325 0.000000 0.276510 0.961011
0.025104 0.398738 0.030325 0.000000 0.041783 0.999127
0.000000 0.398738 0.030325 0.000000 0.041783 0.999127
0.000000 0.321109 0.033571 0.000000 0.041783 0.999127
0.025104 0.321109 0.033571 0.000000 0.041783 0.999127
0.050208 -0.254432 0.007707 0.994741 0.012421 0.101668
0.050208 -0.089383 -0.016278 0.994741 0.012421 0.101668
0.043932 -0.089383 0.048948 0.994741 0.012421 0.101668
0.043932 -0.254432 0.065292 0.994741 0.012421 0.101668
0.050208 -0.254432 0.007707 0.992857 0.011020 0.118798
0.043932 -0.254432 0.065292 0.992857 0.011020 0.118798
0.043932 -0.420694 0.075582 0.992857 0.011020 0.118798
0.050208 -0.417825 0.027997 0.992857 0.011020 0.118798
0.050208 -0.254432 0.007707 0.992722 -0.018579 -0.118988
0.050208 -0.417825 0.027997 0.992722 -0.018579 -0.118988
0.043932 -0.414955 -0.019589 0.992722 -0.018579 -0.118988
0.043932 -0.254432 -0.049877 0.992722 -0.018579 -0.118988
0.050208 -0.254432 0.007707 0.994672 -0.017127 -0.101661
0.043932 -0.254432 -0.049877 0.994672 -0.017127 -0.101661
0.043932 -0.089383 -0.081505 0.994672 -0.017127 -0.101661
0.050208 -0.089383 -0.016278 0.994672 -0.017127 -0.101661
0.025104 -0.518491 -0.020396 -0.000000 -0.207151 -0.978309
0.025104 -0.583859 -0.006555 -0.000000 -0.207151 -0.978309
0.000000 -0.583859 -0.006555 -0.000000 -0.207151 -0.978309
0.000000 -0.518491 -0.020396 -0.000000 -0.207151 -0.978309
0.025104 -0.518491 -0.020396 -0.000000 -0.142599 -0.989781
0.000000 -0.518491 -0.020396 -0.000000 -0.142599 -0.989781
0.000000 -0.413999 -0.035451 -0.000000 -0.142599 -0.989781
0.025104 -0.413999 -0.035451 -0.000000 -0.142599 -0.989781
0.025104 -0.518491 -0.020396 0.592387 -0.101492 -0.799235
0.025104 -0.413999 -0.035451 0.592387 -0.101492 -0.799235
0.043932 -0.414955 -0.019589 0.592387 -0.101492 -0.799235
0.043932 -0.522317 -0.007741 0.592387 -0.101492 -0.799235
0.025104 -0.518491 -0.020396 0.545676 -0.182697 -0.817838
0.043932 -0.522317 -0.007741 0.545676 -0.182697 -0.817838
0.039051 -0.573147 0.001119 0.545676 -0.182697 -0.817838
0.025104 -0.583859 -0.006555 0.545676 -0.182697 -0.817838
0.025104 -0.549099 0.080850 0.627607 -0.262361 0.732991
0.025104 -0.622119 0.056809 0.627607 -0.262361 0.732991
0.039051 -0.596953 0.051780 0.627607 -0.262361 0.732991
0.043932 -0.545273 0.068194 0.627607 -0.262361 0.732991
0.025104 -0.549099 0.080850 0.607316 -0.056541 0.792446
0.043932 -0.545273 0.068194 0.607316 -0.056541 0.792446
0.043932 -0.420694 0.075582 0.607316 -0.056541 0.792446
0.025104 -0.421651 0.091444 0.607316 -0.056541 0.792446
0.025104 -0.549099 0.080850 -0.000000 -0.082838 0.996563
0.025104 -0.421651 0.091444 -0.000000 -0.082838 0.996563
0.000000 -0.421651 0.091444 -0.000000 -0.082838 0.996563
0.000000 -0.549099 0.080850 -0.000000 -0.082838 0.996563
0.025104 -0.549099 0.080850 0.000000 -0.312718 0.949846
0.000000 -0.549099 0.080850 0.000000 -0.312718 0.949846
0.000000 -0.622119 0.056809 0.000000 -0.312718 0.949846
0.025104 -0.622119 0.056809 0.000000 -0.312718 0.949846
0.025104 0.229312 -0.101222 0.000000 0.179552 -0.983748
0.025104 0.130433 -0.119269 0.000000 0.179552 -0.983748
0.000000 0.130433 -0.119269 0.000000 0.179552 -0.983748
0.000000 0.229312 -0.101222 0.000000 0.179552 -0.983748
0.025104 0.229312 -0.101222 0.000000 0.216836 -0.976208
0.000000 0.229312 -0.101222 0.000000 0.216836 -0.976208
0.000000 0.317132 -0.081715 0.000000 0.216836 -0.976208
0.025104 0.317132 -0.081715 0.000000 0.216836 -0.976208
0.025104 0.229312 -0.101222 0.642411 0.151550 -0.751226
0.025104 0.317132 -0.081715 0.642411 0.151550 -0.751226
0.043932 0.317629 -0.067305 0.642411 0.151550 -0.751226
0.043932 0.229312 -0.083331 0.642411 0.151550 -0.751226
0.025104 0.229312 -0.101222 0.717469 0.113199 -0.687331
0.043932 0.229312 -0.083331 0.717469 0.113199 -0.687331
0.043932 0.130433 -0.097853 0.717469 0.113199 -0.687331
0.025104 0.130433 -0.119269 0.717469 0.113199 -0.687331
0.025104 0.229312 0.041905 0.720869 0.058610 0.690589
0.025104 0.130433 0.052060 0.720869 0.058610 0.690589
0.043932 0.130433 0.030644 0.720869 0.058610 0.690589
0.043932 0.229312 0.024014 0.720869 0.058610 0.690589
0.025104 0.229312 0.041905 0.650530 0.054562 0.757519
0.043932 0.229312 0.024014 0.650530 0.054562 0.757519
0.043932 0.320612 0.019160 0.650530 0.054562 0.757519
0.025104 0.321109 0.033571 0.650530 0.054562 0.757519
0.025104 0.229312 0.041905 0.000000 0.090415 0.995904
0.025104 0.321109 0.033571 0.000000 0.090415 0.995904
0.000000 0.321109 0.033571 0.000000 0.090415 0.995904
0.000000 0.229312 0.041905 0.000000 0.090415 0.995904
0.025104 0.229312 0.041905 -0.000000 0.102158 0.994768
0.000000 0.229312 0.041905 -0.000000 0.102158 0.994768
0.000000 0.130433 0.052060 -0.000000 0.102158 0.994768
0.025104 0.130433 0.052060 -0.000000 0.102158 0.994768
0.050208 0.390784 -0.023161 0.975572 0.155725 0.154948
0.043932 0.437727 -0.024230 0.975572 0.155725 0.154948
0.039051 0.431743 0.005922 0.975572 0.155725 0.154948
0.043932 0.396749 0.016954 0.975572 0.155725 0.154948
0.050208 0.390784 -0.023161 0.988865 0.001304 0.148806
0.043932 0.396749 0.016954 0.988865 0.001304 0.148806
0.043932 0.320612 0.019160 0.988865 0.001304 0.148806
0.050208 0.319120 -0.024072 0.988865 0.001304 0.148806
0.050208 0.390784 -0.023161 0.988765 0.005316 -0.149383
0.050208 0.319120 -0.024072 0.988765 0.005316 -0.149383
0.043932 0.317629 -0.067305 0.988765 0.005316 -0.149383
0.043932 0.384818 -0.063275 0.988765 0.005316 -0.149383
0.050208 0.390784 -0.023161 0.965941 0.153648 -0.208208
0.043932 0.384818 -0.063275 0.965941 0.153648 -0.208208
0.039051 0.419370 -0.053827 0.965941 0.153648 -0.208208
0.043932 0.437727 -0.024230 0.965941 0.153648 -0.208208
0.050208 0.031553 -0.029597 0.995496 0.005524 0.094647
0.050208 0.130433 -0.033605 0.995496 0.005524 0.094647
0.043932 0.130433 0.030644 0.995496 0.005524 0.094647
0.043932 0.031553 0.038177 0.995496 0.005524 0.094647
0.050208 0.031553 -0.029597 0.995533 0.009358 0.093954
0.043932 0.031553 0.038177 0.995533 0.009358 0.093954
0.043932 -0.089383 0.048948 0.995533 0.009358 0.093954
0.050208 -0.089383 -0.016278 0.995533 0.009358 0.093954
0.050208 0.031553 -0.029597 0.995512 -0.011336 -0.093952
0.050208 -0.089383 -0.016278 0.995512 -0.011336 -0.093952
0.043932 -0.089383 -0.081505 0.995512 -0.011336 -0.093952
0.043932 0.031553 -0.097371 0.995512 -0.011336 -0.093952
0.050208 0.031553 -0.029597 0.995508 -0.002149 -0.094648
0.043932 0.031553 -0.097371 0.995508 -0.002149 -0.094648
0.043932 0.130433 -0.097853 0.995508 -0.002149 -0.094648
0.050208 0.130433 -0.033605 0.995508 -0.002149 -0.094648
0.025104 -0.254432 -0.069072 0.000000 -0.206176 -0.978515
0.025104 -0.413999 -0.035451 0.000000 -0.206176 -0.978515
0.000000 -0.413999 -0.035451 0.000000 -0.206176 -0.978515
0.000000 -0.254432 -0.069072 0.000000 -0.206176 -0.978515
0.025104 -0.254432 -0.069072 0.000000 -0.202759 -0.979229
0.000000 -0.254432 -0.069072 0.000000 -0.202759 -0.979229
0.000000 -0.089383 -0.103247 0.000000 -0.202759 -0.979229
0.025104 -0.089383 -0.103247 0.000000 -0.202759 -0.979229
0.025104 -0.254432 -0.069072 0.729373 -0.133742 -0.670916
0.025104 -0.089383 -0.103247 0.729373 -0.133742 -0.670916
0.043932 -0.089383 -0.081505 0.729373 -0.133742 -0.670916
0.043932 -0.254432 -0.049877 0.729373 -0.133742 -0.670916
0.025104 -0.254432 -0.069072 0.672222 -0.144958 -0.726020
0.043932 -0.254432 -0.049877 0.672222 -0.144958 -0.726020
0.043932 -0.414955 -0.019589 0.672222 -0.144958 -0.726020
0.025104 -0.413999 -0.035451 0.672222 -0.144958 -0.726020
0.025104 -0.254432 0.084486 0.680390 0.037853 0.731872
0.025104 -0.421651 0.091444 0.680390 0.037853 0.731872
0.043932 -0.420694 0.075582 0.680390 0.037853 0.731872
0.043932 -0.254432 0.065292 0.680390 0.037853 0.731872
0.025104 -0.254432 0.084486 0.734583 0.061696 0.675708
0.043932 -0.254432 0.065292 0.734583 0.061696 0.675708
0.043932 -0.089383 0.048948 0.734583 0.061696 0.675708
0.025104 -0.089383 0.070690 0.734583 0.061696 0.675708
0.025104 -0.254432 0.084486 0.000000 0.083299 0.996525
0.025104 -0.089383 0.070690 0.000000 0.083299 0.996525
0.000000 -0.089383 0.070690 0.000000 0.083299 0.996525
0.000000 -0.254432 0.084486 0.000000 0.083299 0.996525
0.025104 -0.254432 0.084486 0.000000 0.041571 0.999135
0.000000 -0.254432 0.084486 0.000000 0.041571 0.999135
0.000000 -0.421651 0.091444 0.000000 0.041571 0.999135
0.025104 -0.421651 0.091444 0.000000 0.041571 0.999135
0.025104 0.031553 -0.119962 -0.000000 -0.136912 -0.990583
0.025104 -0.089383 -0.103247 -0.000000 -0.136912 -0.990583
0.000000 -0.089383 -0.103247 -0.000000 -0.136912 -0.990583
0.000000 0.031553 -0.119962 -0.000000 -0.136912 -0.990583
0.025104 0.031553 -0.119962 -0.000000 0.007002 -0.999976
0.000000 0.031553 -0.119962 -0.000000 0.007002 -0.999976
0.000000 0.130433 -0.119269 -0.000000 0.007002 -0.999976
0.025104 0.130433 -0.119269 -0.000000 0.007002 -0.999976
0.025104 0.031553 -0.119962 0.759808 0.000689 -0.650147
0.025104 0.130433 -0.119269 0.759808 0.000689 -0.650147
0.043932 0.130433 -0.097853 0.759808 0.000689 -0.650147
0.043932 0.031553 -0.097371 0.759808 0.000689 -0.650147
0.025104 0.031553 -0.119962 0.759290 -0.086874 -0.644927
0.043932 0.031553 -0.097371 0.759290 -0.086874 -0.644927
0.043932 -0.089383 -0.081505 0.759290 -0.086874 -0.644927
0.025104 -0.089383 -0.103247 0.759290 -0.086874 -0.644927
0.025104 0.031553 0.060768 0.761005 0.055302 0.646384
0.025104 -0.089383 0.070690 0.761005 0.055302 0.646384
0.043932 -0.089383 0.048948 0.761005 0.055302 0.646384
0.043932 0.031553 0.038177 0.761005 0.055302 0.646384
0.025104 0.031553 0.060768 0.758727 0.053319 0.649223
0.043932 0.031553 0.038177 0.758727 0.053319 0.649223
0.043932 0.130433 0.030644 0.758727 0.053319 0.649223
0.025104 0.130433 0.052060 0.758727 0.053319 0.649223
0.025104 0.031553 0.060768 -0.000000 0.087730 0.996144
0.025104 0.130433 0.052060 -0.000000 0.087730 0.996144
0.000000 0.130433 0.052060 -0.000000 0.087730 0.996144
0.000000 0.031553 0.060768 -0.000000 0.087730 0.996144
0.025104 0.031553 0.060768 0.000000 0.081770 0.996651
0.000000 0.031553 0.060768 0.000000 0.081770 0.996651
0.000000 -0.089383 0.070690 0.000000 0.081770 0.996651
0.025104 -0.089383 0.070690 0.000000 0.081770 0.996651
0.050208 0.229312 -0.029658 0.991714 -0.000520 0.128463
0.050208 0.319120 -0.024072 0.991714 -0.000520 0.128463
0.043932 0.320612 0.019160 0.991714 -0.000520 0.128463
0.043932 0.229312 0.024014 0.991714 -0.000520 0.128463
0.050208 0.229312 -0.029658 0.994381 0.001436 0.105846
0.043932 0.229312 0.024014 0.994381 0.001436 0.105846
0.043932 0.130433 0.030644 0.994381 0.001436 0.105846
0.050208 0.130433 -0.033605 0.994381 0.001436 0.105846
0.050208 0.229312 -0.029658 0.994334 0.009884 -0.105841
0.050208 0.130433 -0.033605 0.994334 0.009884 -0.105841
0.043932 0.130433 -0.097853 0.994334 0.009884 -0.105841
0.043932 0.229312 -0.083331 0.994334 0.009884 -0.105841
0.050208 0.229312 -0.029658 0.991564 0.015613 -0.128676
0.043932 0.229312 -0.083331 0.991564 0.015613 -0.128676
0.043932 0.317629 -0.067305 0.991564 0.015613 -0.128676
0.050208 0.319120 -0.024072 0.991564 0.015613 -0.128676
-0.025104 0.453375 -0.024586 0.000000 0.990381 0.138370
-0.025104 0.447670 0.016246 0.000000 0.990381 0.138370
0.000000 0.447670 0.016246 0.000000 0.990381 0.138370
0.000000 0.453375 -0.024586 0.000000 0.990381 0.138370
-0.025104 0.453375 -0.024586 0.000000 0.843086 -0.537779
0.000000 0.453375 -0.024586 0.000000 0.843086 -0.537779
0.000000 0.427784 -0.064705 0.000000 0.843086 -0.537779
-0.025104 0.427784 -0.064705 0.000000 0.843086 -0.537779
-0.025104 0.453375 -0.024586 -0.623820 0.640722 -0.447576
-0.025104 0.427784 -0.064705 -0.623820 0.640722 -0.447576
-0.039051 0.419370 -0.053827 -0.623820 0.640722 -0.447576
-0.043932 0.437727 -0.024230 -0.623820 0.640722 -0.447576
-0.025104 0.453375 -0.024586 -0.709733 0.685660 0.161709
-0.043932 0.437727 -0.024230 -0.709733 0.685660 0.161709
-0.039051 0.431743 0.005922 -0.709733 0.685660 0.161709
-0.025104 0.447670 0.016246 -0.709733 0.685660 0.161709
-0.050208 -0.533795 0.030227 -0.989478 -0.003102 0.144652
-0.043932 -0.545273 0.068194 -0.989478 -0.003102 0.144652
-0.043932 -0.420694 0.075582 -0.989478 -0.003102 0.144652
-0.050208 -0.417825 0.027997 -0.989478 -0.003102 0.144652
-0.050208 -0.533795 0.030227 -0.989142 -0.009246 -0.146674
-0.050208 -0.417825 0.027997 -0.989142 -0.009246 -0.146674
-0.043932 -0.414955 -0.019589 -0.989142 -0.009246 -0.146674
-0.043932 -0.522317 -0.007741 -0.989142 -0.009246 -0.146674
-0.050208 -0.533795 0.030227 -0.966180 -0.097295 -0.238808
-0.043932 -0.522317 -0.007741 -0.966180 -0.097295 -0.238808
-0.039051 -0.573147 0.001119 -0.966180 -0.097295 -0.238808
-0.043932 -0.602989 0.025127 -0.966180 -0.097295 -0.238808
-0.050208 -0.533795 0.030227 -0.980070 -0.118803 0.159214
-0.043932 -0.602989 0.025127 -0.980070 -0.118803 0.159214
-0.039051 -0.596953 0.051780 -0.980070 -0.118803 0.159214
-0.043932 -0.545273 0.068194 -0.980070 -0.118803 0.159214
-0.025104 0.382829 -0.076646 0.000000 0.076936 -0.997036
-0.025104 0.317132 -0.081715 0.000000 0.076936 -0.997036
-0.025104 0.382829 -0.076646 -0.590431 0.055137 -0.805202
-0.025104 0.317132 -0.081715 -0.590431 0.055137 -0.805202
-0.043932 0.317629 -0.067305 -0.590431 0.055137 -0.805202
-0.043932 0.384818 -0.063275 -0.590431 0.055137 -0.805202
-0.025104 0.382829 -0.076646 -0.607345 0.240929 -0.757024
-0.043932 0.384818 -0.063275 -0.607345 0.240929 -0.757024
-0.039051 0.419370 -0.053827 -0.607345 0.240929 -0.757024
-0.025104 0.427784 -0.064705 -0.607345 0.240929 -0.757024
-0.025104 0.382829 -0.076646 0.000000 0.256708 -0.966489
-0.025104 0.427784 -0.064705 0.000000 0.256708 -0.966489
-0.025104 -0.626054 0.023427 -0.821778 -0.547536 0.157754
-0.025104 -0.622119 0.056809 -0.821778 -0.547536 0.157754
-0.039051 -0.596953 0.051780 -0.821778 -0.547536 0.157754
-0.043932 -0.602989 0.025127 -0.821778 -0.547536 0.157754
-0.025104 -0.626054 0.023427 -0.632766 -0.436489 -0.639597
-0.043932 -0.602989 0.025127 -0.632766 -0.436489 -0.639597
-0.039051 -0.573147 0.001119 -0.632766 -0.436489 -0.639597
-0.025104 -0.583859 -0.006555 -0.632766 -0.436489 -0.639597
-0.025104 -0.626054 0.023427 -0.000000 -0.579228 -0.815165
-0.025104 -0.583859 -0.006555 -0.000000 -0.579228 -0.815165
0.000000 -0.583859 -0.006555 -0.000000 -0.579228 -0.815165
0.000000 -0.626054 0.023427 -0.000000 -0.579228 -0.815165
-0.025104 -0.626054 0.023427 0.000000 -0.993125 0.117058
0.000000 -0.626054 0.023427 0.000000 -0.993125 0.117058
0.000000 -0.622119 0.056809 0.000000 -0.993125 0.117058
-0.025104 -0.622119 0.056809 0.000000 -0.993125 0.117058
-0.025104 0.398738 0.030325 -0.594670 0.028495 0.803465
-0.043932 0.396749 0.016954 -0.594670 0.028495 0.803465
-0.043932 0.320612 0.019160 -0.594670 0.028495 0.803465
-0.025104 0.321109 0.033571 -0.594670 0.028495 0.803465
-0.025104 0.398738 0.030325 -0.000000 0.041783 0.999127
-0.025104 0.321109 0.033571 -0.000000 0.041783 0.999127
-0.025104 0.398738 0.030325 0.000000 0.276510 0.961011
-0.025104 0.447670 0.016246 0.000000 0.276510 0.961011
-0.025104 0.398738 0.030325 -0.653586 0.251585 0.713814
-0.025104 0.447670 0.016246 -0.653586 0.251585 0.713814
-0.039051 0.431743 0.005922 -0.653586 0.251585 0.713814
-0.043932 0.396749 0.016954 -0.653586 0.251585 0.713814
-0.050208 -0.254432 0.007707 -0.994741 0.012421 0.101668
-0.043932 -0.254432 0.065292 -0.994741 0.012421 0.101668
-0.043932 -0.089383 0.048948 -0.994741 0.012421 0.101668
-0.050208 -0.089383 -0.016278 -0.994741 0.012421 0.101668
-0.050208 -0.254432 0.007707 -0.994672 -0.017127 -0.101661
-0.050208 -0.089383 -0.016278 -0.994672 -0.017127 -0.101661
-0.043932 -0.089383 -0.081505 -0.994672 -0.017127 -0.101661
-0.043932 -0.254432 -0.049877 -0.994672 -0.017127 -0.101661
-0.050208 -0.254432 0.007707 -0.992722 -0.018579 -0.118988
-0.043932 -0.254432 -0.049877 -0.992722 -0.018579 -0.118988
-0.043932 -0.414955 -0.019589 -0.992722 -0.018579 -0.118988
-0.050208 -0.417825 0.027997 -0.992722 -0.018579 -0.118988
-0.050208 -0.254432 0.007707 -0.992857 0.011020 0.118798
-0.050208 -0.417825 0.027997 -0.992857 0.011020 0.118798
-0.043932 -0.420694 0.075582 -0.992857 0.011020 0.118798
-0.043932 -0.254432 0.065292 -0.992857 0.011020 0.118798
-0.025104 -0.518491 -0.020396 -0.000000 -0.207151 -0.978309
-0.025104 -0.583859 -0.006555 -0.000000 -0.207151 -0.978309
-0.025104 -0.518491 -0.020396 -0.545676 -0.182697 -0.817838
-0.025104 -0.583859 -0.006555 -0.545676 -0.182697 -0.817838
-0.039051 -0.573147 0.001119 -0.545676 -0.182697 -0.817838
-0.043932 -0.522317 -0.007741 -0.545676 -0.182697 -0.817838
-0.025104 -0.518491 -0.020396 -0.592387 -0.101492 -0.799235
-0.043932 -0.522317 -0.007741 -0.592387 -0.101492 -0.799235
-0.043932 -0.414955 -0.019589 -0.592387 -0.101492 -0.799235
-0.025104 -0.413999 -0.035451 -0.592387 -0.101492 -0.799235
-0.025104 -0.518491 -0.020396 0.000000 -0.142599 -0.989781
-0.025104 -0.413999 -0.035451 0.000000 -0.142599 -0.989781
-0.025104 -0.549099 0.080850 -0.627607 -0.262361 0.732991
-0.043932 -0.545273 0.068194 -0.627607 -0.262361 0.732991
-0.039051 -0.596953 0.051780 -0.627607 -0.262361 0.732991
-0.025104 -0.622119 0.056809 -0.627607 -0.262361 0.732991
-0.025104 -0.549099 0.080850 0.000000 -0.312718 0.949846
-0.025104 -0.622119 0.056809 0.000000 -0.312718 0.949846
-0.025104 -0.549099 0.080850 0.000000 -0.082838 0.996563
-0.025104 -0.421651 0.091444 0.000000 -0.082838 0.996563
-0.025104 -0.549099 0.080850 -0.607316 -0.056541 0.792446
-0.025104 -0.421651 0.091444 -0.607316 -0.056541 0.792446
-0.043932 -0.420694 0.075582 -0.607316 -0.056541 0.792446
-0.043932 -0.545273 0.068194 -0.607316 -0.056541 0.792446
-0.025104 0.229312 -0.101222 -0.000000 0.179553 -0.983748
0.000000 0.229312 -0.101222 -0.000000 0.179553 -0.983748
0.000000 0.130433 -0.119269 -0.000000 0.179553 -0.983748
-0.025104 0.130433 -0.119269 -0.000000 0.179553 -0.983748
-0.025104 0.229312 -0.101222 -0.717469 0.113199 -0.687331
-0.025104 0.130433 -0.119269 -0.717469 0.113199 -0.687331
-0.043932 0.130433 -0.097853 -0.717469 0.113199 -0.687331
-0.043932 0.229312 -0.083331 -0.717469 0.113199 -0.687331
-0.025104 0.229312 -0.101222 -0.642411 0.151550 -0.751226
-0.043932 0.229312 -0.083331 -0.642411 0.151550 -0.751226
-0.043932 0.317629 -0.067305 -0.642411 0.151550 -0.751226
-0.025104 0.317132 -0.081715 -0.642411 0.151550 -0.751226
-0.025104 0.229312 -0.101222 -0.000000 0.216836 -0.976208
-0.025104 0.317132 -0.081715 -0.000000 0.216836 -0.976208
-0.025104 0.229312 0.041905 -0.720869 0.058610 0.690589
-0.043932 0.229312 0.024014 -0.720869 0.058610 0.690589
-0.043932 0.130433 0.030644 -0.720869 0.058610 0.690589
-0.025104 0.130433 0.052060 -0.720869 0.058610 0.690589
-0.025104 0.229312 0.041905 0.000000 0.102158 0.994768
-0.025104 0.130433 0.052060 0.000000 0.102158 0.994768
-0.025104 0.229312 0.041905 -0.000000 0.090415 0.995904
-0.025104 0.321109 0.033571 -0.000000 0.090415 0.995904
-0.025104 0.229312 0.041905 -0.650530 0.054562 0.757519
-0.025104 0.321109 0.033571 -0.650530 0.054562 0.757519
-0.043932 0.320612 0.019160 -0.650530 0.054562 0.757519
-0.043932 0.229312 0.024014 -0.650530 0.054562 0.757519
-0.050208 0.390784 -0.023161 -0.975572 0.155725 0.154947
-0.043932 0.396749 0.016954 -0.975572 0.155725 0.154947
-0.039051 0.431743 0.005922 -0.975572 0.155725 0.154947
-0.043932 0.437727 -0.024230 -0.975572 0.155725 0.154947
-0.050208 0.390784 -0.023161 -0.965941 0.153648 -0.208208
-0.043932 0.437727 -0.024230 -0.965941 0.153648 -0.208208
-0.039051 0.419370 -0.053827 -0.965941 0.153648 -0.208208
-0.043932 0.384818 -0.063275 -0.965941 0.153648 -0.208208
-0.050208 0.390784 -0.023161 -0.988765 0.005316 -0.149383
-0.043932 0.384818 -0.063275 -0.988765 0.005316 -0.149383
-0.043932 0.317629 -0.067305 -0.988765 0.005316 -0.149383
-0.050208 0.319120 -0.024072 -0.988765 0.005316 -0.149383
-0.050208 0.390784 -0.023161 -0.988865 0.001304 0.148806
-0.050208 0.319120 -0.024072 -0.988865 0.001304 0.148806
-0.043932 0.320612 0.019160 -0.988865 0.001304 0.148806
-0.043932 0.396749 0.016954 -0.988865 0.001304 0.148806
-0.050208 0.031553 -0.029597 -0.995496 0.005524 0.094647
-0.043932 0.031553 0.038177 -0.995496 0.005524 0.094647
-0.043932 0.130433 0.030644 -0.995496 0.005524 0.094647
-0.050208 0.130433 -0.033605 -0.995496 0.005524 0.094647
-0.050208 0.031553 -0.029597 -0.995508 -0.002149 -0.094648
-0.050208 0.130433 -0.033605 -0.995508 -0.002149 -0.094648
-0.043932 0.130433 -0.097853 -0.995508 -0.002149 -0.094648
-0.043932 0.031553 -0.097371 -0.995508 -0.002149 -0.094648
-0.050208 0.031553 -0.029597 -0.995512 -0.011336 -0.093952
-0.043932 0.031553 -0.097371 -0.995512 -0.011336 -0.093952
-0.043932 -0.089383 -0.081505 -0.995512 -0.011336 -0.093952
-0.050208 -0.089383 -0.016278 -0.995512 -0.011336 -0.093952
-0.050208 0.031553 -0.029597 -0.995533 0.009358 0.093954
-0.050208 -0.089383 -0.016278 -0.995533 0.009358 0.093954
-0.043932 -0.089383 0.048948 -0.995533 0.009358 0.093954
-0.043932 0.031553 0.038177 -0.995533 0.009358 0.093954
-0.025104 -0.254432 -0.069072 0.000000 -0.206176 -0.978515
-0.025104 -0.413999 -0.035451 0.000000 -0.206176 -0.978515
-0.025104 -0.254432 -0.069072 -0.672222 -0.144958 -0.726020
-0.025104 -0.413999 -0.035451 -0.672222 -0.144958 -0.726020
-0.043932 -0.414955 -0.019589 -0.672222 -0.144958 -0.726020
-0.043932 -0.254432 -0.049877 -0.672222 -0.144958 -0.726020
-0.025104 -0.254432 -0.069072 -0.729373 -0.133742 -0.670916
-0.043932 -0.254432 -0.049877 -0.729373 -0.133742 -0.670916
-0.043932 -0.089383 -0.081505 -0.729373 -0.133742 -0.670916
-0.025104 -0.089383 -0.103247 -0.729373 -0.133742 -0.670916
-0.025104 -0.254432 -0.069072 0.000000 -0.202759 -0.979229
-0.025104 -0.089383 -0.103247 0.000000 -0.202759 -0.979229
-0.025104 -0.254432 0.084486 -0.680390 0.037853 0.731872
-0.043932 -0.254432 0.065292 -0.680390 0.037853 0.731872
-0.043932 -0.420694 0.075582 -0.680390 0.037853 0.731872
-0.025104 -0.421651 0.091444 -0.680390 0.037853 0.731872
-0.025104 -0.254432 0.084486 0.000000 0.041571 0.999135
-0.025104 -0.421651 0.091444 0.000000 0.041571 0.999135
-0.025104 -0.254432 0.084486 0.000000 0.083299 0.996525
-0.025104 -0.089383 0.070690 0.000000 0.083299 0.996525
-0.025104 -0.254432 0.084486 -0.734583 0.061696 0.675708
-0.025104 -0.089383 0.070690 -0.734583 0.061696 0.675708
-0.043932 -0.089383 0.048948 -0.734583 0.061696 0.675708
-0.043932 -0.254432 0.065292 -0.734583 0.061696 0.675708
-0.025104 0.031553 -0.119962 0.000000 -0.136912 -0.990583
-0.025104 -0.089383 -0.103247 0.000000 -0.136912 -0.990583
-0.025104 0.031553 -0.119962 -0.759290 -0.086874 -0.644927
-0.025104 -0.089383 -0.103247 -0.759290 -0.086874 -0.644927
-0.043932 -0.089383 -0.081505 -0.759290 -0.086874 -0.644927
-0.043932 0.031553 -0.097371 -0.759290 -0.086874 -0.644927
-0.025104 0.031553 -0.119962 -0.759808 0.000689 -0.650147
-0.043932 0.031553 -0.097371 -0.759808 0.000689 -0.650147
-0.043932 0.130433 -0.097853 -0.759808 0.000689 -0.650147
-0.025104 0.130433 -0.119269 -0.759808 0.000689 -0.650147
-0.025104 0.031553 -0.119962 0.000000 0.007002 -0.999976
-0.025104 0.130433 -0.119269 0.000000 0.007002 -0.999976
-0.025104 0.031553 0.060768 -0.761005 0.055302 0.646384
-0.043932 0.031553 0.038177 -0.761005 0.055302 0.646384
-0.043932 -0.089383 0.048948 -0.761005 0.055302 0.646384
-0.025104 -0.089383 0.070690 -0.761005 0.055302 0.646384
-0.025104 0.031553 0.060768 -0.000000 0.081770 0.996651
-0.025104 -0.089383 0.070690 -0.000000 0.081770 0.996651
-0.025104 0.031553 0.060768 -0.000000 0.087730 0.996144
-0.025104 0.130433 0.052060 -0.000000 0.087730 0.996144
-0.025104 0.031553 0.060768 -0.758727 0.053319 0.649223
-0.025104 0.130433 0.052060 -0.758727 0.053319 0.649223
-0.043932 0.130433 0.030644 -0.758727 0.053319 0.649223
-0.043932 0.031553 0.038177 -0.758727 0.053319 0.649223
-0.050208 0.229312 -0.029658 -0.991714 -0.000520 0.128463
-0.043932 0.229312 0.024014 -0.991714 -0.000520 0.128463
-0.043932 0.320612 0.019160 -0.991714 -0.000520 0.128463
-0.050208 0.319120 -0.024072 -0.991714 -0.000520 0.128463
-0.050208 0.229312 -0.029658 -0.991564 0.015613 -0.128676
-0.050208 0.319120 -0.024072 -0.991564 0.015613 -0.128676
-0.043932 0.317629 -0.067305 -0.991564 0.015613 -0.128676
-0.043932 0.229312 -0.083331 -0.991564 0.015613 -0.128676
-0.050208 0.229312 -0.029658 -0.994334 0.009884 -0.105841
-0.043932 0.229312 -0.083331 -0.994334 0.009884 -0.105841
-0.043932 0.130433 -0.097853 -0.994334 0.009884 -0.105841
-0.050208 0.130433 -0.033605 -0.994334 0.009884 -0.105841
-0.050208 0.229312 -0.029658 -0.994381 0.001436 0.105846
-0.050208 0.130433 -0.033605 -0.994381 0.001436 0.105846
-0.043932 0.130433 0.030644 -0.994381 0.001436 0.105846
-0.043932 0.229312 0.024014 -0.994381 0.001436 0.105846
4 0 1 2 3
4 4 5 6 7
4 8 9 10 11
4 12 13 14 15
4 16 17 18 19
4 20 21 22 23
4 24 25 26 27
4 28 29 30 31
4 32 33 34 35
4 36 37 38 39
4 40 41 42 43
4 44 45 46 47
4 48 49 50 51
4 52 53 54 55
4 56 57 58 59
4 60 61 62 63
4 64 65 66 67
4 68 69 70 71
4 72 73 74 75
4 76 77 78 79
4 80 81 82 83
4 84 85 86 87
4 88 89 90 91
4 92 93 94 95
4 96 97 98 99
4 100 101 102 103
4 104 105 106 107
4 108 109 110 111
4 112 113 114 115
4 116 117 118 119
4 120 121 122 123
4 124 125 126 127
4 128 129 130 131
4 132 133 134 135
4 136 137 138 139
4 140 141 142 143
4 144 145 146 147
4 148 149 150 151
4 152 153 154 155
4 156 157 158 159
4 160 161 162 163
4 164 165 166 167
4 168 169 170 171
4 172 173 174 175
4 176 177 178 179
4 180 181 182 183
4 184 185 186 187
4 188 189 190 191
4 192 193 194 195
4 196 197 198 199
4 200 201 202 203
4 204 205 206 207
4 208 209 210 211
4 212 213 214 215
4 216 217 218 219
4 220 221 222 223
4 224 225 226 227
4 228 229 230 231
4 232 233 234 235
4 236 237 238 239
4 240 241 242 243
4 244 245 246 247
4 248 249 250 251
4 252 253 254 255
4 256 257 258 259
4 260 261 262 263
4 264 265 266 267
4 268 269 270 271
4 272 273 274 275
4 276 277 278 279
4 280 281 282 283
4 284 285 286 287
4 288 289 290 291
4 292 293 294 295
4 296 297 298 299
4 300 301 302 303
4 304 35 34 305
4 306 307 308 309
4 310 311 312 313
4 314 315 38 37
4 316 317 318 319
4 320 321 322 323
4 324 325 326 327
4 328 329 330 331
4 332 333 334 335
4 336 337 78 77
4 338 75 74 339
4 340 341 342 343
4 344 345 346 347
4 348 349 350 351
4 352 353 354 355
4 356 357 358 359
4 360 99 98 361
4 362 363 364 365
4 366 367 368 369
4 370 371 102 101
4 372 373 374 375
4 376 377 126 125
4 378 123 122 379
4 380 381 382 383
4 384 385 386 387
4 388 389 390 391
4 392 393 394 395
4 396 397 134 133
4 398 399 400 401
4 402 403 158 157
4 404 155 154 405
4 406 407 408 409
4 410 411 412 413
4 414 415 416 417
4 418 419 420 421
4 422 423 424 425
4 426 427 428 429
4 430 431 432 433
4 434 435 436 437
4 438 439 440 441
4 442 195 194 443
4 444 445 446 447
4 448 449 450 451
4 452 453 198 197
4 454 455 456 457
4 458 459 222 221
4 460 219 218 461
4 462 463 464 465
4 466 227 226 467
4 468 469 470 471
4 472 473 474 475
4 476 477 230 229
4 478 479 480 481
4 482 483 254 253
4 484 251 250 485
4 486 487 488 489
4 490 491 492 493
4 494 495 496 497
4 498 499 500 501
4 502 503 504 505
