ply
format ascii 1.0
comment Created by Blender 2.70 (sub 0) - www.blender.org, source file: 'Hexapod Version 4.blend'
element vertex 186
property float x
property float y
property float z
property float nx
property float ny
property float nz
element face 56
property list uchar uint vertex_indices
end_header
0.031424 -0.129234 0.536957 0.948670 0.306473 0.078095
0.032868 -0.087975 0.357507 0.948670 0.306473 0.078095
0.024651 -0.064191 0.363985 0.948670 0.306473 0.078095
0.023568 -0.106494 0.543151 0.948670 0.306473 0.078095
0.031424 -0.129234 0.536957 0.913040 0.303574 0.272400
0.023568 -0.106494 0.543151 0.913040 0.303574 0.272400
0.017354 -0.119890 0.573704 0.913040 0.303574 0.272400
0.023335 -0.139224 0.580408 0.913040 0.303574 0.272400
0.031424 -0.129234 0.536957 0.907828 -0.405115 0.108304
0.023335 -0.139224 0.580408 0.907828 -0.405115 0.108304
0.017354 -0.153378 0.564582 0.907828 -0.405115 0.108304
0.023568 -0.151974 0.530763 0.907828 -0.405115 0.108304
0.031424 -0.129234 0.536957 0.948492 -0.310327 -0.063720
0.023568 -0.151974 0.530763 0.948492 -0.310327 -0.063720
0.024651 -0.111760 0.351028 0.948492 -0.310327 -0.063720
0.032868 -0.087975 0.357507 0.948492 -0.310327 -0.063720
0.000000 -0.159554 0.528699 0.315903 -0.926303 -0.205350
0.000000 -0.119688 0.348868 0.315903 -0.926303 -0.205350
0.024651 -0.111760 0.351028 0.315903 -0.926303 -0.205350
0.023568 -0.151974 0.530763 0.315903 -0.926303 -0.205350
0.000000 -0.159554 0.528699 0.360671 -0.932589 -0.013938
0.023568 -0.151974 0.530763 0.360671 -0.932589 -0.013938
0.017354 -0.153378 0.564582 0.360671 -0.932589 -0.013938
0.000000 -0.161739 0.574275 0.360671 -0.932589 -0.013938
0.000000 -0.159554 0.528699 -0.360671 -0.932589 -0.013938
0.000000 -0.161739 0.574275 -0.360671 -0.932589 -0.013938
-0.017354 -0.153378 0.564582 -0.360671 -0.932589 -0.013938
-0.023568 -0.151974 0.530763 -0.360671 -0.932589 -0.013938
0.000000 -0.159554 0.528699 -0.315903 -0.926303 -0.205350
-0.023568 -0.151974 0.530763 -0.315903 -0.926303 -0.205350
-0.024651 -0.111760 0.351028 -0.315903 -0.926303 -0.205350
0.000000 -0.119688 0.348868 -0.315903 -0.926303 -0.205350
-0.031424 -0.129234 0.536957 -0.948492 -0.310327 -0.063720
-0.032868 -0.087975 0.357507 -0.948492 -0.310327 -0.063720
-0.024651 -0.111760 0.351028 -0.948492 -0.310327 -0.063720
-0.023568 -0.151974 0.530763 -0.948492 -0.310327 -0.063720
-0.031424 -0.129234 0.536957 -0.907828 -0.405115 0.108304
-0.023568 -0.151974 0.530763 -0.907828 -0.405115 0.108304
-0.017354 -0.153378 0.564582 -0.907828 -0.405115 0.108304
-0.023335 -0.139224 0.580408 -0.907828 -0.405115 0.108304
-0.031424 -0.129234 0.536957 -0.913040 0.303573 0.272400
-0.023335 -0.139224 0.580408 -0.913040 0.303573 0.272400
-0.017354 -0.119890 0.573704 -0.913040 0.303573 0.272400
-0.023568 -0.106494 0.543151 -0.913040 0.303573 0.272400
-0.031424 -0.129234 0.536957 -0.948671 0.306473 0.078095
-0.023568 -0.106494 0.543151 -0.948671 0.306473 0.078095
-0.024651 -0.064191 0.363985 -0.948671 0.306473 0.078095
-0.032868 -0.087975 0.357507 -0.948671 0.306473 0.078095
-0.000000 -0.098914 0.545216 -0.316081 0.922914 0.219822
0.000000 -0.056262 0.366145 -0.316081 0.922914 0.219822
-0.024651 -0.064191 0.363985 -0.316081 0.922914 0.219822
-0.023568 -0.106494 0.543151 -0.316081 0.922914 0.219822
-0.000000 -0.098914 0.545216 -0.365874 0.841782 0.396913
-0.023568 -0.106494 0.543151 -0.365874 0.841782 0.396913
-0.017354 -0.119890 0.573704 -0.365874 0.841782 0.396913
-0.000000 -0.116709 0.586540 -0.365874 0.841782 0.396913
-0.000000 -0.098914 0.545216 0.365874 0.841782 0.396913
-0.000000 -0.116709 0.586540 0.365874 0.841782 0.396913
0.017354 -0.119890 0.573704 0.365874 0.841782 0.396913
0.023568 -0.106494 0.543151 0.365874 0.841782 0.396913
-0.000000 -0.098914 0.545216 0.316081 0.922914 0.219822
0.023568 -0.106494 0.543151 0.316081 0.922914 0.219822
0.024651 -0.064191 0.363985 0.316081 0.922914 0.219822
0.000000 -0.056262 0.366145 0.316081 0.922914 0.219822
0.000000 -0.142554 0.594891 0.525214 0.330788 0.784047
0.023335 -0.139224 0.580408 0.525214 0.330788 0.784047
0.017354 -0.119890 0.573704 0.525214 0.330788 0.784047
-0.000000 -0.116709 0.586540 0.525214 0.330788 0.784047
0.000000 -0.142554 0.594891 -0.525214 0.330788 0.784047
-0.000000 -0.116709 0.586540 -0.525214 0.330788 0.784047
-0.017354 -0.119890 0.573704 -0.525214 0.330788 0.784047
-0.023335 -0.139224 0.580408 -0.525214 0.330788 0.784047
0.000000 -0.142554 0.594891 -0.510620 -0.674474 0.533247
-0.023335 -0.139224 0.580408 -0.510620 -0.674474 0.533247
-0.017354 -0.153378 0.564582 -0.510620 -0.674474 0.533247
0.000000 -0.161739 0.574275 -0.510620 -0.674474 0.533247
0.000000 -0.142554 0.594891 0.510620 -0.674474 0.533247
0.000000 -0.161739 0.574275 0.510620 -0.674474 0.533247
0.017354 -0.153378 0.564582 0.510620 -0.674474 0.533247
0.023335 -0.139224 0.580408 0.510620 -0.674474 0.533247
0.000000 0.156981 -0.707902 -0.398750 0.601771 -0.692005
-0.030979 0.154138 -0.695537 -0.398750 0.601771 -0.692005
-0.022889 0.174011 -0.679904 -0.398750 0.601771 -0.692005
0.000000 0.184028 -0.687395 -0.398750 0.601771 -0.692005
0.000000 0.156981 -0.707902 0.398750 0.601771 -0.692005
0.000000 0.184028 -0.687395 0.398750 0.601771 -0.692005
0.022889 0.174011 -0.679904 0.398750 0.601771 -0.692005
0.030979 0.154138 -0.695537 0.398750 0.601771 -0.692005
0.000000 0.156981 -0.707902 0.409460 -0.180804 -0.894233
0.030979 0.154138 -0.695537 0.409460 -0.180804 -0.894233
0.022889 0.129843 -0.691935 0.409460 -0.180804 -0.894233
-0.000000 0.124248 -0.703678 0.409460 -0.180804 -0.894233
0.000000 0.156981 -0.707902 -0.409460 -0.180804 -0.894233
-0.000000 0.124248 -0.703678 -0.409460 -0.180804 -0.894233
-0.022889 0.129843 -0.691935 -0.409460 -0.180804 -0.894233
-0.030979 0.154138 -0.695537 -0.409460 -0.180804 -0.894233
0.036266 0.009161 -0.064978 0.948671 0.306473 0.078095
0.039648 0.105811 -0.485344 0.948671 0.306473 0.078095
0.029736 0.134502 -0.477530 0.948671 0.306473 0.078095
0.027200 0.035405 -0.057830 0.948671 0.306473 0.078095
0.024651 -0.064191 0.363985 0.948671 0.306473 0.078095
0.032868 -0.087975 0.357507 0.948671 0.306473 0.078095
0.036266 0.009161 -0.064978 0.948492 -0.310326 -0.063720
0.032868 -0.087975 0.357507 0.948492 -0.310326 -0.063720
0.024651 -0.111760 0.351028 0.948492 -0.310326 -0.063720
0.027200 -0.017082 -0.072126 0.948492 -0.310326 -0.063720
0.029736 0.077120 -0.493159 0.948492 -0.310326 -0.063720
0.039648 0.105811 -0.485344 0.948492 -0.310326 -0.063720
-0.000000 -0.025830 -0.074509 0.315903 -0.926303 -0.205350
-0.000000 0.067557 -0.495764 0.315903 -0.926303 -0.205350
0.029736 0.077120 -0.493159 0.315903 -0.926303 -0.205350
0.027200 -0.017082 -0.072126 0.315903 -0.926303 -0.205350
-0.000000 -0.025830 -0.074509 -0.315903 -0.926303 -0.205350
-0.027200 -0.017082 -0.072126 -0.315903 -0.926303 -0.205350
-0.029736 0.077120 -0.493159 -0.315903 -0.926303 -0.205350
-0.000000 0.067557 -0.495764 -0.315903 -0.926303 -0.205350
-0.036266 0.009161 -0.064978 -0.948492 -0.310326 -0.063720
-0.039648 0.105811 -0.485344 -0.948492 -0.310326 -0.063720
-0.029736 0.077120 -0.493159 -0.948492 -0.310326 -0.063720
-0.027200 -0.017082 -0.072126 -0.948492 -0.310326 -0.063720
-0.024651 -0.111760 0.351028 -0.948492 -0.310326 -0.063720
-0.032868 -0.087975 0.357507 -0.948492 -0.310326 -0.063720
-0.036266 0.009161 -0.064978 -0.948671 0.306473 0.078095
-0.027200 0.035405 -0.057830 -0.948671 0.306473 0.078095
-0.029736 0.134502 -0.477530 -0.948671 0.306473 0.078095
-0.039648 0.105811 -0.485344 -0.948671 0.306473 0.078095
0.000000 0.044153 -0.055447 -0.316081 0.922914 0.219822
0.000000 0.144065 -0.474925 -0.316081 0.922914 0.219822
-0.029736 0.134502 -0.477530 -0.316081 0.922914 0.219822
-0.027200 0.035405 -0.057830 -0.316081 0.922914 0.219822
0.000000 0.044153 -0.055447 0.316081 0.922914 0.219822
0.027200 0.035405 -0.057830 0.316081 0.922914 0.219822
0.029736 0.134502 -0.477530 0.316081 0.922914 0.219822
0.000000 0.144065 -0.474925 0.316081 0.922914 0.219822
0.041040 0.145609 -0.658441 0.886457 0.420584 -0.193140
0.030979 0.154138 -0.695537 0.886457 0.420584 -0.193140
0.022889 0.174011 -0.679904 0.886457 0.420584 -0.193140
0.030780 0.175307 -0.650351 0.886457 0.420584 -0.193140
0.041040 0.145609 -0.658441 0.948671 0.306473 0.078095
0.030780 0.175307 -0.650351 0.948671 0.306473 0.078095
0.041040 0.145609 -0.658441 0.948492 -0.310327 -0.063720
0.039648 0.105811 -0.485344 0.948492 -0.310327 -0.063720
0.029736 0.077120 -0.493159 0.948492 -0.310327 -0.063720
0.030780 0.115911 -0.666530 0.948492 -0.310327 -0.063720
0.041040 0.145609 -0.658441 0.893655 -0.274203 -0.355237
0.030780 0.115911 -0.666530 0.893655 -0.274203 -0.355237
0.022889 0.129843 -0.691935 0.893655 -0.274203 -0.355237
0.030979 0.154138 -0.695537 0.893655 -0.274203 -0.355237
-0.000000 0.106011 -0.669227 0.359932 -0.801201 -0.478043
-0.000000 0.124248 -0.703678 0.359932 -0.801201 -0.478043
0.022889 0.129843 -0.691935 0.359932 -0.801201 -0.478043
0.030780 0.115911 -0.666530 0.359932 -0.801201 -0.478043
-0.000000 0.106011 -0.669227 0.315903 -0.926303 -0.205350
0.030780 0.115911 -0.666530 0.315903 -0.926303 -0.205350
-0.000000 0.106011 -0.669227 -0.315903 -0.926303 -0.205350
-0.030780 0.115911 -0.666530 -0.315903 -0.926303 -0.205350
-0.000000 0.106011 -0.669227 -0.359933 -0.801201 -0.478043
-0.030780 0.115911 -0.666530 -0.359933 -0.801201 -0.478043
-0.022889 0.129843 -0.691935 -0.359933 -0.801201 -0.478043
-0.000000 0.124248 -0.703678 -0.359933 -0.801201 -0.478043
-0.041040 0.145609 -0.658441 -0.893655 -0.274203 -0.355237
-0.030979 0.154138 -0.695537 -0.893655 -0.274203 -0.355237
-0.022889 0.129843 -0.691935 -0.893655 -0.274203 -0.355237
-0.030780 0.115911 -0.666530 -0.893655 -0.274203 -0.355237
-0.041040 0.145609 -0.658441 -0.948492 -0.310327 -0.063720
-0.030780 0.115911 -0.666530 -0.948492 -0.310327 -0.063720
-0.029736 0.077120 -0.493159 -0.948492 -0.310327 -0.063720
-0.039648 0.105811 -0.485344 -0.948492 -0.310327 -0.063720
-0.041040 0.145609 -0.658441 -0.948671 0.306473 0.078095
-0.030780 0.175307 -0.650351 -0.948671 0.306473 0.078095
-0.041040 0.145609 -0.658441 -0.886457 0.420584 -0.193140
-0.030780 0.175307 -0.650351 -0.886457 0.420584 -0.193140
-0.022889 0.174011 -0.679904 -0.886457 0.420584 -0.193140
-0.030979 0.154138 -0.695537 -0.886457 0.420584 -0.193140
0.000000 0.185207 -0.647655 -0.352744 0.932829 -0.073491
0.000000 0.184028 -0.687395 -0.352744 0.932829 -0.073491
-0.022889 0.174011 -0.679904 -0.352744 0.932829 -0.073491
-0.030780 0.175307 -0.650351 -0.352744 0.932829 -0.073491
0.000000 0.185207 -0.647655 -0.316081 0.922914 0.219822
-0.030780 0.175307 -0.650351 -0.316081 0.922914 0.219822
0.000000 0.185207 -0.647655 0.316081 0.922914 0.219822
0.030780 0.175307 -0.650351 0.316081 0.922914 0.219822
0.000000 0.185207 -0.647655 0.352744 0.932829 -0.073491
0.030780 0.175307 -0.650351 0.352744 0.932829 -0.073491
0.022889 0.174011 -0.679904 0.352744 0.932829 -0.073491
0.000000 0.184028 -0.687395 0.352744 0.932829 -0.073491
4 0 1 2 3
4 4 5 6 7
4 8 9 10 11
4 12 13 14 15
4 16 17 18 19
4 20 21 22 23
4 24 25 26 27
4 28 29 30 31
4 32 33 34 35
4 36 37 38 39
4 40 41 42 43
4 44 45 46 47
4 48 49 50 51
4 52 53 54 55
4 56 57 58 59
4 60 61 62 63
4 64 65 66 67
4 68 69 70 71
4 72 73 74 75
4 76 77 78 79
4 80 81 82 83
4 84 85 86 87
4 88 89 90 91
4 92 93 94 95
4 96 97 98 99
4 96 99 100 101
4 102 103 104 105
4 102 105 106 107
4 108 109 110 111
4 108 111 18 17
4 112 31 30 113
4 112 113 114 115
4 116 117 118 119
4 116 119 120 121
4 122 47 46 123
4 122 123 124 125
4 126 127 128 129
4 126 129 50 49
4 130 63 62 131
4 130 131 132 133
4 134 135 136 137
4 138 139 98 97
4 140 141 142 143
4 144 145 146 147
4 148 149 150 151
4 152 153 110 109
4 154 115 114 155
4 156 157 158 159
4 160 161 162 163
4 164 165 166 167
4 168 125 124 169
4 170 171 172 173
4 174 175 176 177
4 178 179 128 127
4 180 133 132 181
4 182 183 184 185
