ply
format ascii 1.0
comment Created by Blender 2.70 (sub 0) - www.blender.org, source file: 'Hexapod Version 4.blend'
element vertex 288
property float x
property float y
property float z
property float nx
property float ny
property float nz
property float s
property float t
element face 152
property list uchar uint vertex_indices
end_header
-0.034393 -0.048292 0.529856 -0.994446 -0.014557 0.104007 0.278496 0.848941
-0.025795 -0.073838 0.526278 -0.703330 -0.710837 0.004578 0.331334 0.834132
-0.020106 -0.070996 0.547029 -0.596942 -0.665517 0.447981 0.339284 0.870469
-0.028042 -0.052062 0.556805 -0.737999 -0.093570 0.668233 0.309411 0.905158
-0.034393 -0.048292 0.529856 -0.994446 -0.014557 0.104007 0.809790 0.295556
-0.028042 -0.052062 0.556805 -0.737999 -0.093570 0.668233 0.755351 0.261613
-0.020106 -0.031173 0.552608 -0.596973 0.516892 0.613483 0.791609 0.233678
-0.025795 -0.022747 0.533435 -0.703330 0.682241 0.199561 0.827453 0.243603
-0.023267 -0.018990 0.488353 -0.706229 0.706259 0.049013 0.914151 0.254056
-0.031022 -0.042032 0.485125 -0.998901 0.006409 -0.045961 0.906978 0.306528
-0.031022 -0.042032 0.485125 -0.998901 0.006409 -0.045961 0.272848 0.751300
-0.023267 -0.065073 0.481897 -0.706229 -0.692557 -0.146794 0.325633 0.746993
-0.000000 -0.014232 0.534627 0.000000 0.970306 0.241829 0.832628 0.199305
-0.000000 -0.024292 0.560695 0.000000 0.637349 0.770562 0.791308 0.198178
0.020106 -0.031173 0.552608 0.596973 0.516892 0.613483 0.793545 0.162746
0.025795 -0.022747 0.533435 0.703330 0.682241 0.199561 0.829877 0.154791
0.023267 -0.018990 0.488353 0.706229 0.706259 0.049013 0.917018 0.149084
0.000000 -0.011309 0.489428 0.000000 0.995697 0.092532 0.917018 0.201609
0.034393 -0.048292 0.529856 0.994446 -0.014557 0.104007 0.815074 0.101951
0.028042 -0.052062 0.556805 0.737999 -0.093570 0.668233 0.758864 0.132874
0.034393 -0.048292 0.529856 0.994446 -0.014557 0.104007 0.472093 0.854239
0.028042 -0.052062 0.556805 0.737999 -0.093570 0.668233 0.438151 0.908680
0.020106 -0.070996 0.547029 0.596942 -0.665517 0.447981 0.410220 0.872410
0.025795 -0.073838 0.526278 0.703330 -0.710837 0.004578 0.420145 0.836563
0.023267 -0.065073 0.481897 0.706229 -0.692557 -0.146794 0.430605 0.749868
0.031022 -0.042032 0.485125 0.998901 0.006409 -0.045961 0.483073 0.757056
0.031022 -0.042032 0.485125 0.998901 0.006409 -0.045961 0.912720 0.096296
0.000000 -0.082353 0.525085 0.000000 -0.999420 -0.033784 0.375848 0.831381
-0.000000 -0.079833 0.552915 0.000000 -0.824427 0.565935 0.374717 0.872708
0.000000 -0.072754 0.480821 0.000000 -0.982818 -0.184454 0.378158 0.746993
0.000000 -0.062912 0.418647 0.000000 -0.989227 -0.146367 0.389378 0.625273
0.022424 -0.055509 0.419684 0.707236 -0.698874 -0.106601 0.434940 0.625166
0.023267 -0.065073 0.481897 0.706229 -0.692557 -0.146794 0.436232 0.746050
0.000000 -0.072754 0.480821 0.000000 -0.982818 -0.184454 0.389378 0.746218
-0.023267 -0.065073 0.481897 -0.706229 -0.692557 -0.146794 0.342523 0.746050
-0.022424 -0.055509 0.419684 -0.707236 -0.698874 -0.106601 0.343816 0.625166
-0.022424 -0.046013 0.350680 -0.707419 -0.700400 -0.094485 0.344167 0.491258
0.000000 -0.053421 0.349691 0.000000 -0.990997 -0.133702 0.389378 0.491394
0.022424 -0.046013 0.350680 0.707419 -0.700400 -0.094485 0.434589 0.491258
-0.000000 -0.053319 0.565788 0.000000 -0.138676 0.990326 0.373223 0.927333
-0.000000 -0.053319 0.565788 0.000000 -0.138676 0.990326 0.736693 0.196688
0.000000 -0.044877 0.285082 0.000000 -0.992706 -0.120304 0.756285 0.701801
0.022424 -0.037453 0.285929 0.708579 -0.700491 -0.084872 0.801827 0.701752
0.022424 -0.046013 0.350680 0.707419 -0.700400 -0.094485 0.801493 0.827123
0.000000 -0.053421 0.349691 0.000000 -0.990997 -0.133702 0.756285 0.827057
-0.022424 -0.046013 0.350680 -0.707419 -0.700400 -0.094485 0.711077 0.827123
-0.022424 -0.037453 0.285929 -0.708579 -0.700491 -0.084872 0.710744 0.701751
-0.022424 -0.030006 0.218322 -0.709159 -0.701865 -0.066469 0.711042 0.571022
0.000000 -0.037450 0.217680 0.000000 -0.995514 -0.094363 0.756285 0.571429
0.022424 -0.030006 0.218322 0.709159 -0.701865 -0.066469 0.801529 0.571022
0.029899 -0.033302 0.422795 0.999939 0.001465 -0.008820 0.551197 0.184790
0.022424 -0.011094 0.425906 0.706870 0.701834 0.087802 0.596631 0.185371
0.023267 -0.018990 0.488353 0.706229 0.706259 0.049013 0.595151 0.306304
0.031022 -0.042032 0.485125 0.998901 0.006409 -0.045961 0.548236 0.305374
0.029899 -0.033302 0.422795 0.999939 0.001465 -0.008820 0.480354 0.624770
0.031022 -0.042032 0.485125 0.998901 0.006409 -0.045961 0.483073 0.745204
0.029899 -0.023789 0.353649 0.999969 0.000519 0.000031 0.479905 0.490938
0.029899 -0.023789 0.353649 0.999969 0.000519 0.000031 0.551757 0.051051
0.022424 -0.001566 0.356618 0.706656 0.701193 0.094455 0.596974 0.051038
0.000000 -0.003692 0.426943 0.000000 0.991668 0.128605 0.642154 0.185583
-0.022424 -0.011094 0.425906 -0.706870 0.701834 0.087802 0.687677 0.185430
-0.023267 -0.018990 0.488353 -0.706229 0.706259 0.049013 0.689002 0.306364
0.000000 -0.011309 0.489428 0.000000 0.995697 0.092532 0.642076 0.306528
0.000000 0.005842 0.357607 0.000000 0.991028 0.133518 0.642240 0.051046
-0.022424 -0.001566 0.356618 -0.706656 0.701193 0.094455 0.687507 0.051096
-0.029899 -0.033302 0.422795 -0.999939 0.001465 -0.008820 0.298401 0.624770
-0.031022 -0.042032 0.485125 -0.998901 0.006409 -0.045961 0.295682 0.745204
-0.029899 -0.033302 0.422795 -0.999939 0.001465 -0.008820 0.733111 0.184906
-0.031022 -0.042032 0.485125 -0.998901 0.006409 -0.045961 0.735918 0.305494
-0.029899 -0.023789 0.353649 -0.999969 0.000519 0.000031 0.732723 0.051167
-0.029899 -0.023789 0.353649 -0.999969 0.000519 0.000031 0.298850 0.490938
0.000000 -0.031308 0.140347 0.000000 -0.997681 -0.067660 0.274047 0.158451
0.022424 -0.023849 0.140751 0.708518 -0.704031 -0.047670 0.319583 0.158301
0.022424 -0.030006 0.218322 0.709159 -0.701865 -0.066469 0.319246 0.307672
0.000000 -0.037450 0.217680 0.000000 -0.995514 -0.094363 0.274047 0.307537
-0.022424 -0.030006 0.218322 -0.709159 -0.701865 -0.066469 0.228847 0.307672
-0.022424 -0.023849 0.140751 -0.708518 -0.704031 -0.047670 0.228510 0.158300
-0.022424 -0.019250 0.058813 -0.707877 -0.705588 -0.031892 0.228813 0.000563
0.000000 -0.026696 0.058408 0.000000 -0.998962 -0.045320 0.274047 0.000644
0.022424 -0.019250 0.058813 0.707877 -0.705588 -0.031892 0.319281 0.000564
0.029899 -0.015181 0.288471 0.999969 0.002167 0.000244 0.665812 0.442443
0.022424 0.007092 0.291013 0.705466 0.703574 0.085055 0.711137 0.442143
0.022424 -0.001566 0.356618 0.706656 0.701193 0.094455 0.710769 0.568983
0.029899 -0.023789 0.353649 0.999969 0.000519 0.000031 0.665361 0.568757
0.029899 -0.015181 0.288471 0.999969 0.002167 0.000244 0.847209 0.701498
0.029899 -0.023789 0.353649 0.999969 0.000519 0.000031 0.846671 0.827340
0.029899 -0.007675 0.220247 0.999969 0.003052 0.000275 0.846825 0.569876
0.029899 -0.007675 0.220247 0.999969 0.003052 0.000275 0.665361 0.310364
0.022424 0.014657 0.222173 0.704825 0.706198 0.066713 0.710878 0.309229
0.000000 0.014516 0.291861 0.000000 0.992767 0.119999 0.756331 0.442024
-0.022424 0.007092 0.291013 -0.705466 0.703574 0.085055 0.801525 0.442190
-0.022424 -0.001566 0.356618 -0.706656 0.701193 0.094455 0.801759 0.569031
0.000000 0.005842 0.357607 0.000000 0.991028 0.133518 0.756264 0.569101
0.000000 0.022100 0.222814 0.000000 0.995544 0.094028 0.756401 0.308872
-0.022424 0.014657 0.222173 -0.704825 0.706198 0.066713 0.801924 0.309277
-0.029899 -0.015181 0.288471 -0.999969 0.002167 0.000244 0.665361 0.701497
-0.029899 -0.023789 0.353649 -0.999969 0.000519 0.000031 0.665898 0.827339
-0.029899 -0.015181 0.288471 -0.999969 0.002167 0.000244 0.846849 0.442538
-0.029899 -0.023789 0.353649 -0.999969 0.000519 0.000031 0.847168 0.568853
-0.029899 -0.007675 0.220247 -0.999969 0.003052 0.000275 0.847439 0.310460
-0.029899 -0.007675 0.220247 -0.999969 0.003052 0.000275 0.665745 0.569876
0.000000 -0.023858 -0.022810 0.000000 -0.998718 -0.050020 0.456594 0.149956
0.022424 -0.016480 -0.021894 0.703360 -0.709952 -0.035218 0.501705 0.151054
0.022424 -0.019250 0.058813 0.707877 -0.705588 -0.031892 0.502126 0.305808
0.000000 -0.026696 0.058408 0.000000 -0.998962 -0.045320 0.456594 0.305601
-0.022424 -0.019250 0.058813 -0.707877 -0.705588 -0.031892 0.411063 0.305808
-0.022424 -0.016480 -0.021894 -0.703360 -0.709952 -0.035218 0.411483 0.151054
-0.022424 -0.011441 -0.099481 -0.698904 -0.710837 -0.078768 0.411064 0.001869
0.000000 -0.018770 -0.100703 0.000000 -0.993805 -0.110904 0.456594 0.000388
0.022424 -0.011441 -0.099481 0.698904 -0.710837 -0.078768 0.502124 0.001868
0.029899 -0.001470 0.141964 0.999969 0.002350 0.000122 0.000828 0.158465
0.022424 0.020908 0.143177 0.705191 0.707419 0.047487 0.046138 0.157891
0.022424 0.014657 0.222173 0.704825 0.706198 0.066713 0.045782 0.309773
0.029899 -0.007675 0.220247 0.999969 0.003052 0.000275 0.000388 0.309343
0.029899 -0.001470 0.141964 0.999969 0.002350 0.000122 0.364952 0.157760
0.029899 -0.007675 0.220247 0.999969 0.003052 0.000275 0.364408 0.308097
0.029899 0.003088 0.060030 0.999969 0.002350 -0.000122 0.364514 0.000390
0.029899 0.003088 0.060030 0.999969 0.002350 -0.000122 0.000388 0.000561
0.022424 0.025426 0.061247 0.704550 0.708975 0.030305 0.045848 0.000419
0.000000 0.028368 0.143581 0.000000 0.997742 0.066866 0.091328 0.157677
-0.022424 0.020908 0.143177 -0.705191 0.707419 0.047487 0.136519 0.157918
-0.022424 0.014657 0.222173 -0.704825 0.706198 0.066713 0.136782 0.309802
0.000000 0.022100 0.222814 0.000000 0.995544 0.094028 0.091282 0.309950
0.000000 0.032872 0.061653 0.000000 0.999084 0.042543 0.091377 0.000388
-0.022424 0.025426 0.061247 -0.704550 0.708975 0.030305 0.136905 0.000447
-0.029899 -0.001470 0.141964 -0.999969 0.002350 0.000122 0.183140 0.157759
-0.029899 -0.007675 0.220247 -0.999969 0.003052 0.000275 0.183685 0.308097
-0.029899 -0.001470 0.141964 -0.999969 0.002350 0.000122 0.181828 0.158520
-0.029899 -0.007675 0.220247 -0.999969 0.003052 0.000275 0.182176 0.309399
-0.029899 0.003088 0.060030 -0.999969 0.002350 -0.000122 0.182365 0.000617
-0.029899 0.003088 0.060030 -0.999969 0.002350 -0.000122 0.183580 0.000388
0.000000 -0.007405 -0.172667 0.000000 -0.988403 -0.151769 0.574217 0.450298
0.022424 -0.000034 -0.172061 0.705130 -0.700766 -0.107974 0.619582 0.449309
0.022424 -0.011441 -0.099481 0.698904 -0.710837 -0.078768 0.619510 0.590339
0.000000 -0.018770 -0.100703 0.000000 -0.993805 -0.110904 0.574217 0.590204
-0.022424 -0.011441 -0.099481 -0.698904 -0.710837 -0.078768 0.528924 0.590339
-0.022424 -0.000034 -0.172061 -0.705130 -0.700766 -0.107974 0.528853 0.449308
-0.022218 0.010112 -0.240561 -0.714713 -0.696585 -0.062532 0.529393 0.316350
0.000000 0.002742 -0.240364 0.000000 -0.996216 -0.086612 0.574218 0.318839
0.022218 0.010112 -0.240561 0.714713 -0.696585 -0.062532 0.619043 0.316350
0.029899 0.005654 -0.019144 0.999969 -0.003113 -0.000153 0.335867 0.308872
0.022424 0.027788 -0.016394 0.707785 0.705649 0.032807 0.332606 0.353943
0.022424 0.025426 0.061247 0.704550 0.708975 0.030305 0.183438 0.354376
0.029899 0.003088 0.060030 0.999969 0.002350 -0.000122 0.184288 0.309350
0.029899 0.005654 -0.019144 0.999969 -0.003113 -0.000153 0.546700 0.154257
0.029899 0.003088 0.060030 0.999969 0.002350 -0.000122 0.547461 0.306528
0.029899 0.010546 -0.095816 0.999939 -0.009095 -0.000732 0.547261 0.006343
0.029899 0.010546 -0.095816 0.999939 -0.009095 -0.000732 0.483073 0.309577
0.022424 0.032532 -0.092150 0.711722 0.698416 0.075106 0.478531 0.354394
0.000000 0.035166 -0.015477 0.000000 0.998932 0.045930 0.331552 0.399517
-0.022424 0.027788 -0.016394 -0.707785 0.705649 0.032807 0.332606 0.445091
-0.022424 0.025426 0.061247 -0.704550 0.708975 0.030305 0.183437 0.444657
0.000000 0.032872 0.061653 0.000000 0.999084 0.042543 0.183140 0.399516
0.000000 0.039861 -0.090928 0.000000 0.994324 0.106143 0.476983 0.399518
-0.022424 0.032532 -0.092150 -0.711722 0.698416 0.075106 0.478532 0.444642
-0.029899 0.005654 -0.019144 -0.999969 -0.003113 -0.000153 0.366489 0.154257
-0.029899 0.003088 0.060030 -0.999969 0.002350 -0.000122 0.365728 0.306528
-0.029899 0.005654 -0.019144 -0.999969 -0.003113 -0.000153 0.335866 0.490162
-0.029899 0.003088 0.060030 -0.999969 0.002350 -0.000122 0.184287 0.489684
-0.029899 0.010546 -0.095816 -0.999939 -0.009095 -0.000732 0.483073 0.489459
-0.029899 0.010546 -0.095816 -0.999939 -0.009095 -0.000732 0.365927 0.006344
0.000000 0.004180 -0.305454 0.000000 -0.999908 0.012909 0.572507 0.705826
0.021598 0.011365 -0.305907 0.711783 -0.702353 0.004364 0.616756 0.705146
0.022218 0.010112 -0.240561 0.714713 -0.696585 -0.062532 0.616972 0.830783
0.000000 0.002742 -0.240364 0.000000 -0.996216 -0.086612 0.572509 0.831330
-0.022218 0.010112 -0.240561 -0.714713 -0.696585 -0.062532 0.528045 0.830784
-0.021598 0.011365 -0.305907 -0.711783 -0.702353 0.004364 0.528259 0.705147
-0.020979 0.008311 -0.364216 -0.707053 -0.706320 0.033906 0.530446 0.592751
0.000000 0.001332 -0.363777 0.000000 -0.998596 0.052919 0.572506 0.593080
0.020979 0.008311 -0.364216 0.707053 -0.706320 0.033906 0.614567 0.592751
0.029899 0.022081 -0.170243 0.999969 0.001221 -0.002014 0.001501 0.457372
0.022424 0.044195 -0.168425 0.703696 0.703207 0.101291 0.046352 0.454914
0.022424 0.032532 -0.092150 0.711722 0.698416 0.075106 0.045541 0.602884
0.029899 0.010546 -0.095816 0.999939 -0.009095 -0.000732 0.000388 0.602046
0.029899 0.022081 -0.170243 0.999969 0.001221 -0.002014 0.664430 0.446305
0.029899 0.010546 -0.095816 0.999939 -0.009095 -0.000732 0.664585 0.590769
0.029624 0.032219 -0.241151 0.999878 0.013123 -0.005860 0.663163 0.308872
0.029624 0.032219 -0.241151 0.999878 0.013123 -0.005860 0.002723 0.319652
0.022218 0.054326 -0.241742 0.696799 0.715751 0.045869 0.047104 0.312875
0.000000 0.051566 -0.167819 0.000000 0.989685 0.143162 0.091548 0.454186
-0.022424 0.044195 -0.168425 -0.703696 0.703207 0.101291 0.136737 0.455258
-0.022424 0.032532 -0.092150 -0.711722 0.698416 0.075106 0.136419 0.603230
0.000000 0.039861 -0.090928 0.000000 0.994324 0.106143 0.090979 0.603301
0.000000 0.061695 -0.241938 0.000000 0.997772 0.066378 0.092095 0.310725
-0.022218 0.054326 -0.241742 -0.696799 0.715751 0.045869 0.137069 0.313218
-0.029899 0.022081 -0.170243 -0.999969 0.001221 -0.002014 0.484005 0.446304
-0.029899 0.010546 -0.095816 -0.999939 -0.009095 -0.000732 0.483848 0.590769
-0.029899 0.022081 -0.170243 -0.999969 0.001221 -0.002014 0.181568 0.458059
-0.029899 0.010546 -0.095816 -0.999939 -0.009095 -0.000732 0.181578 0.602737
-0.029624 0.032219 -0.241151 -0.999878 0.013123 -0.005860 0.181396 0.320334
-0.029624 0.032219 -0.241151 -0.999878 0.013123 -0.005860 0.485273 0.308872
0.000000 -0.001380 -0.411170 0.000000 -0.998169 0.059999 0.750143 0.904485
0.020772 0.005530 -0.411606 0.707083 -0.705893 0.041383 0.792229 0.904430
0.020979 0.008311 -0.364216 0.707053 -0.706320 0.033906 0.792537 0.995573
0.000000 0.001332 -0.363777 0.000000 -0.998596 0.052919 0.750144 0.995622
-0.020979 0.008311 -0.364216 -0.707053 -0.706320 0.033906 0.707750 0.995575
-0.020772 0.005530 -0.411606 -0.707083 -0.705893 0.041383 0.708055 0.904430
-0.020772 0.003032 -0.451236 -0.707083 -0.705679 0.044465 0.708154 0.828189
0.000000 -0.003878 -0.450801 0.000000 -0.998016 0.062899 0.750142 0.828213
0.020772 0.003032 -0.451236 0.707083 -0.705679 0.044465 0.792130 0.828190
0.028797 0.032921 -0.307266 0.999878 0.006745 -0.013153 0.004058 0.716984
0.021598 0.054476 -0.308624 0.701651 0.711783 -0.032258 0.047766 0.716177
0.022218 0.054326 -0.241742 0.696799 0.715751 0.045869 0.045397 0.844075
0.029624 0.032219 -0.241151 0.999878 0.013123 -0.005860 0.000388 0.844552
0.028797 0.032921 -0.307266 0.999878 0.006745 -0.013153 0.660478 0.703029
0.029624 0.032219 -0.241151 0.999878 0.013123 -0.005860 0.661169 0.829018
0.027971 0.029248 -0.365536 0.999939 -0.000610 -0.009949 0.656793 0.591545
0.027971 0.029248 -0.365536 0.999939 -0.000610 -0.009949 0.005121 0.604078
0.020979 0.050185 -0.366856 0.707053 0.704978 -0.055025 0.047881 0.604289
0.000000 0.061661 -0.309077 0.000000 0.999207 -0.039033 0.090830 0.715693
-0.021598 0.054476 -0.308624 -0.701651 0.711783 -0.032258 0.133894 0.716177
-0.022218 0.054326 -0.241742 -0.696799 0.715751 0.045869 0.136264 0.844075
0.000000 0.061695 -0.241938 0.000000 0.997772 0.066378 0.090830 0.843944
0.000000 0.057164 -0.367296 0.000000 0.997314 -0.072848 0.090830 0.604304
-0.020979 0.050185 -0.366856 -0.707053 0.704978 -0.055025 0.133778 0.604289
-0.028797 0.032921 -0.307266 -0.999878 0.006745 -0.013153 0.484536 0.703031
-0.029624 0.032219 -0.241151 -0.999878 0.013123 -0.005860 0.483848 0.829020
-0.028797 0.032921 -0.307266 -0.999878 0.006745 -0.013153 0.177603 0.716984
-0.029624 0.032219 -0.241151 -0.999878 0.013123 -0.005860 0.181274 0.844552
-0.027971 0.029248 -0.365536 -0.999939 -0.000610 -0.009949 0.176538 0.604077
-0.027971 0.029248 -0.365536 -0.999939 -0.000610 -0.009949 0.488219 0.591545
0.000000 -0.006086 -0.485834 0.000000 -0.995544 -0.093966 0.094687 0.903475
0.020772 0.000824 -0.486270 0.698325 -0.706809 -0.112735 0.133570 0.902449
0.020772 0.003032 -0.451236 0.707083 -0.705679 0.044465 0.138207 0.968051
0.000000 -0.003878 -0.450801 0.000000 -0.998016 0.062899 0.094691 0.969137
-0.020772 0.003032 -0.451236 -0.707083 -0.705679 0.044465 0.051174 0.968057
-0.020772 0.000824 -0.486270 -0.698325 -0.706809 -0.112735 0.055803 0.902452
-0.015387 0.005052 -0.504795 -0.603931 -0.635456 -0.481063 0.060504 0.864949
0.000000 -0.000724 -0.510822 0.000000 -0.778252 -0.627888 0.094686 0.854514
0.015387 0.005052 -0.504795 0.603931 -0.635456 -0.481063 0.128867 0.864949
0.027696 0.026261 -0.412912 0.999969 -0.000153 -0.002869 0.492260 0.908282
0.020772 0.046992 -0.414219 0.707083 0.705496 -0.047548 0.534300 0.908420
0.020979 0.050185 -0.366856 0.707053 0.704978 -0.055025 0.533993 0.999564
0.027971 0.029248 -0.365536 0.999939 -0.000610 -0.009949 0.491605 0.999320
0.027696 0.026261 -0.412912 0.999969 -0.000153 -0.002869 0.834269 0.904291
0.027971 0.029248 -0.365536 0.999939 -0.000610 -0.009949 0.834925 0.995329
0.027696 0.023763 -0.452543 1.000000 0.000000 0.000000 0.834134 0.828115
0.027696 0.023763 -0.452543 1.000000 0.000000 0.000000 0.492394 0.832105
0.020772 0.044494 -0.453850 0.707083 0.705679 -0.044465 0.534398 0.832179
0.000000 0.053902 -0.414655 0.000000 0.997803 -0.065798 0.576387 0.908475
-0.020772 0.046992 -0.414219 -0.707083 0.705496 -0.047548 0.618474 0.908420
-0.020979 0.050185 -0.366856 -0.707053 0.704978 -0.055025 0.618781 0.999564
0.000000 0.057164 -0.367296 0.000000 0.997314 -0.072848 0.576387 0.999612
0.000000 0.051404 -0.454285 0.000000 0.998016 -0.062899 0.576386 0.832203
-0.020772 0.044494 -0.453850 -0.707083 0.705679 -0.044465 0.618375 0.832179
-0.027696 0.026261 -0.412912 -0.999969 -0.000153 -0.002869 0.666016 0.904292
-0.027971 0.029248 -0.365536 -0.999939 -0.000610 -0.009949 0.665361 0.995331
-0.027696 0.026261 -0.412912 -0.999969 -0.000153 -0.002869 0.660513 0.908281
-0.027971 0.029248 -0.365536 -0.999939 -0.000610 -0.009949 0.661169 0.999319
-0.027696 0.023763 -0.452543 -1.000000 0.000000 0.000000 0.660378 0.832105
-0.027696 0.023763 -0.452543 -1.000000 0.000000 0.000000 0.666150 0.828115
0.000000 0.019491 -0.520312 0.000000 -0.062899 -0.998016 0.252392 0.534228
0.000000 -0.000724 -0.510822 0.000000 -0.778252 -0.627888 0.294907 0.539688
-0.015387 0.005052 -0.504795 -0.603931 -0.635456 -0.481063 0.285599 0.571973
-0.020772 0.020007 -0.512128 -0.737236 -0.042482 -0.674276 0.252392 0.577093
0.000000 0.019491 -0.520312 0.000000 -0.062899 -0.998016 0.208402 0.577093
-0.020772 0.020007 -0.512128 -0.737236 -0.042482 -0.674276 0.208402 0.534228
-0.015387 0.035765 -0.506731 -0.603931 0.569994 -0.557054 0.241609 0.539348
0.000000 0.040738 -0.513435 0.000000 0.693258 -0.720664 0.250917 0.571633
0.000000 0.019491 -0.520312 0.000000 -0.062899 -0.998016 0.252042 0.490938
0.000000 0.040738 -0.513435 0.000000 0.693258 -0.720664 0.294907 0.490938
0.015387 0.035765 -0.506731 0.603931 0.569994 -0.557054 0.289787 0.524145
0.020772 0.020007 -0.512128 0.737236 -0.042482 -0.674276 0.257503 0.533453
0.000000 0.019491 -0.520312 0.000000 -0.062899 -0.998016 0.251267 0.490938
0.020772 0.020007 -0.512128 0.737236 -0.042482 -0.674276 0.245806 0.533453
0.015387 0.005052 -0.504795 0.603931 -0.635456 -0.481063 0.213522 0.524145
0.000000 -0.000724 -0.510822 0.000000 -0.778252 -0.627888 0.208402 0.490938
0.027696 0.021555 -0.487577 0.987671 -0.009827 -0.156102 0.924469 0.579477
0.020772 0.042286 -0.488883 0.698325 0.687063 -0.200598 0.915449 0.619650
0.020772 0.044494 -0.453850 0.707083 0.705679 -0.044465 0.849980 0.614228
0.027696 0.023763 -0.452543 1.000000 0.000000 0.000000 0.855007 0.569876
0.027696 0.021555 -0.487577 0.987671 -0.009827 -0.156102 0.174615 0.894852
0.027696 0.023763 -0.452543 1.000000 0.000000 0.000000 0.181274 0.963897
0.020772 0.020007 -0.512128 0.737236 -0.042482 -0.674276 0.158627 0.845328
0.020772 0.020007 -0.512128 0.737236 -0.042482 -0.674276 0.972505 0.596179
0.015387 0.035765 -0.506731 0.603931 0.569994 -0.557054 0.952685 0.624826
0.000000 0.049196 -0.489319 0.000000 0.975890 -0.218238 0.915013 0.658518
-0.020772 0.042286 -0.488884 -0.698325 0.687063 -0.200598 0.915449 0.697386
-0.020772 0.044494 -0.453850 -0.707083 0.705679 -0.044465 0.849978 0.702807
0.000000 0.051404 -0.454285 0.000000 0.998016 -0.062899 0.847985 0.658517
0.000000 0.040738 -0.513435 0.000000 0.693258 -0.720664 0.963052 0.658519
-0.015387 0.035765 -0.506731 -0.603931 0.569994 -0.557054 0.952684 0.692211
-0.027696 0.021555 -0.487577 -0.987671 -0.009827 -0.156102 0.014755 0.894859
-0.027696 0.023763 -0.452543 -1.000000 0.000000 0.000000 0.008104 0.963909
-0.027696 0.021555 -0.487577 -0.987671 -0.009827 -0.156102 0.924468 0.737561
-0.027696 0.023763 -0.452543 -1.000000 0.000000 0.000000 0.855004 0.747160
-0.020772 0.020007 -0.512128 -0.737236 -0.042482 -0.674276 0.972505 0.720859
-0.020772 0.020007 -0.512128 -0.737236 -0.042482 -0.674276 0.030739 0.845327
4 0 1 2 3
4 4 5 6 7
4 4 7 8 9
4 0 10 11 1
4 12 7 6 13
4 12 13 14 15
4 12 15 16 17
4 12 17 8 7
4 18 15 14 19
4 20 21 22 23
4 20 23 24 25
4 18 26 16 15
4 27 23 22 28
4 27 28 2 1
4 27 1 11 29
4 27 29 24 23
4 30 31 32 33
4 30 33 34 35
4 30 35 36 37
4 30 37 38 31
4 39 28 22 21
4 40 19 14 13
4 40 13 6 5
4 39 3 2 28
4 41 42 43 44
4 41 44 45 46
4 41 46 47 48
4 41 48 49 42
4 50 51 52 53
4 54 55 32 31
4 54 31 38 56
4 50 57 58 51
4 59 60 61 62
4 59 62 52 51
4 59 51 58 63
4 59 63 64 60
4 65 35 34 66
4 67 68 61 60
4 67 60 64 69
4 65 70 36 35
4 71 72 73 74
4 71 74 75 76
4 71 76 77 78
4 71 78 79 72
4 80 81 82 83
4 84 85 43 42
4 84 42 49 86
4 80 87 88 81
4 89 90 91 92
4 89 92 82 81
4 89 81 88 93
4 89 93 94 90
4 95 46 45 96
4 97 98 91 90
4 97 90 94 99
4 95 100 47 46
4 101 102 103 104
4 101 104 105 106
4 101 106 107 108
4 101 108 109 102
4 110 111 112 113
4 114 115 73 72
4 114 72 79 116
4 110 117 118 111
4 119 120 121 122
4 119 122 112 111
4 119 111 118 123
4 119 123 124 120
4 125 76 75 126
4 127 128 121 120
4 127 120 124 129
4 125 130 77 76
4 131 132 133 134
4 131 134 135 136
4 131 136 137 138
4 131 138 139 132
4 140 141 142 143
4 144 145 103 102
4 144 102 109 146
4 140 147 148 141
4 149 150 151 152
4 149 152 142 141
4 149 141 148 153
4 149 153 154 150
4 155 106 105 156
4 157 158 151 150
4 157 150 154 159
4 155 160 107 106
4 161 162 163 164
4 161 164 165 166
4 161 166 167 168
4 161 168 169 162
4 170 171 172 173
4 174 175 133 132
4 174 132 139 176
4 170 177 178 171
4 179 180 181 182
4 179 182 172 171
4 179 171 178 183
4 179 183 184 180
4 185 136 135 186
4 187 188 181 180
4 187 180 184 189
4 185 190 137 136
4 191 192 193 194
4 191 194 195 196
4 191 196 197 198
4 191 198 199 192
4 200 201 202 203
4 204 205 163 162
4 204 162 169 206
4 200 207 208 201
4 209 210 211 212
4 209 212 202 201
4 209 201 208 213
4 209 213 214 210
4 215 166 165 216
4 217 218 211 210
4 217 210 214 219
4 215 220 167 166
4 221 222 223 224
4 221 224 225 226
4 221 226 227 228
4 221 228 229 222
4 230 231 232 233
4 234 235 193 192
4 234 192 199 236
4 230 237 238 231
4 239 240 241 242
4 239 242 232 231
4 239 231 238 243
4 239 243 244 240
4 245 196 195 246
4 247 248 241 240
4 247 240 244 249
4 245 250 197 196
4 251 252 253 254
4 255 256 257 258
4 259 260 261 262
4 263 264 265 266
4 267 268 269 270
4 271 272 223 222
4 271 222 229 273
4 267 274 275 268
4 276 277 278 279
4 276 279 269 268
4 276 268 275 280
4 276 280 281 277
4 282 226 225 283
4 284 285 278 277
4 284 277 281 286
4 282 287 227 226
