ply
format ascii 1.0
comment Created by Blender 2.70 (sub 0) - www.blender.org, source file: 'Hexapod Version 4.blend'
element vertex 322
property float x
property float y
property float z
property float nx
property float ny
property float nz
element face 88
property list uchar uint vertex_indices
end_header
0.058381 -0.073566 0.211900 0.979266 0.189766 0.070894
0.058381 0.003010 0.000921 0.979266 0.189766 0.070894
0.051083 0.038757 0.012043 0.979266 0.189766 0.070894
0.051083 -0.042306 0.223022 0.979266 0.189766 0.070894
0.058381 -0.073566 0.211900 0.963495 0.227105 0.141778
0.051083 -0.042306 0.223022 0.963495 0.227105 0.141778
0.045408 -0.097161 0.337861 0.963495 0.227105 0.141778
0.051083 -0.134577 0.370825 0.963495 0.227105 0.141778
0.058381 -0.073566 0.211900 0.963840 -0.262495 -0.045926
0.051083 -0.134577 0.370825 0.963840 -0.262495 -0.045926
0.045408 -0.140358 0.321384 0.963840 -0.262495 -0.045926
0.051083 -0.104826 0.200778 0.963840 -0.262495 -0.045926
0.058381 -0.073566 0.211900 0.979287 -0.190970 -0.067282
0.051083 -0.104826 0.200778 0.979287 -0.190970 -0.067282
0.051083 -0.032738 -0.010201 0.979287 -0.190970 -0.067282
0.058381 0.003010 0.000921 0.979287 -0.190970 -0.067282
0.029191 0.109899 -0.500320 0.500502 -0.703156 -0.505044
0.029191 0.142666 -0.548404 0.500502 -0.703156 -0.505044
0.045407 0.144264 -0.532093 0.500502 -0.703156 -0.505044
0.051083 0.121050 -0.496613 0.500502 -0.703156 -0.505044
0.029191 0.109899 -0.500320 0.496820 -0.814768 -0.298870
0.051083 0.121050 -0.496613 0.496820 -0.814768 -0.298870
0.051083 0.083797 -0.392767 0.496820 -0.814768 -0.298870
0.029191 0.070968 -0.396474 0.496820 -0.814768 -0.298870
0.029191 0.109899 -0.500320 0.000000 -0.936361 -0.351040
0.029191 0.070968 -0.396474 0.000000 -0.936361 -0.351040
0.000000 0.070968 -0.396474 0.000000 -0.936361 -0.351040
0.000000 0.109899 -0.500320 0.000000 -0.936361 -0.351040
0.029191 0.109899 -0.500320 0.000000 -0.826372 -0.563125
0.000000 0.109899 -0.500320 0.000000 -0.826372 -0.563125
0.000000 0.142666 -0.548404 0.000000 -0.826372 -0.563125
0.029191 0.142666 -0.548404 0.000000 -0.826372 -0.563125
0.029191 0.199103 -0.470661 0.000000 0.999953 0.009720
0.029191 0.199642 -0.526160 0.000000 0.999953 0.009720
0.000000 0.199642 -0.526160 0.000000 0.999953 0.009720
0.000000 0.199103 -0.470661 0.000000 0.999953 0.009720
0.029191 0.199103 -0.470661 0.000001 0.971143 0.238499
0.000000 0.199103 -0.470661 0.000001 0.971143 0.238499
0.000000 0.173600 -0.366815 0.000001 0.971143 0.238499
0.029191 0.173600 -0.366815 0.000001 0.971143 0.238499
0.029191 0.199103 -0.470661 0.496824 0.841208 0.213388
0.029191 0.173600 -0.366815 0.496824 0.841208 0.213388
0.051083 0.160771 -0.370523 0.496824 0.841208 0.213388
0.051083 0.187952 -0.474369 0.496824 0.841208 0.213388
0.029191 0.199103 -0.470661 0.490773 0.871220 -0.010812
0.051083 0.187952 -0.474369 0.490773 0.871220 -0.010812
0.045407 0.189410 -0.515616 0.490773 0.871220 -0.010812
0.029191 0.199642 -0.526160 0.490773 0.871220 -0.010812
0.029191 -0.031886 0.226729 0.000000 0.931240 0.364407
0.029191 0.050673 0.015750 0.000000 0.931240 0.364407
0.000000 0.050673 0.015750 0.000000 0.931240 0.364407
0.000000 -0.031886 0.226729 0.000000 0.931240 0.364407
0.029191 -0.031886 0.226729 0.000000 0.900550 0.434752
0.000000 -0.031886 0.226729 0.000000 0.900550 0.434752
0.000000 -0.106820 0.381947 0.000000 0.900550 0.434752
0.029191 -0.106820 0.381947 0.000000 0.900550 0.434752
0.029191 -0.031886 0.226729 0.497414 0.777774 0.384248
0.029191 -0.106820 0.381947 0.497414 0.777774 0.384248
0.045408 -0.097161 0.337861 0.497414 0.777774 0.384248
0.051083 -0.042306 0.223022 0.497414 0.777774 0.384248
0.029191 -0.031886 0.226729 0.472985 0.821472 0.318542
0.051083 -0.042306 0.223022 0.472985 0.821472 0.318542
0.051083 0.038757 0.012043 0.472985 0.821472 0.318542
0.029191 0.050673 0.015750 0.472985 0.821472 0.318542
0.029191 0.018434 -0.223047 0.521692 -0.816543 -0.247174
0.029191 0.070968 -0.396474 0.521692 -0.816543 -0.247174
0.051083 0.083797 -0.392767 0.521692 -0.816543 -0.247174
0.051083 0.031335 -0.219340 0.521692 -0.816543 -0.247174
0.029191 0.018434 -0.223047 0.509130 -0.823477 -0.250345
0.051083 0.031335 -0.219340 0.509130 -0.823477 -0.250345
0.051083 -0.032738 -0.010201 0.509130 -0.823477 -0.250345
0.029191 -0.044654 -0.013909 0.509130 -0.823477 -0.250345
0.029191 0.018434 -0.223047 0.000000 -0.957389 -0.288800
0.029191 -0.044654 -0.013909 0.000000 -0.957389 -0.288800
0.000000 -0.044654 -0.013909 0.000000 -0.957389 -0.288800
0.000000 0.018434 -0.223047 0.000000 -0.957389 -0.288800
0.029191 0.018434 -0.223047 0.000000 -0.957055 -0.289908
0.000000 0.018434 -0.223047 0.000000 -0.957055 -0.289908
0.000000 0.070968 -0.396474 0.000000 -0.957055 -0.289908
0.029191 0.070968 -0.396474 0.000000 -0.957055 -0.289908
0.029191 0.176705 -0.554546 0.000000 0.777807 -0.628503
0.000000 0.176705 -0.554546 0.000000 0.777807 -0.628503
0.000000 0.199642 -0.526160 0.000000 0.777807 -0.628503
0.029191 0.199642 -0.526160 0.000000 0.777807 -0.628503
0.029191 0.176705 -0.554546 0.605941 0.646586 -0.463424
0.029191 0.199642 -0.526160 0.605941 0.646586 -0.463424
0.045407 0.189410 -0.515616 0.605941 0.646586 -0.463424
0.051083 0.171154 -0.537282 0.605941 0.646586 -0.463424
0.029191 0.176705 -0.554546 0.636332 -0.197933 -0.745589
0.051083 0.171154 -0.537282 0.636332 -0.197933 -0.745589
0.045407 0.144264 -0.532093 0.636332 -0.197933 -0.745589
0.029191 0.142666 -0.548404 0.636332 -0.197933 -0.745589
0.029191 0.176705 -0.554546 0.000000 -0.177569 -0.984108
0.029191 0.142666 -0.548404 0.000000 -0.177569 -0.984108
0.000000 0.142666 -0.548404 0.000000 -0.177569 -0.984108
0.000000 0.176705 -0.554546 0.000000 -0.177569 -0.984108
0.029191 -0.115245 0.197071 0.473428 -0.834421 -0.282148
0.029191 -0.044654 -0.013909 0.473428 -0.834421 -0.282148
0.051083 -0.032738 -0.010201 0.473428 -0.834421 -0.282148
0.051083 -0.104826 0.200778 0.473428 -0.834421 -0.282148
0.029191 -0.115245 0.197071 0.497791 -0.835228 -0.233665
0.051083 -0.104826 0.200778 0.497791 -0.835228 -0.233665
0.045408 -0.140358 0.321384 0.497791 -0.835228 -0.233665
0.029191 -0.162335 0.359703 0.497791 -0.835228 -0.233665
0.029191 -0.115245 0.197071 -0.000000 -0.960546 -0.278121
0.029191 -0.162335 0.359703 -0.000000 -0.960546 -0.278121
0.000000 -0.162335 0.359703 -0.000000 -0.960546 -0.278121
0.000000 -0.115245 0.197071 -0.000000 -0.960546 -0.278121
0.029191 -0.115245 0.197071 0.000000 -0.948325 -0.317301
0.000000 -0.115245 0.197071 0.000000 -0.948325 -0.317301
0.000000 -0.044654 -0.013909 0.000000 -0.948325 -0.317301
0.029191 -0.044654 -0.013909 0.000000 -0.948325 -0.317301
0.029191 0.121646 -0.193388 0.000000 0.957939 0.286972
0.029191 0.173600 -0.366815 0.000000 0.957939 0.286972
0.000000 0.173600 -0.366815 0.000000 0.957939 0.286972
0.000000 0.121646 -0.193388 0.000000 0.957939 0.286972
0.029191 0.121646 -0.193388 0.000000 0.946958 0.321357
0.000000 0.121646 -0.193388 0.000000 0.946958 0.321357
0.000000 0.050673 0.015750 0.000000 0.946958 0.321357
0.029191 0.050673 0.015750 0.000000 0.946958 0.321357
0.029191 0.121646 -0.193388 0.508907 0.815745 0.274907
0.029191 0.050673 0.015750 0.508907 0.815745 0.274907
0.051083 0.038757 0.012043 0.508907 0.815745 0.274907
0.051083 0.108744 -0.197096 0.508907 0.815745 0.274907
0.029191 0.121646 -0.193388 0.521704 0.817196 0.244980
0.051083 0.108744 -0.197096 0.521704 0.817196 0.244980
0.051083 0.160771 -0.370523 0.521704 0.817196 0.244980
0.029191 0.173600 -0.366815 0.521704 0.817196 0.244980
0.029191 -0.154914 0.423800 0.781750 0.439208 0.442678
0.051083 -0.134577 0.370825 0.781750 0.439208 0.442678
0.045408 -0.097161 0.337861 0.781750 0.439208 0.442678
0.029191 -0.106820 0.381947 0.781750 0.439208 0.442678
0.029191 -0.154914 0.423800 0.000000 0.656461 0.754360
0.029191 -0.106820 0.381947 0.000000 0.656461 0.754360
0.000000 -0.106820 0.381947 0.000000 0.656461 0.754360
0.000000 -0.154914 0.423800 0.000000 0.656461 0.754360
0.029191 -0.154914 0.423800 0.000000 -0.993365 0.115001
0.000000 -0.154914 0.423800 0.000000 -0.993365 0.115001
0.000000 -0.162335 0.359703 0.000000 -0.993365 0.115001
0.029191 -0.162335 0.359703 0.000000 -0.993365 0.115001
0.029191 -0.154914 0.423800 0.778038 -0.627294 0.034043
0.029191 -0.162335 0.359703 0.778038 -0.627294 0.034043
0.045408 -0.140358 0.321384 0.778038 -0.627294 0.034043
0.051083 -0.134577 0.370825 0.778038 -0.627294 0.034043
0.058381 0.070040 -0.208218 0.983891 0.171202 0.051466
0.058381 0.122284 -0.381645 0.983891 0.171202 0.051466
0.051083 0.160771 -0.370523 0.983891 0.171202 0.051466
0.051083 0.108744 -0.197096 0.983891 0.171202 0.051466
0.058381 0.070040 -0.208218 0.982801 0.175490 0.057486
0.051083 0.108744 -0.197096 0.982801 0.175490 0.057486
0.051083 0.038757 0.012043 0.982801 0.175490 0.057486
0.058381 0.003010 0.000921 0.982801 0.175490 0.057486
0.058381 0.070040 -0.208218 0.982810 -0.176169 -0.055218
0.058381 0.003010 0.000921 0.982810 -0.176169 -0.055218
0.051083 -0.032738 -0.010201 0.982810 -0.176169 -0.055218
0.051083 0.031335 -0.219340 0.982810 -0.176169 -0.055218
0.058381 0.070040 -0.208218 0.983890 -0.171145 -0.051664
0.051083 0.031335 -0.219340 0.983890 -0.171145 -0.051664
0.051083 0.083797 -0.392767 0.983890 -0.171145 -0.051664
0.058381 0.122284 -0.381645 0.983890 -0.171145 -0.051664
0.058381 0.154501 -0.485491 0.954445 0.288287 -0.076974
0.051083 0.171154 -0.537282 0.954445 0.288287 -0.076974
0.045407 0.189410 -0.515616 0.954445 0.288287 -0.076974
0.051083 0.187952 -0.474369 0.954445 0.288287 -0.076974
0.058381 0.154501 -0.485491 0.981720 0.182995 0.052336
0.051083 0.187952 -0.474369 0.981720 0.182995 0.052336
0.051083 0.160771 -0.370523 0.981720 0.182995 0.052336
0.058381 0.122284 -0.381645 0.981720 0.182995 0.052336
0.058381 0.154501 -0.485491 0.981719 -0.180508 -0.060378
0.058381 0.122284 -0.381645 0.981719 -0.180508 -0.060378
0.051083 0.083797 -0.392767 0.981719 -0.180508 -0.060378
0.051083 0.121050 -0.496613 0.981719 -0.180508 -0.060378
0.058381 0.154501 -0.485491 0.956688 -0.183466 -0.226027
0.051083 0.121050 -0.496613 0.956688 -0.183466 -0.226027
0.045407 0.144264 -0.532093 0.956688 -0.183466 -0.226027
0.051083 0.171154 -0.537282 0.956688 -0.183466 -0.226027
-0.058381 -0.073566 0.211900 -0.979266 0.189766 0.070894
-0.051083 -0.042306 0.223022 -0.979266 0.189766 0.070894
-0.051083 0.038757 0.012043 -0.979266 0.189766 0.070894
-0.058381 0.003010 0.000921 -0.979266 0.189766 0.070894
-0.058381 -0.073566 0.211900 -0.979287 -0.190970 -0.067282
-0.058381 0.003010 0.000921 -0.979287 -0.190970 -0.067282
-0.051083 -0.032738 -0.010201 -0.979287 -0.190970 -0.067282
-0.051083 -0.104826 0.200778 -0.979287 -0.190970 -0.067282
-0.058381 -0.073566 0.211900 -0.963840 -0.262495 -0.045926
-0.051083 -0.104826 0.200778 -0.963840 -0.262495 -0.045926
-0.045408 -0.140358 0.321384 -0.963840 -0.262495 -0.045926
-0.051083 -0.134577 0.370825 -0.963840 -0.262495 -0.045926
-0.058381 -0.073566 0.211900 -0.963495 0.227105 0.141778
-0.051083 -0.134577 0.370825 -0.963495 0.227105 0.141778
-0.045408 -0.097161 0.337861 -0.963495 0.227105 0.141778
-0.051083 -0.042306 0.223022 -0.963495 0.227105 0.141778
-0.029191 0.109899 -0.500320 -0.500502 -0.703156 -0.505044
-0.051083 0.121050 -0.496613 -0.500502 -0.703156 -0.505044
-0.045407 0.144264 -0.532093 -0.500502 -0.703156 -0.505044
-0.029191 0.142666 -0.548404 -0.500502 -0.703156 -0.505044
-0.029191 0.109899 -0.500320 -0.000000 -0.826372 -0.563125
-0.029191 0.142666 -0.548404 -0.000000 -0.826372 -0.563125
-0.029191 0.109899 -0.500320 -0.000000 -0.936361 -0.351040
-0.029191 0.070968 -0.396474 -0.000000 -0.936361 -0.351040
-0.029191 0.109899 -0.500320 -0.496820 -0.814768 -0.298870
-0.029191 0.070968 -0.396474 -0.496820 -0.814768 -0.298870
-0.051083 0.083797 -0.392767 -0.496820 -0.814768 -0.298870
-0.051083 0.121050 -0.496613 -0.496820 -0.814768 -0.298870
-0.029191 0.199103 -0.470661 0.000000 0.999953 0.009720
-0.029191 0.199642 -0.526160 0.000000 0.999953 0.009720
-0.029191 0.199103 -0.470661 -0.490773 0.871220 -0.010812
-0.029191 0.199642 -0.526160 -0.490773 0.871220 -0.010812
-0.045407 0.189410 -0.515616 -0.490773 0.871220 -0.010812
-0.051083 0.187952 -0.474369 -0.490773 0.871220 -0.010812
-0.029191 0.199103 -0.470661 -0.496825 0.841208 0.213388
-0.051083 0.187952 -0.474369 -0.496825 0.841208 0.213388
-0.051083 0.160771 -0.370523 -0.496825 0.841208 0.213388
-0.029191 0.173600 -0.366815 -0.496825 0.841208 0.213388
-0.029191 0.199103 -0.470661 -0.000000 0.971143 0.238499
-0.029191 0.173600 -0.366815 -0.000000 0.971143 0.238499
0.000000 0.173600 -0.366815 -0.000000 0.971143 0.238499
0.000000 0.199103 -0.470661 -0.000000 0.971143 0.238499
-0.029191 -0.031886 0.226729 -0.000000 0.931240 0.364407
-0.029191 0.050673 0.015750 -0.000000 0.931240 0.364407
-0.029191 -0.031886 0.226729 -0.472985 0.821472 0.318542
-0.029191 0.050673 0.015750 -0.472985 0.821472 0.318542
-0.051083 0.038757 0.012043 -0.472985 0.821472 0.318542
-0.051083 -0.042306 0.223022 -0.472985 0.821472 0.318542
-0.029191 -0.031886 0.226729 -0.497415 0.777774 0.384248
-0.051083 -0.042306 0.223022 -0.497415 0.777774 0.384248
-0.045408 -0.097161 0.337861 -0.497415 0.777774 0.384248
-0.029191 -0.106820 0.381947 -0.497415 0.777774 0.384248
-0.029191 -0.031886 0.226729 -0.000000 0.900550 0.434752
-0.029191 -0.106820 0.381947 -0.000000 0.900550 0.434752
-0.029191 0.018434 -0.223047 -0.521692 -0.816543 -0.247174
-0.051083 0.031335 -0.219340 -0.521692 -0.816543 -0.247174
-0.051083 0.083797 -0.392767 -0.521692 -0.816543 -0.247174
-0.029191 0.070968 -0.396474 -0.521692 -0.816543 -0.247174
-0.029191 0.018434 -0.223047 0.000000 -0.957055 -0.289908
-0.029191 0.070968 -0.396474 0.000000 -0.957055 -0.289908
-0.029191 0.018434 -0.223047 0.000000 -0.957389 -0.288800
-0.029191 -0.044654 -0.013909 0.000000 -0.957389 -0.288800
-0.029191 0.018434 -0.223047 -0.509130 -0.823477 -0.250345
-0.029191 -0.044654 -0.013909 -0.509130 -0.823477 -0.250345
-0.051083 -0.032738 -0.010201 -0.509130 -0.823477 -0.250345
-0.051083 0.031335 -0.219340 -0.509130 -0.823477 -0.250345
-0.029191 0.176705 -0.554546 0.000000 0.777807 -0.628503
-0.029191 0.199642 -0.526160 0.000000 0.777807 -0.628503
-0.029191 0.176705 -0.554546 0.000000 -0.177569 -0.984108
-0.029191 0.142666 -0.548404 0.000000 -0.177569 -0.984108
-0.029191 0.176705 -0.554546 -0.636332 -0.197933 -0.745589
-0.029191 0.142666 -0.548404 -0.636332 -0.197933 -0.745589
-0.045407 0.144264 -0.532093 -0.636332 -0.197933 -0.745589
-0.051083 0.171154 -0.537282 -0.636332 -0.197933 -0.745589
-0.029191 0.176705 -0.554546 -0.605941 0.646586 -0.463424
-0.051083 0.171154 -0.537282 -0.605941 0.646586 -0.463424
-0.045407 0.189410 -0.515616 -0.605941 0.646586 -0.463424
-0.029191 0.199642 -0.526160 -0.605941 0.646586 -0.463424
-0.029191 -0.115245 0.197071 -0.473427 -0.834421 -0.282148
-0.051083 -0.104826 0.200778 -0.473427 -0.834421 -0.282148
-0.051083 -0.032738 -0.010201 -0.473427 -0.834421 -0.282148
-0.029191 -0.044654 -0.013909 -0.473427 -0.834421 -0.282148
-0.029191 -0.115245 0.197071 -0.000000 -0.948325 -0.317301
-0.029191 -0.044654 -0.013909 -0.000000 -0.948325 -0.317301
-0.029191 -0.115245 0.197071 -0.000000 -0.960546 -0.278121
-0.029191 -0.162335 0.359703 -0.000000 -0.960546 -0.278121
-0.029191 -0.115245 0.197071 -0.497790 -0.835228 -0.233665
-0.029191 -0.162335 0.359703 -0.497790 -0.835228 -0.233665
-0.045408 -0.140358 0.321384 -0.497790 -0.835228 -0.233665
-0.051083 -0.104826 0.200778 -0.497790 -0.835228 -0.233665
-0.029191 0.121646 -0.193388 -0.000000 0.957939 0.286972
-0.029191 0.173600 -0.366815 -0.000000 0.957939 0.286972
-0.029191 0.121646 -0.193388 -0.521705 0.817196 0.244980
-0.029191 0.173600 -0.366815 -0.521705 0.817196 0.244980
-0.051083 0.160771 -0.370523 -0.521705 0.817196 0.244980
-0.051083 0.108744 -0.197096 -0.521705 0.817196 0.244980
-0.029191 0.121646 -0.193388 -0.508907 0.815745 0.274907
-0.051083 0.108744 -0.197096 -0.508907 0.815745 0.274907
-0.051083 0.038757 0.012043 -0.508907 0.815745 0.274907
-0.029191 0.050673 0.015750 -0.508907 0.815745 0.274907
-0.029191 0.121646 -0.193388 0.000000 0.946958 0.321357
-0.029191 0.050673 0.015750 0.000000 0.946958 0.321357
-0.029191 -0.154914 0.423800 -0.781750 0.439208 0.442678
-0.029191 -0.106820 0.381947 -0.781750 0.439208 0.442678
-0.045408 -0.097161 0.337861 -0.781750 0.439208 0.442678
-0.051083 -0.134577 0.370825 -0.781750 0.439208 0.442678
-0.029191 -0.154914 0.423800 -0.778038 -0.627294 0.034043
-0.051083 -0.134577 0.370825 -0.778038 -0.627294 0.034043
-0.045408 -0.140358 0.321384 -0.778038 -0.627294 0.034043
-0.029191 -0.162335 0.359703 -0.778038 -0.627294 0.034043
-0.029191 -0.154914 0.423800 0.000000 -0.993365 0.115001
-0.029191 -0.162335 0.359703 0.000000 -0.993365 0.115001
-0.029191 -0.154914 0.423800 0.000000 0.656461 0.754360
-0.029191 -0.106820 0.381947 0.000000 0.656461 0.754360
-0.058381 0.070040 -0.208218 -0.983891 0.171202 0.051466
-0.051083 0.108744 -0.197096 -0.983891 0.171202 0.051466
-0.051083 0.160771 -0.370523 -0.983891 0.171202 0.051466
-0.058381 0.122284 -0.381645 -0.983891 0.171202 0.051466
-0.058381 0.070040 -0.208218 -0.983890 -0.171145 -0.051664
-0.058381 0.122284 -0.381645 -0.983890 -0.171145 -0.051664
-0.051083 0.083797 -0.392767 -0.983890 -0.171145 -0.051664
-0.051083 0.031335 -0.219340 -0.983890 -0.171145 -0.051664
-0.058381 0.070040 -0.208218 -0.982810 -0.176169 -0.055218
-0.051083 0.031335 -0.219340 -0.982810 -0.176169 -0.055218
-0.051083 -0.032738 -0.010201 -0.982810 -0.176169 -0.055218
-0.058381 0.003010 0.000921 -0.982810 -0.176169 -0.055218
-0.058381 0.070040 -0.208218 -0.982801 0.175490 0.057486
-0.058381 0.003010 0.000921 -0.982801 0.175490 0.057486
-0.051083 0.038757 0.012043 -0.982801 0.175490 0.057486
-0.051083 0.108744 -0.197096 -0.982801 0.175490 0.057486
-0.058381 0.154501 -0.485491 -0.954445 0.288287 -0.076974
-0.051083 0.187952 -0.474369 -0.954445 0.288287 -0.076974
-0.045407 0.189410 -0.515616 -0.954445 0.288287 -0.076974
-0.051083 0.171154 -0.537282 -0.954445 0.288287 -0.076974
-0.058381 0.154501 -0.485491 -0.956688 -0.183466 -0.226027
-0.051083 0.171154 -0.537282 -0.956688 -0.183466 -0.226027
-0.045407 0.144264 -0.532093 -0.956688 -0.183466 -0.226027
-0.051083 0.121050 -0.496613 -0.956688 -0.183466 -0.226027
-0.058381 0.154501 -0.485491 -0.981719 -0.180508 -0.060378
-0.051083 0.121050 -0.496613 -0.981719 -0.180508 -0.060378
-0.051083 0.083797 -0.392767 -0.981719 -0.180508 -0.060378
-0.058381 0.122284 -0.381645 -0.981719 -0.180508 -0.060378
-0.058381 0.154501 -0.485491 -0.981720 0.182995 0.052336
-0.058381 0.122284 -0.381645 -0.981720 0.182995 0.052336
-0.051083 0.160771 -0.370523 -0.981720 0.182995 0.052336
-0.051083 0.187952 -0.474369 -0.981720 0.182995 0.052336
4 0 1 2 3
4 4 5 6 7
4 8 9 10 11
4 12 13 14 15
4 16 17 18 19
4 20 21 22 23
4 24 25 26 27
4 28 29 30 31
4 32 33 34 35
4 36 37 38 39
4 40 41 42 43
4 44 45 46 47
4 48 49 50 51
4 52 53 54 55
4 56 57 58 59
4 60 61 62 63
4 64 65 66 67
4 68 69 70 71
4 72 73 74 75
4 76 77 78 79
4 80 81 82 83
4 84 85 86 87
4 88 89 90 91
4 92 93 94 95
4 96 97 98 99
4 100 101 102 103
4 104 105 106 107
4 108 109 110 111
4 112 113 114 115
4 116 117 118 119
4 120 121 122 123
4 124 125 126 127
4 128 129 130 131
4 132 133 134 135
4 136 137 138 139
4 140 141 142 143
4 144 145 146 147
4 148 149 150 151
4 152 153 154 155
4 156 157 158 159
4 160 161 162 163
4 164 165 166 167
4 168 169 170 171
4 172 173 174 175
4 176 177 178 179
4 180 181 182 183
4 184 185 186 187
4 188 189 190 191
4 192 193 194 195
4 196 197 30 29
4 198 27 26 199
4 200 201 202 203
4 204 35 34 205
4 206 207 208 209
4 210 211 212 213
4 214 215 216 217
4 218 51 50 219
4 220 221 222 223
4 224 225 226 227
4 228 229 54 53
4 230 231 232 233
4 234 235 78 77
4 236 75 74 237
4 238 239 240 241
4 242 243 82 81
4 244 95 94 245
4 246 247 248 249
4 250 251 252 253
4 254 255 256 257
4 258 259 110 109
4 260 107 106 261
4 262 263 264 265
4 266 115 114 267
4 268 269 270 271
4 272 273 274 275
4 276 277 118 117
4 278 279 280 281
4 282 283 284 285
4 286 287 138 137
4 288 135 134 289
4 290 291 292 293
4 294 295 296 297
4 298 299 300 301
4 302 303 304 305
4 306 307 308 309
4 310 311 312 313
4 314 315 316 317
4 318 319 320 321
