ply
format ascii 1.0
comment Created by Blender 2.70 (sub 0) - www.blender.org, source file: 'Hexapod Version 4.blend'
element vertex 328
property float x
property float y
property float z
property float nx
property float ny
property float nz
element face 88
property list uchar uint vertex_indices
end_header
0.028303 0.381561 -0.281933 -0.000001 0.998163 -0.060591
0.000000 0.381561 -0.281933 -0.000001 0.998163 -0.060591
0.000000 0.384368 -0.235692 -0.000001 0.998163 -0.060591
0.028570 0.384368 -0.235692 -0.000001 0.998163 -0.060591
0.028303 0.381561 -0.281933 0.776463 0.629954 0.016204
0.028570 0.384368 -0.235692 0.776463 0.629954 0.016204
0.044858 0.359734 -0.226698 0.776463 0.629954 0.016204
0.050064 0.358551 -0.261976 0.776463 0.629954 0.016204
0.028303 0.381561 -0.281933 0.755451 0.037037 -0.654158
0.050064 0.358551 -0.261976 0.755451 0.037037 -0.654158
0.044858 0.321573 -0.266211 0.755451 0.037037 -0.654158
0.028570 0.332733 -0.288261 0.755451 0.037037 -0.654158
0.028303 0.381561 -0.281933 -0.000001 0.128511 -0.991708
0.028570 0.332733 -0.288261 -0.000001 0.128511 -0.991708
0.000000 0.332733 -0.288261 -0.000001 0.128511 -0.991708
0.000000 0.381561 -0.281933 -0.000001 0.128511 -0.991708
0.052531 -0.199607 0.167809 0.978224 0.121743 0.168098
0.052651 -0.057741 0.064659 0.978224 0.121743 0.168098
0.046069 -0.039011 0.089105 0.978224 0.121743 0.168098
0.045965 -0.180970 0.192812 0.978224 0.121743 0.168098
0.052531 -0.199607 0.167809 0.968411 0.103821 0.226719
0.045965 -0.180970 0.192812 0.968411 0.103821 0.226719
0.041433 -0.267425 0.246270 0.968411 0.103821 0.226719
0.046890 -0.310283 0.248077 0.968411 0.103821 0.226719
0.052531 -0.199607 0.167809 0.968714 -0.182557 -0.168124
0.046890 -0.310283 0.248077 0.968714 -0.182557 -0.168124
0.041433 -0.295754 0.208264 0.968714 -0.182557 -0.168124
0.045965 -0.218243 0.142807 0.968714 -0.182557 -0.168124
0.052531 -0.199607 0.167809 0.978227 -0.122366 -0.167628
0.045965 -0.218243 0.142807 0.978227 -0.122366 -0.167628
0.046069 -0.076471 0.040212 0.978227 -0.122366 -0.167628
0.052651 -0.057741 0.064659 0.978227 -0.122366 -0.167628
0.029372 0.255292 -0.238440 0.000000 -0.640060 -0.768325
0.029560 0.156630 -0.156248 0.000000 -0.640060 -0.768325
-0.000000 0.156630 -0.156248 0.000000 -0.640060 -0.768325
0.000000 0.255292 -0.238440 0.000000 -0.640060 -0.768325
0.029372 0.255292 -0.238440 -0.000000 -0.541043 -0.840995
0.000000 0.255292 -0.238440 -0.000000 -0.541043 -0.840995
0.000000 0.332733 -0.288261 -0.000000 -0.541043 -0.840995
0.028570 0.332733 -0.288261 -0.000000 -0.541043 -0.840995
0.029372 0.255292 -0.238440 0.552017 -0.428640 -0.715224
0.028570 0.332733 -0.288261 0.552017 -0.428640 -0.715224
0.044858 0.321573 -0.266211 0.552017 -0.428640 -0.715224
0.051402 0.263849 -0.229356 0.552017 -0.428640 -0.715224
0.029372 0.255292 -0.238440 0.488866 -0.557239 -0.671189
0.051402 0.263849 -0.229356 0.488866 -0.557239 -0.671189
0.051730 0.164797 -0.147024 0.488866 -0.557239 -0.671189
0.029560 0.156630 -0.156248 0.488866 -0.557239 -0.671189
0.027005 -0.347175 0.274833 0.812490 0.060678 0.579809
0.046890 -0.310283 0.248077 0.812490 0.060678 0.579809
0.041433 -0.267425 0.246270 0.812490 0.060678 0.579809
0.026821 -0.290837 0.274165 0.812490 0.060678 0.579809
0.027005 -0.347175 0.274833 -0.000001 0.011858 0.999930
0.026821 -0.290837 0.274165 -0.000001 0.011858 0.999930
0.000000 -0.290837 0.274165 -0.000001 0.011858 0.999930
0.000000 -0.347175 0.274833 -0.000001 0.011858 0.999930
0.027005 -0.347175 0.274833 0.000000 -0.949588 -0.313501
0.000000 -0.347175 0.274833 0.000000 -0.949588 -0.313501
0.000000 -0.329729 0.221989 0.000000 -0.949588 -0.313501
0.026821 -0.329729 0.221989 0.000000 -0.949588 -0.313501
0.027005 -0.347175 0.274833 0.815611 -0.529832 -0.232501
0.026821 -0.329729 0.221989 0.815611 -0.529832 -0.232501
0.041433 -0.295754 0.208264 0.815611 -0.529832 -0.232501
0.046890 -0.310283 0.248077 0.815611 -0.529832 -0.232501
0.029372 0.323747 -0.165770 0.488767 0.553713 0.674172
0.029560 0.221968 -0.082454 0.488767 0.553713 0.674172
0.051730 0.213801 -0.091678 0.488767 0.553713 0.674172
0.051402 0.315190 -0.174854 0.488767 0.553713 0.674172
0.029372 0.323747 -0.165770 0.558982 0.643917 0.522408
0.051402 0.315190 -0.174854 0.558982 0.643917 0.522408
0.044858 0.359734 -0.226698 0.558982 0.643917 0.522408
0.028570 0.384368 -0.235692 0.558982 0.643917 0.522408
0.029372 0.323747 -0.165770 0.000000 0.755571 0.655066
0.028570 0.384368 -0.235692 0.000000 0.755571 0.655066
0.000000 0.384368 -0.235692 0.000000 0.755571 0.655066
0.000000 0.323747 -0.165770 0.000000 0.755571 0.655066
0.029372 0.323747 -0.165770 -0.000000 0.633433 0.773798
0.000000 0.323747 -0.165770 -0.000000 0.633433 0.773798
-0.000000 0.221968 -0.082454 -0.000000 0.633433 0.773798
0.029560 0.221968 -0.082454 -0.000000 0.633433 0.773798
0.055968 0.072720 -0.030746 0.979361 0.104214 0.173181
0.059120 0.189299 -0.119351 0.979361 0.104214 0.173181
0.051730 0.213801 -0.091678 0.979361 0.104214 0.173181
0.048972 0.094157 -0.004708 0.979361 0.104214 0.173181
0.055968 0.072720 -0.030746 0.978153 0.105493 0.179132
0.048972 0.094157 -0.004708 0.978153 0.105493 0.179132
0.046069 -0.039011 0.089105 0.978153 0.105493 0.179132
0.052651 -0.057741 0.064659 0.978153 0.105493 0.179132
0.055968 0.072720 -0.030746 0.978489 -0.137899 -0.153439
0.052651 -0.057741 0.064659 0.978489 -0.137899 -0.153439
0.046069 -0.076471 0.040212 0.978489 -0.137899 -0.153439
0.048972 0.051283 -0.056783 0.978489 -0.137899 -0.153439
0.055968 0.072720 -0.030746 0.979852 -0.137652 -0.144712
0.048972 0.051283 -0.056783 0.979852 -0.137652 -0.144712
0.051730 0.164797 -0.147024 0.979852 -0.137652 -0.144712
0.059120 0.189299 -0.119351 0.979852 -0.137652 -0.144712
0.026266 -0.224456 0.134473 0.000000 -0.639272 -0.768980
0.026821 -0.329729 0.221989 0.000000 -0.639272 -0.768980
0.000000 -0.329729 0.221989 0.000000 -0.639272 -0.768980
0.000000 -0.224456 0.134473 0.000000 -0.639272 -0.768980
0.026266 -0.224456 0.134473 0.000000 -0.585645 -0.810568
0.000000 -0.224456 0.134473 0.000000 -0.585645 -0.810568
-0.000000 -0.082714 0.032063 0.000000 -0.585645 -0.810568
0.026325 -0.082714 0.032063 0.000000 -0.585645 -0.810568
0.026266 -0.224456 0.134473 0.463913 -0.519258 -0.717743
0.026325 -0.082714 0.032063 0.463913 -0.519258 -0.717743
0.046069 -0.076471 0.040212 0.463913 -0.519258 -0.717743
0.045965 -0.218243 0.142807 0.463913 -0.519258 -0.717743
0.026266 -0.224456 0.134473 0.540177 -0.546990 -0.639539
0.045965 -0.218243 0.142807 0.540177 -0.546990 -0.639539
0.041433 -0.295754 0.208264 0.540177 -0.546990 -0.639539
0.026821 -0.329729 0.221989 0.540177 -0.546990 -0.639539
0.026266 -0.174758 0.201146 0.539380 0.438379 0.718953
0.026821 -0.290837 0.274165 0.539380 0.438379 0.718953
0.041433 -0.267425 0.246270 0.539380 0.438379 0.718953
0.045965 -0.180970 0.192812 0.539380 0.438379 0.718953
0.026266 -0.174758 0.201146 0.463946 0.522658 0.715251
0.045965 -0.180970 0.192812 0.463946 0.522658 0.715251
0.046069 -0.039011 0.089105 0.463946 0.522658 0.715251
0.026325 -0.032768 0.097254 0.463946 0.522658 0.715251
0.026266 -0.174758 0.201146 0.000000 0.590496 0.807041
0.026325 -0.032768 0.097254 0.000000 0.590496 0.807041
-0.000000 -0.032768 0.097254 0.000000 0.590496 0.807041
0.000000 -0.174758 0.201146 0.000000 0.590496 0.807041
0.026266 -0.174758 0.201146 -0.000001 0.532461 0.846455
0.000000 -0.174758 0.201146 -0.000001 0.532461 0.846455
0.000000 -0.290837 0.274165 -0.000001 0.532461 0.846455
0.026821 -0.290837 0.274165 -0.000001 0.532461 0.846455
0.027984 0.044138 -0.065462 0.000000 -0.609503 -0.792784
0.026325 -0.082714 0.032063 0.000000 -0.609503 -0.792784
-0.000000 -0.082714 0.032063 0.000000 -0.609503 -0.792784
0.000000 0.044138 -0.065462 0.000000 -0.609503 -0.792784
0.027984 0.044138 -0.065462 0.000000 -0.628031 -0.778188
0.000000 0.044138 -0.065462 0.000000 -0.628031 -0.778188
-0.000000 0.156630 -0.156248 0.000000 -0.628031 -0.778188
0.029560 0.156630 -0.156248 0.000000 -0.628031 -0.778188
0.027984 0.044138 -0.065462 0.479030 -0.554345 -0.680612
0.029560 0.156630 -0.156248 0.479030 -0.554345 -0.680612
0.051730 0.164797 -0.147024 0.479030 -0.554345 -0.680612
0.048972 0.051283 -0.056783 0.479030 -0.554345 -0.680612
0.027984 0.044138 -0.065462 0.466854 -0.542144 -0.698661
0.048972 0.051283 -0.056783 0.466854 -0.542144 -0.698661
0.046069 -0.076471 0.040212 0.466854 -0.542144 -0.698661
0.026325 -0.082714 0.032063 0.466854 -0.542144 -0.698661
0.027984 0.101302 0.003971 0.466021 0.502088 0.728513
0.026325 -0.032768 0.097254 0.466021 0.502088 0.728513
0.046069 -0.039011 0.089105 0.466021 0.502088 0.728513
0.048972 0.094157 -0.004708 0.466021 0.502088 0.728513
0.027984 0.101302 0.003971 0.477625 0.508392 0.716528
0.048972 0.094157 -0.004708 0.477625 0.508392 0.716528
0.051730 0.213801 -0.091678 0.477625 0.508392 0.716528
0.029560 0.221968 -0.082454 0.477625 0.508392 0.716528
0.027984 0.101302 0.003971 -0.000000 0.582285 0.812985
0.029560 0.221968 -0.082454 -0.000000 0.582285 0.812985
-0.000000 0.221968 -0.082454 -0.000000 0.582285 0.812985
0.000000 0.101302 0.003971 -0.000000 0.582285 0.812985
0.027984 0.101302 0.003971 0.000000 0.571135 0.820856
0.000000 0.101302 0.003971 0.000000 0.571135 0.820856
-0.000000 -0.032768 0.097254 0.000000 0.571135 0.820856
0.026325 -0.032768 0.097254 0.000000 0.571135 0.820856
0.058745 0.289520 -0.202105 0.969267 0.225852 0.097530
0.050064 0.358551 -0.261976 0.969267 0.225852 0.097530
0.044858 0.359734 -0.226698 0.969267 0.225852 0.097530
0.051402 0.315190 -0.174854 0.969267 0.225852 0.097530
0.058745 0.289520 -0.202105 0.980920 0.125575 0.148415
0.051402 0.315190 -0.174854 0.980920 0.125575 0.148415
0.051730 0.213801 -0.091678 0.980920 0.125575 0.148415
0.059120 0.189299 -0.119351 0.980920 0.125575 0.148415
0.058745 0.289520 -0.202105 0.980875 -0.122105 -0.151573
0.059120 0.189299 -0.119351 0.980875 -0.122105 -0.151573
0.051730 0.164797 -0.147024 0.980875 -0.122105 -0.151573
0.051402 0.263849 -0.229356 0.980875 -0.122105 -0.151573
0.058745 0.289520 -0.202105 0.966994 -0.070670 -0.244803
0.051402 0.263849 -0.229356 0.966994 -0.070670 -0.244803
0.044858 0.321573 -0.266211 0.966994 -0.070670 -0.244803
0.050064 0.358551 -0.261976 0.966994 -0.070670 -0.244803
-0.028303 0.381561 -0.281933 0.000000 0.998163 -0.060591
-0.028570 0.384368 -0.235692 0.000000 0.998163 -0.060591
0.000000 0.384368 -0.235692 0.000000 0.998163 -0.060591
0.000000 0.381561 -0.281933 0.000000 0.998163 -0.060591
-0.028303 0.381561 -0.281933 0.000000 0.128511 -0.991708
0.000000 0.381561 -0.281933 0.000000 0.128511 -0.991708
0.000000 0.332733 -0.288261 0.000000 0.128511 -0.991708
-0.028570 0.332733 -0.288261 0.000000 0.128511 -0.991708
-0.028303 0.381561 -0.281933 -0.755451 0.037037 -0.654158
-0.028570 0.332733 -0.288261 -0.755451 0.037037 -0.654158
-0.044858 0.321573 -0.266211 -0.755451 0.037037 -0.654158
-0.050064 0.358551 -0.261976 -0.755451 0.037037 -0.654158
-0.028303 0.381561 -0.281933 -0.776463 0.629954 0.016203
-0.050064 0.358551 -0.261976 -0.776463 0.629954 0.016203
-0.044858 0.359734 -0.226698 -0.776463 0.629954 0.016203
-0.028570 0.384368 -0.235692 -0.776463 0.629954 0.016203
-0.052531 -0.199607 0.167809 -0.978224 0.121742 0.168098
-0.045965 -0.180970 0.192812 -0.978224 0.121742 0.168098
-0.046069 -0.039011 0.089105 -0.978224 0.121742 0.168098
-0.052651 -0.057741 0.064659 -0.978224 0.121742 0.168098
-0.052531 -0.199607 0.167809 -0.978227 -0.122366 -0.167628
-0.052651 -0.057741 0.064659 -0.978227 -0.122366 -0.167628
-0.046069 -0.076471 0.040212 -0.978227 -0.122366 -0.167628
-0.045965 -0.218243 0.142807 -0.978227 -0.122366 -0.167628
-0.052531 -0.199607 0.167809 -0.968714 -0.182557 -0.168124
-0.045965 -0.218243 0.142807 -0.968714 -0.182557 -0.168124
-0.041433 -0.295754 0.208264 -0.968714 -0.182557 -0.168124
-0.046890 -0.310283 0.248077 -0.968714 -0.182557 -0.168124
-0.052531 -0.199607 0.167809 -0.968411 0.103821 0.226719
-0.046890 -0.310283 0.248077 -0.968411 0.103821 0.226719
-0.041433 -0.267425 0.246270 -0.968411 0.103821 0.226719
-0.045965 -0.180970 0.192812 -0.968411 0.103821 0.226719
-0.029372 0.255292 -0.238440 -0.000000 -0.640060 -0.768325
-0.029560 0.156630 -0.156248 -0.000000 -0.640060 -0.768325
-0.029372 0.255292 -0.238440 -0.488866 -0.557240 -0.671189
-0.029560 0.156630 -0.156248 -0.488866 -0.557240 -0.671189
-0.051730 0.164797 -0.147024 -0.488866 -0.557240 -0.671189
-0.051402 0.263849 -0.229356 -0.488866 -0.557240 -0.671189
-0.029372 0.255292 -0.238440 -0.552017 -0.428640 -0.715224
-0.051402 0.263849 -0.229356 -0.552017 -0.428640 -0.715224
-0.044858 0.321573 -0.266211 -0.552017 -0.428640 -0.715224
-0.028570 0.332733 -0.288261 -0.552017 -0.428640 -0.715224
-0.029372 0.255292 -0.238440 -0.000000 -0.541043 -0.840995
-0.028570 0.332733 -0.288261 -0.000000 -0.541043 -0.840995
-0.027005 -0.347175 0.274833 -0.812490 0.060678 0.579809
-0.026821 -0.290837 0.274165 -0.812490 0.060678 0.579809
-0.041433 -0.267425 0.246270 -0.812490 0.060678 0.579809
-0.046890 -0.310283 0.248077 -0.812490 0.060678 0.579809
-0.027005 -0.347175 0.274833 -0.815611 -0.529832 -0.232501
-0.046890 -0.310283 0.248077 -0.815611 -0.529832 -0.232501
-0.041433 -0.295754 0.208264 -0.815611 -0.529832 -0.232501
-0.026821 -0.329729 0.221989 -0.815611 -0.529832 -0.232501
-0.027005 -0.347175 0.274833 0.000000 -0.949588 -0.313501
-0.026821 -0.329729 0.221989 0.000000 -0.949588 -0.313501
-0.027005 -0.347175 0.274833 0.000001 0.011858 0.999930
0.000000 -0.347175 0.274833 0.000001 0.011858 0.999930
0.000000 -0.290837 0.274165 0.000001 0.011858 0.999930
-0.026821 -0.290837 0.274165 0.000001 0.011858 0.999930
-0.029372 0.323747 -0.165770 -0.488768 0.553713 0.674172
-0.051402 0.315190 -0.174854 -0.488768 0.553713 0.674172
-0.051730 0.213801 -0.091678 -0.488768 0.553713 0.674172
-0.029560 0.221968 -0.082454 -0.488768 0.553713 0.674172
-0.029372 0.323747 -0.165770 0.000000 0.633433 0.773798
-0.029560 0.221968 -0.082454 0.000000 0.633433 0.773798
-0.029372 0.323747 -0.165770 0.000000 0.755571 0.655066
-0.028570 0.384368 -0.235692 0.000000 0.755571 0.655066
-0.029372 0.323747 -0.165770 -0.558982 0.643917 0.522408
-0.028570 0.384368 -0.235692 -0.558982 0.643917 0.522408
-0.044858 0.359734 -0.226698 -0.558982 0.643917 0.522408
-0.051402 0.315190 -0.174854 -0.558982 0.643917 0.522408
-0.055968 0.072720 -0.030746 -0.979361 0.104214 0.173181
-0.048972 0.094157 -0.004708 -0.979361 0.104214 0.173181
-0.051730 0.213801 -0.091678 -0.979361 0.104214 0.173181
-0.059120 0.189299 -0.119351 -0.979361 0.104214 0.173181
-0.055968 0.072720 -0.030746 -0.979852 -0.137652 -0.144712
-0.059120 0.189299 -0.119351 -0.979852 -0.137652 -0.144712
-0.051730 0.164797 -0.147024 -0.979852 -0.137652 -0.144712
-0.048972 0.051283 -0.056783 -0.979852 -0.137652 -0.144712
-0.055968 0.072720 -0.030746 -0.978489 -0.137899 -0.153439
-0.048972 0.051283 -0.056783 -0.978489 -0.137899 -0.153439
-0.046069 -0.076471 0.040212 -0.978489 -0.137899 -0.153439
-0.052651 -0.057741 0.064659 -0.978489 -0.137899 -0.153439
-0.055968 0.072720 -0.030746 -0.978153 0.105493 0.179132
-0.052651 -0.057741 0.064659 -0.978153 0.105493 0.179132
-0.046069 -0.039011 0.089105 -0.978153 0.105493 0.179132
-0.048972 0.094157 -0.004708 -0.978153 0.105493 0.179132
-0.026266 -0.224456 0.134473 0.000000 -0.639272 -0.768980
-0.026821 -0.329729 0.221989 0.000000 -0.639272 -0.768980
-0.026266 -0.224456 0.134473 -0.540177 -0.546990 -0.639539
-0.026821 -0.329729 0.221989 -0.540177 -0.546990 -0.639539
-0.041433 -0.295754 0.208264 -0.540177 -0.546990 -0.639539
-0.045965 -0.218243 0.142807 -0.540177 -0.546990 -0.639539
-0.026266 -0.224456 0.134473 -0.463914 -0.519258 -0.717743
-0.045965 -0.218243 0.142807 -0.463914 -0.519258 -0.717743
-0.046069 -0.076471 0.040212 -0.463914 -0.519258 -0.717743
-0.026325 -0.082714 0.032063 -0.463914 -0.519258 -0.717743
-0.026266 -0.224456 0.134473 0.000000 -0.585645 -0.810568
-0.026325 -0.082714 0.032063 0.000000 -0.585645 -0.810568
-0.026266 -0.174758 0.201146 -0.539380 0.438378 0.718953
-0.045965 -0.180970 0.192812 -0.539380 0.438378 0.718953
-0.041433 -0.267425 0.246270 -0.539380 0.438378 0.718953
-0.026821 -0.290837 0.274165 -0.539380 0.438378 0.718953
-0.026266 -0.174758 0.201146 0.000000 0.532461 0.846455
-0.026821 -0.290837 0.274165 0.000000 0.532461 0.846455
0.000000 -0.290837 0.274165 0.000000 0.532461 0.846455
0.000000 -0.174758 0.201146 0.000000 0.532461 0.846455
-0.026266 -0.174758 0.201146 0.000000 0.590496 0.807041
-0.026325 -0.032768 0.097254 0.000000 0.590496 0.807041
-0.026266 -0.174758 0.201146 -0.463945 0.522658 0.715251
-0.026325 -0.032768 0.097254 -0.463945 0.522658 0.715251
-0.046069 -0.039011 0.089105 -0.463945 0.522658 0.715251
-0.045965 -0.180970 0.192812 -0.463945 0.522658 0.715251
-0.027984 0.044138 -0.065462 0.000000 -0.609503 -0.792784
-0.026325 -0.082714 0.032063 0.000000 -0.609503 -0.792784
-0.027984 0.044138 -0.065462 -0.466854 -0.542144 -0.698661
-0.026325 -0.082714 0.032063 -0.466854 -0.542144 -0.698661
-0.046069 -0.076471 0.040212 -0.466854 -0.542144 -0.698661
-0.048972 0.051283 -0.056783 -0.466854 -0.542144 -0.698661
-0.027984 0.044138 -0.065462 -0.479030 -0.554345 -0.680611
-0.048972 0.051283 -0.056783 -0.479030 -0.554345 -0.680611
-0.051730 0.164797 -0.147024 -0.479030 -0.554345 -0.680611
-0.029560 0.156630 -0.156248 -0.479030 -0.554345 -0.680611
-0.027984 0.044138 -0.065462 0.000000 -0.628031 -0.778188
-0.029560 0.156630 -0.156248 0.000000 -0.628031 -0.778188
-0.027984 0.101302 0.003971 -0.466021 0.502088 0.728513
-0.048972 0.094157 -0.004708 -0.466021 0.502088 0.728513
-0.046069 -0.039011 0.089105 -0.466021 0.502088 0.728513
-0.026325 -0.032768 0.097254 -0.466021 0.502088 0.728513
-0.027984 0.101302 0.003971 0.000000 0.571135 0.820856
-0.026325 -0.032768 0.097254 0.000000 0.571135 0.820856
-0.027984 0.101302 0.003971 0.000000 0.582285 0.812985
-0.029560 0.221968 -0.082454 0.000000 0.582285 0.812985
-0.027984 0.101302 0.003971 -0.477625 0.508392 0.716528
-0.029560 0.221968 -0.082454 -0.477625 0.508392 0.716528
-0.051730 0.213801 -0.091678 -0.477625 0.508392 0.716528
-0.048972 0.094157 -0.004708 -0.477625 0.508392 0.716528
-0.058745 0.289520 -0.202105 -0.969267 0.225852 0.097530
-0.051402 0.315190 -0.174854 -0.969267 0.225852 0.097530
-0.044858 0.359734 -0.226698 -0.969267 0.225852 0.097530
-0.050064 0.358551 -0.261976 -0.969267 0.225852 0.097530
-0.058745 0.289520 -0.202105 -0.966994 -0.070670 -0.244803
-0.050064 0.358551 -0.261976 -0.966994 -0.070670 -0.244803
-0.044858 0.321573 -0.266211 -0.966994 -0.070670 -0.244803
-0.051402 0.263849 -0.229356 -0.966994 -0.070670 -0.244803
-0.058745 0.289520 -0.202105 -0.980875 -0.122105 -0.151573
-0.051402 0.263849 -0.229356 -0.980875 -0.122105 -0.151573
-0.051730 0.164797 -0.147024 -0.980875 -0.122105 -0.151573
-0.059120 0.189299 -0.119351 -0.980875 -0.122105 -0.151573
-0.058745 0.289520 -0.202105 -0.980920 0.125575 0.148415
-0.059120 0.189299 -0.119351 -0.980920 0.125575 0.148415
-0.051730 0.213801 -0.091678 -0.980920 0.125575 0.148415
-0.051402 0.315190 -0.174854 -0.980920 0.125575 0.148415
4 0 1 2 3
4 4 5 6 7
4 8 9 10 11
4 12 13 14 15
4 16 17 18 19
4 20 21 22 23
4 24 25 26 27
4 28 29 30 31
4 32 33 34 35
4 36 37 38 39
4 40 41 42 43
4 44 45 46 47
4 48 49 50 51
4 52 53 54 55
4 56 57 58 59
4 60 61 62 63
4 64 65 66 67
4 68 69 70 71
4 72 73 74 75
4 76 77 78 79
4 80 81 82 83
4 84 85 86 87
4 88 89 90 91
4 92 93 94 95
4 96 97 98 99
4 100 101 102 103
4 104 105 106 107
4 108 109 110 111
4 112 113 114 115
4 116 117 118 119
4 120 121 122 123
4 124 125 126 127
4 128 129 130 131
4 132 133 134 135
4 136 137 138 139
4 140 141 142 143
4 144 145 146 147
4 148 149 150 151
4 152 153 154 155
4 156 157 158 159
4 160 161 162 163
4 164 165 166 167
4 168 169 170 171
4 172 173 174 175
4 176 177 178 179
4 180 181 182 183
4 184 185 186 187
4 188 189 190 191
4 192 193 194 195
4 196 197 198 199
4 200 201 202 203
4 204 205 206 207
4 208 35 34 209
4 210 211 212 213
4 214 215 216 217
4 218 219 38 37
4 220 221 222 223
4 224 225 226 227
4 228 229 58 57
4 230 231 232 233
4 234 235 236 237
4 238 239 78 77
4 240 75 74 241
4 242 243 244 245
4 246 247 248 249
4 250 251 252 253
4 254 255 256 257
4 258 259 260 261
4 262 99 98 263
4 264 265 266 267
4 268 269 270 271
4 272 273 102 101
4 274 275 276 277
4 278 279 280 281
4 282 123 122 283
4 284 285 286 287
4 288 131 130 289
4 290 291 292 293
4 294 295 296 297
4 298 299 134 133
4 300 301 302 303
4 304 305 158 157
4 306 155 154 307
4 308 309 310 311
4 312 313 314 315
4 316 317 318 319
4 320 321 322 323
4 324 325 326 327
