ply
format ascii 1.0
comment Created by Blender 2.70 (sub 0) - www.blender.org, source file: 'Hexapod Version 4.blend'
element vertex 244
property float x
property float y
property float z
property float nx
property float ny
property float nz
element face 64
property list uchar uint vertex_indices
end_header
0.029650 0.148992 0.079045 -0.006103 0.837249 0.546787
0.000000 0.148992 0.079045 -0.006103 0.837249 0.546787
0.000000 0.125184 0.115169 -0.006103 0.837249 0.546787
0.028808 0.125184 0.115821 -0.006103 0.837249 0.546787
0.029650 0.148992 0.079045 0.702760 0.570582 0.424930
0.028808 0.125184 0.115821 0.702760 0.570582 0.424930
0.047591 0.112078 0.098940 0.702760 0.570582 0.424930
0.053951 0.131393 0.065902 0.702760 0.570582 0.424930
0.029650 0.148992 0.079045 0.558902 0.818292 -0.134262
0.053951 0.131393 0.065902 0.558902 0.818292 -0.134262
0.051074 0.123332 0.011839 0.558902 0.818292 -0.134262
0.032555 0.137602 0.014678 0.558902 0.818292 -0.134262
0.029650 0.148992 0.079045 -0.000000 0.984703 -0.174241
0.032555 0.137602 0.014678 -0.000000 0.984703 -0.174241
-0.000000 0.137602 0.014678 -0.000000 0.984703 -0.174241
0.000000 0.148992 0.079045 -0.000000 0.984703 -0.174241
0.084063 -0.092020 -0.043624 0.989859 0.049052 0.133312
0.075809 0.000746 -0.017338 0.989859 0.049052 0.133312
0.064630 -0.011899 0.071193 0.989859 0.049052 0.133312
0.072704 -0.103158 0.043950 0.989859 0.049052 0.133312
0.084063 -0.092020 -0.043624 0.981285 -0.130544 0.141552
0.072704 -0.103158 0.043950 0.981285 -0.130544 0.141552
0.068214 -0.154840 0.008313 0.981285 -0.130544 0.141552
0.078714 -0.167187 -0.056767 0.981285 -0.130544 0.141552
0.084063 -0.092020 -0.043624 0.985110 -0.082975 -0.150580
0.078714 -0.167187 -0.056767 0.985110 -0.082975 -0.150580
0.068971 -0.140559 -0.115612 0.985110 -0.082975 -0.150580
0.074407 -0.080882 -0.132503 0.985110 -0.082975 -0.150580
0.084063 -0.092020 -0.043624 0.991498 0.100162 -0.083064
0.074407 -0.080882 -0.132503 0.991498 0.100162 -0.083064
0.068036 0.013391 -0.107826 0.991498 0.100162 -0.083064
0.075809 0.000746 -0.017338 0.991498 0.100162 -0.083064
0.035821 0.091502 -0.068360 -0.000000 0.685783 -0.727806
0.039267 0.017606 -0.137989 -0.000000 0.685783 -0.727806
-0.000000 0.017606 -0.137989 -0.000000 0.685783 -0.727806
0.000000 0.091502 -0.068360 -0.000000 0.685783 -0.727806
0.035821 0.091502 -0.068360 -0.000000 0.874299 -0.485388
0.000000 0.091502 -0.068360 -0.000000 0.874299 -0.485388
-0.000000 0.137602 0.014678 -0.000000 0.874299 -0.485388
0.032555 0.137602 0.014678 -0.000000 0.874299 -0.485388
0.035821 0.091502 -0.068360 0.492983 0.772460 -0.400342
0.032555 0.137602 0.014678 0.492983 0.772460 -0.400342
0.051074 0.123332 0.011839 0.492983 0.772460 -0.400342
0.061665 0.088275 -0.044652 0.492983 0.772460 -0.400342
0.035821 0.091502 -0.068360 0.626596 0.541580 -0.560418
0.061665 0.088275 -0.044652 0.626596 0.541580 -0.560418
0.068036 0.013391 -0.107826 0.626596 0.541580 -0.560418
0.039267 0.017606 -0.137989 0.626596 0.541580 -0.560418
0.067555 0.078597 0.026473 0.969302 0.139046 0.202782
0.053951 0.131393 0.065902 0.969302 0.139046 0.202782
0.047591 0.112078 0.098940 0.969302 0.139046 0.202782
0.056555 0.068919 0.096292 0.969302 0.139046 0.202782
0.067555 0.078597 0.026473 0.988798 0.039209 0.144018
0.056555 0.068919 0.096292 0.988798 0.039209 0.144018
0.064630 -0.011899 0.071193 0.988798 0.039209 0.144018
0.075809 0.000746 -0.017338 0.988798 0.039209 0.144018
0.067555 0.078597 0.026473 0.988119 0.139620 -0.064248
0.075809 0.000746 -0.017338 0.988119 0.139620 -0.064248
0.068036 0.013391 -0.107826 0.988119 0.139620 -0.064248
0.061665 0.088275 -0.044652 0.988119 0.139620 -0.064248
0.067555 0.078597 0.026473 0.942940 0.327174 -0.061810
0.061665 0.088275 -0.044652 0.942940 0.327174 -0.061810
0.051074 0.123332 0.011839 0.942940 0.327174 -0.061810
0.053951 0.131393 0.065902 0.942940 0.327174 -0.061810
0.042713 -0.077170 -0.162129 0.000000 -0.288796 -0.957391
0.045297 -0.158546 -0.137582 0.000000 -0.288796 -0.957391
0.000000 -0.158546 -0.137582 0.000000 -0.288796 -0.957391
0.000000 -0.077170 -0.162129 0.000000 -0.288796 -0.957391
0.042713 -0.077170 -0.162129 0.000000 0.246833 -0.969058
0.000000 -0.077170 -0.162129 0.000000 0.246833 -0.969058
-0.000000 0.017606 -0.137989 0.000000 0.246833 -0.969058
0.039267 0.017606 -0.137989 0.000000 0.246833 -0.969058
0.042713 -0.077170 -0.162129 0.701046 0.212208 -0.680810
0.039267 0.017606 -0.137989 0.701046 0.212208 -0.680810
0.068036 0.013391 -0.107826 0.701046 0.212208 -0.680810
0.074407 -0.080882 -0.132503 0.701046 0.212208 -0.680810
0.042713 -0.077170 -0.162129 0.694892 -0.215590 -0.686037
0.074407 -0.080882 -0.132503 0.694892 -0.215590 -0.686037
0.068971 -0.140559 -0.115612 0.694892 -0.215590 -0.686037
0.045297 -0.158546 -0.137582 0.694892 -0.215590 -0.686037
0.046159 -0.192243 -0.061148 0.644842 -0.739438 0.193416
0.078714 -0.167187 -0.056767 0.644842 -0.739438 0.193416
0.068214 -0.154840 0.008313 0.644842 -0.739438 0.193416
0.044957 -0.175829 0.022743 0.644842 -0.739438 0.193416
0.046159 -0.192243 -0.061148 -0.001380 -0.981250 0.192733
0.044957 -0.175829 0.022743 -0.001380 -0.981250 0.192733
0.000000 -0.175829 0.022091 -0.001380 -0.981250 0.192733
0.000000 -0.192243 -0.061148 -0.001380 -0.981250 0.192733
0.046159 -0.192243 -0.061148 0.000000 -0.915023 -0.403401
0.000000 -0.192243 -0.061148 0.000000 -0.915023 -0.403401
0.000000 -0.158546 -0.137582 0.000000 -0.915023 -0.403401
0.045297 -0.158546 -0.137582 0.000000 -0.915023 -0.403401
0.046159 -0.192243 -0.061148 0.667157 -0.659483 -0.346386
0.045297 -0.158546 -0.137582 0.667157 -0.659483 -0.346386
0.068971 -0.140559 -0.115612 0.667157 -0.659483 -0.346386
0.078714 -0.167187 -0.056767 0.667157 -0.659483 -0.346386
0.031733 0.065693 0.116085 0.645077 -0.158935 0.747405
0.036542 -0.016115 0.095483 0.645077 -0.158935 0.747405
0.064630 -0.011899 0.071193 0.645077 -0.158935 0.747405
0.056555 0.068919 0.096292 0.645077 -0.158935 0.747405
0.031733 0.065693 0.116085 0.650223 0.057718 0.757548
0.056555 0.068919 0.096292 0.650223 0.057718 0.757548
0.047591 0.112078 0.098940 0.650223 0.057718 0.757548
0.028808 0.125184 0.115821 0.650223 0.057718 0.757548
0.031733 0.065693 0.116085 -0.053805 -0.013318 0.998463
0.028808 0.125184 0.115821 -0.053805 -0.013318 0.998463
0.000000 0.125184 0.115169 -0.053805 -0.013318 0.998463
0.000000 0.065693 0.113475 -0.053805 -0.013318 0.998463
0.031733 0.065693 0.116085 -0.092042 -0.252928 0.963097
0.000000 0.065693 0.113475 -0.092042 -0.252928 0.963097
0.000000 -0.016115 0.091568 -0.092042 -0.252928 0.963097
0.036542 -0.016115 0.095483 -0.092042 -0.252928 0.963097
0.041350 -0.106870 0.069661 0.652833 -0.431042 0.622906
0.044957 -0.175829 0.022743 0.652833 -0.431042 0.622906
0.068214 -0.154840 0.008313 0.652833 -0.431042 0.622906
0.072704 -0.103158 0.043950 0.652833 -0.431042 0.622906
0.041350 -0.106870 0.069661 0.647514 -0.170697 0.742690
0.072704 -0.103158 0.043950 0.647514 -0.170697 0.742690
0.064630 -0.011899 0.071193 0.647514 -0.170697 0.742690
0.036542 -0.016115 0.095483 0.647514 -0.170697 0.742690
0.041350 -0.106870 0.069661 -0.080415 -0.268357 0.959957
0.036542 -0.016115 0.095483 -0.080415 -0.268357 0.959957
0.000000 -0.016115 0.091568 -0.080415 -0.268357 0.959957
0.000000 -0.106870 0.067051 -0.080415 -0.268357 0.959957
0.041350 -0.106870 0.069661 -0.031429 -0.554724 0.831441
0.000000 -0.106870 0.067051 -0.031429 -0.554724 0.831441
0.000000 -0.175829 0.022091 -0.031429 -0.554724 0.831441
0.044957 -0.175829 0.022743 -0.031429 -0.554724 0.831441
-0.029650 0.148992 0.079045 0.006103 0.837249 0.546787
-0.028808 0.125184 0.115821 0.006103 0.837249 0.546787
0.000000 0.125184 0.115169 0.006103 0.837249 0.546787
0.000000 0.148992 0.079045 0.006103 0.837249 0.546787
-0.029650 0.148992 0.079045 0.000000 0.984703 -0.174241
-0.032555 0.137602 0.014678 0.000000 0.984703 -0.174241
-0.029650 0.148992 0.079045 -0.558902 0.818292 -0.134262
-0.032555 0.137602 0.014678 -0.558902 0.818292 -0.134262
-0.051074 0.123332 0.011839 -0.558902 0.818292 -0.134262
-0.053951 0.131393 0.065902 -0.558902 0.818292 -0.134262
-0.029650 0.148992 0.079045 -0.702760 0.570582 0.424930
-0.053951 0.131393 0.065902 -0.702760 0.570582 0.424930
-0.047591 0.112078 0.098940 -0.702760 0.570582 0.424930
-0.028808 0.125184 0.115821 -0.702760 0.570582 0.424930
-0.084063 -0.092020 -0.043624 -0.989859 0.049052 0.133312
-0.072704 -0.103158 0.043950 -0.989859 0.049052 0.133312
-0.064630 -0.011899 0.071193 -0.989859 0.049052 0.133312
-0.075809 0.000746 -0.017338 -0.989859 0.049052 0.133312
-0.084063 -0.092020 -0.043624 -0.991498 0.100162 -0.083064
-0.075809 0.000746 -0.017338 -0.991498 0.100162 -0.083064
-0.068036 0.013391 -0.107826 -0.991498 0.100162 -0.083064
-0.074407 -0.080882 -0.132503 -0.991498 0.100162 -0.083064
-0.084063 -0.092020 -0.043624 -0.985109 -0.082975 -0.150580
-0.074407 -0.080882 -0.132503 -0.985109 -0.082975 -0.150580
-0.068971 -0.140559 -0.115612 -0.985109 -0.082975 -0.150580
-0.078714 -0.167187 -0.056767 -0.985109 -0.082975 -0.150580
-0.084063 -0.092020 -0.043624 -0.981285 -0.130545 0.141552
-0.078714 -0.167187 -0.056767 -0.981285 -0.130545 0.141552
-0.068214 -0.154840 0.008313 -0.981285 -0.130545 0.141552
-0.072704 -0.103158 0.043950 -0.981285 -0.130545 0.141552
-0.035821 0.091502 -0.068360 0.000000 0.685783 -0.727806
-0.039267 0.017606 -0.137989 0.000000 0.685783 -0.727806
-0.035821 0.091502 -0.068360 -0.626596 0.541580 -0.560418
-0.039267 0.017606 -0.137989 -0.626596 0.541580 -0.560418
-0.068036 0.013391 -0.107826 -0.626596 0.541580 -0.560418
-0.061665 0.088275 -0.044652 -0.626596 0.541580 -0.560418
-0.035821 0.091502 -0.068360 -0.492983 0.772460 -0.400342
-0.061665 0.088275 -0.044652 -0.492983 0.772460 -0.400342
-0.051074 0.123332 0.011839 -0.492983 0.772460 -0.400342
-0.032555 0.137602 0.014678 -0.492983 0.772460 -0.400342
-0.035821 0.091502 -0.068360 0.000000 0.874299 -0.485388
-0.032555 0.137602 0.014678 0.000000 0.874299 -0.485388
-0.067555 0.078597 0.026473 -0.969302 0.139046 0.202782
-0.056555 0.068919 0.096292 -0.969302 0.139046 0.202782
-0.047591 0.112078 0.098940 -0.969302 0.139046 0.202782
-0.053951 0.131393 0.065902 -0.969302 0.139046 0.202782
-0.067555 0.078597 0.026473 -0.942940 0.327174 -0.061810
-0.053951 0.131393 0.065902 -0.942940 0.327174 -0.061810
-0.051074 0.123332 0.011839 -0.942940 0.327174 -0.061810
-0.061665 0.088275 -0.044652 -0.942940 0.327174 -0.061810
-0.067555 0.078597 0.026473 -0.988119 0.139620 -0.064248
-0.061665 0.088275 -0.044652 -0.988119 0.139620 -0.064248
-0.068036 0.013391 -0.107826 -0.988119 0.139620 -0.064248
-0.075809 0.000746 -0.017338 -0.988119 0.139620 -0.064248
-0.067555 0.078597 0.026473 -0.988798 0.039209 0.144018
-0.075809 0.000746 -0.017338 -0.988798 0.039209 0.144018
-0.064630 -0.011899 0.071193 -0.988798 0.039209 0.144018
-0.056555 0.068919 0.096292 -0.988798 0.039209 0.144018
-0.042713 -0.077170 -0.162129 0.000000 -0.288796 -0.957391
-0.045297 -0.158546 -0.137582 0.000000 -0.288796 -0.957391
-0.042713 -0.077170 -0.162129 -0.694892 -0.215590 -0.686037
-0.045297 -0.158546 -0.137582 -0.694892 -0.215590 -0.686037
-0.068971 -0.140559 -0.115612 -0.694892 -0.215590 -0.686037
-0.074407 -0.080882 -0.132503 -0.694892 -0.215590 -0.686037
-0.042713 -0.077170 -0.162129 -0.701046 0.212208 -0.680810
-0.074407 -0.080882 -0.132503 -0.701046 0.212208 -0.680810
-0.068036 0.013391 -0.107826 -0.701046 0.212208 -0.680810
-0.039267 0.017606 -0.137989 -0.701046 0.212208 -0.680810
-0.042713 -0.077170 -0.162129 -0.000000 0.246833 -0.969058
-0.039267 0.017606 -0.137989 -0.000000 0.246833 -0.969058
-0.046159 -0.192243 -0.061148 -0.644842 -0.739438 0.193416
-0.044957 -0.175829 0.022743 -0.644842 -0.739438 0.193416
-0.068214 -0.154840 0.008313 -0.644842 -0.739438 0.193416
-0.078714 -0.167187 -0.056767 -0.644842 -0.739438 0.193416
-0.046159 -0.192243 -0.061148 -0.667157 -0.659484 -0.346386
-0.078714 -0.167187 -0.056767 -0.667157 -0.659484 -0.346386
-0.068971 -0.140559 -0.115612 -0.667157 -0.659484 -0.346386
-0.045297 -0.158546 -0.137582 -0.667157 -0.659484 -0.346386
-0.046159 -0.192243 -0.061148 0.000000 -0.915023 -0.403401
-0.045297 -0.158546 -0.137582 0.000000 -0.915023 -0.403401
-0.046159 -0.192243 -0.061148 0.001380 -0.981250 0.192733
0.000000 -0.192243 -0.061148 0.001380 -0.981250 0.192733
0.000000 -0.175829 0.022091 0.001380 -0.981250 0.192733
-0.044957 -0.175829 0.022743 0.001380 -0.981250 0.192733
-0.031733 0.065693 0.116085 -0.645077 -0.158935 0.747405
-0.056555 0.068919 0.096292 -0.645077 -0.158935 0.747405
-0.064630 -0.011899 0.071193 -0.645077 -0.158935 0.747405
-0.036542 -0.016115 0.095483 -0.645077 -0.158935 0.747405
-0.031733 0.065693 0.116085 0.092042 -0.252928 0.963097
-0.036542 -0.016115 0.095483 0.092042 -0.252928 0.963097
0.000000 -0.016115 0.091568 0.092042 -0.252928 0.963097
0.000000 0.065693 0.113475 0.092042 -0.252928 0.963097
-0.031733 0.065693 0.116085 0.053805 -0.013318 0.998463
0.000000 0.065693 0.113475 0.053805 -0.013318 0.998463
0.000000 0.125184 0.115169 0.053805 -0.013318 0.998463
-0.028808 0.125184 0.115821 0.053805 -0.013318 0.998463
-0.031733 0.065693 0.116085 -0.650223 0.057718 0.757548
-0.028808 0.125184 0.115821 -0.650223 0.057718 0.757548
-0.047591 0.112078 0.098940 -0.650223 0.057718 0.757548
-0.056555 0.068919 0.096292 -0.650223 0.057718 0.757548
-0.041350 -0.106870 0.069661 -0.652833 -0.431042 0.622906
-0.072704 -0.103158 0.043950 -0.652833 -0.431042 0.622906
-0.068214 -0.154840 0.008313 -0.652833 -0.431042 0.622906
-0.044957 -0.175829 0.022743 -0.652833 -0.431042 0.622906
-0.041350 -0.106870 0.069661 0.031429 -0.554724 0.831441
-0.044957 -0.175829 0.022743 0.031429 -0.554724 0.831441
0.000000 -0.175829 0.022091 0.031429 -0.554724 0.831441
0.000000 -0.106870 0.067051 0.031429 -0.554724 0.831441
-0.041350 -0.106870 0.069661 0.080415 -0.268357 0.959957
0.000000 -0.106870 0.067051 0.080415 -0.268357 0.959957
0.000000 -0.016115 0.091568 0.080415 -0.268357 0.959957
-0.036542 -0.016115 0.095483 0.080415 -0.268357 0.959957
-0.041350 -0.106870 0.069661 -0.647514 -0.170697 0.742690
-0.036542 -0.016115 0.095483 -0.647514 -0.170697 0.742690
-0.064630 -0.011899 0.071193 -0.647514 -0.170697 0.742690
-0.072704 -0.103158 0.043950 -0.647514 -0.170697 0.742690
4 0 1 2 3
4 4 5 6 7
4 8 9 10 11
4 12 13 14 15
4 16 17 18 19
4 20 21 22 23
4 24 25 26 27
4 28 29 30 31
4 32 33 34 35
4 36 37 38 39
4 40 41 42 43
4 44 45 46 47
4 48 49 50 51
4 52 53 54 55
4 56 57 58 59
4 60 61 62 63
4 64 65 66 67
4 68 69 70 71
4 72 73 74 75
4 76 77 78 79
4 80 81 82 83
4 84 85 86 87
4 88 89 90 91
4 92 93 94 95
4 96 97 98 99
4 100 101 102 103
4 104 105 106 107
4 108 109 110 111
4 112 113 114 115
4 116 117 118 119
4 120 121 122 123
4 124 125 126 127
4 128 129 130 131
4 132 15 14 133
4 134 135 136 137
4 138 139 140 141
4 142 143 144 145
4 146 147 148 149
4 150 151 152 153
4 154 155 156 157
4 158 35 34 159
4 160 161 162 163
4 164 165 166 167
4 168 169 38 37
4 170 171 172 173
4 174 175 176 177
4 178 179 180 181
4 182 183 184 185
4 186 67 66 187
4 188 189 190 191
4 192 193 194 195
4 196 197 70 69
4 198 199 200 201
4 202 203 204 205
4 206 207 90 89
4 208 209 210 211
4 212 213 214 215
4 216 217 218 219
4 220 221 222 223
4 224 225 226 227
4 228 229 230 231
4 232 233 234 235
4 236 237 238 239
4 240 241 242 243
