ply
format ascii 1.0
comment Created by Blender 2.70 (sub 0) - www.blender.org, source file: 'Hexapod Version 4.blend'
element vertex 500
property float x
property float y
property float z
property float nx
property float ny
property float nz
element face 136
property list uchar uint vertex_indices
end_header
0.141967 0.771297 -0.400054 0.000000 0.990985 -0.133976
0.000000 0.771297 -0.400054 0.000000 0.990985 -0.133976
0.000000 0.788593 -0.272119 0.000000 0.990985 -0.133976
0.137354 0.788593 -0.272119 0.000000 0.990985 -0.133976
0.141967 0.771297 -0.400054 0.539361 0.841823 -0.020584
0.137354 0.788593 -0.272119 0.539361 0.841823 -0.020584
0.206485 0.733070 -0.272845 0.539361 0.841823 -0.020584
0.239216 0.720735 -0.378190 0.539361 0.841823 -0.020584
0.141967 0.771297 -0.400054 0.464285 0.473277 -0.748630
0.239216 0.720735 -0.378190 0.464285 0.473277 -0.748630
0.206485 0.629750 -0.449526 0.464285 0.473277 -0.748630
0.137354 0.652878 -0.484262 0.464285 0.473277 -0.748630
0.141967 0.771297 -0.400054 -0.000000 0.579521 -0.814957
0.137354 0.652878 -0.484262 -0.000000 0.579521 -0.814957
0.000000 0.652878 -0.484262 -0.000000 0.579521 -0.814957
0.000000 0.771297 -0.400054 -0.000000 0.579521 -0.814957
0.283935 -0.600453 0.011193 0.976336 -0.046466 0.211209
0.278671 -0.423881 0.054795 0.976336 -0.046466 0.211209
0.243837 -0.358379 0.249807 0.976336 -0.046466 0.211209
0.248443 -0.560856 0.164391 0.976336 -0.046466 0.211209
0.283935 -0.600453 0.011193 0.869859 -0.354988 0.342535
0.248443 -0.560856 0.164391 0.869859 -0.354988 0.342535
0.220838 -0.694993 0.073448 0.869859 -0.354988 0.342535
0.248443 -0.754491 -0.036284 0.869859 -0.354988 0.342535
0.283935 -0.600453 0.011193 0.948079 -0.215809 -0.233610
0.248443 -0.754491 -0.036284 0.948079 -0.215809 -0.233610
0.220838 -0.734117 -0.121398 0.948079 -0.215809 -0.233610
0.248443 -0.640049 -0.142005 0.948079 -0.215809 -0.233610
0.283935 -0.600453 0.011193 0.974873 0.059192 -0.214754
0.248443 -0.640049 -0.142005 0.974873 0.059192 -0.214754
0.243837 -0.489384 -0.140218 0.974873 0.059192 -0.214754
0.278671 -0.423881 0.054795 0.974873 0.059192 -0.214754
0.123513 0.472296 -0.497989 -0.000000 -0.253110 -0.967437
0.114285 0.270052 -0.445076 -0.000000 -0.253110 -0.967437
0.000000 0.270052 -0.445076 -0.000000 -0.253110 -0.967437
0.000000 0.472296 -0.497989 -0.000000 -0.253110 -0.967437
0.123513 0.472296 -0.497989 -0.000000 0.075799 -0.997123
0.000000 0.472296 -0.497989 -0.000000 0.075799 -0.997123
0.000000 0.652878 -0.484262 -0.000000 0.075799 -0.997123
0.137354 0.652878 -0.484262 -0.000000 0.075799 -0.997123
0.123513 0.472296 -0.497989 0.447550 0.039142 -0.893402
0.137354 0.652878 -0.484262 0.447550 0.039142 -0.893402
0.206485 0.629750 -0.449526 0.447550 0.039142 -0.893402
0.216147 0.496485 -0.451642 0.447550 0.039142 -0.893402
0.123513 0.472296 -0.497989 0.540575 -0.266321 -0.798030
0.216147 0.496485 -0.451642 0.540575 -0.266321 -0.798030
0.199999 0.295419 -0.387150 0.540575 -0.266321 -0.798030
0.114285 0.270052 -0.445076 0.540575 -0.266321 -0.798030
0.141967 -0.805837 -0.052110 0.380406 -0.798732 0.466174
0.248443 -0.754491 -0.036284 0.380406 -0.798732 0.466174
0.220838 -0.694993 0.073448 0.380406 -0.798732 0.466174
0.141967 -0.736874 0.080786 0.380406 -0.798732 0.466174
0.141967 -0.805837 -0.052110 0.000000 -0.887607 0.460601
0.141967 -0.736874 0.080786 0.000000 -0.887607 0.460601
0.000000 -0.736874 0.080786 0.000000 -0.887607 0.460601
0.000000 -0.805837 -0.052110 0.000000 -0.887607 0.460601
0.141967 -0.805837 -0.052110 0.000000 -0.948736 -0.316069
0.000000 -0.805837 -0.052110 0.000000 -0.948736 -0.316069
0.000000 -0.772107 -0.153354 0.000000 -0.948736 -0.316069
0.141967 -0.772107 -0.153354 0.000000 -0.948736 -0.316069
0.141967 -0.805837 -0.052110 0.476437 -0.822937 -0.309486
0.141967 -0.772107 -0.153354 0.476437 -0.822937 -0.309486
0.220838 -0.734117 -0.121398 0.476437 -0.822937 -0.309486
0.248443 -0.754491 -0.036284 0.476437 -0.822937 -0.309486
0.123513 0.665808 -0.127212 0.539202 0.469718 0.699018
0.114285 0.472984 0.018332 0.539202 0.469718 0.699018
0.199999 0.447618 -0.039594 0.539202 0.469718 0.699018
0.216147 0.641619 -0.173559 0.539202 0.469718 0.699018
0.123513 0.665808 -0.127212 0.489626 0.651273 0.579750
0.216147 0.641619 -0.173559 0.489626 0.651273 0.579750
0.206485 0.733070 -0.272845 0.489626 0.651273 0.579750
0.137354 0.788593 -0.272119 0.489626 0.651273 0.579750
0.123513 0.665808 -0.127212 0.000000 0.762944 0.646464
0.137354 0.788593 -0.272119 0.000000 0.762944 0.646464
0.000000 0.788593 -0.272119 0.000000 0.762944 0.646464
0.000000 0.665808 -0.127212 0.000000 0.762944 0.646464
0.123513 0.665808 -0.127212 -0.000000 0.602449 0.798157
0.000000 0.665808 -0.127212 -0.000000 0.602449 0.798157
0.000000 0.472984 0.018332 -0.000000 0.602449 0.798157
0.114285 0.472984 0.018332 -0.000000 0.602449 0.798157
0.247026 0.569052 -0.312600 0.963735 0.193722 0.183541
0.239216 0.720735 -0.378190 0.963735 0.193722 0.183541
0.206485 0.733070 -0.272845 0.963735 0.193722 0.183541
0.216147 0.641619 -0.173559 0.963735 0.193722 0.183541
0.247026 0.569052 -0.312600 0.983858 0.019026 0.177935
0.216147 0.641619 -0.173559 0.983858 0.019026 0.177935
0.199999 0.447618 -0.039594 0.983858 0.019026 0.177935
0.228571 0.371518 -0.213372 0.983858 0.019026 0.177935
0.247026 0.569052 -0.312600 0.983172 -0.135621 -0.122393
0.228571 0.371518 -0.213372 0.983172 -0.135621 -0.122393
0.199999 0.295419 -0.387150 0.983172 -0.135621 -0.122393
0.216147 0.496485 -0.451642 0.983172 -0.135621 -0.122393
0.247026 0.569052 -0.312600 0.958246 -0.004929 -0.285902
0.216147 0.496485 -0.451642 0.958246 -0.004929 -0.285902
0.206485 0.629750 -0.449526 0.958246 -0.004929 -0.285902
0.239216 0.720735 -0.378190 0.958246 -0.004929 -0.285902
0.247026 0.183404 -0.090593 0.982743 0.155609 0.100012
0.228571 0.371518 -0.213372 0.982743 0.155609 0.100012
0.199999 0.447618 -0.039594 0.982743 0.155609 0.100012
0.216147 0.255971 0.088483 0.982743 0.155609 0.100012
0.247026 0.183404 -0.090593 0.977185 0.185822 0.102859
0.216147 0.255971 0.088483 0.977185 0.185822 0.102859
0.235763 0.088329 0.188163 0.977185 0.185822 0.102859
0.269443 0.019000 0.010263 0.977185 0.185822 0.102859
0.247026 0.183404 -0.090593 0.983043 0.012925 -0.182920
0.269443 0.019000 0.010263 0.983043 0.012925 -0.182920
0.235763 -0.050329 -0.167636 0.983043 0.012925 -0.182920
0.216147 0.110837 -0.269670 0.983043 0.012925 -0.182920
0.247026 0.183404 -0.090593 0.986860 -0.012237 -0.161112
0.216147 0.110837 -0.269670 0.986860 -0.012237 -0.161112
0.199999 0.295419 -0.387150 0.986860 -0.012237 -0.161112
0.228571 0.371518 -0.213372 0.986860 -0.012237 -0.161112
0.262878 -0.304936 0.058994 0.987315 0.116794 0.107555
0.252350 -0.210487 0.047427 0.987315 0.116794 0.107555
0.220806 -0.131738 0.257125 0.987315 0.116794 0.107555
0.230018 -0.227659 0.271067 0.987315 0.116794 0.107555
0.262878 -0.304936 0.058994 0.986366 0.103979 0.127552
0.230018 -0.227659 0.271067 0.986366 0.103979 0.127552
0.243837 -0.358379 0.249807 0.986366 0.103979 0.127552
0.278671 -0.423881 0.054795 0.986366 0.103979 0.127552
0.262878 -0.304936 0.058994 0.971761 0.119464 -0.203493
0.278671 -0.423881 0.054795 0.971761 0.119464 -0.203493
0.243837 -0.489384 -0.140218 0.971761 0.119464 -0.203493
0.230018 -0.382214 -0.153079 0.971761 0.119464 -0.203493
0.262878 -0.304936 0.058994 0.980057 0.083238 -0.180444
0.230018 -0.382214 -0.153079 0.980057 0.083238 -0.180444
0.220806 -0.289236 -0.162272 0.980057 0.083238 -0.180444
0.252350 -0.210487 0.047427 0.980057 0.083238 -0.180444
0.141967 -0.653248 -0.193071 0.000000 -0.316924 -0.948451
0.141967 -0.772107 -0.153354 0.000000 -0.316924 -0.948451
0.000000 -0.772107 -0.153354 0.000000 -0.316924 -0.948451
0.000000 -0.653248 -0.193071 0.000000 -0.316924 -0.948451
0.141967 -0.653248 -0.193071 0.000000 -0.085242 -0.996360
0.000000 -0.653248 -0.193071 0.000000 -0.085242 -0.996360
0.000000 -0.511218 -0.205222 0.000000 -0.085242 -0.996360
0.139335 -0.511218 -0.205222 0.000000 -0.085242 -0.996360
0.141967 -0.653248 -0.193071 0.484355 -0.018993 -0.874665
0.139335 -0.511218 -0.205222 0.484355 -0.018993 -0.874665
0.243837 -0.489384 -0.140218 0.484355 -0.018993 -0.874665
0.248443 -0.640049 -0.142005 0.484355 -0.018993 -0.874665
0.141967 -0.653248 -0.193071 0.457442 -0.296786 -0.838251
0.248443 -0.640049 -0.142005 0.457442 -0.296786 -0.838251
0.220838 -0.734117 -0.121398 0.457442 -0.296786 -0.838251
0.141967 -0.772107 -0.153354 0.457442 -0.296786 -0.838251
0.131439 -0.205728 -0.213883 0.000000 0.164363 -0.986400
0.126175 -0.315486 -0.232171 0.000000 0.164363 -0.986400
0.000000 -0.315486 -0.232171 0.000000 0.164363 -0.986400
0.000000 -0.205728 -0.213883 0.000000 0.164363 -0.986400
0.131439 -0.205728 -0.213883 0.000000 -0.098193 -0.995167
0.000000 -0.205728 -0.213883 0.000000 -0.098193 -0.995167
0.000000 -0.073438 -0.226936 0.000000 -0.098193 -0.995167
0.134722 -0.073438 -0.226936 0.000000 -0.098193 -0.995167
0.131439 -0.205728 -0.213883 0.543203 -0.117251 -0.831374
0.134722 -0.073438 -0.226936 0.543203 -0.117251 -0.831374
0.235763 -0.050329 -0.167636 0.543203 -0.117251 -0.831374
0.230018 -0.181147 -0.149480 0.543203 -0.117251 -0.831374
0.131439 -0.205728 -0.213883 0.554356 0.081335 -0.828296
0.230018 -0.181147 -0.149480 0.554356 0.081335 -0.828296
0.220806 -0.289236 -0.162272 0.554356 0.081335 -0.828296
0.126175 -0.315486 -0.232171 0.554356 0.081335 -0.828296
0.123513 0.086648 -0.329362 0.000000 -0.538948 -0.842339
0.134722 -0.073438 -0.226936 0.000000 -0.538948 -0.842339
0.000000 -0.073438 -0.226936 0.000000 -0.538948 -0.842339
0.000000 0.086648 -0.329362 0.000000 -0.538948 -0.842339
0.123513 0.086648 -0.329362 0.000000 -0.533596 -0.845740
0.000000 0.086648 -0.329362 0.000000 -0.533596 -0.845740
0.000000 0.270052 -0.445076 0.000000 -0.533596 -0.845740
0.114285 0.270052 -0.445076 0.000000 -0.533596 -0.845740
0.123513 0.086648 -0.329362 0.578961 -0.407581 -0.706174
0.114285 0.270052 -0.445076 0.578961 -0.407581 -0.706174
0.199999 0.295419 -0.387150 0.578961 -0.407581 -0.706174
0.216147 0.110837 -0.269670 0.578961 -0.407581 -0.706174
0.123513 0.086648 -0.329362 0.547981 -0.411083 -0.728511
0.216147 0.110837 -0.269670 0.547981 -0.411083 -0.728511
0.235763 -0.050329 -0.167636 0.547981 -0.411083 -0.728511
0.134722 -0.073438 -0.226936 0.547981 -0.411083 -0.728511
0.141967 -0.547657 0.215457 0.326624 -0.559423 0.761815
0.141967 -0.736874 0.080786 0.326624 -0.559423 0.761815
0.220838 -0.694993 0.073448 0.326624 -0.559423 0.761815
0.248443 -0.560856 0.164391 0.326624 -0.559423 0.761815
0.141967 -0.547657 0.215457 0.400581 -0.367886 0.839163
0.248443 -0.560856 0.164391 0.400581 -0.367886 0.839163
0.243837 -0.358379 0.249807 0.400581 -0.367886 0.839163
0.139335 -0.336545 0.314811 0.400581 -0.367886 0.839163
0.141967 -0.547657 0.215457 -0.000000 -0.425824 0.904806
0.139335 -0.336545 0.314811 -0.000000 -0.425824 0.904806
0.000000 -0.336545 0.314811 -0.000000 -0.425824 0.904806
0.000000 -0.547657 0.215457 -0.000000 -0.425824 0.904806
0.141967 -0.547657 0.215457 -0.000000 -0.579855 0.814720
0.000000 -0.547657 0.215457 -0.000000 -0.579855 0.814720
0.000000 -0.736874 0.080786 -0.000000 -0.579855 0.814720
0.141967 -0.736874 0.080786 -0.000000 -0.579855 0.814720
0.131439 -0.009076 0.301336 0.590033 0.143510 0.794522
0.126175 -0.105488 0.327025 0.590033 0.143510 0.794522
0.220806 -0.131738 0.257125 0.590033 0.143510 0.794522
0.230018 -0.033657 0.236934 0.590033 0.143510 0.794522
0.131439 -0.009076 0.301336 0.553227 0.307159 0.774334
0.230018 -0.033657 0.236934 0.553227 0.307159 0.774334
0.235763 0.088329 0.188163 0.553227 0.307159 0.774334
0.134722 0.111439 0.247463 0.553227 0.307159 0.774334
0.131439 -0.009076 0.301336 0.000000 0.408105 0.912935
0.134722 0.111439 0.247463 0.000000 0.408105 0.912935
0.000000 0.111439 0.247463 0.000000 0.408105 0.912935
0.000000 -0.009076 0.301336 0.000000 0.408105 0.912935
0.131439 -0.009076 0.301336 0.000000 0.257466 0.966287
0.000000 -0.009076 0.301336 0.000000 0.257466 0.966287
0.000000 -0.105488 0.327025 0.000000 0.257466 0.966287
0.126175 -0.105488 0.327025 0.000000 0.257466 0.966287
0.123513 0.280160 0.148176 0.543245 0.463767 0.699861
0.134722 0.111439 0.247463 0.543245 0.463767 0.699861
0.235763 0.088329 0.188163 0.543245 0.463767 0.699861
0.216147 0.255971 0.088483 0.543245 0.463767 0.699861
0.123513 0.280160 0.148176 0.571660 0.482783 0.663419
0.216147 0.255971 0.088483 0.571660 0.482783 0.663419
0.199999 0.447618 -0.039594 0.571660 0.482783 0.663419
0.114285 0.472984 0.018332 0.571660 0.482783 0.663419
0.123513 0.280160 0.148176 -0.000000 0.558549 0.829472
0.114285 0.472984 0.018332 -0.000000 0.558549 0.829472
0.000000 0.472984 0.018332 -0.000000 0.558549 0.829472
0.000000 0.280160 0.148176 -0.000000 0.558549 0.829472
0.123513 0.280160 0.148176 0.000000 0.507169 0.861847
0.000000 0.280160 0.148176 0.000000 0.507169 0.861847
0.000000 0.111439 0.247463 0.000000 0.507169 0.861847
0.134722 0.111439 0.247463 0.000000 0.507169 0.861847
0.262878 -0.107402 0.043727 0.984835 0.008561 0.173283
0.269443 0.019000 0.010263 0.984835 0.008561 0.173283
0.235763 0.088329 0.188163 0.984835 0.008561 0.173283
0.230018 -0.033657 0.236934 0.984835 0.008561 0.173283
0.262878 -0.107402 0.043727 0.979980 -0.074227 0.184741
0.230018 -0.033657 0.236934 0.979980 -0.074227 0.184741
0.220806 -0.131738 0.257125 0.979980 -0.074227 0.184741
0.252350 -0.210487 0.047427 0.979980 -0.074227 0.184741
0.262878 -0.107402 0.043727 0.988328 -0.087007 -0.125051
0.252350 -0.210487 0.047427 0.988328 -0.087007 -0.125051
0.220806 -0.289236 -0.162272 0.988328 -0.087007 -0.125051
0.230018 -0.181147 -0.149480 0.988328 -0.087007 -0.125051
0.262878 -0.107402 0.043727 0.986121 -0.076739 -0.147228
0.230018 -0.181147 -0.149480 0.986121 -0.076739 -0.147228
0.235763 -0.050329 -0.167636 0.986121 -0.076739 -0.147228
0.269443 0.019000 0.010263 0.986121 -0.076739 -0.147228
0.131439 -0.407973 -0.223770 0.000000 -0.176820 -0.984243
0.139335 -0.511218 -0.205222 0.000000 -0.176820 -0.984243
0.000000 -0.511218 -0.205222 0.000000 -0.176820 -0.984243
0.000000 -0.407973 -0.223770 0.000000 -0.176820 -0.984243
0.131439 -0.407973 -0.223770 -0.000000 -0.090466 -0.995899
0.000000 -0.407973 -0.223770 -0.000000 -0.090466 -0.995899
0.000000 -0.315486 -0.232171 -0.000000 -0.090466 -0.995899
0.126175 -0.315486 -0.232171 -0.000000 -0.090466 -0.995899
0.131439 -0.407973 -0.223770 0.593375 -0.029991 -0.804367
0.126175 -0.315486 -0.232171 0.593375 -0.029991 -0.804367
0.220806 -0.289236 -0.162272 0.593375 -0.029991 -0.804367
0.230018 -0.382214 -0.153079 0.593375 -0.029991 -0.804367
0.131439 -0.407973 -0.223770 0.564824 -0.064514 -0.822686
0.230018 -0.382214 -0.153079 0.564824 -0.064514 -0.822686
0.243837 -0.489384 -0.140218 0.564824 -0.064514 -0.822686
0.139335 -0.511218 -0.205222 0.564824 -0.064514 -0.822686
0.131439 -0.201900 0.341758 0.534586 -0.108513 0.838119
0.139335 -0.336545 0.314811 0.534586 -0.108513 0.838119
0.243837 -0.358379 0.249807 0.534586 -0.108513 0.838119
0.230018 -0.227659 0.271067 0.534586 -0.108513 0.838119
0.131439 -0.201900 0.341758 0.608715 0.161626 0.776752
0.230018 -0.227659 0.271067 0.608715 0.161626 0.776752
0.220806 -0.131738 0.257125 0.608715 0.161626 0.776752
0.126175 -0.105488 0.327025 0.608715 0.161626 0.776752
0.131439 -0.201900 0.341758 -0.000000 0.151065 0.988524
0.126175 -0.105488 0.327025 -0.000000 0.151065 0.988524
0.000000 -0.105488 0.327025 -0.000000 0.151065 0.988524
0.000000 -0.201900 0.341758 -0.000000 0.151065 0.988524
0.131439 -0.201900 0.341758 -0.000000 -0.196245 0.980555
0.000000 -0.201900 0.341758 -0.000000 -0.196245 0.980555
0.000000 -0.336545 0.314811 -0.000000 -0.196245 0.980555
0.139335 -0.336545 0.314811 -0.000000 -0.196245 0.980555
-0.141967 0.771297 -0.400054 -0.000000 0.990985 -0.133976
-0.137354 0.788593 -0.272119 -0.000000 0.990985 -0.133976
-0.141967 0.771297 -0.400054 0.000000 0.579521 -0.814957
-0.137354 0.652878 -0.484262 0.000000 0.579521 -0.814957
-0.141967 0.771297 -0.400054 -0.464285 0.473278 -0.748631
-0.137354 0.652878 -0.484262 -0.464285 0.473278 -0.748631
-0.206485 0.629750 -0.449526 -0.464285 0.473278 -0.748631
-0.239216 0.720735 -0.378190 -0.464285 0.473278 -0.748631
-0.141967 0.771297 -0.400054 -0.539361 0.841823 -0.020583
-0.239216 0.720735 -0.378190 -0.539361 0.841823 -0.020583
-0.206485 0.733070 -0.272845 -0.539361 0.841823 -0.020583
-0.137354 0.788593 -0.272119 -0.539361 0.841823 -0.020583
-0.283935 -0.600453 0.011193 -0.976336 -0.046466 0.211209
-0.248443 -0.560856 0.164391 -0.976336 -0.046466 0.211209
-0.243837 -0.358379 0.249807 -0.976336 -0.046466 0.211209
-0.278671 -0.423881 0.054795 -0.976336 -0.046466 0.211209
-0.283935 -0.600453 0.011193 -0.974873 0.059192 -0.214754
-0.278671 -0.423881 0.054795 -0.974873 0.059192 -0.214754
-0.243837 -0.489384 -0.140218 -0.974873 0.059192 -0.214754
-0.248443 -0.640049 -0.142005 -0.974873 0.059192 -0.214754
-0.283935 -0.600453 0.011193 -0.948079 -0.215809 -0.233610
-0.248443 -0.640049 -0.142005 -0.948079 -0.215809 -0.233610
-0.220838 -0.734117 -0.121398 -0.948079 -0.215809 -0.233610
-0.248443 -0.754491 -0.036284 -0.948079 -0.215809 -0.233610
-0.283935 -0.600453 0.011193 -0.869859 -0.354987 0.342535
-0.248443 -0.754491 -0.036284 -0.869859 -0.354987 0.342535
-0.220838 -0.694993 0.073448 -0.869859 -0.354987 0.342535
-0.248443 -0.560856 0.164391 -0.869859 -0.354987 0.342535
-0.123513 0.472296 -0.497989 0.000000 -0.253110 -0.967437
-0.114285 0.270052 -0.445076 0.000000 -0.253110 -0.967437
-0.123513 0.472296 -0.497989 -0.540575 -0.266320 -0.798030
-0.114285 0.270052 -0.445076 -0.540575 -0.266320 -0.798030
-0.199999 0.295419 -0.387150 -0.540575 -0.266320 -0.798030
-0.216147 0.496485 -0.451642 -0.540575 -0.266320 -0.798030
-0.123513 0.472296 -0.497989 -0.447550 0.039142 -0.893402
-0.216147 0.496485 -0.451642 -0.447550 0.039142 -0.893402
-0.206485 0.629750 -0.449526 -0.447550 0.039142 -0.893402
-0.137354 0.652878 -0.484262 -0.447550 0.039142 -0.893402
-0.123513 0.472296 -0.497989 0.000000 0.075799 -0.997123
-0.137354 0.652878 -0.484262 0.000000 0.075799 -0.997123
-0.141967 -0.805837 -0.052110 -0.380406 -0.798732 0.466174
-0.141967 -0.736874 0.080786 -0.380406 -0.798732 0.466174
-0.220838 -0.694993 0.073448 -0.380406 -0.798732 0.466174
-0.248443 -0.754491 -0.036284 -0.380406 -0.798732 0.466174
-0.141967 -0.805837 -0.052110 -0.476437 -0.822937 -0.309486
-0.248443 -0.754491 -0.036284 -0.476437 -0.822937 -0.309486
-0.220838 -0.734117 -0.121398 -0.476437 -0.822937 -0.309486
-0.141967 -0.772107 -0.153354 -0.476437 -0.822937 -0.309486
-0.141967 -0.805837 -0.052110 -0.000000 -0.948736 -0.316070
-0.141967 -0.772107 -0.153354 -0.000000 -0.948736 -0.316070
0.000000 -0.772107 -0.153354 -0.000000 -0.948736 -0.316070
0.000000 -0.805837 -0.052110 -0.000000 -0.948736 -0.316070
-0.141967 -0.805837 -0.052110 0.000000 -0.887607 0.460601
-0.141967 -0.736874 0.080786 0.000000 -0.887607 0.460601
-0.123513 0.665808 -0.127212 -0.539202 0.469718 0.699018
-0.216147 0.641619 -0.173559 -0.539202 0.469718 0.699018
-0.199999 0.447618 -0.039594 -0.539202 0.469718 0.699018
-0.114285 0.472984 0.018332 -0.539202 0.469718 0.699018
-0.123513 0.665808 -0.127212 0.000000 0.602449 0.798157
-0.114285 0.472984 0.018332 0.000000 0.602449 0.798157
-0.123513 0.665808 -0.127212 -0.000000 0.762945 0.646464
0.000000 0.665808 -0.127212 -0.000000 0.762945 0.646464
0.000000 0.788593 -0.272119 -0.000000 0.762945 0.646464
-0.137354 0.788593 -0.272119 -0.000000 0.762945 0.646464
-0.123513 0.665808 -0.127212 -0.489626 0.651273 0.579749
-0.137354 0.788593 -0.272119 -0.489626 0.651273 0.579749
-0.206485 0.733070 -0.272845 -0.489626 0.651273 0.579749
-0.216147 0.641619 -0.173559 -0.489626 0.651273 0.579749
-0.247026 0.569052 -0.312600 -0.963734 0.193722 0.183541
-0.216147 0.641619 -0.173559 -0.963734 0.193722 0.183541
-0.206485 0.733070 -0.272845 -0.963734 0.193722 0.183541
-0.239216 0.720735 -0.378190 -0.963734 0.193722 0.183541
-0.247026 0.569052 -0.312600 -0.958246 -0.004929 -0.285902
-0.239216 0.720735 -0.378190 -0.958246 -0.004929 -0.285902
-0.206485 0.629750 -0.449526 -0.958246 -0.004929 -0.285902
-0.216147 0.496485 -0.451642 -0.958246 -0.004929 -0.285902
-0.247026 0.569052 -0.312600 -0.983172 -0.135621 -0.122393
-0.216147 0.496485 -0.451642 -0.983172 -0.135621 -0.122393
-0.199999 0.295419 -0.387150 -0.983172 -0.135621 -0.122393
-0.228571 0.371518 -0.213372 -0.983172 -0.135621 -0.122393
-0.247026 0.569052 -0.312600 -0.983858 0.019026 0.177935
-0.228571 0.371518 -0.213372 -0.983858 0.019026 0.177935
-0.199999 0.447618 -0.039594 -0.983858 0.019026 0.177935
-0.216147 0.641619 -0.173559 -0.983858 0.019026 0.177935
-0.247026 0.183404 -0.090593 -0.982743 0.155609 0.100012
-0.216147 0.255971 0.088483 -0.982743 0.155609 0.100012
-0.199999 0.447618 -0.039594 -0.982743 0.155609 0.100012
-0.228571 0.371518 -0.213372 -0.982743 0.155609 0.100012
-0.247026 0.183404 -0.090593 -0.986860 -0.012237 -0.161112
-0.228571 0.371518 -0.213372 -0.986860 -0.012237 -0.161112
-0.199999 0.295419 -0.387150 -0.986860 -0.012237 -0.161112
-0.216147 0.110837 -0.269670 -0.986860 -0.012237 -0.161112
-0.247026 0.183404 -0.090593 -0.983043 0.012925 -0.182920
-0.216147 0.110837 -0.269670 -0.983043 0.012925 -0.182920
-0.235763 -0.050329 -0.167636 -0.983043 0.012925 -0.182920
-0.269443 0.019000 0.010263 -0.983043 0.012925 -0.182920
-0.247026 0.183404 -0.090593 -0.977185 0.185822 0.102859
-0.269443 0.019000 0.010263 -0.977185 0.185822 0.102859
-0.235763 0.088329 0.188163 -0.977185 0.185822 0.102859
-0.216147 0.255971 0.088483 -0.977185 0.185822 0.102859
-0.262878 -0.304936 0.058994 -0.987315 0.116794 0.107555
-0.230018 -0.227659 0.271067 -0.987315 0.116794 0.107555
-0.220806 -0.131738 0.257125 -0.987315 0.116794 0.107555
-0.252350 -0.210487 0.047427 -0.987315 0.116794 0.107555
-0.262878 -0.304936 0.058994 -0.980057 0.083238 -0.180444
-0.252350 -0.210487 0.047427 -0.980057 0.083238 -0.180444
-0.220806 -0.289236 -0.162272 -0.980057 0.083238 -0.180444
-0.230018 -0.382214 -0.153079 -0.980057 0.083238 -0.180444
-0.262878 -0.304936 0.058994 -0.971761 0.119464 -0.203493
-0.230018 -0.382214 -0.153079 -0.971761 0.119464 -0.203493
-0.243837 -0.489384 -0.140218 -0.971761 0.119464 -0.203493
-0.278671 -0.423881 0.054795 -0.971761 0.119464 -0.203493
-0.262878 -0.304936 0.058994 -0.986366 0.103979 0.127552
-0.278671 -0.423881 0.054795 -0.986366 0.103979 0.127552
-0.243837 -0.358379 0.249807 -0.986366 0.103979 0.127552
-0.230018 -0.227659 0.271067 -0.986366 0.103979 0.127552
-0.141967 -0.653248 -0.193071 -0.000000 -0.316924 -0.948451
-0.141967 -0.772107 -0.153354 -0.000000 -0.316924 -0.948451
-0.141967 -0.653248 -0.193071 -0.457442 -0.296786 -0.838251
-0.141967 -0.772107 -0.153354 -0.457442 -0.296786 -0.838251
-0.220838 -0.734117 -0.121398 -0.457442 -0.296786 -0.838251
-0.248443 -0.640049 -0.142005 -0.457442 -0.296786 -0.838251
-0.141967 -0.653248 -0.193071 -0.484355 -0.018993 -0.874665
-0.248443 -0.640049 -0.142005 -0.484355 -0.018993 -0.874665
-0.243837 -0.489384 -0.140218 -0.484355 -0.018993 -0.874665
-0.139335 -0.511218 -0.205222 -0.484355 -0.018993 -0.874665
-0.141967 -0.653248 -0.193071 0.000000 -0.085242 -0.996360
-0.139335 -0.511218 -0.205222 0.000000 -0.085242 -0.996360
-0.131439 -0.205728 -0.213883 -0.000000 0.164363 -0.986400
-0.126175 -0.315486 -0.232171 -0.000000 0.164363 -0.986400
-0.131439 -0.205728 -0.213883 -0.554356 0.081335 -0.828296
-0.126175 -0.315486 -0.232171 -0.554356 0.081335 -0.828296
-0.220806 -0.289236 -0.162272 -0.554356 0.081335 -0.828296
-0.230018 -0.181147 -0.149480 -0.554356 0.081335 -0.828296
-0.131439 -0.205728 -0.213883 -0.543203 -0.117251 -0.831374
-0.230018 -0.181147 -0.149480 -0.543203 -0.117251 -0.831374
-0.235763 -0.050329 -0.167636 -0.543203 -0.117251 -0.831374
-0.134722 -0.073438 -0.226936 -0.543203 -0.117251 -0.831374
-0.131439 -0.205728 -0.213883 0.000000 -0.098193 -0.995167
-0.134722 -0.073438 -0.226936 0.000000 -0.098193 -0.995167
-0.123513 0.086648 -0.329362 0.000000 -0.538948 -0.842339
-0.134722 -0.073438 -0.226936 0.000000 -0.538948 -0.842339
-0.123513 0.086648 -0.329362 -0.547981 -0.411083 -0.728511
-0.134722 -0.073438 -0.226936 -0.547981 -0.411083 -0.728511
-0.235763 -0.050329 -0.167636 -0.547981 -0.411083 -0.728511
-0.216147 0.110837 -0.269670 -0.547981 -0.411083 -0.728511
-0.123513 0.086648 -0.329362 -0.578961 -0.407581 -0.706174
-0.216147 0.110837 -0.269670 -0.578961 -0.407581 -0.706174
-0.199999 0.295419 -0.387150 -0.578961 -0.407581 -0.706174
-0.114285 0.270052 -0.445076 -0.578961 -0.407581 -0.706174
-0.123513 0.086648 -0.329362 0.000000 -0.533596 -0.845740
-0.114285 0.270052 -0.445076 0.000000 -0.533596 -0.845740
-0.141967 -0.547657 0.215457 -0.326624 -0.559423 0.761815
-0.248443 -0.560856 0.164391 -0.326624 -0.559423 0.761815
-0.220838 -0.694993 0.073448 -0.326624 -0.559423 0.761815
-0.141967 -0.736874 0.080786 -0.326624 -0.559423 0.761815
-0.141967 -0.547657 0.215457 0.000000 -0.579855 0.814720
-0.141967 -0.736874 0.080786 0.000000 -0.579855 0.814720
-0.141967 -0.547657 0.215457 0.000000 -0.425824 0.904806
-0.139335 -0.336545 0.314811 0.000000 -0.425824 0.904806
-0.141967 -0.547657 0.215457 -0.400581 -0.367886 0.839163
-0.139335 -0.336545 0.314811 -0.400581 -0.367886 0.839163
-0.243837 -0.358379 0.249807 -0.400581 -0.367886 0.839163
-0.248443 -0.560856 0.164391 -0.400581 -0.367886 0.839163
-0.131439 -0.009076 0.301336 -0.590033 0.143510 0.794522
-0.230018 -0.033657 0.236934 -0.590033 0.143510 0.794522
-0.220806 -0.131738 0.257125 -0.590033 0.143510 0.794522
-0.126175 -0.105488 0.327025 -0.590033 0.143510 0.794522
-0.131439 -0.009076 0.301336 -0.000000 0.257466 0.966287
-0.126175 -0.105488 0.327025 -0.000000 0.257466 0.966287
-0.131439 -0.009076 0.301336 -0.000000 0.408105 0.912935
-0.134722 0.111439 0.247463 -0.000000 0.408105 0.912935
-0.131439 -0.009076 0.301336 -0.553227 0.307159 0.774334
-0.134722 0.111439 0.247463 -0.553227 0.307159 0.774334
-0.235763 0.088329 0.188163 -0.553227 0.307159 0.774334
-0.230018 -0.033657 0.236934 -0.553227 0.307159 0.774334
-0.123513 0.280160 0.148176 -0.543245 0.463767 0.699861
-0.216147 0.255971 0.088483 -0.543245 0.463767 0.699861
-0.235763 0.088329 0.188163 -0.543245 0.463767 0.699861
-0.134722 0.111439 0.247463 -0.543245 0.463767 0.699861
-0.123513 0.280160 0.148176 0.000000 0.507169 0.861847
-0.134722 0.111439 0.247463 0.000000 0.507169 0.861847
-0.123513 0.280160 0.148176 0.000000 0.558549 0.829472
-0.114285 0.472984 0.018332 0.000000 0.558549 0.829472
-0.123513 0.280160 0.148176 -0.571660 0.482783 0.663419
-0.114285 0.472984 0.018332 -0.571660 0.482783 0.663419
-0.199999 0.447618 -0.039594 -0.571660 0.482783 0.663419
-0.216147 0.255971 0.088483 -0.571660 0.482783 0.663419
-0.262878 -0.107402 0.043727 -0.984835 0.008561 0.173283
-0.230018 -0.033657 0.236934 -0.984835 0.008561 0.173283
-0.235763 0.088329 0.188163 -0.984835 0.008561 0.173283
-0.269443 0.019000 0.010263 -0.984835 0.008561 0.173283
-0.262878 -0.107402 0.043727 -0.986121 -0.076739 -0.147228
-0.269443 0.019000 0.010263 -0.986121 -0.076739 -0.147228
-0.235763 -0.050329 -0.167636 -0.986121 -0.076739 -0.147228
-0.230018 -0.181147 -0.149480 -0.986121 -0.076739 -0.147228
-0.262878 -0.107402 0.043727 -0.988328 -0.087007 -0.125051
-0.230018 -0.181147 -0.149480 -0.988328 -0.087007 -0.125051
-0.220806 -0.289236 -0.162272 -0.988328 -0.087007 -0.125051
-0.252350 -0.210487 0.047427 -0.988328 -0.087007 -0.125051
-0.262878 -0.107402 0.043727 -0.979980 -0.074227 0.184741
-0.252350 -0.210487 0.047427 -0.979980 -0.074227 0.184741
-0.220806 -0.131738 0.257125 -0.979980 -0.074227 0.184741
-0.230018 -0.033657 0.236934 -0.979980 -0.074227 0.184741
-0.131439 -0.407973 -0.223770 0.000000 -0.176820 -0.984243
-0.139335 -0.511218 -0.205222 0.000000 -0.176820 -0.984243
-0.131439 -0.407973 -0.223770 -0.564824 -0.064514 -0.822686
-0.139335 -0.511218 -0.205222 -0.564824 -0.064514 -0.822686
-0.243837 -0.489384 -0.140218 -0.564824 -0.064514 -0.822686
-0.230018 -0.382214 -0.153079 -0.564824 -0.064514 -0.822686
-0.131439 -0.407973 -0.223770 -0.593375 -0.029991 -0.804367
-0.230018 -0.382214 -0.153079 -0.593375 -0.029991 -0.804367
-0.220806 -0.289236 -0.162272 -0.593375 -0.029991 -0.804367
-0.126175 -0.315486 -0.232171 -0.593375 -0.029991 -0.804367
-0.131439 -0.407973 -0.223770 0.000000 -0.090466 -0.995899
-0.126175 -0.315486 -0.232171 0.000000 -0.090466 -0.995899
-0.131439 -0.201900 0.341758 -0.534586 -0.108513 0.838119
-0.230018 -0.227659 0.271067 -0.534586 -0.108513 0.838119
-0.243837 -0.358379 0.249807 -0.534586 -0.108513 0.838119
-0.139335 -0.336545 0.314811 -0.534586 -0.108513 0.838119
-0.131439 -0.201900 0.341758 -0.000000 -0.196245 0.980555
-0.139335 -0.336545 0.314811 -0.000000 -0.196245 0.980555
-0.131439 -0.201900 0.341758 -0.000000 0.151065 0.988524
-0.126175 -0.105488 0.327025 -0.000000 0.151065 0.988524
-0.131439 -0.201900 0.341758 -0.608714 0.161625 0.776752
-0.126175 -0.105488 0.327025 -0.608714 0.161625 0.776752
-0.220806 -0.131738 0.257125 -0.608714 0.161625 0.776752
-0.230018 -0.227659 0.271067 -0.608714 0.161625 0.776752
4 0 1 2 3
4 4 5 6 7
4 8 9 10 11
4 12 13 14 15
4 16 17 18 19
4 20 21 22 23
4 24 25 26 27
4 28 29 30 31
4 32 33 34 35
4 36 37 38 39
4 40 41 42 43
4 44 45 46 47
4 48 49 50 51
4 52 53 54 55
4 56 57 58 59
4 60 61 62 63
4 64 65 66 67
4 68 69 70 71
4 72 73 74 75
4 76 77 78 79
4 80 81 82 83
4 84 85 86 87
4 88 89 90 91
4 92 93 94 95
4 96 97 98 99
4 100 101 102 103
4 104 105 106 107
4 108 109 110 111
4 112 113 114 115
4 116 117 118 119
4 120 121 122 123
4 124 125 126 127
4 128 129 130 131
4 132 133 134 135
4 136 137 138 139
4 140 141 142 143
4 144 145 146 147
4 148 149 150 151
4 152 153 154 155
4 156 157 158 159
4 160 161 162 163
4 164 165 166 167
4 168 169 170 171
4 172 173 174 175
4 176 177 178 179
4 180 181 182 183
4 184 185 186 187
4 188 189 190 191
4 192 193 194 195
4 196 197 198 199
4 200 201 202 203
4 204 205 206 207
4 208 209 210 211
4 212 213 214 215
4 216 217 218 219
4 220 221 222 223
4 224 225 226 227
4 228 229 230 231
4 232 233 234 235
4 236 237 238 239
4 240 241 242 243
4 244 245 246 247
4 248 249 250 251
4 252 253 254 255
4 256 257 258 259
4 260 261 262 263
4 264 265 266 267
4 268 269 270 271
4 272 273 2 1
4 274 15 14 275
4 276 277 278 279
4 280 281 282 283
4 284 285 286 287
4 288 289 290 291
4 292 293 294 295
4 296 297 298 299
4 300 35 34 301
4 302 303 304 305
4 306 307 308 309
4 310 311 38 37
4 312 313 314 315
4 316 317 318 319
4 320 321 322 323
4 324 55 54 325
4 326 327 328 329
4 330 331 78 77
4 332 333 334 335
4 336 337 338 339
4 340 341 342 343
4 344 345 346 347
4 348 349 350 351
4 352 353 354 355
4 356 357 358 359
4 360 361 362 363
4 364 365 366 367
4 368 369 370 371
4 372 373 374 375
4 376 377 378 379
4 380 381 382 383
4 384 385 386 387
4 388 131 130 389
4 390 391 392 393
4 394 395 396 397
4 398 399 134 133
4 400 147 146 401
4 402 403 404 405
4 406 407 408 409
4 410 411 150 149
4 412 163 162 413
4 414 415 416 417
4 418 419 420 421
4 422 423 166 165
4 424 425 426 427
4 428 429 190 189
4 430 187 186 431
4 432 433 434 435
4 436 437 438 439
4 440 441 206 205
4 442 203 202 443
4 444 445 446 447
4 448 449 450 451
4 452 453 222 221
4 454 219 218 455
4 456 457 458 459
4 460 461 462 463
4 464 465 466 467
4 468 469 470 471
4 472 473 474 475
4 476 243 242 477
4 478 479 480 481
4 482 483 484 485
4 486 487 246 245
4 488 489 490 491
4 492 493 270 269
4 494 267 266 495
4 496 497 498 499
