ply
format ascii 1.0
comment Created by Blender 2.70 (sub 0) - www.blender.org, source file: 'Hexapod Version 4.blend'
element vertex 252
property float x
property float y
property float z
property float nx
property float ny
property float nz
element face 64
property list uchar uint vertex_indices
end_header
0.186234 0.565853 -0.295913 0.000957 0.996275 -0.086233
0.000000 0.565162 -0.305534 0.000957 0.996275 -0.086233
-0.000000 0.586094 -0.064134 0.000957 0.996275 -0.086233
0.182885 0.587130 -0.049703 0.000957 0.996275 -0.086233
0.186234 0.565853 -0.295913 0.478564 0.876970 -0.043596
0.182885 0.587130 -0.049703 0.478564 0.876970 -0.043596
0.294321 0.518742 -0.057108 0.478564 0.876970 -0.043596
0.331944 0.495985 -0.246898 0.478564 0.876970 -0.043596
0.186234 0.565853 -0.295913 0.554612 0.588155 -0.588625
0.331944 0.495985 -0.246898 0.554612 0.588155 -0.588625
0.303850 0.362549 -0.388235 0.554612 0.588155 -0.588625
0.195618 0.403113 -0.468145 0.554612 0.588155 -0.588625
0.186234 0.565853 -0.295913 0.020210 0.720236 -0.693435
0.195618 0.403113 -0.468145 0.020210 0.720236 -0.693435
0.000000 0.402940 -0.470550 0.020210 0.720236 -0.693435
0.000000 0.565162 -0.305534 0.020210 0.720236 -0.693435
0.442423 -0.241564 0.157523 0.982846 0.148940 0.108766
0.420132 0.010513 0.004797 0.982846 0.148940 0.108766
0.367446 0.165879 0.277096 0.982846 0.148940 0.108766
0.387266 -0.094510 0.445598 0.982846 0.148940 0.108766
0.442423 -0.241564 0.157523 0.958218 -0.097159 0.269033
0.387266 -0.094510 0.445598 0.958218 -0.097159 0.269033
0.352242 -0.291546 0.460671 0.958218 -0.097159 0.269033
0.400666 -0.432892 0.275665 0.958218 -0.097159 0.269033
0.442423 -0.241564 0.157523 0.948870 -0.310284 -0.058045
0.400666 -0.432892 0.275665 0.948870 -0.310284 -0.058045
0.352829 -0.491579 0.029401 0.948870 -0.310284 -0.058045
0.386974 -0.398773 -0.130552 0.948870 -0.310284 -0.058045
0.442423 -0.241564 0.157523 0.983985 -0.021189 -0.176986
0.386974 -0.398773 -0.130552 0.983985 -0.021189 -0.176986
0.367784 -0.147477 -0.268705 0.983985 -0.021189 -0.176986
0.420132 0.010513 0.004797 0.983985 -0.021189 -0.176986
0.202658 0.116202 -0.464930 -0.000000 -0.315175 -0.949034
0.210201 -0.200141 -0.359872 -0.000000 -0.315175 -0.949034
0.000000 -0.200141 -0.359872 -0.000000 -0.315175 -0.949034
0.000000 0.116202 -0.464930 -0.000000 -0.315175 -0.949034
0.202658 0.116202 -0.464930 0.006045 -0.015327 -0.999864
0.000000 0.116202 -0.464930 0.006045 -0.015327 -0.999864
0.000000 0.402940 -0.470550 0.006045 -0.015327 -0.999864
0.195618 0.403113 -0.468145 0.006045 -0.015327 -0.999864
0.202658 0.116202 -0.464930 0.529930 0.045951 -0.846795
0.195618 0.403113 -0.468145 0.529930 0.045951 -0.846795
0.303850 0.362549 -0.388235 0.529930 0.045951 -0.846795
0.352474 0.158056 -0.383281 0.529930 0.045951 -0.846795
0.202658 0.116202 -0.464930 0.533097 -0.264268 -0.803723
0.352474 0.158056 -0.383281 0.533097 -0.264268 -0.803723
0.367784 -0.147477 -0.268705 0.533097 -0.264268 -0.803723
0.210201 -0.200141 -0.359872 0.533097 -0.264268 -0.803723
0.232049 -0.523748 0.315046 0.565109 -0.628037 0.534996
0.400666 -0.432892 0.275665 0.565109 -0.628037 0.534996
0.352242 -0.291546 0.460671 0.565109 -0.628037 0.534996
0.228561 -0.338049 0.568794 0.565109 -0.628037 0.534996
0.232049 -0.523748 0.315046 0.089414 -0.811132 0.577988
0.228561 -0.338049 0.568794 0.089414 -0.811132 0.577988
-0.000000 -0.368514 0.568794 0.089414 -0.811132 0.577988
-0.000000 -0.544057 0.315046 0.089414 -0.811132 0.577988
0.232049 -0.523748 0.315046 0.054308 -0.988658 0.140022
-0.000000 -0.544057 0.315046 0.054308 -0.988658 0.140022
0.000000 -0.583587 -0.017464 0.054308 -0.988658 0.140022
0.230117 -0.578510 -0.017464 0.054308 -0.988658 0.140022
0.232049 -0.523748 0.315046 0.514736 -0.848612 0.122080
0.230117 -0.578510 -0.017464 0.514736 -0.848612 0.122080
0.352829 -0.491579 0.029401 0.514736 -0.848612 0.122080
0.400666 -0.432892 0.275665 0.514736 -0.848612 0.122080
0.193950 0.449652 0.169017 0.494675 0.556638 0.667422
0.209931 0.210667 0.364655 0.494675 0.556638 0.667422
0.367446 0.165879 0.277096 0.494675 0.556638 0.667422
0.341590 0.408834 0.101800 0.494675 0.556638 0.667422
0.193950 0.449652 0.169017 0.453392 0.776061 0.438366
0.341590 0.408834 0.101800 0.453392 0.776061 0.438366
0.294321 0.518742 -0.057108 0.453392 0.776061 0.438366
0.182885 0.587130 -0.049703 0.453392 0.776061 0.438366
0.193950 0.449652 0.169017 -0.037579 0.848522 0.527825
0.182885 0.587130 -0.049703 -0.037579 0.848522 0.527825
-0.000000 0.586094 -0.064134 -0.037579 0.848522 0.527825
-0.000000 0.448961 0.159396 -0.037579 0.848522 0.527825
0.193950 0.449652 0.169017 -0.032316 0.635801 0.771176
-0.000000 0.448961 0.159396 -0.032316 0.635801 0.771176
-0.000000 0.205417 0.362250 -0.032316 0.635801 0.771176
0.209931 0.210667 0.364655 -0.032316 0.635801 0.771176
0.396608 0.283618 -0.138336 0.923294 0.377863 0.068902
0.331944 0.495985 -0.246898 0.923294 0.377863 0.068902
0.294321 0.518742 -0.057108 0.923294 0.377863 0.068902
0.341590 0.408834 0.101800 0.923294 0.377863 0.068902
0.396608 0.283618 -0.138336 0.979503 0.165008 0.115523
0.341590 0.408834 0.101800 0.979503 0.165008 0.115523
0.367446 0.165879 0.277096 0.979503 0.165008 0.115523
0.420132 0.010513 0.004797 0.979503 0.165008 0.115523
0.396608 0.283618 -0.138336 0.984250 -0.012481 -0.176339
0.420132 0.010513 0.004797 0.984250 -0.012481 -0.176339
0.367784 -0.147477 -0.268705 0.984250 -0.012481 -0.176339
0.352474 0.158056 -0.383281 0.984250 -0.012481 -0.176339
0.396608 0.283618 -0.138336 0.939747 0.175498 -0.293386
0.352474 0.158056 -0.383281 0.939747 0.175498 -0.293386
0.303850 0.362549 -0.388235 0.939747 0.175498 -0.293386
0.331944 0.495985 -0.246898 0.939747 0.175498 -0.293386
0.221094 -0.451176 -0.226577 0.009558 -0.849367 -0.527716
0.230117 -0.578510 -0.017464 0.009558 -0.849367 -0.527716
0.000000 -0.583587 -0.017464 0.009558 -0.849367 -0.527716
0.000000 -0.451176 -0.226577 0.009558 -0.849367 -0.527716
0.221094 -0.451176 -0.226577 -0.000000 -0.468971 -0.883214
0.000000 -0.451176 -0.226577 -0.000000 -0.468971 -0.883214
0.000000 -0.200141 -0.359872 -0.000000 -0.468971 -0.883214
0.210201 -0.200141 -0.359872 -0.000000 -0.468971 -0.883214
0.221094 -0.451176 -0.226577 0.552454 -0.370423 -0.746714
0.210201 -0.200141 -0.359872 0.552454 -0.370423 -0.746714
0.367784 -0.147477 -0.268705 0.552454 -0.370423 -0.746714
0.386974 -0.398773 -0.130552 0.552454 -0.370423 -0.746714
0.221094 -0.451176 -0.226577 0.551372 -0.732459 -0.399365
0.386974 -0.398773 -0.130552 0.551372 -0.732459 -0.399365
0.352829 -0.491579 0.029401 0.551372 -0.732459 -0.399365
0.230117 -0.578510 -0.017464 0.551372 -0.732459 -0.399365
0.221328 -0.072572 0.541622 0.573388 0.040288 0.818293
0.228561 -0.338049 0.568794 0.573388 0.040288 0.818293
0.352242 -0.291546 0.460671 0.573388 0.040288 0.818293
0.387266 -0.094510 0.445598 0.573388 0.040288 0.818293
0.221328 -0.072572 0.541622 0.505420 0.483289 0.714830
0.387266 -0.094510 0.445598 0.505420 0.483289 0.714830
0.367446 0.165879 0.277096 0.505420 0.483289 0.714830
0.209931 0.210667 0.364655 0.505420 0.483289 0.714830
0.221328 -0.072572 0.541622 -0.035670 0.521629 0.852426
0.209931 0.210667 0.364655 -0.035670 0.521629 0.852426
-0.000000 0.205417 0.362250 -0.035670 0.521629 0.852426
-0.000000 -0.092881 0.541622 -0.035670 0.521629 0.852426
0.221328 -0.072572 0.541622 -0.011260 0.099772 0.994947
-0.000000 -0.092881 0.541622 -0.011260 0.099772 0.994947
-0.000000 -0.368514 0.568794 -0.011260 0.099772 0.994947
0.228561 -0.338049 0.568794 -0.011260 0.099772 0.994947
-0.186234 0.565853 -0.295913 -0.000957 0.996275 -0.086233
-0.182885 0.587130 -0.049703 -0.000957 0.996275 -0.086233
-0.000000 0.586094 -0.064134 -0.000957 0.996275 -0.086233
0.000000 0.565162 -0.305534 -0.000957 0.996275 -0.086233
-0.186234 0.565853 -0.295913 -0.020210 0.720236 -0.693435
0.000000 0.565162 -0.305534 -0.020210 0.720236 -0.693435
0.000000 0.402940 -0.470550 -0.020210 0.720236 -0.693435
-0.195618 0.403113 -0.468145 -0.020210 0.720236 -0.693435
-0.186234 0.565853 -0.295913 -0.554612 0.588155 -0.588625
-0.195618 0.403113 -0.468145 -0.554612 0.588155 -0.588625
-0.303850 0.362549 -0.388235 -0.554612 0.588155 -0.588625
-0.331944 0.495985 -0.246898 -0.554612 0.588155 -0.588625
-0.186234 0.565853 -0.295913 -0.478564 0.876970 -0.043596
-0.331944 0.495985 -0.246898 -0.478564 0.876970 -0.043596
-0.294321 0.518742 -0.057108 -0.478564 0.876970 -0.043596
-0.182885 0.587130 -0.049703 -0.478564 0.876970 -0.043596
-0.442423 -0.241564 0.157523 -0.982846 0.148940 0.108766
-0.387266 -0.094510 0.445598 -0.982846 0.148940 0.108766
-0.367446 0.165879 0.277096 -0.982846 0.148940 0.108766
-0.420132 0.010513 0.004797 -0.982846 0.148940 0.108766
-0.442423 -0.241564 0.157523 -0.983985 -0.021189 -0.176986
-0.420132 0.010513 0.004797 -0.983985 -0.021189 -0.176986
-0.367784 -0.147477 -0.268705 -0.983985 -0.021189 -0.176986
-0.386974 -0.398773 -0.130552 -0.983985 -0.021189 -0.176986
-0.442423 -0.241564 0.157523 -0.948870 -0.310284 -0.058045
-0.386974 -0.398773 -0.130552 -0.948870 -0.310284 -0.058045
-0.352829 -0.491579 0.029401 -0.948870 -0.310284 -0.058045
-0.400666 -0.432892 0.275665 -0.948870 -0.310284 -0.058045
-0.442423 -0.241564 0.157523 -0.958218 -0.097159 0.269033
-0.400666 -0.432892 0.275665 -0.958218 -0.097159 0.269033
-0.352242 -0.291547 0.460671 -0.958218 -0.097159 0.269033
-0.387266 -0.094510 0.445598 -0.958218 -0.097159 0.269033
-0.202658 0.116202 -0.464930 0.000000 -0.315175 -0.949034
-0.210201 -0.200141 -0.359872 0.000000 -0.315175 -0.949034
-0.202658 0.116202 -0.464930 -0.533097 -0.264268 -0.803722
-0.210201 -0.200141 -0.359872 -0.533097 -0.264268 -0.803722
-0.367784 -0.147477 -0.268705 -0.533097 -0.264268 -0.803722
-0.352474 0.158056 -0.383281 -0.533097 -0.264268 -0.803722
-0.202658 0.116202 -0.464930 -0.529930 0.045951 -0.846795
-0.352474 0.158056 -0.383281 -0.529930 0.045951 -0.846795
-0.303850 0.362549 -0.388235 -0.529930 0.045951 -0.846795
-0.195618 0.403113 -0.468145 -0.529930 0.045951 -0.846795
-0.202658 0.116202 -0.464930 -0.006045 -0.015327 -0.999864
-0.195618 0.403113 -0.468145 -0.006045 -0.015327 -0.999864
0.000000 0.402940 -0.470550 -0.006045 -0.015327 -0.999864
0.000000 0.116202 -0.464930 -0.006045 -0.015327 -0.999864
-0.232049 -0.523748 0.315046 -0.565109 -0.628037 0.534996
-0.228561 -0.338049 0.568794 -0.565109 -0.628037 0.534996
-0.352242 -0.291547 0.460671 -0.565109 -0.628037 0.534996
-0.400666 -0.432892 0.275665 -0.565109 -0.628037 0.534996
-0.232049 -0.523748 0.315046 -0.514737 -0.848612 0.122080
-0.400666 -0.432892 0.275665 -0.514737 -0.848612 0.122080
-0.352829 -0.491579 0.029401 -0.514737 -0.848612 0.122080
-0.230117 -0.578510 -0.017464 -0.514737 -0.848612 0.122080
-0.232049 -0.523748 0.315046 -0.054308 -0.988658 0.140021
-0.230117 -0.578510 -0.017464 -0.054308 -0.988658 0.140021
0.000000 -0.583587 -0.017464 -0.054308 -0.988658 0.140021
-0.000000 -0.544057 0.315046 -0.054308 -0.988658 0.140021
-0.232049 -0.523748 0.315046 -0.089414 -0.811132 0.577988
-0.000000 -0.544057 0.315046 -0.089414 -0.811132 0.577988
-0.000000 -0.368514 0.568794 -0.089414 -0.811132 0.577988
-0.228561 -0.338049 0.568794 -0.089414 -0.811132 0.577988
-0.193950 0.449652 0.169017 -0.494675 0.556638 0.667422
-0.341590 0.408834 0.101800 -0.494675 0.556638 0.667422
-0.367446 0.165879 0.277096 -0.494675 0.556638 0.667422
-0.209931 0.210667 0.364655 -0.494675 0.556638 0.667422
-0.193950 0.449652 0.169017 0.032316 0.635801 0.771176
-0.209931 0.210667 0.364655 0.032316 0.635801 0.771176
-0.000000 0.205417 0.362250 0.032316 0.635801 0.771176
-0.000000 0.448961 0.159396 0.032316 0.635801 0.771176
-0.193950 0.449652 0.169017 0.037579 0.848522 0.527825
-0.000000 0.448961 0.159396 0.037579 0.848522 0.527825
-0.000000 0.586094 -0.064134 0.037579 0.848522 0.527825
-0.182885 0.587130 -0.049703 0.037579 0.848522 0.527825
-0.193950 0.449652 0.169017 -0.453392 0.776061 0.438366
-0.182885 0.587130 -0.049703 -0.453392 0.776061 0.438366
-0.294321 0.518742 -0.057108 -0.453392 0.776061 0.438366
-0.341590 0.408834 0.101800 -0.453392 0.776061 0.438366
-0.396608 0.283618 -0.138336 -0.923294 0.377863 0.068902
-0.341590 0.408834 0.101800 -0.923294 0.377863 0.068902
-0.294321 0.518742 -0.057108 -0.923294 0.377863 0.068902
-0.331944 0.495985 -0.246898 -0.923294 0.377863 0.068902
-0.396608 0.283618 -0.138336 -0.939747 0.175498 -0.293386
-0.331944 0.495985 -0.246898 -0.939747 0.175498 -0.293386
-0.303850 0.362549 -0.388235 -0.939747 0.175498 -0.293386
-0.352474 0.158056 -0.383281 -0.939747 0.175498 -0.293386
-0.396608 0.283618 -0.138336 -0.984250 -0.012481 -0.176339
-0.352474 0.158056 -0.383281 -0.984250 -0.012481 -0.176339
-0.367784 -0.147477 -0.268705 -0.984250 -0.012481 -0.176339
-0.420132 0.010513 0.004797 -0.984250 -0.012481 -0.176339
-0.396608 0.283618 -0.138336 -0.979503 0.165008 0.115523
-0.420132 0.010513 0.004797 -0.979503 0.165008 0.115523
-0.367446 0.165879 0.277096 -0.979503 0.165008 0.115523
-0.341590 0.408834 0.101800 -0.979503 0.165008 0.115523
-0.221094 -0.451176 -0.226577 -0.009558 -0.849367 -0.527716
0.000000 -0.451176 -0.226577 -0.009558 -0.849367 -0.527716
0.000000 -0.583587 -0.017464 -0.009558 -0.849367 -0.527716
-0.230117 -0.578510 -0.017464 -0.009558 -0.849367 -0.527716
-0.221094 -0.451176 -0.226577 -0.551372 -0.732459 -0.399365
-0.230117 -0.578510 -0.017464 -0.551372 -0.732459 -0.399365
-0.352829 -0.491579 0.029401 -0.551372 -0.732459 -0.399365
-0.386974 -0.398773 -0.130552 -0.551372 -0.732459 -0.399365
-0.221094 -0.451176 -0.226577 -0.552454 -0.370423 -0.746714
-0.386974 -0.398773 -0.130552 -0.552454 -0.370423 -0.746714
-0.367784 -0.147477 -0.268705 -0.552454 -0.370423 -0.746714
-0.210201 -0.200141 -0.359872 -0.552454 -0.370423 -0.746714
-0.221094 -0.451176 -0.226577 0.000000 -0.468971 -0.883214
-0.210201 -0.200141 -0.359872 0.000000 -0.468971 -0.883214
-0.221328 -0.072572 0.541622 -0.573388 0.040288 0.818293
-0.387266 -0.094510 0.445598 -0.573388 0.040288 0.818293
-0.352242 -0.291547 0.460671 -0.573388 0.040288 0.818293
-0.228561 -0.338049 0.568794 -0.573388 0.040288 0.818293
-0.221328 -0.072572 0.541622 0.011260 0.099772 0.994947
-0.228561 -0.338049 0.568794 0.011260 0.099772 0.994947
-0.000000 -0.368514 0.568794 0.011260 0.099772 0.994947
-0.000000 -0.092881 0.541622 0.011260 0.099772 0.994947
-0.221328 -0.072572 0.541622 0.035670 0.521629 0.852426
-0.000000 -0.092881 0.541622 0.035670 0.521629 0.852426
-0.000000 0.205417 0.362250 0.035670 0.521629 0.852426
-0.209931 0.210667 0.364655 0.035670 0.521629 0.852426
-0.221328 -0.072572 0.541622 -0.505420 0.483289 0.714830
-0.209931 0.210667 0.364655 -0.505420 0.483289 0.714830
-0.367446 0.165879 0.277096 -0.505420 0.483289 0.714830
-0.387266 -0.094510 0.445598 -0.505420 0.483289 0.714830
4 0 1 2 3
4 4 5 6 7
4 8 9 10 11
4 12 13 14 15
4 16 17 18 19
4 20 21 22 23
4 24 25 26 27
4 28 29 30 31
4 32 33 34 35
4 36 37 38 39
4 40 41 42 43
4 44 45 46 47
4 48 49 50 51
4 52 53 54 55
4 56 57 58 59
4 60 61 62 63
4 64 65 66 67
4 68 69 70 71
4 72 73 74 75
4 76 77 78 79
4 80 81 82 83
4 84 85 86 87
4 88 89 90 91
4 92 93 94 95
4 96 97 98 99
4 100 101 102 103
4 104 105 106 107
4 108 109 110 111
4 112 113 114 115
4 116 117 118 119
4 120 121 122 123
4 124 125 126 127
4 128 129 130 131
4 132 133 134 135
4 136 137 138 139
4 140 141 142 143
4 144 145 146 147
4 148 149 150 151
4 152 153 154 155
4 156 157 158 159
4 160 35 34 161
4 162 163 164 165
4 166 167 168 169
4 170 171 172 173
4 174 175 176 177
4 178 179 180 181
4 182 183 184 185
4 186 187 188 189
4 190 191 192 193
4 194 195 196 197
4 198 199 200 201
4 202 203 204 205
4 206 207 208 209
4 210 211 212 213
4 214 215 216 217
4 218 219 220 221
4 222 223 224 225
4 226 227 228 229
4 230 231 232 233
4 234 235 102 101
4 236 237 238 239
4 240 241 242 243
4 244 245 246 247
4 248 249 250 251
