ply
format ascii 1.0
comment Created by Blender 2.72 (sub 0) - www.blender.org, source file: 'ralfs hexaboard.blend'
element vertex 295
property float x
property float y
property float z
property float nx
property float ny
property float nz
element face 88
property list uchar uint vertex_indices
end_header
0.160357 0.379153 0.350653 -0.812422 0.573473 -0.105358
0.180567 0.401482 0.316351 -0.812422 0.573473 -0.105358
0.107501 0.274930 0.190924 -0.812422 0.573473 -0.105358
0.087291 0.252601 0.225227 -0.812422 0.573473 -0.105358
0.160357 0.379153 0.350653 -0.762130 0.644042 -0.066081
0.196973 0.429899 0.404089 -0.762130 0.644042 -0.066081
0.204077 0.432344 0.364826 -0.762130 0.644042 -0.066081
0.180567 0.401482 0.316351 -0.762130 0.644042 -0.066081
0.160357 0.379153 0.350653 -0.869742 0.457654 0.184667
0.151124 0.350486 0.384956 -0.869742 0.457654 0.184667
0.182268 0.394569 0.415644 -0.869742 0.457654 0.184667
0.196973 0.429899 0.404089 -0.869742 0.457654 0.184667
0.160357 0.379153 0.350653 -0.902853 0.416841 0.105358
0.087291 0.252601 0.225227 -0.902853 0.416841 0.105358
0.078059 0.223934 0.259529 -0.902853 0.416841 0.105358
0.151124 0.350486 0.384956 -0.902853 0.416841 0.105358
-0.267727 -0.413012 -0.421901 -0.181901 -0.315062 -0.931476
-0.243876 -0.371701 -0.440531 -0.181901 -0.315062 -0.931476
-0.221920 -0.384377 -0.440531 -0.181901 -0.315062 -0.931476
-0.245771 -0.425688 -0.421901 -0.181901 -0.315062 -0.931476
-0.267727 -0.413012 -0.421901 -0.771346 0.239951 -0.589447
-0.275064 -0.387693 -0.406229 -0.771346 0.239951 -0.589447
-0.252789 -0.358971 -0.419448 -0.771346 0.239951 -0.589447
-0.243876 -0.371701 -0.440531 -0.771346 0.239951 -0.589447
-0.267727 -0.413012 -0.421901 -0.987211 -0.133938 -0.086453
-0.273318 -0.422697 -0.371926 -0.987211 -0.133938 -0.086453
-0.274599 -0.396746 -0.368630 -0.987211 -0.133938 -0.086453
-0.275064 -0.387693 -0.406229 -0.987211 -0.133938 -0.086453
-0.267727 -0.413012 -0.421901 -0.487932 -0.845122 -0.218385
-0.245771 -0.425688 -0.421901 -0.487932 -0.845122 -0.218385
-0.251363 -0.435373 -0.371926 -0.487932 -0.845122 -0.218385
-0.273318 -0.422697 -0.371926 -0.487932 -0.845122 -0.218385
0.201940 0.400475 0.304917 0.325653 0.564048 -0.758815
0.223896 0.387799 0.304917 0.325653 0.564048 -0.758815
0.150830 0.261246 0.179490 0.325653 0.564048 -0.758815
0.128875 0.273922 0.179490 0.325653 0.564048 -0.758815
0.201940 0.400475 0.304917 0.388833 0.673479 -0.628678
0.228161 0.445890 0.369786 0.388833 0.673479 -0.628678
0.250116 0.433214 0.369786 0.388833 0.673479 -0.628678
0.223896 0.387799 0.304917 0.388833 0.673479 -0.628678
0.201940 0.400475 0.304917 -0.296469 0.847508 -0.440269
0.180567 0.401482 0.316351 -0.296469 0.847508 -0.440269
0.204077 0.432344 0.364826 -0.296469 0.847508 -0.440269
0.228161 0.445890 0.369786 -0.296469 0.847508 -0.440269
0.201940 0.400475 0.304917 -0.282666 0.752612 -0.594706
0.128875 0.273922 0.179490 -0.282666 0.752612 -0.594706
0.107501 0.274930 0.190924 -0.282666 0.752612 -0.594706
0.180567 0.401482 0.316351 -0.282666 0.752612 -0.594706
0.223816 0.438364 0.421901 -0.414047 0.909025 0.047315
0.228161 0.445890 0.369786 -0.414047 0.909025 0.047315
0.204077 0.432344 0.364826 -0.414047 0.909025 0.047315
0.196973 0.429899 0.404089 -0.414047 0.909025 0.047315
0.223816 0.438364 0.421901 0.493189 0.854229 0.164489
0.245771 0.425688 0.421901 0.493189 0.854229 0.164489
0.250116 0.433214 0.369786 0.493189 0.854229 0.164489
0.228161 0.445890 0.369786 0.493189 0.854229 0.164489
0.223816 0.438364 0.421901 0.156062 0.270308 0.950041
0.198719 0.394894 0.438391 0.156062 0.270308 0.950041
0.220674 0.382218 0.438391 0.156062 0.270308 0.950041
0.245771 0.425688 0.421901 0.156062 0.270308 0.950041
0.223816 0.438364 0.421901 -0.636790 0.523223 0.566336
0.196973 0.429899 0.404089 -0.636790 0.523223 0.566336
0.182268 0.394569 0.415644 -0.636790 0.523223 0.566336
0.198719 0.394894 0.438391 -0.636790 0.523223 0.566336
0.162684 0.332480 0.396390 -0.793114 -0.131509 0.594706
0.151124 0.350486 0.384956 -0.793114 -0.131509 0.594706
0.078059 0.223934 0.259529 -0.793114 -0.131509 0.594706
0.089618 0.205927 0.270963 -0.793114 -0.131509 0.594706
0.162684 0.332480 0.396390 -0.762525 0.040276 0.645703
0.198719 0.394894 0.438391 -0.762525 0.040276 0.645703
0.182268 0.394569 0.415644 -0.762525 0.040276 0.645703
0.151124 0.350486 0.384956 -0.762525 0.040276 0.645703
0.162684 0.332480 0.396390 -0.251758 -0.436058 0.863986
0.184639 0.319804 0.396390 -0.251758 -0.436058 0.863986
0.220674 0.382218 0.438391 -0.251758 -0.436058 0.863986
0.198719 0.394894 0.438391 -0.251758 -0.436058 0.863986
0.162684 0.332480 0.396390 -0.325653 -0.564047 0.758815
0.089618 0.205927 0.270963 -0.325653 -0.564047 0.758815
0.111574 0.193251 0.270963 -0.325653 -0.564047 0.758815
0.184639 0.319804 0.396390 -0.325653 -0.564047 0.758815
-0.048897 0.016716 -0.008559 -0.812422 0.573473 -0.105358
-0.028687 0.039045 -0.042862 -0.812422 0.573473 -0.105358
-0.163628 -0.194681 -0.274508 -0.812422 0.573473 -0.105358
-0.183838 -0.217010 -0.240205 -0.812422 0.573473 -0.105358
-0.048897 0.016716 -0.008559 -0.902853 0.416841 0.105358
-0.058129 -0.011951 0.025743 -0.902853 0.416841 0.105358
-0.048897 0.016716 -0.008559 -0.902853 0.416841 0.105359
-0.183838 -0.217010 -0.240205 -0.902853 0.416841 0.105359
-0.193071 -0.245677 -0.205903 -0.902853 0.416841 0.105359
-0.058129 -0.011951 0.025743 -0.902853 0.416841 0.105359
-0.007313 0.038037 -0.054296 0.325653 0.564048 -0.758815
0.014642 0.025361 -0.054296 0.325653 0.564048 -0.758815
-0.120299 -0.208364 -0.285942 0.325653 0.564048 -0.758815
-0.142255 -0.195688 -0.285942 0.325653 0.564048 -0.758815
-0.007313 0.038037 -0.054296 -0.282667 0.752612 -0.594706
-0.028687 0.039045 -0.042862 -0.282667 0.752612 -0.594706
0.107501 0.274930 0.190924 -0.282667 0.752612 -0.594706
0.128875 0.273922 0.179490 -0.282667 0.752612 -0.594706
-0.142255 -0.195688 -0.285942 -0.282667 0.752612 -0.594706
-0.163628 -0.194681 -0.274508 -0.282667 0.752612 -0.594706
-0.046570 -0.029957 0.037178 -0.793115 -0.131509 0.594705
-0.058129 -0.011951 0.025743 -0.793115 -0.131509 0.594705
-0.193071 -0.245677 -0.205903 -0.793115 -0.131509 0.594705
-0.181511 -0.263683 -0.194468 -0.793115 -0.131509 0.594705
-0.046570 -0.029957 0.037178 -0.793114 -0.131509 0.594706
-0.058129 -0.011951 0.025743 -0.793114 -0.131509 0.594706
-0.046570 -0.029957 0.037178 -0.325653 -0.564048 0.758815
-0.024614 -0.042633 0.037178 -0.325653 -0.564048 0.758815
0.111574 0.193251 0.270963 -0.325653 -0.564048 0.758815
0.089618 0.205927 0.270963 -0.325653 -0.564048 0.758815
-0.181511 -0.263683 -0.194468 -0.325653 -0.564048 0.758815
-0.159556 -0.276359 -0.194468 -0.325653 -0.564048 0.758815
-0.253164 -0.337085 -0.359213 -0.834918 0.515600 -0.192530
-0.232954 -0.314756 -0.393515 -0.834918 0.515600 -0.192530
-0.252789 -0.358971 -0.419448 -0.834918 0.515600 -0.192530
-0.275064 -0.387693 -0.406229 -0.834918 0.515600 -0.192530
-0.253164 -0.337085 -0.359213 -0.812422 0.573473 -0.105358
-0.232954 -0.314756 -0.393515 -0.812422 0.573473 -0.105358
-0.253164 -0.337085 -0.359213 -0.902853 0.416841 0.105358
-0.262397 -0.365752 -0.324910 -0.902853 0.416841 0.105358
-0.193071 -0.245677 -0.205903 -0.902853 0.416841 0.105358
-0.183838 -0.217010 -0.240205 -0.902853 0.416841 0.105358
-0.253164 -0.337085 -0.359213 -0.942400 0.329437 0.057916
-0.275064 -0.387693 -0.406229 -0.942400 0.329437 0.057916
-0.274599 -0.396746 -0.368630 -0.942400 0.329437 0.057916
-0.262397 -0.365752 -0.324910 -0.942400 0.329437 0.057916
-0.211580 -0.315764 -0.404949 0.241255 0.417865 -0.875891
-0.189625 -0.328440 -0.404949 0.241255 0.417865 -0.875891
-0.221920 -0.384377 -0.440531 0.241255 0.417865 -0.875891
-0.243876 -0.371701 -0.440531 0.241255 0.417865 -0.875891
-0.211580 -0.315764 -0.404949 0.325653 0.564047 -0.758815
-0.142255 -0.195688 -0.285942 0.325653 0.564047 -0.758815
-0.120299 -0.208364 -0.285942 0.325653 0.564047 -0.758815
-0.189625 -0.328440 -0.404949 0.325653 0.564047 -0.758815
-0.211580 -0.315764 -0.404949 -0.282667 0.752612 -0.594706
-0.232954 -0.314756 -0.393515 -0.282667 0.752612 -0.594706
-0.211580 -0.315764 -0.404949 -0.422781 0.623819 -0.657348
-0.243876 -0.371701 -0.440531 -0.422781 0.623819 -0.657348
-0.252789 -0.358971 -0.419448 -0.422781 0.623819 -0.657348
-0.232954 -0.314756 -0.393515 -0.422781 0.623819 -0.657348
-0.250837 -0.383759 -0.313476 -0.887155 -0.180500 0.424706
-0.262397 -0.365752 -0.324910 -0.887155 -0.180500 0.424706
-0.274599 -0.396746 -0.368630 -0.887155 -0.180500 0.424706
-0.273318 -0.422697 -0.371926 -0.887155 -0.180500 0.424706
-0.250837 -0.383759 -0.313476 -0.793115 -0.131509 0.594706
-0.181511 -0.263683 -0.194468 -0.793115 -0.131509 0.594706
-0.193071 -0.245677 -0.205903 -0.793115 -0.131509 0.594706
-0.262397 -0.365752 -0.324910 -0.793115 -0.131509 0.594706
-0.250837 -0.383759 -0.313476 -0.325653 -0.564048 0.758815
-0.228882 -0.396435 -0.313476 -0.325653 -0.564048 0.758815
-0.250837 -0.383759 -0.313476 -0.396309 -0.686427 0.609719
-0.273318 -0.422697 -0.371926 -0.396309 -0.686427 0.609719
-0.251363 -0.435373 -0.371926 -0.396309 -0.686427 0.609719
-0.228882 -0.396435 -0.313476 -0.396309 -0.686427 0.609719
0.248178 0.328450 0.350653 0.902853 -0.416841 -0.105358
0.175113 0.201897 0.225227 0.902853 -0.416841 -0.105358
0.184345 0.230564 0.190924 0.902853 -0.416841 -0.105358
0.257411 0.357116 0.316351 0.902853 -0.416841 -0.105358
0.248178 0.328450 0.350653 0.812422 -0.573473 0.105358
0.227968 0.306120 0.384956 0.812422 -0.573473 0.105358
0.154903 0.179568 0.259529 0.812422 -0.573473 0.105358
0.175113 0.201897 0.225227 0.812422 -0.573473 0.105358
0.248178 0.328450 0.350653 0.831211 -0.524391 0.184667
0.273817 0.385534 0.404089 0.831211 -0.524391 0.184667
0.250573 0.355133 0.415644 0.831211 -0.524391 0.184667
0.227968 0.306120 0.384956 0.831211 -0.524391 0.184667
0.248178 0.328450 0.350653 0.938822 -0.338003 -0.066081
0.257411 0.357116 0.316351 0.938822 -0.338003 -0.066081
0.272383 0.392908 0.364826 0.938822 -0.338003 -0.066081
0.273817 0.385534 0.404089 0.938822 -0.338003 -0.066081
-0.223816 -0.438364 -0.421901 -0.181901 -0.315062 -0.931476
-0.199965 -0.397053 -0.440531 -0.181901 -0.315062 -0.931476
-0.223816 -0.438364 -0.421901 -0.487931 -0.845122 -0.218385
-0.229408 -0.448049 -0.371926 -0.487931 -0.845122 -0.218385
-0.251363 -0.435373 -0.371926 -0.487931 -0.845122 -0.218385
-0.245771 -0.425688 -0.421901 -0.487931 -0.845122 -0.218385
-0.223816 -0.438364 -0.421901 0.377612 -0.921919 -0.086453
-0.198220 -0.432058 -0.406229 0.377612 -0.921919 -0.086453
-0.206293 -0.436182 -0.368630 0.377612 -0.921919 -0.086453
-0.229408 -0.448049 -0.371926 0.377612 -0.921919 -0.086453
-0.223816 -0.438364 -0.421901 0.593477 -0.548030 -0.589447
-0.199965 -0.397053 -0.440531 0.593477 -0.548030 -0.589447
-0.184483 -0.398407 -0.419448 0.593477 -0.548030 -0.589447
-0.198220 -0.432058 -0.406229 0.593477 -0.548030 -0.589447
0.245851 0.375123 0.304917 0.325654 0.564047 -0.758815
0.172786 0.248570 0.179490 0.325654 0.564047 -0.758815
0.150830 0.261246 0.179490 0.325654 0.564047 -0.758815
0.223896 0.387799 0.304917 0.325654 0.564047 -0.758815
0.245851 0.375123 0.304917 0.793115 0.131509 -0.594706
0.257411 0.357116 0.316351 0.793115 0.131509 -0.594706
0.184345 0.230564 0.190924 0.793115 0.131509 -0.594706
0.172786 0.248570 0.179490 0.793115 0.131509 -0.594706
0.245851 0.375123 0.304917 0.882198 0.167004 -0.440269
0.272072 0.420538 0.369786 0.882198 0.167004 -0.440269
0.272383 0.392908 0.364826 0.882198 0.167004 -0.440269
0.257411 0.357116 0.316351 0.882198 0.167004 -0.440269
0.245851 0.375123 0.304917 0.388834 0.673478 -0.628678
0.223896 0.387799 0.304917 0.388834 0.673478 -0.628678
0.250116 0.433214 0.369786 0.388834 0.673478 -0.628678
0.272072 0.420538 0.369786 0.388834 0.673478 -0.628678
0.267727 0.413012 0.421901 0.994262 0.095938 0.047315
0.273817 0.385534 0.404089 0.994262 0.095938 0.047315
0.272383 0.392908 0.364826 0.994262 0.095938 0.047315
0.272072 0.420538 0.369786 0.994262 0.095938 0.047315
0.267727 0.413012 0.421901 0.771519 -0.289864 0.566336
0.242629 0.369542 0.438391 0.771519 -0.289864 0.566336
0.250573 0.355133 0.415644 0.771519 -0.289864 0.566336
0.273817 0.385534 0.404089 0.771519 -0.289864 0.566336
0.267727 0.413012 0.421901 0.156062 0.270308 0.950041
0.242629 0.369542 0.438391 0.156062 0.270308 0.950041
0.267727 0.413012 0.421901 0.493190 0.854229 0.164490
0.272072 0.420538 0.369786 0.493190 0.854229 0.164490
0.250116 0.433214 0.369786 0.493190 0.854229 0.164490
0.245771 0.425688 0.421901 0.493190 0.854229 0.164490
0.206594 0.307128 0.396390 0.282666 -0.752612 0.594706
0.133529 0.180575 0.270963 0.282666 -0.752612 0.594706
0.154903 0.179568 0.259529 0.282666 -0.752612 0.594706
0.227968 0.306120 0.384956 0.282666 -0.752612 0.594706
0.206594 0.307128 0.396390 -0.325653 -0.564048 0.758815
0.184639 0.319804 0.396390 -0.325653 -0.564048 0.758815
0.133529 0.180575 0.270963 -0.325653 -0.564048 0.758815
0.206594 0.307128 0.396390 -0.251758 -0.436058 0.863986
0.242629 0.369542 0.438391 -0.251758 -0.436058 0.863986
0.206594 0.307128 0.396390 0.416143 -0.640228 0.645704
0.227968 0.306120 0.384956 0.416143 -0.640228 0.645704
0.250573 0.355133 0.415644 0.416143 -0.640228 0.645704
0.242629 0.369542 0.438391 0.416143 -0.640228 0.645704
0.038925 -0.033988 -0.008559 0.902853 -0.416841 -0.105358
-0.096017 -0.267714 -0.240205 0.902853 -0.416841 -0.105358
-0.086784 -0.239047 -0.274508 0.902853 -0.416841 -0.105358
0.048157 -0.005321 -0.042862 0.902853 -0.416841 -0.105358
0.038925 -0.033988 -0.008559 0.812422 -0.573473 0.105358
0.018715 -0.056317 0.025743 0.812422 -0.573473 0.105358
-0.116227 -0.290043 -0.205903 0.812422 -0.573473 0.105358
-0.096017 -0.267714 -0.240205 0.812422 -0.573473 0.105358
0.036598 0.012685 -0.054296 0.325653 0.564048 -0.758815
-0.098344 -0.221040 -0.285942 0.325653 0.564048 -0.758815
0.036598 0.012685 -0.054296 0.793114 0.131509 -0.594706
0.048157 -0.005321 -0.042862 0.793114 0.131509 -0.594706
-0.086784 -0.239047 -0.274508 0.793114 0.131509 -0.594706
-0.098344 -0.221040 -0.285942 0.793114 0.131509 -0.594706
0.036598 0.012685 -0.054296 0.793115 0.131509 -0.594706
0.048157 -0.005321 -0.042862 0.793115 0.131509 -0.594706
0.172786 0.248570 0.179490 0.325653 0.564048 -0.758815
-0.002659 -0.055309 0.037178 0.282667 -0.752612 0.594705
-0.137601 -0.289035 -0.194468 0.282667 -0.752612 0.594705
-0.116227 -0.290043 -0.205903 0.282667 -0.752612 0.594705
0.018715 -0.056317 0.025743 0.282667 -0.752612 0.594705
-0.002659 -0.055309 0.037178 -0.325653 -0.564047 0.758815
-0.024614 -0.042633 0.037178 -0.325653 -0.564047 0.758815
-0.159556 -0.276359 -0.194468 -0.325653 -0.564047 0.758815
-0.137601 -0.289035 -0.194468 -0.325653 -0.564047 0.758815
-0.002659 -0.055309 0.037178 -0.325653 -0.564048 0.758815
-0.002659 -0.055309 0.037178 0.282667 -0.752612 0.594706
0.018715 -0.056317 0.025743 0.282667 -0.752612 0.594706
0.154903 0.179568 0.259529 0.282667 -0.752612 0.594706
0.133529 0.180575 0.270963 0.282667 -0.752612 0.594706
-0.165343 -0.387789 -0.359213 0.863982 -0.465261 -0.192531
-0.198220 -0.432058 -0.406229 0.863982 -0.465261 -0.192531
-0.184483 -0.398407 -0.419448 0.863982 -0.465261 -0.192531
-0.156110 -0.359122 -0.393515 0.863982 -0.465261 -0.192531
-0.165343 -0.387789 -0.359213 0.756500 -0.651424 0.057915
-0.185553 -0.410118 -0.324910 0.756500 -0.651424 0.057915
-0.206293 -0.436182 -0.368630 0.756500 -0.651424 0.057915
-0.198220 -0.432058 -0.406229 0.756500 -0.651424 0.057915
-0.165343 -0.387789 -0.359213 0.812422 -0.573473 0.105358
-0.185553 -0.410118 -0.324910 0.812422 -0.573473 0.105358
-0.165343 -0.387789 -0.359213 0.902853 -0.416841 -0.105358
-0.156110 -0.359122 -0.393515 0.902853 -0.416841 -0.105358
-0.167670 -0.341116 -0.404949 0.241255 0.417866 -0.875891
-0.199965 -0.397053 -0.440531 0.241255 0.417866 -0.875891
-0.221920 -0.384377 -0.440531 0.241255 0.417866 -0.875891
-0.189625 -0.328440 -0.404949 0.241255 0.417866 -0.875891
-0.167670 -0.341116 -0.404949 0.751634 -0.054230 -0.657348
-0.156110 -0.359122 -0.393515 0.751634 -0.054230 -0.657348
-0.184483 -0.398407 -0.419448 0.751634 -0.054230 -0.657348
-0.199965 -0.397053 -0.440531 0.751634 -0.054230 -0.657348
-0.167670 -0.341116 -0.404949 0.793114 0.131509 -0.594706
-0.156110 -0.359122 -0.393515 0.793114 0.131509 -0.594706
-0.167670 -0.341116 -0.404949 0.325653 0.564048 -0.758815
-0.189625 -0.328440 -0.404949 0.325653 0.564048 -0.758815
-0.206926 -0.409111 -0.313476 0.287260 -0.858549 0.424705
-0.229408 -0.448049 -0.371926 0.287260 -0.858549 0.424705
-0.206293 -0.436182 -0.368630 0.287260 -0.858549 0.424705
-0.185553 -0.410118 -0.324910 0.287260 -0.858549 0.424705
-0.206926 -0.409111 -0.313476 -0.396309 -0.686427 0.609719
-0.229408 -0.448049 -0.371926 -0.396309 -0.686427 0.609719
-0.206926 -0.409111 -0.313476 -0.325654 -0.564047 0.758815
-0.137601 -0.289035 -0.194468 -0.325654 -0.564047 0.758815
-0.159556 -0.276359 -0.194468 -0.325654 -0.564047 0.758815
-0.228882 -0.396435 -0.313476 -0.325654 -0.564047 0.758815
-0.206926 -0.409111 -0.313476 0.282667 -0.752612 0.594706
-0.185553 -0.410118 -0.324910 0.282667 -0.752612 0.594706
-0.116227 -0.290043 -0.205903 0.282667 -0.752612 0.594706
-0.137601 -0.289035 -0.194468 0.282667 -0.752612 0.594706
4 0 1 2 3
4 4 5 6 7
4 8 9 10 11
4 12 13 14 15
4 16 17 18 19
4 20 21 22 23
4 24 25 26 27
4 28 29 30 31
4 32 33 34 35
4 36 37 38 39
4 40 41 42 43
4 44 45 46 47
4 48 49 50 51
4 52 53 54 55
4 56 57 58 59
4 60 61 62 63
4 64 65 66 67
4 68 69 70 71
4 72 73 74 75
4 76 77 78 79
4 80 81 82 83
4 80 3 2 81
4 84 85 14 13
4 86 87 88 89
4 90 91 92 93
4 90 35 34 91
4 94 95 96 97
4 94 98 99 95
4 100 101 102 103
4 104 67 66 105
4 106 107 108 109
4 106 110 111 107
4 112 113 114 115
4 116 83 82 117
4 118 119 120 121
4 122 123 124 125
4 126 127 128 129
4 130 131 132 133
4 134 135 99 98
4 136 137 138 139
4 140 141 142 143
4 144 145 146 147
4 148 149 111 110
4 150 151 152 153
4 154 155 156 157
4 158 159 160 161
4 162 163 164 165
4 166 167 168 169
4 170 19 18 171
4 172 173 174 175
4 176 177 178 179
4 180 181 182 183
4 184 185 186 187
4 188 189 190 191
4 192 193 194 195
4 196 197 198 199
4 200 201 202 203
4 204 205 206 207
4 208 59 58 209
4 210 211 212 213
4 214 215 216 217
4 218 219 108 220
4 221 222 74 73
4 223 224 225 226
4 227 228 229 230
4 231 232 233 234
4 231 161 160 232
4 227 230 156 155
4 235 236 92 91
4 237 238 239 240
4 241 191 190 242
4 235 91 34 243
4 244 245 246 247
4 248 249 250 251
4 252 220 108 107
4 253 254 255 256
4 257 258 259 260
4 261 262 263 264
4 265 234 233 266
4 267 268 229 228
4 269 270 271 272
4 273 274 275 276
4 277 240 239 278
4 279 280 92 236
4 281 282 283 284
4 285 153 152 286
4 287 288 289 290
4 291 292 293 294
