ply
format ascii 1.0
comment Created by Blender 2.72 (sub 0) - www.blender.org, source file: 'ralfs hexaboard.blend'
element vertex 264
property float x
property float y
property float z
property float nx
property float ny
property float nz
element face 88
property list uchar uint vertex_indices
end_header
-0.326421 -0.021221 0.423222 -0.234936 0.000000 0.972011
-0.285777 -0.021221 0.433046 -0.234936 0.000000 0.972011
-0.285777 0.000000 0.433046 -0.234936 0.000000 0.972011
-0.326421 0.000000 0.423222 -0.234936 0.000000 0.972011
-0.326421 -0.021221 0.423222 -0.108853 -0.749676 0.652791
-0.316012 -0.037137 0.409727 -0.108853 -0.749676 0.652791
-0.285520 -0.033010 0.416504 -0.108853 -0.749676 0.652791
-0.285777 -0.021221 0.433046 -0.108853 -0.749676 0.652791
-0.326421 -0.021221 0.423222 -0.603727 -0.749676 0.271107
-0.346247 -0.021221 0.386407 -0.603727 -0.749676 0.271107
-0.330312 -0.033010 0.381956 -0.603727 -0.749676 0.271107
-0.316012 -0.037137 0.409727 -0.603727 -0.749676 0.271107
-0.326421 -0.021221 0.423222 -0.880448 0.000000 0.474143
-0.326421 0.000000 0.423222 -0.880448 0.000000 0.474143
-0.346247 0.000000 0.386407 -0.880448 0.000000 0.474143
-0.346247 -0.021221 0.386407 -0.880448 0.000000 0.474143
0.282659 -0.042442 -0.366482 0.108973 -0.990485 0.084048
0.312894 -0.037137 -0.343163 0.108973 -0.990485 0.084048
0.219817 -0.037137 -0.222483 0.108973 -0.990485 0.084048
0.189581 -0.042442 -0.245803 0.108973 -0.990485 0.084048
0.282659 -0.042442 -0.366482 0.200225 -0.979718 0.007862
0.315480 -0.037137 -0.409037 0.200225 -0.979718 0.007862
0.329367 -0.033010 -0.380731 0.200225 -0.979718 0.007862
0.312894 -0.037137 -0.343163 0.200225 -0.979718 0.007862
0.282659 -0.042442 -0.366482 -0.058466 -0.979718 -0.191660
0.252424 -0.037137 -0.389802 -0.058466 -0.979718 -0.191660
0.284575 -0.033010 -0.415278 -0.058466 -0.979718 -0.191660
0.315480 -0.037137 -0.409037 -0.058466 -0.979718 -0.191660
0.282659 -0.042442 -0.366482 -0.108973 -0.990485 -0.084048
0.189581 -0.042442 -0.245803 -0.108973 -0.990485 -0.084048
0.159346 -0.037137 -0.269122 -0.108973 -0.990485 -0.084048
0.252424 -0.037137 -0.389802 -0.108973 -0.990485 -0.084048
0.326421 -0.021221 -0.423222 0.596114 -0.762071 -0.252776
0.345715 -0.021221 -0.385718 0.596114 -0.762071 -0.252776
0.329367 -0.033010 -0.380731 0.596114 -0.762071 -0.252776
0.315480 -0.037137 -0.409037 0.596114 -0.762071 -0.252776
0.326421 -0.021221 -0.423222 0.889225 0.000000 -0.457470
0.326421 -0.000000 -0.423222 0.889225 0.000000 -0.457470
0.345715 -0.000000 -0.385718 0.889225 0.000000 -0.457470
0.345715 -0.021221 -0.385718 0.889225 0.000000 -0.457470
0.326421 -0.021221 -0.423222 0.216579 0.000000 -0.976265
0.285245 -0.021221 -0.432357 0.216579 0.000000 -0.976265
0.285245 -0.000000 -0.432357 0.216579 0.000000 -0.976265
0.326421 -0.000000 -0.423222 0.216579 0.000000 -0.976265
0.326421 -0.021221 -0.423222 0.093057 -0.762071 -0.640771
0.315480 -0.037137 -0.409037 0.093057 -0.762071 -0.640771
0.284575 -0.033010 -0.415278 0.093057 -0.762071 -0.640771
0.285245 -0.021221 -0.432357 0.093057 -0.762071 -0.640771
-0.325098 -0.021221 0.338146 -0.618415 -0.624551 -0.476968
-0.233616 -0.021221 0.219534 -0.618415 -0.624551 -0.476968
-0.223537 -0.037137 0.227307 -0.618415 -0.624551 -0.476968
-0.315020 -0.037137 0.345919 -0.618415 -0.624551 -0.476968
-0.325098 -0.021221 0.338146 -0.791841 -0.000000 -0.610727
-0.325098 0.000000 0.338146 -0.791841 -0.000000 -0.610727
-0.233616 0.000000 0.219534 -0.791841 -0.000000 -0.610727
-0.233616 -0.021221 0.219534 -0.791841 -0.000000 -0.610727
-0.325098 -0.021221 0.338146 -0.915916 0.000000 -0.401370
-0.346247 -0.021221 0.386407 -0.915916 0.000000 -0.401370
-0.346247 0.000000 0.386407 -0.915916 0.000000 -0.401370
-0.325098 0.000000 0.338146 -0.915916 0.000000 -0.401370
-0.325098 -0.021221 0.338146 -0.687176 -0.676854 -0.263930
-0.315020 -0.037137 0.345919 -0.687176 -0.676854 -0.263930
-0.330312 -0.033010 0.381956 -0.687176 -0.676854 -0.263930
-0.346247 -0.021221 0.386407 -0.687176 -0.676854 -0.263930
0.322972 -0.021221 -0.335390 0.618415 -0.624551 0.476968
0.229895 -0.021221 -0.214710 0.618415 -0.624551 0.476968
0.219817 -0.037137 -0.222483 0.618415 -0.624551 0.476968
0.312894 -0.037137 -0.343163 0.618415 -0.624551 0.476968
0.322972 -0.021221 -0.335390 0.791841 0.000000 0.610727
0.322972 -0.000000 -0.335390 0.791841 0.000000 0.610727
0.229895 -0.000000 -0.214710 0.791841 0.000000 0.610727
0.229895 -0.021221 -0.214710 0.791841 0.000000 0.610727
0.322972 -0.021221 -0.335390 0.911273 0.000000 0.411803
0.345715 -0.021221 -0.385718 0.911273 0.000000 0.411803
0.345715 -0.000000 -0.385718 0.911273 0.000000 0.411803
0.322972 -0.000000 -0.335390 0.911273 0.000000 0.411803
0.322972 -0.021221 -0.335390 0.682362 -0.678282 0.272609
0.312894 -0.037137 -0.343163 0.682362 -0.678282 0.272609
0.329367 -0.033010 -0.380731 0.682362 -0.678282 0.272609
0.345715 -0.021221 -0.385718 0.682362 -0.678282 0.272609
-0.284785 -0.042442 0.369239 0.054808 -0.979028 0.196215
-0.254550 -0.037137 0.392559 0.054808 -0.979028 0.196215
-0.285520 -0.033010 0.416504 0.054808 -0.979028 0.196215
-0.316012 -0.037137 0.409727 0.054808 -0.979028 0.196215
-0.284785 -0.042442 0.369239 0.108973 -0.990485 0.084048
-0.193302 -0.042442 0.250627 0.108973 -0.990485 0.084048
-0.163067 -0.037137 0.273946 0.108973 -0.990485 0.084048
-0.254550 -0.037137 0.392559 0.108973 -0.990485 0.084048
-0.284785 -0.042442 0.369239 -0.108973 -0.990485 -0.084048
-0.315020 -0.037137 0.345919 -0.108973 -0.990485 -0.084048
-0.223537 -0.037137 0.227307 -0.108973 -0.990485 -0.084048
-0.193302 -0.042442 0.250627 -0.108973 -0.990485 -0.084048
-0.284785 -0.042442 0.369239 -0.203701 -0.979028 -0.003167
-0.316012 -0.037137 0.409727 -0.203701 -0.979028 -0.003167
-0.330312 -0.033010 0.381956 -0.203701 -0.979028 -0.003167
-0.315020 -0.037137 0.345919 -0.203701 -0.979028 -0.003167
-0.042440 -0.021221 -0.028336 -0.618415 -0.624551 -0.476968
0.149268 -0.021221 -0.276895 -0.618415 -0.624551 -0.476968
0.159346 -0.037137 -0.269122 -0.618415 -0.624551 -0.476968
-0.032361 -0.037137 -0.020563 -0.618415 -0.624551 -0.476968
-0.042440 -0.021221 -0.028336 -0.791841 0.000000 -0.610727
-0.042439 -0.000000 -0.028336 -0.791841 0.000000 -0.610727
0.149268 -0.000000 -0.276895 -0.791841 0.000000 -0.610727
0.149268 -0.021221 -0.276895 -0.791841 0.000000 -0.610727
-0.244471 -0.021221 0.400332 0.429832 -0.676854 0.597590
-0.285777 -0.021221 0.433046 0.429832 -0.676854 0.597590
-0.285520 -0.033010 0.416504 0.429832 -0.676854 0.597590
-0.254550 -0.037137 0.392559 0.429832 -0.676854 0.597590
-0.244471 -0.021221 0.400332 0.620869 0.000000 0.783914
-0.244471 0.000000 0.400332 0.620869 0.000000 0.783914
-0.285777 0.000000 0.433046 0.620869 0.000000 0.783914
-0.285777 -0.021221 0.433046 0.620869 0.000000 0.783914
-0.244471 -0.021221 0.400332 0.791841 0.000000 0.610727
-0.152989 -0.021221 0.281719 0.791841 0.000000 0.610727
-0.152989 0.000000 0.281719 0.791841 0.000000 0.610727
-0.244471 0.000000 0.400332 0.791841 0.000000 0.610727
-0.244471 -0.021221 0.400332 0.618415 -0.624551 0.476968
-0.254550 -0.037137 0.392559 0.618415 -0.624551 0.476968
-0.163067 -0.037137 0.273946 0.618415 -0.624551 0.476968
-0.152989 -0.021221 0.281719 0.618415 -0.624551 0.476968
-0.002126 -0.042442 0.002757 0.108973 -0.990485 0.084048
0.028109 -0.037137 0.026076 0.108973 -0.990485 0.084048
-0.002126 -0.042442 0.002757 -0.108973 -0.990485 -0.084048
-0.032361 -0.037137 -0.020563 -0.108973 -0.990485 -0.084048
0.038187 -0.021221 0.033849 0.618415 -0.624551 0.476968
0.028109 -0.037137 0.026076 0.618415 -0.624551 0.476968
0.038187 -0.021221 0.033849 0.791841 0.000000 0.610727
0.038187 0.000000 0.033849 0.791841 0.000000 0.610727
0.242345 -0.021221 -0.397575 -0.437004 -0.678281 -0.590730
0.285245 -0.021221 -0.432357 -0.437004 -0.678281 -0.590730
0.284575 -0.033010 -0.415278 -0.437004 -0.678281 -0.590730
0.252424 -0.037137 -0.389802 -0.437004 -0.678281 -0.590730
0.242345 -0.021221 -0.397575 -0.629780 0.000000 -0.776773
0.242345 -0.000000 -0.397575 -0.629780 0.000000 -0.776773
0.285245 -0.000000 -0.432357 -0.629780 0.000000 -0.776773
0.285245 -0.021221 -0.432357 -0.629780 0.000000 -0.776773
0.242345 -0.021221 -0.397575 -0.791841 0.000000 -0.610727
0.242345 -0.000000 -0.397575 -0.791841 0.000000 -0.610727
0.242345 -0.021221 -0.397575 -0.618415 -0.624551 -0.476968
0.252424 -0.037137 -0.389802 -0.618415 -0.624551 -0.476968
-0.326421 0.021221 0.423222 -0.234936 0.000000 0.972011
-0.285777 0.021221 0.433046 -0.234936 0.000000 0.972011
-0.326421 0.021221 0.423222 -0.880448 0.000000 0.474143
-0.346247 0.021221 0.386407 -0.880448 0.000000 0.474143
-0.326421 0.021221 0.423222 -0.603727 0.749676 0.271107
-0.316012 0.037137 0.409727 -0.603727 0.749676 0.271107
-0.330312 0.033010 0.381956 -0.603727 0.749676 0.271107
-0.346247 0.021221 0.386407 -0.603727 0.749676 0.271107
-0.326421 0.021221 0.423222 -0.108853 0.749676 0.652791
-0.285777 0.021221 0.433046 -0.108853 0.749676 0.652791
-0.285520 0.033010 0.416504 -0.108853 0.749676 0.652791
-0.316012 0.037137 0.409727 -0.108853 0.749676 0.652791
0.282659 0.042442 -0.366482 0.108973 0.990485 0.084048
0.189581 0.042442 -0.245803 0.108973 0.990485 0.084048
0.219817 0.037137 -0.222483 0.108973 0.990485 0.084048
0.312894 0.037137 -0.343163 0.108973 0.990485 0.084048
0.282659 0.042442 -0.366482 -0.108973 0.990485 -0.084048
0.252424 0.037137 -0.389802 -0.108973 0.990485 -0.084048
0.159346 0.037137 -0.269122 -0.108973 0.990485 -0.084048
0.189581 0.042442 -0.245803 -0.108973 0.990485 -0.084048
0.282659 0.042442 -0.366482 -0.058466 0.979718 -0.191660
0.315480 0.037137 -0.409037 -0.058466 0.979718 -0.191660
0.284575 0.033010 -0.415278 -0.058466 0.979718 -0.191660
0.252424 0.037137 -0.389802 -0.058466 0.979718 -0.191660
0.282659 0.042442 -0.366482 0.200225 0.979718 0.007862
0.312894 0.037137 -0.343163 0.200225 0.979718 0.007862
0.329367 0.033010 -0.380731 0.200225 0.979718 0.007862
0.315480 0.037137 -0.409037 0.200225 0.979718 0.007862
0.326421 0.021221 -0.423222 0.596114 0.762071 -0.252776
0.315480 0.037137 -0.409037 0.596114 0.762071 -0.252776
0.329367 0.033010 -0.380731 0.596114 0.762071 -0.252776
0.345715 0.021221 -0.385718 0.596114 0.762071 -0.252776
0.326421 0.021221 -0.423222 0.093057 0.762071 -0.640771
0.285245 0.021221 -0.432357 0.093057 0.762071 -0.640771
0.284575 0.033010 -0.415278 0.093057 0.762071 -0.640771
0.315480 0.037137 -0.409037 0.093057 0.762071 -0.640771
0.326421 0.021221 -0.423222 0.216579 0.000000 -0.976265
0.285245 0.021221 -0.432357 0.216579 0.000000 -0.976265
0.326421 0.021221 -0.423222 0.889225 0.000000 -0.457470
0.345715 0.021221 -0.385718 0.889225 0.000000 -0.457470
-0.325098 0.021221 0.338146 -0.618415 0.624551 -0.476968
-0.315020 0.037137 0.345919 -0.618415 0.624551 -0.476968
-0.223537 0.037137 0.227307 -0.618415 0.624551 -0.476968
-0.233616 0.021221 0.219534 -0.618415 0.624551 -0.476968
-0.325098 0.021221 0.338146 -0.687176 0.676853 -0.263930
-0.346247 0.021221 0.386407 -0.687176 0.676853 -0.263930
-0.330312 0.033010 0.381956 -0.687176 0.676853 -0.263930
-0.315020 0.037137 0.345919 -0.687176 0.676853 -0.263930
-0.325098 0.021221 0.338146 -0.915916 0.000000 -0.401370
-0.346247 0.021221 0.386407 -0.915916 0.000000 -0.401370
-0.325098 0.021221 0.338146 -0.791841 0.000000 -0.610727
-0.233616 0.021221 0.219534 -0.791841 0.000000 -0.610727
0.322972 0.021221 -0.335390 0.618415 0.624551 0.476968
0.312894 0.037137 -0.343163 0.618415 0.624551 0.476968
0.219817 0.037137 -0.222483 0.618415 0.624551 0.476968
0.229895 0.021221 -0.214710 0.618415 0.624551 0.476968
0.322972 0.021221 -0.335390 0.682362 0.678282 0.272609
0.345715 0.021221 -0.385718 0.682362 0.678282 0.272609
0.329367 0.033010 -0.380731 0.682362 0.678282 0.272609
0.312894 0.037137 -0.343163 0.682362 0.678282 0.272609
0.322972 0.021221 -0.335390 0.911273 0.000000 0.411803
0.345715 0.021221 -0.385718 0.911273 0.000000 0.411803
0.322972 0.021221 -0.335390 0.791841 0.000000 0.610727
0.229895 0.021221 -0.214710 0.791841 0.000000 0.610727
-0.284785 0.042442 0.369239 0.054808 0.979028 0.196215
-0.316012 0.037137 0.409727 0.054808 0.979028 0.196215
-0.285520 0.033010 0.416504 0.054808 0.979028 0.196215
-0.254550 0.037137 0.392559 0.054808 0.979028 0.196215
-0.284785 0.042442 0.369239 -0.203701 0.979028 -0.003167
-0.315020 0.037137 0.345919 -0.203701 0.979028 -0.003167
-0.330312 0.033010 0.381956 -0.203701 0.979028 -0.003167
-0.316012 0.037137 0.409727 -0.203701 0.979028 -0.003167
-0.284785 0.042442 0.369239 -0.108973 0.990485 -0.084048
-0.193302 0.042442 0.250627 -0.108973 0.990485 -0.084048
-0.223537 0.037137 0.227307 -0.108973 0.990485 -0.084048
-0.315020 0.037137 0.345919 -0.108973 0.990485 -0.084048
-0.284785 0.042442 0.369239 0.108973 0.990485 0.084048
-0.254550 0.037137 0.392559 0.108973 0.990485 0.084048
-0.163067 0.037137 0.273946 0.108973 0.990485 0.084048
-0.193302 0.042442 0.250627 0.108973 0.990485 0.084048
-0.042439 0.021221 -0.028336 -0.618415 0.624551 -0.476968
-0.032361 0.037137 -0.020563 -0.618415 0.624551 -0.476968
0.159346 0.037137 -0.269122 -0.618415 0.624551 -0.476968
0.149268 0.021221 -0.276895 -0.618415 0.624551 -0.476968
-0.042439 0.021221 -0.028336 -0.791841 0.000001 -0.610727
-0.042439 -0.000000 -0.028336 -0.791841 0.000001 -0.610727
-0.233616 0.000000 0.219534 -0.791841 0.000001 -0.610727
-0.233616 0.021221 0.219534 -0.791841 0.000001 -0.610727
-0.042439 0.021221 -0.028336 -0.791841 0.000000 -0.610727
0.149268 0.021221 -0.276895 -0.791841 0.000000 -0.610727
-0.244471 0.021221 0.400332 0.429832 0.676854 0.597590
-0.254550 0.037137 0.392559 0.429832 0.676854 0.597590
-0.285520 0.033010 0.416504 0.429832 0.676854 0.597590
-0.285777 0.021221 0.433046 0.429832 0.676854 0.597590
-0.244471 0.021221 0.400332 0.618415 0.624551 0.476968
-0.152989 0.021221 0.281719 0.618415 0.624551 0.476968
-0.163067 0.037137 0.273946 0.618415 0.624551 0.476968
-0.254550 0.037137 0.392559 0.618415 0.624551 0.476968
-0.244471 0.021221 0.400332 0.791841 -0.000000 0.610727
-0.152989 0.021221 0.281719 0.791841 -0.000000 0.610727
-0.244471 0.021221 0.400332 0.620869 0.000000 0.783914
-0.285777 0.021221 0.433046 0.620869 0.000000 0.783914
-0.002126 0.042442 0.002757 0.108973 0.990485 0.084048
0.028109 0.037137 0.026076 0.108973 0.990485 0.084048
-0.002126 0.042442 0.002757 -0.108973 0.990485 -0.084048
-0.032361 0.037137 -0.020563 -0.108973 0.990485 -0.084048
0.038187 0.021221 0.033849 0.618415 0.624551 0.476968
0.028109 0.037137 0.026076 0.618415 0.624551 0.476968
0.038187 0.021221 0.033849 0.791841 0.000000 0.610727
0.038187 0.021221 0.033849 0.791841 -0.000001 0.610727
-0.152989 0.021221 0.281719 0.791841 -0.000001 0.610727
-0.152989 0.000000 0.281719 0.791841 -0.000001 0.610727
0.038187 0.000000 0.033849 0.791841 -0.000001 0.610727
0.242345 0.021221 -0.397575 -0.437004 0.678282 -0.590730
0.252424 0.037137 -0.389802 -0.437004 0.678282 -0.590730
0.284575 0.033010 -0.415278 -0.437004 0.678282 -0.590730
0.285245 0.021221 -0.432357 -0.437004 0.678282 -0.590730
0.242345 0.021221 -0.397575 -0.618415 0.624551 -0.476968
0.252424 0.037137 -0.389802 -0.618415 0.624551 -0.476968
0.242345 0.021221 -0.397575 -0.791841 0.000000 -0.610727
0.242345 0.021221 -0.397575 -0.629781 0.000001 -0.776773
0.285245 0.021221 -0.432357 -0.629781 0.000001 -0.776773
0.285245 -0.000000 -0.432357 -0.629781 0.000001 -0.776773
0.242345 -0.000000 -0.397575 -0.629781 0.000001 -0.776773
4 0 1 2 3
4 4 5 6 7
4 8 9 10 11
4 12 13 14 15
4 16 17 18 19
4 20 21 22 23
4 24 25 26 27
4 28 29 30 31
4 32 33 34 35
4 36 37 38 39
4 40 41 42 43
4 44 45 46 47
4 48 49 50 51
4 52 53 54 55
4 56 57 58 59
4 60 61 62 63
4 64 65 66 67
4 68 69 70 71
4 72 73 74 75
4 76 77 78 79
4 80 81 82 83
4 84 85 86 87
4 88 89 90 91
4 92 93 94 95
4 96 97 98 99
4 100 101 102 103
4 100 55 54 101
4 96 99 50 49
4 104 105 106 107
4 108 109 110 111
4 112 113 114 115
4 116 117 118 119
4 120 121 86 85
4 120 19 18 121
4 122 123 30 29
4 122 91 90 123
4 124 119 118 125
4 126 127 114 113
4 126 71 70 127
4 124 125 66 65
4 128 129 130 131
4 132 133 134 135
4 136 103 102 137
4 138 139 98 97
4 140 3 2 141
4 142 143 14 13
4 144 145 146 147
4 148 149 150 151
4 152 153 154 155
4 156 157 158 159
4 160 161 162 163
4 164 165 166 167
4 168 169 170 171
4 172 173 174 175
4 176 43 42 177
4 178 179 38 37
4 180 181 182 183
4 184 185 186 187
4 188 59 58 189
4 190 191 54 53
4 192 193 194 195
4 196 197 198 199
4 200 75 74 201
4 202 203 70 69
4 204 205 206 207
4 208 209 210 211
4 212 213 214 215
4 216 217 218 219
4 220 221 222 223
4 220 183 182 221
4 224 225 226 227
4 228 229 102 101
4 230 231 232 233
4 234 235 236 237
4 238 115 114 239
4 240 241 110 109
4 242 219 218 243
4 244 245 214 213
4 244 159 158 245
4 242 243 154 153
4 246 247 236 235
4 246 195 194 247
4 248 127 70 203
4 249 250 251 252
4 253 254 255 256
4 257 223 222 258
4 259 137 102 229
4 260 261 262 263
