ply
format ascii 1.0
comment Created by Blender 2.72 (sub 0) - www.blender.org, source file: 'ralfs hexaboard.blend'
element vertex 311
property float x
property float y
property float z
property float nx
property float ny
property float nz
element face 88
property list uchar uint vertex_indices
end_header
0.362910 0.574981 -0.461314 0.489301 0.847494 -0.205764
0.339702 0.588381 -0.461314 0.489301 0.847494 -0.205764
0.345341 0.598147 -0.407679 0.489301 0.847494 -0.205764
0.368548 0.584748 -0.407679 0.489301 0.847494 -0.205764
0.362910 0.574981 -0.461314 0.975253 0.200763 -0.092608
0.368548 0.584748 -0.407679 0.975253 0.200763 -0.092608
0.371057 0.559318 -0.409468 0.975253 0.200763 -0.092608
0.371712 0.550030 -0.449631 0.975253 0.200763 -0.092608
0.362910 0.574981 -0.461314 0.809553 -0.086237 -0.580678
0.371712 0.550030 -0.449631 0.809553 -0.086237 -0.580678
0.349957 0.522772 -0.471618 0.809553 -0.086237 -0.580678
0.340063 0.535411 -0.491582 0.809553 -0.086237 -0.580678
0.362910 0.574981 -0.461314 0.276122 0.478260 -0.833681
0.340063 0.535411 -0.491582 0.276122 0.478260 -0.833681
0.316855 0.548810 -0.491582 0.276122 0.478260 -0.833681
0.339702 0.588381 -0.461314 0.276122 0.478260 -0.833681
-0.259344 -0.556389 0.415221 0.895353 -0.431973 0.108361
-0.166051 -0.394802 0.288530 0.895353 -0.431973 0.108361
-0.157611 -0.366783 0.330481 0.895353 -0.431973 0.108361
-0.250903 -0.528371 0.457173 0.895353 -0.431973 0.108361
-0.259344 -0.556389 0.415221 0.838996 -0.505904 0.200364
-0.250903 -0.528371 0.457173 0.838996 -0.505904 0.200364
-0.277965 -0.564822 0.471904 0.838996 -0.505904 0.200364
-0.290603 -0.597132 0.449791 0.838996 -0.505904 0.200364
-0.259344 -0.556389 0.415221 0.751758 -0.657006 -0.056598
-0.290603 -0.597132 0.449791 0.751758 -0.657006 -0.056598
-0.299065 -0.601368 0.409753 0.751758 -0.657006 -0.056598
-0.279389 -0.577708 0.373270 0.751758 -0.657006 -0.056598
-0.259344 -0.556389 0.415221 0.821776 -0.559413 -0.108362
-0.279389 -0.577708 0.373270 0.821776 -0.559413 -0.108362
-0.186096 -0.416121 0.246578 0.821776 -0.559413 -0.108362
-0.166051 -0.394802 0.288530 0.821776 -0.559413 -0.108362
-0.301542 -0.575882 0.359286 -0.280872 -0.486484 -0.827311
-0.324750 -0.562483 0.359286 -0.280872 -0.486484 -0.827311
-0.231457 -0.400895 0.232595 -0.280872 -0.486484 -0.827311
-0.208249 -0.414294 0.232595 -0.280872 -0.486484 -0.827311
-0.301542 -0.575882 0.359286 0.342447 -0.694140 -0.633166
-0.208249 -0.414294 0.232595 0.342447 -0.694140 -0.633166
-0.186096 -0.416121 0.246578 0.342447 -0.694140 -0.633166
-0.279389 -0.577708 0.373270 0.342447 -0.694140 -0.633166
-0.301542 -0.575882 0.359286 0.313192 -0.841454 -0.440303
-0.279389 -0.577708 0.373270 0.313192 -0.841454 -0.440303
-0.299065 -0.601368 0.409753 0.313192 -0.841454 -0.440303
-0.322251 -0.611751 0.407840 0.313192 -0.841454 -0.440303
-0.301542 -0.575882 0.359286 -0.380400 -0.658871 -0.648987
-0.322251 -0.611751 0.407840 -0.380400 -0.658871 -0.648987
-0.345459 -0.598352 0.407840 -0.380400 -0.658871 -0.648987
-0.324750 -0.562483 0.359286 -0.380400 -0.658871 -0.648987
0.347485 0.548265 -0.358644 0.280872 0.486484 0.827311
0.324277 0.561664 -0.358644 0.280872 0.486484 0.827311
0.230629 0.399462 -0.231470 0.280872 0.486484 0.827311
0.253837 0.386063 -0.231470 0.280872 0.486484 0.827311
0.347485 0.548265 -0.358644 0.772366 0.050502 0.633166
0.253837 0.386063 -0.231470 0.772366 0.050502 0.633166
0.266496 0.367790 -0.245454 0.772366 0.050502 0.633166
0.360143 0.529992 -0.372627 0.772366 0.050502 0.633166
0.347485 0.548265 -0.358644 0.884648 0.147372 0.442356
0.360143 0.529992 -0.372627 0.884648 0.147372 0.442356
0.371057 0.559318 -0.409468 0.884648 0.147372 0.442356
0.368548 0.584748 -0.407679 0.884648 0.147372 0.442356
0.347485 0.548265 -0.358644 0.379257 0.656893 0.651656
0.368548 0.584748 -0.407679 0.379257 0.656893 0.651656
0.345341 0.598147 -0.407679 0.379257 0.656893 0.651656
0.324277 0.561664 -0.358644 0.379257 0.656893 0.651656
-0.316494 -0.601780 0.461314 0.473624 -0.660638 0.582441
-0.290603 -0.597132 0.449791 0.473624 -0.660638 0.582441
-0.277965 -0.564822 0.471904 0.473624 -0.660638 0.582441
-0.293766 -0.562413 0.491743 0.473624 -0.660638 0.582441
-0.316494 -0.601780 0.461314 -0.278136 -0.481744 0.831001
-0.293766 -0.562413 0.491743 -0.278136 -0.481744 0.831001
-0.316974 -0.549014 0.491743 -0.278136 -0.481744 0.831001
-0.339702 -0.588381 0.461314 -0.278136 -0.481744 0.831001
-0.316494 -0.601780 0.461314 -0.488798 -0.846622 0.210493
-0.339702 -0.588381 0.461314 -0.488798 -0.846622 0.210493
-0.345459 -0.598352 0.407840 -0.488798 -0.846622 0.210493
-0.322251 -0.611751 0.407840 -0.488798 -0.846622 0.210493
-0.316494 -0.601780 0.461314 0.308754 -0.946202 0.096813
-0.322251 -0.611751 0.407840 0.308754 -0.946202 0.096813
-0.299065 -0.601368 0.409753 0.308754 -0.946202 0.096813
-0.290603 -0.597132 0.449791 0.308754 -0.946202 0.096813
0.045943 -0.027617 0.000642 0.895353 -0.431973 0.108361
0.258055 0.339772 -0.287406 0.895353 -0.431973 0.108361
0.266496 0.367790 -0.245454 0.895353 -0.431973 0.108361
0.054383 0.000401 0.042594 0.895353 -0.431973 0.108361
0.045943 -0.027617 0.000642 0.895353 -0.431973 0.108362
0.054383 0.000401 0.042594 0.895353 -0.431973 0.108362
-0.157611 -0.366783 0.330481 0.895353 -0.431973 0.108362
-0.166051 -0.394802 0.288530 0.895353 -0.431973 0.108362
0.045943 -0.027617 0.000642 0.821776 -0.559413 -0.108362
0.025898 -0.048936 -0.041309 0.821776 -0.559413 -0.108362
0.238010 0.318453 -0.329357 0.821776 -0.559413 -0.108362
0.258055 0.339772 -0.287406 0.821776 -0.559413 -0.108362
0.003745 -0.047110 -0.055293 -0.280872 -0.486484 -0.827311
-0.019463 -0.033711 -0.055293 -0.280872 -0.486484 -0.827311
0.192649 0.333678 -0.343341 -0.280872 -0.486484 -0.827311
0.215857 0.320279 -0.343341 -0.280872 -0.486484 -0.827311
0.003745 -0.047110 -0.055293 0.342447 -0.694140 -0.633166
0.215857 0.320279 -0.343341 0.342447 -0.694140 -0.633166
0.238010 0.318453 -0.329357 0.342447 -0.694140 -0.633166
0.025898 -0.048936 -0.041309 0.342447 -0.694140 -0.633166
0.003745 -0.047110 -0.055293 -0.280872 -0.486485 -0.827311
-0.208249 -0.414294 0.232595 -0.280872 -0.486485 -0.827311
-0.231457 -0.400895 0.232595 -0.280872 -0.486485 -0.827311
-0.019463 -0.033711 -0.055293 -0.280872 -0.486485 -0.827311
-0.263562 -0.510099 0.471157 0.161284 0.279352 0.946546
-0.286770 -0.496699 0.471157 0.161284 0.279352 0.946546
-0.316974 -0.549014 0.491743 0.161284 0.279352 0.946546
-0.293766 -0.562413 0.491743 0.161284 0.279352 0.946546
-0.263562 -0.510099 0.471157 0.698353 -0.174332 0.694198
-0.293766 -0.562413 0.491743 0.698353 -0.174332 0.694198
-0.277965 -0.564822 0.471904 0.698353 -0.174332 0.694198
-0.250903 -0.528371 0.457173 0.698353 -0.174332 0.694198
-0.263562 -0.510099 0.471157 0.772366 0.050502 0.633166
-0.250903 -0.528371 0.457173 0.772366 0.050502 0.633166
-0.157611 -0.366783 0.330481 0.772366 0.050502 0.633166
-0.170269 -0.348511 0.344465 0.772366 0.050502 0.633166
-0.263562 -0.510099 0.471157 0.280872 0.486485 0.827311
-0.170269 -0.348511 0.344465 0.280872 0.486485 0.827311
-0.193477 -0.335112 0.344465 0.280872 0.486485 0.827311
-0.286770 -0.496699 0.471157 0.280872 0.486485 0.827311
0.041725 0.018673 0.056578 0.280871 0.486485 0.827311
0.018517 0.032072 0.056578 0.280871 0.486485 0.827311
-0.193477 -0.335112 0.344465 0.280871 0.486485 0.827311
-0.170269 -0.348511 0.344465 0.280871 0.486485 0.827311
0.041725 0.018673 0.056578 0.772367 0.050502 0.633166
-0.170269 -0.348511 0.344465 0.772367 0.050502 0.633166
-0.157611 -0.366783 0.330481 0.772367 0.050502 0.633166
0.054383 0.000401 0.042594 0.772367 0.050502 0.633166
0.041725 0.018673 0.056578 0.772366 0.050503 0.633167
0.054383 0.000401 0.042594 0.772366 0.050503 0.633167
0.266496 0.367790 -0.245454 0.772366 0.050503 0.633167
0.253837 0.386063 -0.231470 0.772366 0.050503 0.633167
0.041725 0.018673 0.056578 0.280872 0.486485 0.827311
0.253837 0.386063 -0.231470 0.280872 0.486485 0.827311
0.230629 0.399462 -0.231470 0.280872 0.486485 0.827311
0.018517 0.032072 0.056578 0.280872 0.486485 0.827311
0.351702 0.501974 -0.414579 0.944346 -0.323871 0.057599
0.371712 0.550030 -0.449631 0.944346 -0.323871 0.057599
0.371057 0.559318 -0.409468 0.944346 -0.323871 0.057599
0.360143 0.529992 -0.372627 0.944346 -0.323871 0.057599
0.351702 0.501974 -0.414579 0.895353 -0.431972 0.108362
0.360143 0.529992 -0.372627 0.895353 -0.431972 0.108362
0.266496 0.367790 -0.245454 0.895353 -0.431972 0.108362
0.258055 0.339772 -0.287406 0.895353 -0.431972 0.108362
0.351702 0.501974 -0.414579 0.821776 -0.559413 -0.108362
0.331658 0.480655 -0.456531 0.821776 -0.559413 -0.108362
0.351702 0.501974 -0.414579 0.857088 -0.475006 -0.199421
0.331658 0.480655 -0.456531 0.857088 -0.475006 -0.199421
0.349957 0.522772 -0.471618 0.857088 -0.475006 -0.199421
0.371712 0.550030 -0.449631 0.857088 -0.475006 -0.199421
0.309504 0.482481 -0.470514 -0.162946 -0.282230 -0.945407
0.286297 0.495880 -0.470514 -0.162946 -0.282230 -0.945407
0.316855 0.548810 -0.491582 -0.162946 -0.282230 -0.945407
0.340063 0.535411 -0.491582 -0.162946 -0.282230 -0.945407
0.309504 0.482481 -0.470514 0.499216 -0.520214 -0.692936
0.340063 0.535411 -0.491582 0.499216 -0.520214 -0.692936
0.349957 0.522772 -0.471618 0.499216 -0.520214 -0.692936
0.331658 0.480655 -0.456531 0.499216 -0.520214 -0.692936
0.309504 0.482481 -0.470514 0.342447 -0.694140 -0.633166
0.331658 0.480655 -0.456531 0.342447 -0.694140 -0.633166
0.309504 0.482481 -0.470514 -0.280872 -0.486484 -0.827311
0.286297 0.495880 -0.470514 -0.280872 -0.486484 -0.827311
0.316494 0.601780 -0.461314 0.489301 0.847494 -0.205764
0.322133 0.611546 -0.407679 0.489301 0.847494 -0.205764
0.316494 0.601780 -0.461314 0.276124 0.478259 -0.833681
0.339702 0.588381 -0.461314 0.276124 0.478259 -0.833681
0.316855 0.548810 -0.491582 0.276124 0.478259 -0.833681
0.293648 0.562209 -0.491582 0.276124 0.478259 -0.833681
0.316494 0.601780 -0.461314 -0.479460 0.657976 -0.580677
0.293648 0.562209 -0.491582 -0.479460 0.657976 -0.580677
0.277755 0.564458 -0.471618 -0.479460 0.657976 -0.580677
0.290484 0.596927 -0.449631 -0.479460 0.657976 -0.580677
0.316494 0.601780 -0.461314 -0.313760 0.944975 -0.092609
0.290484 0.596927 -0.449631 -0.313760 0.944975 -0.092609
0.298855 0.601004 -0.409468 -0.313760 0.944975 -0.092609
0.322133 0.611546 -0.407679 -0.313760 0.944975 -0.092609
-0.352175 -0.502793 0.415221 -0.821776 0.559413 0.108362
-0.332131 -0.481474 0.457173 -0.821776 0.559413 0.108362
-0.238838 -0.319886 0.330481 -0.821776 0.559413 0.108362
-0.258883 -0.341205 0.288530 -0.821776 0.559413 0.108362
-0.352175 -0.502793 0.415221 -0.895353 0.431973 -0.108362
-0.258883 -0.341205 0.288530 -0.895353 0.431973 -0.108362
-0.267323 -0.369224 0.246578 -0.895353 0.431973 -0.108362
-0.360616 -0.530812 0.373270 -0.895353 0.431973 -0.108362
-0.352175 -0.502793 0.415221 -0.944863 0.322539 -0.056597
-0.360616 -0.530812 0.373270 -0.944863 0.322539 -0.056597
-0.371267 -0.559682 0.409753 -0.944863 0.322539 -0.056597
-0.371830 -0.550235 0.449791 -0.944863 0.322539 -0.056597
-0.352175 -0.502793 0.415221 -0.857625 0.473639 0.200364
-0.371830 -0.550235 0.449791 -0.857625 0.473639 0.200364
-0.350167 -0.523136 0.471904 -0.857625 0.473639 0.200364
-0.332131 -0.481474 0.457173 -0.857625 0.473639 0.200364
-0.347958 -0.549084 0.359286 -0.280871 -0.486485 -0.827311
-0.254665 -0.387496 0.232595 -0.280871 -0.486485 -0.827311
-0.231457 -0.400895 0.232595 -0.280871 -0.486485 -0.827311
-0.324750 -0.562483 0.359286 -0.280871 -0.486485 -0.827311
-0.347958 -0.549084 0.359286 -0.380398 -0.658872 -0.648987
-0.324750 -0.562483 0.359286 -0.380398 -0.658872 -0.648987
-0.345459 -0.598352 0.407840 -0.380398 -0.658872 -0.648987
-0.368667 -0.584953 0.407840 -0.380398 -0.658872 -0.648987
-0.347958 -0.549084 0.359286 -0.885317 -0.149494 -0.440302
-0.368667 -0.584953 0.407840 -0.885317 -0.149494 -0.440302
-0.371267 -0.559682 0.409753 -0.885317 -0.149494 -0.440302
-0.360616 -0.530812 0.373270 -0.885317 -0.149494 -0.440302
-0.347958 -0.549084 0.359286 -0.772367 -0.050502 -0.633166
-0.360616 -0.530812 0.373270 -0.772367 -0.050502 -0.633166
-0.267323 -0.369224 0.246578 -0.772367 -0.050502 -0.633166
-0.254665 -0.387496 0.232595 -0.772367 -0.050502 -0.633166
0.301069 0.575063 -0.358644 0.280872 0.486485 0.827311
0.207422 0.412861 -0.231470 0.280872 0.486485 0.827311
0.324277 0.561664 -0.358644 0.280872 0.486485 0.827311
0.301069 0.575063 -0.358644 0.379257 0.656893 0.651657
0.324277 0.561664 -0.358644 0.379257 0.656893 0.651657
0.345341 0.598147 -0.407679 0.379257 0.656893 0.651657
0.322133 0.611546 -0.407679 0.379257 0.656893 0.651657
0.301069 0.575063 -0.358644 -0.314695 0.839814 0.442356
0.322133 0.611546 -0.407679 -0.314695 0.839814 0.442356
0.298855 0.601004 -0.409468 -0.314695 0.839814 0.442356
0.278916 0.576889 -0.372627 -0.314695 0.839814 0.442356
0.301069 0.575063 -0.358644 -0.342447 0.694140 0.633166
0.278916 0.576889 -0.372627 -0.342447 0.694140 0.633166
0.185268 0.414687 -0.245454 -0.342447 0.694140 0.633166
0.207422 0.412861 -0.231470 -0.342447 0.694140 0.633166
-0.362910 -0.574981 0.461314 -0.808942 0.079852 0.582441
-0.340182 -0.535615 0.491743 -0.808942 0.079852 0.582441
-0.350167 -0.523136 0.471904 -0.808942 0.079852 0.582441
-0.371830 -0.550235 0.449791 -0.808942 0.079852 0.582441
-0.362910 -0.574981 0.461314 -0.973812 -0.205711 0.096813
-0.371830 -0.550235 0.449791 -0.973812 -0.205711 0.096813
-0.371267 -0.559682 0.409753 -0.973812 -0.205711 0.096813
-0.368667 -0.584953 0.407840 -0.973812 -0.205711 0.096813
-0.362910 -0.574981 0.461314 -0.488797 -0.846623 0.210493
-0.368667 -0.584953 0.407840 -0.488797 -0.846623 0.210493
-0.345459 -0.598352 0.407840 -0.488797 -0.846623 0.210493
-0.339702 -0.588381 0.461314 -0.488797 -0.846623 0.210493
-0.362910 -0.574981 0.461314 -0.278134 -0.481745 0.831001
-0.339702 -0.588381 0.461314 -0.278134 -0.481745 0.831001
-0.316974 -0.549014 0.491743 -0.278134 -0.481745 0.831001
-0.340182 -0.535615 0.491743 -0.278134 -0.481745 0.831001
-0.046889 0.025979 0.000642 -0.821776 0.559413 0.108362
-0.026844 0.047298 0.042594 -0.821776 0.559413 0.108362
0.185268 0.414687 -0.245454 -0.821776 0.559413 0.108362
0.165224 0.393368 -0.287406 -0.821776 0.559413 0.108362
-0.046889 0.025979 0.000642 -0.895353 0.431972 -0.108362
0.165224 0.393368 -0.287406 -0.895353 0.431972 -0.108362
0.156783 0.365349 -0.329357 -0.895353 0.431972 -0.108362
-0.055329 -0.002040 -0.041309 -0.895353 0.431972 -0.108362
-0.267323 -0.369224 0.246578 -0.895353 0.431972 -0.108362
-0.258883 -0.341205 0.288530 -0.895353 0.431972 -0.108362
-0.046889 0.025979 0.000642 -0.821775 0.559413 0.108362
-0.258883 -0.341205 0.288530 -0.821775 0.559413 0.108362
-0.238838 -0.319886 0.330481 -0.821775 0.559413 0.108362
-0.026844 0.047298 0.042594 -0.821775 0.559413 0.108362
-0.042671 -0.020312 -0.055293 -0.280872 -0.486484 -0.827311
0.169441 0.347077 -0.343341 -0.280872 -0.486484 -0.827311
-0.254665 -0.387496 0.232595 -0.280872 -0.486484 -0.827311
-0.042671 -0.020312 -0.055293 -0.772366 -0.050502 -0.633166
-0.254665 -0.387496 0.232595 -0.772366 -0.050502 -0.633166
-0.267323 -0.369224 0.246578 -0.772366 -0.050502 -0.633166
-0.055329 -0.002040 -0.041309 -0.772366 -0.050502 -0.633166
-0.042671 -0.020312 -0.055293 -0.772367 -0.050502 -0.633166
-0.055329 -0.002040 -0.041309 -0.772367 -0.050502 -0.633166
0.156783 0.365349 -0.329357 -0.772367 -0.050502 -0.633166
0.169441 0.347077 -0.343341 -0.772367 -0.050502 -0.633166
-0.309978 -0.483300 0.471157 0.161284 0.279352 0.946546
-0.340182 -0.535615 0.491743 0.161284 0.279352 0.946546
-0.309978 -0.483300 0.471157 0.280872 0.486484 0.827311
-0.286770 -0.496699 0.471157 0.280872 0.486484 0.827311
-0.193477 -0.335112 0.344465 0.280872 0.486484 0.827311
-0.216685 -0.321713 0.344465 0.280872 0.486484 0.827311
-0.309978 -0.483300 0.471157 -0.342447 0.694140 0.633166
-0.216685 -0.321713 0.344465 -0.342447 0.694140 0.633166
-0.238838 -0.319886 0.330481 -0.342447 0.694140 0.633166
-0.332131 -0.481474 0.457173 -0.342447 0.694140 0.633166
-0.309978 -0.483300 0.471157 -0.500153 0.517626 0.694198
-0.332131 -0.481474 0.457173 -0.500153 0.517626 0.694198
-0.350167 -0.523136 0.471904 -0.500153 0.517626 0.694198
-0.340182 -0.535615 0.491743 -0.500153 0.517626 0.694198
-0.004691 0.045472 0.056578 0.280872 0.486484 0.827311
0.018517 0.032072 0.056578 0.280872 0.486484 0.827311
0.207422 0.412861 -0.231470 0.280872 0.486484 0.827311
-0.004691 0.045472 0.056578 -0.342447 0.694140 0.633166
-0.026844 0.047298 0.042594 -0.342447 0.694140 0.633166
0.258871 0.555570 -0.414579 -0.752653 0.655893 0.057598
0.278916 0.576889 -0.372627 -0.752653 0.655893 0.057598
0.298855 0.601004 -0.409468 -0.752653 0.655893 0.057598
0.290484 0.596927 -0.449631 -0.752653 0.655893 0.057598
0.258871 0.555570 -0.414579 -0.839911 0.504758 -0.199421
0.290484 0.596927 -0.449631 -0.839911 0.504758 -0.199421
0.277755 0.564458 -0.471618 -0.839911 0.504758 -0.199421
0.250430 0.527552 -0.456531 -0.839911 0.504758 -0.199421
0.258871 0.555570 -0.414579 -0.895353 0.431972 -0.108362
0.250430 0.527552 -0.456531 -0.895353 0.431972 -0.108362
0.258871 0.555570 -0.414579 -0.821776 0.559413 0.108362
0.278916 0.576889 -0.372627 -0.821776 0.559413 0.108362
0.263089 0.509279 -0.470514 -0.162945 -0.282230 -0.945407
0.293648 0.562209 -0.491582 -0.162945 -0.282230 -0.945407
0.316855 0.548810 -0.491582 -0.162945 -0.282230 -0.945407
0.286297 0.495880 -0.470514 -0.162945 -0.282230 -0.945407
0.263089 0.509279 -0.470514 -0.280871 -0.486485 -0.827311
0.286297 0.495880 -0.470514 -0.280871 -0.486485 -0.827311
0.192649 0.333678 -0.343341 -0.280871 -0.486485 -0.827311
0.169441 0.347077 -0.343341 -0.280871 -0.486485 -0.827311
0.263089 0.509279 -0.470514 -0.772366 -0.050503 -0.633166
0.169441 0.347077 -0.343341 -0.772366 -0.050503 -0.633166
0.156783 0.365349 -0.329357 -0.772366 -0.050503 -0.633166
0.250430 0.527552 -0.456531 -0.772366 -0.050503 -0.633166
0.263089 0.509279 -0.470514 -0.700126 0.172227 -0.692936
0.250430 0.527552 -0.456531 -0.700126 0.172227 -0.692936
0.277755 0.564458 -0.471618 -0.700126 0.172227 -0.692936
0.293648 0.562209 -0.491582 -0.700126 0.172227 -0.692936
4 0 1 2 3
4 4 5 6 7
4 8 9 10 11
4 12 13 14 15
4 16 17 18 19
4 20 21 22 23
4 24 25 26 27
4 28 29 30 31
4 32 33 34 35
4 36 37 38 39
4 40 41 42 43
4 44 45 46 47
4 48 49 50 51
4 52 53 54 55
4 56 57 58 59
4 60 61 62 63
4 64 65 66 67
4 68 69 70 71
4 72 73 74 75
4 76 77 78 79
4 80 81 82 83
4 84 85 86 87
4 88 31 30 89
4 88 89 90 91
4 92 93 94 95
4 96 97 98 99
4 96 99 38 37
4 100 101 102 103
4 104 105 106 107
4 108 109 110 111
4 112 113 114 115
4 116 117 118 119
4 120 121 122 123
4 124 125 126 127
4 128 129 130 131
4 132 133 134 135
4 136 137 138 139
4 140 141 142 143
4 144 91 90 145
4 146 147 148 149
4 150 151 152 153
4 154 155 156 157
4 158 159 98 97
4 160 95 94 161
4 162 163 2 1
4 164 165 166 167
4 168 169 170 171
4 172 173 174 175
4 176 177 178 179
4 180 181 182 183
4 184 185 186 187
4 188 189 190 191
4 192 193 194 195
4 196 197 198 199
4 200 201 202 203
4 204 205 206 207
4 208 209 134 210
4 211 212 213 214
4 215 216 217 218
4 219 220 221 222
4 223 224 225 226
4 227 228 229 230
4 231 232 233 234
4 235 236 237 238
4 239 240 241 242
4 243 244 245 246
4 243 246 247 248
4 249 250 251 252
4 253 254 94 93
4 253 93 34 255
4 256 257 258 259
4 260 261 262 263
4 264 265 106 105
4 266 267 268 269
4 270 271 272 273
4 274 275 276 277
4 278 269 268 279
4 278 279 50 280
4 281 222 221 282
4 281 282 272 271
4 283 284 285 286
4 287 288 289 290
4 291 292 245 244
4 293 242 241 294
4 295 296 297 298
4 299 300 301 302
4 303 304 305 306
4 307 308 309 310
