ply
format ascii 1.0
comment Created by Blender 2.72 (sub 0) - www.blender.org, source file: 'ralfs hexaboard.blend'
element vertex 312
property float x
property float y
property float z
property float nx
property float ny
property float nz
element face 88
property list uchar uint vertex_indices
end_header
-0.248178 0.328449 0.350653 -0.902853 -0.416841 -0.105358
-0.257411 0.357117 0.316351 -0.902853 -0.416841 -0.105358
-0.184345 0.230564 0.190924 -0.902853 -0.416841 -0.105358
-0.175113 0.201897 0.225227 -0.902853 -0.416841 -0.105358
-0.248178 0.328449 0.350653 -0.938822 -0.338003 -0.066082
-0.273817 0.385534 0.404089 -0.938822 -0.338003 -0.066082
-0.272383 0.392908 0.364826 -0.938822 -0.338003 -0.066082
-0.257411 0.357117 0.316351 -0.938822 -0.338003 -0.066082
-0.248178 0.328449 0.350653 -0.831211 -0.524392 0.184668
-0.227968 0.306121 0.384956 -0.831211 -0.524392 0.184668
-0.250573 0.355133 0.415644 -0.831211 -0.524392 0.184668
-0.273817 0.385534 0.404089 -0.831211 -0.524392 0.184668
-0.248178 0.328449 0.350653 -0.812421 -0.573473 0.105358
-0.175113 0.201897 0.225227 -0.812421 -0.573473 0.105358
-0.154903 0.179568 0.259529 -0.812421 -0.573473 0.105358
-0.227968 0.306121 0.384956 -0.812421 -0.573473 0.105358
0.223816 -0.438364 -0.421901 0.181901 -0.315062 -0.931476
0.199965 -0.397053 -0.440531 0.181901 -0.315062 -0.931476
0.221920 -0.384377 -0.440531 0.181901 -0.315062 -0.931476
0.245771 -0.425688 -0.421901 0.181901 -0.315062 -0.931476
0.223816 -0.438364 -0.421901 -0.593477 -0.548030 -0.589447
0.198220 -0.432058 -0.406229 -0.593477 -0.548030 -0.589447
0.184484 -0.398407 -0.419448 -0.593477 -0.548030 -0.589447
0.199965 -0.397053 -0.440531 -0.593477 -0.548030 -0.589447
0.223816 -0.438364 -0.421901 -0.377611 -0.921920 -0.086453
0.229408 -0.448049 -0.371926 -0.377611 -0.921920 -0.086453
0.206293 -0.436182 -0.368630 -0.377611 -0.921920 -0.086453
0.198220 -0.432058 -0.406229 -0.377611 -0.921920 -0.086453
0.223816 -0.438364 -0.421901 0.487931 -0.845122 -0.218385
0.245771 -0.425688 -0.421901 0.487931 -0.845122 -0.218385
0.251363 -0.435373 -0.371926 0.487931 -0.845122 -0.218385
0.229408 -0.448049 -0.371926 0.487931 -0.845122 -0.218385
-0.245851 0.375123 0.304917 -0.325654 0.564047 -0.758815
-0.223896 0.387799 0.304917 -0.325654 0.564047 -0.758815
-0.150831 0.261246 0.179490 -0.325654 0.564047 -0.758815
-0.172786 0.248570 0.179490 -0.325654 0.564047 -0.758815
-0.245851 0.375123 0.304917 -0.388834 0.673478 -0.628678
-0.272072 0.420538 0.369786 -0.388834 0.673478 -0.628678
-0.250116 0.433214 0.369786 -0.388834 0.673478 -0.628678
-0.223896 0.387799 0.304917 -0.388834 0.673478 -0.628678
-0.245851 0.375123 0.304917 -0.882198 0.167004 -0.440269
-0.257411 0.357117 0.316351 -0.882198 0.167004 -0.440269
-0.272383 0.392908 0.364826 -0.882198 0.167004 -0.440269
-0.272072 0.420538 0.369786 -0.882198 0.167004 -0.440269
-0.245851 0.375123 0.304917 -0.793114 0.131510 -0.594706
-0.172786 0.248570 0.179490 -0.793114 0.131510 -0.594706
-0.184345 0.230564 0.190924 -0.793114 0.131510 -0.594706
-0.257411 0.357117 0.316351 -0.793114 0.131510 -0.594706
-0.267727 0.413012 0.421901 -0.994262 0.095938 0.047315
-0.272072 0.420538 0.369786 -0.994262 0.095938 0.047315
-0.272383 0.392908 0.364826 -0.994262 0.095938 0.047315
-0.273817 0.385534 0.404089 -0.994262 0.095938 0.047315
-0.267727 0.413012 0.421901 -0.493190 0.854229 0.164490
-0.245771 0.425688 0.421901 -0.493190 0.854229 0.164490
-0.250116 0.433214 0.369786 -0.493190 0.854229 0.164490
-0.272072 0.420538 0.369786 -0.493190 0.854229 0.164490
-0.267727 0.413012 0.421901 -0.156062 0.270308 0.950041
-0.242629 0.369542 0.438391 -0.156062 0.270308 0.950041
-0.220674 0.382218 0.438391 -0.156062 0.270308 0.950041
-0.245771 0.425688 0.421901 -0.156062 0.270308 0.950041
-0.267727 0.413012 0.421901 -0.771519 -0.289865 0.566336
-0.273817 0.385534 0.404089 -0.771519 -0.289865 0.566336
-0.250573 0.355133 0.415644 -0.771519 -0.289865 0.566336
-0.242629 0.369542 0.438391 -0.771519 -0.289865 0.566336
-0.206594 0.307128 0.396390 -0.282667 -0.752612 0.594706
-0.227968 0.306121 0.384956 -0.282667 -0.752612 0.594706
-0.154903 0.179568 0.259529 -0.282667 -0.752612 0.594706
-0.133529 0.180575 0.270963 -0.282667 -0.752612 0.594706
-0.206594 0.307128 0.396390 -0.416143 -0.640228 0.645703
-0.242629 0.369542 0.438391 -0.416143 -0.640228 0.645703
-0.250573 0.355133 0.415644 -0.416143 -0.640228 0.645703
-0.227968 0.306121 0.384956 -0.416143 -0.640228 0.645703
-0.206594 0.307128 0.396390 0.251758 -0.436058 0.863986
-0.184639 0.319804 0.396390 0.251758 -0.436058 0.863986
-0.220674 0.382218 0.438391 0.251758 -0.436058 0.863986
-0.242629 0.369542 0.438391 0.251758 -0.436058 0.863986
-0.206594 0.307128 0.396390 0.325652 -0.564048 0.758815
-0.133529 0.180575 0.270963 0.325652 -0.564048 0.758815
-0.111574 0.193251 0.270963 0.325652 -0.564048 0.758815
-0.184639 0.319804 0.396390 0.325652 -0.564048 0.758815
-0.038925 -0.033988 -0.008559 -0.902853 -0.416841 -0.105358
-0.048157 -0.005321 -0.042862 -0.902853 -0.416841 -0.105358
0.086784 -0.239047 -0.274508 -0.902853 -0.416841 -0.105358
0.096017 -0.267714 -0.240205 -0.902853 -0.416841 -0.105358
-0.038925 -0.033988 -0.008559 -0.812422 -0.573473 0.105358
-0.018715 -0.056317 0.025743 -0.812422 -0.573473 0.105358
-0.154903 0.179568 0.259529 -0.812422 -0.573473 0.105358
-0.175113 0.201897 0.225227 -0.812422 -0.573473 0.105358
0.096017 -0.267714 -0.240205 -0.812422 -0.573473 0.105358
0.116227 -0.290043 -0.205903 -0.812422 -0.573473 0.105358
-0.036598 0.012685 -0.054296 -0.325653 0.564048 -0.758815
-0.014642 0.025361 -0.054296 -0.325653 0.564048 -0.758815
0.120299 -0.208364 -0.285942 -0.325653 0.564048 -0.758815
0.098344 -0.221040 -0.285942 -0.325653 0.564048 -0.758815
-0.036598 0.012685 -0.054296 -0.325653 0.564047 -0.758815
-0.172786 0.248570 0.179490 -0.325653 0.564047 -0.758815
-0.150831 0.261246 0.179490 -0.325653 0.564047 -0.758815
-0.014642 0.025361 -0.054296 -0.325653 0.564047 -0.758815
-0.036598 0.012685 -0.054296 -0.793114 0.131510 -0.594706
-0.048157 -0.005321 -0.042862 -0.793114 0.131510 -0.594706
-0.036598 0.012685 -0.054296 -0.793114 0.131509 -0.594706
0.098344 -0.221040 -0.285942 -0.793114 0.131509 -0.594706
0.086784 -0.239047 -0.274508 -0.793114 0.131509 -0.594706
-0.048157 -0.005321 -0.042862 -0.793114 0.131509 -0.594706
0.002659 -0.055309 0.037178 -0.282667 -0.752612 0.594706
-0.018715 -0.056317 0.025743 -0.282667 -0.752612 0.594706
0.116227 -0.290043 -0.205903 -0.282667 -0.752612 0.594706
0.137601 -0.289035 -0.194468 -0.282667 -0.752612 0.594706
0.002659 -0.055309 0.037178 -0.282666 -0.752612 0.594706
-0.133529 0.180575 0.270963 -0.282666 -0.752612 0.594706
-0.154903 0.179568 0.259529 -0.282666 -0.752612 0.594706
-0.018715 -0.056317 0.025743 -0.282666 -0.752612 0.594706
0.002659 -0.055309 0.037178 0.325653 -0.564048 0.758815
0.024614 -0.042633 0.037178 0.325653 -0.564048 0.758815
-0.111574 0.193251 0.270963 0.325653 -0.564048 0.758815
-0.133529 0.180575 0.270963 0.325653 -0.564048 0.758815
0.002659 -0.055309 0.037178 0.325653 -0.564047 0.758815
0.137601 -0.289035 -0.194468 0.325653 -0.564047 0.758815
0.159556 -0.276359 -0.194468 0.325653 -0.564047 0.758815
0.024614 -0.042633 0.037178 0.325653 -0.564047 0.758815
0.165343 -0.387789 -0.359213 -0.863982 -0.465261 -0.192530
0.156110 -0.359122 -0.393515 -0.863982 -0.465261 -0.192530
0.184484 -0.398407 -0.419448 -0.863982 -0.465261 -0.192530
0.198220 -0.432058 -0.406229 -0.863982 -0.465261 -0.192530
0.165343 -0.387789 -0.359213 -0.902853 -0.416842 -0.105358
0.096017 -0.267714 -0.240205 -0.902853 -0.416842 -0.105358
0.086784 -0.239047 -0.274508 -0.902853 -0.416842 -0.105358
0.156110 -0.359122 -0.393515 -0.902853 -0.416842 -0.105358
0.165343 -0.387789 -0.359213 -0.812422 -0.573473 0.105358
0.185553 -0.410118 -0.324910 -0.812422 -0.573473 0.105358
0.165343 -0.387789 -0.359213 -0.756500 -0.651424 0.057916
0.198220 -0.432058 -0.406229 -0.756500 -0.651424 0.057916
0.206293 -0.436182 -0.368630 -0.756500 -0.651424 0.057916
0.185553 -0.410118 -0.324910 -0.756500 -0.651424 0.057916
0.167670 -0.341116 -0.404949 -0.241255 0.417866 -0.875891
0.189625 -0.328440 -0.404949 -0.241255 0.417866 -0.875891
0.221920 -0.384377 -0.440531 -0.241255 0.417866 -0.875891
0.199965 -0.397053 -0.440531 -0.241255 0.417866 -0.875891
0.167670 -0.341116 -0.404949 -0.325653 0.564048 -0.758815
0.189625 -0.328440 -0.404949 -0.325653 0.564048 -0.758815
0.167670 -0.341116 -0.404949 -0.793114 0.131510 -0.594706
0.156110 -0.359122 -0.393515 -0.793114 0.131510 -0.594706
0.086784 -0.239047 -0.274508 -0.793114 0.131510 -0.594706
0.098344 -0.221040 -0.285942 -0.793114 0.131510 -0.594706
0.167670 -0.341116 -0.404949 -0.751633 -0.054230 -0.657348
0.199965 -0.397053 -0.440531 -0.751633 -0.054230 -0.657348
0.184484 -0.398407 -0.419448 -0.751633 -0.054230 -0.657348
0.156110 -0.359122 -0.393515 -0.751633 -0.054230 -0.657348
0.206926 -0.409111 -0.313476 -0.287260 -0.858549 0.424705
0.185553 -0.410118 -0.324910 -0.287260 -0.858549 0.424705
0.206293 -0.436182 -0.368630 -0.287260 -0.858549 0.424705
0.229408 -0.448049 -0.371926 -0.287260 -0.858549 0.424705
0.206926 -0.409111 -0.313476 -0.282667 -0.752612 0.594706
0.185553 -0.410118 -0.324910 -0.282667 -0.752612 0.594706
0.206926 -0.409111 -0.313476 0.325654 -0.564047 0.758815
0.228882 -0.396435 -0.313476 0.325654 -0.564047 0.758815
0.159556 -0.276359 -0.194468 0.325654 -0.564047 0.758815
0.137601 -0.289035 -0.194468 0.325654 -0.564047 0.758815
0.206926 -0.409111 -0.313476 0.396309 -0.686427 0.609719
0.229408 -0.448049 -0.371926 0.396309 -0.686427 0.609719
0.251363 -0.435373 -0.371926 0.396309 -0.686427 0.609719
0.228882 -0.396435 -0.313476 0.396309 -0.686427 0.609719
-0.160357 0.379153 0.350653 0.812421 0.573473 -0.105359
-0.087291 0.252601 0.225227 0.812421 0.573473 -0.105359
-0.107501 0.274930 0.190924 0.812421 0.573473 -0.105359
-0.180567 0.401482 0.316351 0.812421 0.573473 -0.105359
-0.160357 0.379153 0.350653 0.902853 0.416841 0.105358
-0.151124 0.350486 0.384956 0.902853 0.416841 0.105358
-0.078059 0.223934 0.259529 0.902853 0.416841 0.105358
-0.087291 0.252601 0.225227 0.902853 0.416841 0.105358
-0.160357 0.379153 0.350653 0.869742 0.457654 0.184668
-0.196973 0.429899 0.404089 0.869742 0.457654 0.184668
-0.182268 0.394569 0.415644 0.869742 0.457654 0.184668
-0.151124 0.350486 0.384956 0.869742 0.457654 0.184668
-0.160357 0.379153 0.350653 0.762130 0.644043 -0.066082
-0.180567 0.401482 0.316351 0.762130 0.644043 -0.066082
-0.204077 0.432344 0.364826 0.762130 0.644043 -0.066082
-0.196973 0.429899 0.404089 0.762130 0.644043 -0.066082
0.267727 -0.413012 -0.421901 0.181901 -0.315062 -0.931476
0.243876 -0.371701 -0.440531 0.181901 -0.315062 -0.931476
0.267727 -0.413012 -0.421901 0.487931 -0.845122 -0.218385
0.273318 -0.422697 -0.371926 0.487931 -0.845122 -0.218385
0.267727 -0.413012 -0.421901 0.987211 -0.133938 -0.086453
0.275064 -0.387693 -0.406229 0.987211 -0.133938 -0.086453
0.274599 -0.396746 -0.368630 0.987211 -0.133938 -0.086453
0.273318 -0.422697 -0.371926 0.987211 -0.133938 -0.086453
0.267727 -0.413012 -0.421901 0.771346 0.239951 -0.589447
0.243876 -0.371701 -0.440531 0.771346 0.239951 -0.589447
0.252789 -0.358971 -0.419448 0.771346 0.239951 -0.589447
0.275064 -0.387693 -0.406229 0.771346 0.239951 -0.589447
-0.201940 0.400475 0.304917 -0.325653 0.564048 -0.758815
-0.128875 0.273922 0.179490 -0.325653 0.564048 -0.758815
-0.150831 0.261246 0.179490 -0.325653 0.564048 -0.758815
-0.223896 0.387799 0.304917 -0.325653 0.564048 -0.758815
-0.201940 0.400475 0.304917 0.282667 0.752612 -0.594705
-0.180567 0.401482 0.316351 0.282667 0.752612 -0.594705
-0.107501 0.274930 0.190924 0.282667 0.752612 -0.594705
-0.128875 0.273922 0.179490 0.282667 0.752612 -0.594705
-0.201940 0.400475 0.304917 0.296470 0.847508 -0.440268
-0.228161 0.445890 0.369786 0.296470 0.847508 -0.440268
-0.204077 0.432344 0.364826 0.296470 0.847508 -0.440268
-0.180567 0.401482 0.316351 0.296470 0.847508 -0.440268
-0.201940 0.400475 0.304917 -0.388832 0.673479 -0.628678
-0.223896 0.387799 0.304917 -0.388832 0.673479 -0.628678
-0.250116 0.433214 0.369786 -0.388832 0.673479 -0.628678
-0.228161 0.445890 0.369786 -0.388832 0.673479 -0.628678
-0.223816 0.438364 0.421901 0.414047 0.909025 0.047315
-0.196973 0.429899 0.404089 0.414047 0.909025 0.047315
-0.204077 0.432344 0.364826 0.414047 0.909025 0.047315
-0.228161 0.445890 0.369786 0.414047 0.909025 0.047315
-0.223816 0.438364 0.421901 0.636789 0.523223 0.566336
-0.198719 0.394894 0.438391 0.636789 0.523223 0.566336
-0.182268 0.394569 0.415644 0.636789 0.523223 0.566336
-0.196973 0.429899 0.404089 0.636789 0.523223 0.566336
-0.223816 0.438364 0.421901 -0.156062 0.270308 0.950041
-0.198719 0.394894 0.438391 -0.156062 0.270308 0.950041
-0.223816 0.438364 0.421901 -0.493189 0.854229 0.164490
-0.228161 0.445890 0.369786 -0.493189 0.854229 0.164490
-0.250116 0.433214 0.369786 -0.493189 0.854229 0.164490
-0.245771 0.425688 0.421901 -0.493189 0.854229 0.164490
-0.162684 0.332480 0.396390 0.793114 -0.131510 0.594706
-0.089618 0.205927 0.270963 0.793114 -0.131510 0.594706
-0.078059 0.223934 0.259529 0.793114 -0.131510 0.594706
-0.151124 0.350486 0.384956 0.793114 -0.131510 0.594706
-0.162684 0.332480 0.396390 0.325654 -0.564047 0.758815
-0.184639 0.319804 0.396390 0.325654 -0.564047 0.758815
-0.111574 0.193251 0.270963 0.325654 -0.564047 0.758815
-0.089618 0.205927 0.270963 0.325654 -0.564047 0.758815
-0.162684 0.332480 0.396390 0.251759 -0.436058 0.863986
-0.198719 0.394894 0.438391 0.251759 -0.436058 0.863986
-0.220674 0.382218 0.438391 0.251759 -0.436058 0.863986
-0.184639 0.319804 0.396390 0.251759 -0.436058 0.863986
-0.162684 0.332480 0.396390 0.762525 0.040276 0.645703
-0.151124 0.350486 0.384956 0.762525 0.040276 0.645703
-0.182268 0.394569 0.415644 0.762525 0.040276 0.645703
-0.198719 0.394894 0.438391 0.762525 0.040276 0.645703
0.048897 0.016716 -0.008559 0.812422 0.573473 -0.105358
0.183838 -0.217010 -0.240205 0.812422 0.573473 -0.105358
0.163628 -0.194681 -0.274508 0.812422 0.573473 -0.105358
0.028687 0.039045 -0.042862 0.812422 0.573473 -0.105358
0.048897 0.016716 -0.008559 0.902853 0.416841 0.105358
0.058129 -0.011951 0.025743 0.902853 0.416841 0.105358
0.193071 -0.245677 -0.205903 0.902853 0.416841 0.105358
0.183838 -0.217010 -0.240205 0.902853 0.416841 0.105358
0.048897 0.016716 -0.008559 0.812421 0.573473 -0.105359
0.028687 0.039045 -0.042862 0.812421 0.573473 -0.105359
0.007313 0.038037 -0.054296 -0.325653 0.564048 -0.758815
0.142255 -0.195688 -0.285942 -0.325653 0.564048 -0.758815
0.007313 0.038037 -0.054296 0.282667 0.752612 -0.594706
0.028687 0.039045 -0.042862 0.282667 0.752612 -0.594706
0.163628 -0.194681 -0.274508 0.282667 0.752612 -0.594706
0.142255 -0.195688 -0.285942 0.282667 0.752612 -0.594706
0.007313 0.038037 -0.054296 0.282667 0.752612 -0.594705
0.028687 0.039045 -0.042862 0.282667 0.752612 -0.594705
0.007313 0.038037 -0.054296 -0.325653 0.564047 -0.758815
-0.128875 0.273922 0.179490 -0.325653 0.564047 -0.758815
0.046570 -0.029957 0.037178 0.793115 -0.131509 0.594705
0.181511 -0.263683 -0.194468 0.793115 -0.131509 0.594705
0.193071 -0.245677 -0.205903 0.793115 -0.131509 0.594705
0.058129 -0.011951 0.025743 0.793115 -0.131509 0.594705
0.046570 -0.029957 0.037178 0.325653 -0.564048 0.758815
0.159556 -0.276359 -0.194468 0.325653 -0.564048 0.758815
0.181511 -0.263683 -0.194468 0.325653 -0.564048 0.758815
-0.089618 0.205927 0.270963 0.325653 -0.564048 0.758815
0.046570 -0.029957 0.037178 0.793114 -0.131509 0.594706
0.058129 -0.011951 0.025743 0.793114 -0.131509 0.594706
-0.078059 0.223934 0.259529 0.793114 -0.131509 0.594706
-0.089618 0.205927 0.270963 0.793114 -0.131509 0.594706
0.253164 -0.337085 -0.359213 0.834918 0.515600 -0.192530
0.275064 -0.387693 -0.406229 0.834918 0.515600 -0.192530
0.252789 -0.358971 -0.419448 0.834918 0.515600 -0.192530
0.232954 -0.314756 -0.393515 0.834918 0.515600 -0.192530
0.253164 -0.337085 -0.359213 0.942400 0.329437 0.057915
0.262397 -0.365752 -0.324910 0.942400 0.329437 0.057915
0.274599 -0.396746 -0.368630 0.942400 0.329437 0.057915
0.275064 -0.387693 -0.406229 0.942400 0.329437 0.057915
0.253164 -0.337085 -0.359213 0.902852 0.416842 0.105358
0.183838 -0.217010 -0.240205 0.902852 0.416842 0.105358
0.193071 -0.245677 -0.205903 0.902852 0.416842 0.105358
0.262397 -0.365752 -0.324910 0.902852 0.416842 0.105358
0.253164 -0.337085 -0.359213 0.812422 0.573472 -0.105358
0.232954 -0.314756 -0.393515 0.812422 0.573472 -0.105358
0.163628 -0.194681 -0.274508 0.812422 0.573472 -0.105358
0.183838 -0.217010 -0.240205 0.812422 0.573472 -0.105358
0.211580 -0.315764 -0.404949 -0.241255 0.417865 -0.875891
0.243876 -0.371701 -0.440531 -0.241255 0.417865 -0.875891
0.221920 -0.384377 -0.440531 -0.241255 0.417865 -0.875891
0.189625 -0.328440 -0.404949 -0.241255 0.417865 -0.875891
0.211580 -0.315764 -0.404949 0.422781 0.623819 -0.657348
0.232954 -0.314756 -0.393515 0.422781 0.623819 -0.657348
0.252789 -0.358971 -0.419448 0.422781 0.623819 -0.657348
0.243876 -0.371701 -0.440531 0.422781 0.623819 -0.657348
0.211580 -0.315764 -0.404949 0.282667 0.752612 -0.594706
0.232954 -0.314756 -0.393515 0.282667 0.752612 -0.594706
0.211580 -0.315764 -0.404949 -0.325654 0.564047 -0.758815
0.189625 -0.328440 -0.404949 -0.325654 0.564047 -0.758815
0.120299 -0.208364 -0.285942 -0.325654 0.564047 -0.758815
0.142255 -0.195688 -0.285942 -0.325654 0.564047 -0.758815
0.250837 -0.383759 -0.313476 0.887155 -0.180500 0.424706
0.273318 -0.422697 -0.371926 0.887155 -0.180500 0.424706
0.274599 -0.396746 -0.368630 0.887155 -0.180500 0.424706
0.262397 -0.365752 -0.324910 0.887155 -0.180500 0.424706
0.250837 -0.383759 -0.313476 0.396309 -0.686427 0.609719
0.273318 -0.422697 -0.371926 0.396309 -0.686427 0.609719
0.250837 -0.383759 -0.313476 0.325652 -0.564048 0.758815
0.181511 -0.263683 -0.194468 0.325652 -0.564048 0.758815
0.159556 -0.276359 -0.194468 0.325652 -0.564048 0.758815
0.228882 -0.396435 -0.313476 0.325652 -0.564048 0.758815
0.250837 -0.383759 -0.313476 0.793114 -0.131509 0.594706
0.262397 -0.365752 -0.324910 0.793114 -0.131509 0.594706
0.193071 -0.245677 -0.205903 0.793114 -0.131509 0.594706
0.181511 -0.263683 -0.194468 0.793114 -0.131509 0.594706
4 0 1 2 3
4 4 5 6 7
4 8 9 10 11
4 12 13 14 15
4 16 17 18 19
4 20 21 22 23
4 24 25 26 27
4 28 29 30 31
4 32 33 34 35
4 36 37 38 39
4 40 41 42 43
4 44 45 46 47
4 48 49 50 51
4 52 53 54 55
4 56 57 58 59
4 60 61 62 63
4 64 65 66 67
4 68 69 70 71
4 72 73 74 75
4 76 77 78 79
4 80 81 82 83
4 80 3 2 81
4 84 85 86 87
4 84 88 89 85
4 90 91 92 93
4 94 95 96 97
4 98 99 46 45
4 100 101 102 103
4 104 105 106 107
4 108 109 110 111
4 112 113 114 115
4 116 117 118 119
4 120 121 122 123
4 124 125 126 127
4 128 129 89 88
4 130 131 132 133
4 134 135 136 137
4 138 93 92 139
4 140 141 142 143
4 144 145 146 147
4 148 149 150 151
4 152 107 106 153
4 154 155 156 157
4 158 159 160 161
4 162 163 164 165
4 166 167 168 169
4 170 171 172 173
4 174 175 176 177
4 178 19 18 179
4 180 181 30 29
4 182 183 184 185
4 186 187 188 189
4 190 191 192 193
4 194 195 196 197
4 198 199 200 201
4 202 203 204 205
4 206 207 208 209
4 210 211 212 213
4 214 59 58 215
4 216 217 218 219
4 220 221 222 223
4 224 225 226 227
4 228 229 230 231
4 232 233 234 235
4 236 237 238 239
4 240 241 242 243
4 240 169 168 241
4 244 245 164 163
4 246 247 92 91
4 248 249 250 251
4 252 197 196 253
4 254 97 96 255
4 256 257 258 259
4 260 113 261 262
4 260 263 114 113
4 264 265 266 267
4 268 269 270 271
4 272 273 274 275
4 276 277 278 279
4 280 281 282 283
4 284 285 286 287
4 288 289 290 291
4 292 251 250 293
4 294 295 296 297
4 298 299 300 301
4 302 161 160 303
4 304 305 306 307
4 308 309 310 311
