ply
format ascii 1.0
comment Created by Blender 2.72 (sub 0) - www.blender.org, source file: 'ralfs hexaboard.blend'
element vertex 144
property float x
property float y
property float z
property float nx
property float ny
property float nz
element face 40
property list uchar uint vertex_indices
end_header
-0.426622 0.000000 0.000000 -0.934792 -0.174476 0.309389
-0.373294 -0.342858 0.000000 -0.934792 -0.174476 0.309389
-0.331817 -0.253969 0.143222 -0.934792 -0.174476 0.309389
-0.373294 0.000000 0.193350 -0.934792 -0.174476 0.309389
-0.426622 0.000000 0.000000 -0.934792 0.174476 0.309389
-0.373294 0.000000 0.193350 -0.934792 0.174476 0.309389
-0.331817 0.253969 0.143222 -0.934792 0.174476 0.309389
-0.373294 0.342858 0.000000 -0.934792 0.174476 0.309389
-0.426622 0.000000 0.000000 -0.934792 0.174476 -0.309389
-0.373294 0.342858 0.000000 -0.934792 0.174476 -0.309389
-0.331817 0.253969 -0.143222 -0.934792 0.174476 -0.309389
-0.373294 0.000000 -0.193350 -0.934792 0.174476 -0.309389
-0.426622 0.000000 0.000000 -0.934792 -0.174476 -0.309389
-0.373294 0.000000 -0.193350 -0.934792 -0.174476 -0.309389
-0.331817 -0.253969 -0.143222 -0.934792 -0.174476 -0.309389
-0.373294 -0.342858 0.000000 -0.934792 -0.174476 -0.309389
-0.213311 -0.457143 0.000000 0.000000 -0.860861 0.508840
0.000000 -0.457143 0.000000 0.000000 -0.860861 0.508840
0.000000 -0.342858 0.193350 0.000000 -0.860861 0.508840
-0.213311 -0.342858 0.193350 0.000000 -0.860861 0.508840
-0.213311 -0.457143 0.000000 -0.573025 -0.668458 0.474137
-0.213311 -0.342858 0.193350 -0.573025 -0.668458 0.474137
-0.331817 -0.253969 0.143222 -0.573025 -0.668458 0.474137
-0.373294 -0.342858 0.000000 -0.573025 -0.668458 0.474137
-0.213311 -0.457143 0.000000 -0.573025 -0.668458 -0.474137
-0.373294 -0.342858 0.000000 -0.573025 -0.668458 -0.474137
-0.331817 -0.253969 -0.143222 -0.573025 -0.668458 -0.474137
-0.213311 -0.342858 -0.193350 -0.573025 -0.668458 -0.474137
-0.213311 -0.457143 0.000000 0.000000 -0.860861 -0.508840
-0.213311 -0.342858 -0.193350 0.000000 -0.860861 -0.508840
0.000000 -0.342858 -0.193350 0.000000 -0.860861 -0.508840
0.000000 -0.457143 0.000000 0.000000 -0.860861 -0.508840
-0.213311 0.000000 0.257800 0.000000 -0.184743 0.982787
-0.213311 -0.342858 0.193350 0.000000 -0.184743 0.982787
0.000000 -0.342858 0.193350 0.000000 -0.184743 0.982787
0.000000 0.000000 0.257800 0.000000 -0.184743 0.982787
-0.213311 0.000000 0.257800 0.000000 0.184743 0.982787
0.000000 0.000000 0.257800 0.000000 0.184743 0.982787
0.000000 0.342858 0.193350 0.000000 0.184743 0.982787
-0.213311 0.342858 0.193350 0.000000 0.184743 0.982787
-0.213311 0.000000 0.257800 -0.426529 0.199026 0.882305
-0.213311 0.342858 0.193350 -0.426529 0.199026 0.882305
-0.331817 0.253969 0.143222 -0.426529 0.199026 0.882305
-0.373294 0.000000 0.193350 -0.426529 0.199026 0.882305
-0.213311 0.000000 0.257800 -0.426529 -0.199026 0.882305
-0.373294 0.000000 0.193350 -0.426529 -0.199026 0.882305
-0.331817 -0.253969 0.143222 -0.426529 -0.199026 0.882305
-0.213311 -0.342858 0.193350 -0.426529 -0.199026 0.882305
-0.213311 0.457143 0.000000 -0.573025 0.668458 0.474137
-0.373294 0.342858 0.000000 -0.573025 0.668458 0.474137
-0.331817 0.253969 0.143222 -0.573025 0.668458 0.474137
-0.213311 0.342858 0.193350 -0.573025 0.668458 0.474137
-0.213311 0.457143 0.000000 0.000000 0.860861 0.508840
-0.213311 0.342858 0.193350 0.000000 0.860861 0.508840
0.000000 0.342858 0.193350 0.000000 0.860861 0.508840
0.000000 0.457143 0.000000 0.000000 0.860861 0.508840
-0.213311 0.457143 0.000000 0.000000 0.860861 -0.508840
0.000000 0.457143 0.000000 0.000000 0.860861 -0.508840
0.000000 0.342858 -0.193350 0.000000 0.860861 -0.508840
-0.213311 0.342858 -0.193350 0.000000 0.860861 -0.508840
-0.213311 0.457143 0.000000 -0.573025 0.668458 -0.474137
-0.213311 0.342858 -0.193350 -0.573025 0.668458 -0.474137
-0.331817 0.253969 -0.143222 -0.573025 0.668458 -0.474137
-0.373294 0.342858 0.000000 -0.573025 0.668458 -0.474137
-0.213311 0.000000 -0.257800 -0.426529 -0.199026 -0.882305
-0.213311 -0.342858 -0.193350 -0.426529 -0.199026 -0.882305
-0.331817 -0.253969 -0.143222 -0.426529 -0.199026 -0.882305
-0.373294 0.000000 -0.193350 -0.426529 -0.199026 -0.882305
-0.213311 0.000000 -0.257800 -0.426529 0.199026 -0.882305
-0.373294 0.000000 -0.193350 -0.426529 0.199026 -0.882305
-0.331817 0.253969 -0.143222 -0.426529 0.199026 -0.882305
-0.213311 0.342858 -0.193350 -0.426529 0.199026 -0.882305
-0.213311 0.000000 -0.257800 0.000000 0.184743 -0.982787
-0.213311 0.342858 -0.193350 0.000000 0.184743 -0.982787
0.000000 0.342858 -0.193350 0.000000 0.184743 -0.982787
0.000000 0.000000 -0.257800 0.000000 0.184743 -0.982787
-0.213311 0.000000 -0.257800 0.000000 -0.184743 -0.982787
0.000000 0.000000 -0.257800 0.000000 -0.184743 -0.982787
0.000000 -0.342858 -0.193350 0.000000 -0.184743 -0.982787
-0.213311 -0.342858 -0.193350 0.000000 -0.184743 -0.982787
0.426622 0.000000 0.000000 0.934792 -0.174476 0.309389
0.373294 0.000000 0.193350 0.934792 -0.174476 0.309389
0.331817 -0.253969 0.143222 0.934792 -0.174476 0.309389
0.373294 -0.342858 0.000000 0.934792 -0.174476 0.309389
0.426622 0.000000 0.000000 0.934792 -0.174476 -0.309389
0.373294 -0.342858 0.000000 0.934792 -0.174476 -0.309389
0.331817 -0.253969 -0.143222 0.934792 -0.174476 -0.309389
0.373294 0.000000 -0.193350 0.934792 -0.174476 -0.309389
0.426622 0.000000 0.000000 0.934792 0.174476 -0.309389
0.373294 0.000000 -0.193350 0.934792 0.174476 -0.309389
0.331817 0.253969 -0.143222 0.934792 0.174476 -0.309389
0.373294 0.342858 0.000000 0.934792 0.174476 -0.309389
0.426622 0.000000 0.000000 0.934792 0.174476 0.309389
0.373294 0.342858 0.000000 0.934792 0.174476 0.309389
0.331817 0.253969 0.143222 0.934792 0.174476 0.309389
0.373294 0.000000 0.193350 0.934792 0.174476 0.309389
0.213311 -0.457143 0.000000 -0.000000 -0.860861 0.508840
0.213311 -0.342858 0.193350 -0.000000 -0.860861 0.508840
0.213311 -0.457143 0.000000 -0.000000 -0.860861 -0.508840
0.213311 -0.342858 -0.193350 -0.000000 -0.860861 -0.508840
0.213311 -0.457143 0.000000 0.573025 -0.668458 -0.474137
0.213311 -0.342858 -0.193350 0.573025 -0.668458 -0.474137
0.331817 -0.253969 -0.143222 0.573025 -0.668458 -0.474137
0.373294 -0.342858 0.000000 0.573025 -0.668458 -0.474137
0.213311 -0.457143 0.000000 0.573025 -0.668458 0.474137
0.373294 -0.342858 0.000000 0.573025 -0.668458 0.474137
0.331817 -0.253969 0.143222 0.573025 -0.668458 0.474137
0.213311 -0.342858 0.193350 0.573025 -0.668458 0.474137
0.213311 0.000000 0.257800 -0.000000 -0.184743 0.982787
0.213311 -0.342858 0.193350 -0.000000 -0.184743 0.982787
0.213311 0.000000 0.257800 0.426529 -0.199026 0.882305
0.213311 -0.342858 0.193350 0.426529 -0.199026 0.882305
0.331817 -0.253969 0.143222 0.426529 -0.199026 0.882305
0.373294 0.000000 0.193350 0.426529 -0.199026 0.882305
0.213311 0.000000 0.257800 0.426529 0.199026 0.882305
0.373294 0.000000 0.193350 0.426529 0.199026 0.882305
0.331817 0.253969 0.143222 0.426529 0.199026 0.882305
0.213311 0.342858 0.193350 0.426529 0.199026 0.882305
0.213311 0.000000 0.257800 -0.000000 0.184743 0.982787
0.213311 0.342858 0.193350 -0.000000 0.184743 0.982787
0.213311 0.457143 0.000000 0.573025 0.668458 0.474137
0.213311 0.342858 0.193350 0.573025 0.668458 0.474137
0.331817 0.253969 0.143222 0.573025 0.668458 0.474137
0.373294 0.342858 0.000000 0.573025 0.668458 0.474137
0.213311 0.457143 0.000000 0.573025 0.668458 -0.474137
0.373294 0.342858 0.000000 0.573025 0.668458 -0.474137
0.331817 0.253969 -0.143222 0.573025 0.668458 -0.474137
0.213311 0.342858 -0.193350 0.573025 0.668458 -0.474137
0.213311 0.457143 0.000000 -0.000000 0.860861 -0.508840
0.213311 0.342858 -0.193350 -0.000000 0.860861 -0.508840
0.213311 0.457143 0.000000 -0.000000 0.860861 0.508840
0.213311 0.342858 0.193350 -0.000000 0.860861 0.508840
0.213311 0.000000 -0.257800 0.426529 -0.199026 -0.882305
0.373294 0.000000 -0.193350 0.426529 -0.199026 -0.882305
0.331817 -0.253969 -0.143222 0.426529 -0.199026 -0.882305
0.213311 -0.342858 -0.193350 0.426529 -0.199026 -0.882305
0.213311 0.000000 -0.257800 -0.000000 -0.184743 -0.982787
0.213311 -0.342858 -0.193350 -0.000000 -0.184743 -0.982787
0.213311 0.000000 -0.257800 -0.000000 0.184743 -0.982787
0.213311 0.342858 -0.193350 -0.000000 0.184743 -0.982787
0.213311 0.000000 -0.257800 0.426529 0.199026 -0.882305
0.213311 0.342858 -0.193350 0.426529 0.199026 -0.882305
0.331817 0.253969 -0.143222 0.426529 0.199026 -0.882305
0.373294 0.000000 -0.193350 0.426529 0.199026 -0.882305
4 0 1 2 3
4 4 5 6 7
4 8 9 10 11
4 12 13 14 15
4 16 17 18 19
4 20 21 22 23
4 24 25 26 27
4 28 29 30 31
4 32 33 34 35
4 36 37 38 39
4 40 41 42 43
4 44 45 46 47
4 48 49 50 51
4 52 53 54 55
4 56 57 58 59
4 60 61 62 63
4 64 65 66 67
4 68 69 70 71
4 72 73 74 75
4 76 77 78 79
4 80 81 82 83
4 84 85 86 87
4 88 89 90 91
4 92 93 94 95
4 96 97 18 17
4 98 31 30 99
4 100 101 102 103
4 104 105 106 107
4 108 35 34 109
4 110 111 112 113
4 114 115 116 117
4 118 119 38 37
4 120 121 122 123
4 124 125 126 127
4 128 129 58 57
4 130 55 54 131
4 132 133 134 135
4 136 137 78 77
4 138 75 74 139
4 140 141 142 143
