ply
format ascii 1.0
comment Created by Blender 2.72 (sub 0) - www.blender.org, source file: 'ralfs hexaboard.blend'
element vertex 144
property float x
property float y
property float z
property float nx
property float ny
property float nz
element face 40
property list uchar uint vertex_indices
end_header
-0.464288 0.000000 -0.000000 -0.973063 -0.126471 0.192751
-0.406252 -0.686714 -0.098997 -0.973063 -0.126471 0.192751
-0.361113 -0.542976 0.164593 -0.973063 -0.126471 0.192751
-0.406252 -0.046304 0.321198 -0.973063 -0.126471 0.192751
-0.464288 0.000000 -0.000000 -0.973063 0.066878 0.220624
-0.406252 -0.046304 0.321198 -0.973063 0.066878 0.220624
-0.361113 0.474378 0.311256 -0.973063 0.066878 0.220624
-0.406252 0.686714 0.098997 -0.973063 0.066878 0.220624
-0.464288 0.000000 -0.000000 -0.973063 0.126471 -0.192751
-0.406252 0.686714 0.098997 -0.973063 0.126471 -0.192751
-0.361113 0.542976 -0.164593 -0.973063 0.126471 -0.192751
-0.406252 0.046304 -0.321198 -0.973063 0.126471 -0.192751
-0.464288 0.000000 -0.000000 -0.973063 -0.066878 -0.220624
-0.406252 0.046304 -0.321198 -0.973063 -0.066878 -0.220624
-0.361113 -0.474377 -0.311256 -0.973063 -0.066878 -0.220624
-0.406252 -0.686714 -0.098997 -0.973063 -0.066878 -0.220624
-0.232144 -0.915618 -0.131996 -0.000000 -0.888836 0.458225
0.000000 -0.915619 -0.131996 -0.000000 -0.888836 0.458225
0.000000 -0.733018 0.222201 -0.000000 -0.888836 0.458225
-0.232144 -0.733018 0.222201 -0.000000 -0.888836 0.458225
-0.232144 -0.915618 -0.131996 -0.771189 -0.537900 0.340486
-0.232144 -0.733018 0.222201 -0.771189 -0.537900 0.340486
-0.361113 -0.542976 0.164593 -0.771189 -0.537900 0.340486
-0.406252 -0.686714 -0.098997 -0.771189 -0.537900 0.340486
-0.232144 -0.915618 -0.131996 -0.771190 -0.419826 -0.478553
-0.406252 -0.686714 -0.098997 -0.771190 -0.419826 -0.478553
-0.361113 -0.474377 -0.311256 -0.771190 -0.419826 -0.478553
-0.232144 -0.640410 -0.420195 -0.771190 -0.419826 -0.478553
-0.232144 -0.915618 -0.131996 -0.000000 -0.723218 -0.690620
-0.232144 -0.640410 -0.420195 -0.000000 -0.723218 -0.690620
0.000000 -0.640410 -0.420195 -0.000000 -0.723218 -0.690620
0.000000 -0.915619 -0.131996 -0.000000 -0.723218 -0.690620
-0.232144 -0.061739 0.428264 0.000000 -0.293456 0.955973
-0.232144 -0.733018 0.222201 0.000000 -0.293456 0.955973
0.000000 -0.733018 0.222201 0.000000 -0.293456 0.955973
0.000000 -0.061739 0.428264 0.000000 -0.293456 0.955973
-0.232144 -0.061739 0.428264 0.000000 0.011491 0.999934
0.000000 -0.061739 0.428264 0.000000 0.011491 0.999934
0.000000 0.640410 0.420195 0.000000 0.011491 0.999934
-0.232144 0.640410 0.420195 0.000000 0.011491 0.999934
-0.232144 -0.061739 0.428264 -0.591105 0.033690 0.805891
-0.232144 0.640410 0.420195 -0.591105 0.033690 0.805891
-0.361113 0.474378 0.311256 -0.591105 0.033690 0.805891
-0.406252 -0.046304 0.321198 -0.591105 0.033690 0.805891
-0.232144 -0.061739 0.428264 -0.591105 -0.259943 0.763560
-0.406252 -0.046304 0.321198 -0.591105 -0.259943 0.763560
-0.361113 -0.542976 0.164593 -0.591105 -0.259943 0.763560
-0.232144 -0.733018 0.222201 -0.591105 -0.259943 0.763560
-0.232144 0.915619 0.131996 -0.771190 0.419826 0.478553
-0.406252 0.686714 0.098997 -0.771190 0.419826 0.478553
-0.361113 0.474378 0.311256 -0.771190 0.419826 0.478553
-0.232144 0.640410 0.420195 -0.771190 0.419826 0.478553
-0.232144 0.915619 0.131996 0.000000 0.723218 0.690620
-0.232144 0.640410 0.420195 0.000000 0.723218 0.690620
0.000000 0.640410 0.420195 0.000000 0.723218 0.690620
0.000000 0.915619 0.131996 0.000000 0.723218 0.690620
-0.232144 0.915619 0.131996 0.000000 0.888836 -0.458225
0.000000 0.915619 0.131996 0.000000 0.888836 -0.458225
0.000000 0.733018 -0.222201 0.000000 0.888836 -0.458225
-0.232144 0.733018 -0.222201 0.000000 0.888836 -0.458225
-0.232144 0.915619 0.131996 -0.771190 0.537900 -0.340486
-0.232144 0.733018 -0.222201 -0.771190 0.537900 -0.340486
-0.361113 0.542976 -0.164593 -0.771190 0.537900 -0.340486
-0.406252 0.686714 0.098997 -0.771190 0.537900 -0.340486
-0.232144 0.061739 -0.428264 -0.591105 -0.033690 -0.805891
-0.232144 -0.640410 -0.420195 -0.591105 -0.033690 -0.805891
-0.361113 -0.474377 -0.311256 -0.591105 -0.033690 -0.805891
-0.406252 0.046304 -0.321198 -0.591105 -0.033690 -0.805891
-0.232144 0.061739 -0.428264 -0.591105 0.259943 -0.763560
-0.406252 0.046304 -0.321198 -0.591105 0.259943 -0.763560
-0.361113 0.542976 -0.164593 -0.591105 0.259943 -0.763560
-0.232144 0.733018 -0.222201 -0.591105 0.259943 -0.763560
-0.232144 0.061739 -0.428264 -0.000000 0.293456 -0.955973
-0.232144 0.733018 -0.222201 -0.000000 0.293456 -0.955973
0.000000 0.733018 -0.222201 -0.000000 0.293456 -0.955973
0.000000 0.061739 -0.428264 -0.000000 0.293456 -0.955973
-0.232144 0.061739 -0.428264 -0.000000 -0.011491 -0.999934
0.000000 0.061739 -0.428264 -0.000000 -0.011491 -0.999934
0.000000 -0.640410 -0.420195 -0.000000 -0.011491 -0.999934
-0.232144 -0.640410 -0.420195 -0.000000 -0.011491 -0.999934
0.464288 -0.000000 0.000000 0.973063 -0.126471 0.192751
0.406252 -0.046304 0.321198 0.973063 -0.126471 0.192751
0.361113 -0.542976 0.164593 0.973063 -0.126471 0.192751
0.406252 -0.686714 -0.098997 0.973063 -0.126471 0.192751
0.464288 -0.000000 0.000000 0.973063 -0.066878 -0.220624
0.406252 -0.686714 -0.098997 0.973063 -0.066878 -0.220624
0.361113 -0.474378 -0.311256 0.973063 -0.066878 -0.220624
0.406252 0.046304 -0.321198 0.973063 -0.066878 -0.220624
0.464288 -0.000000 0.000000 0.973063 0.126471 -0.192751
0.406252 0.046304 -0.321198 0.973063 0.126471 -0.192751
0.361113 0.542976 -0.164593 0.973063 0.126471 -0.192751
0.406252 0.686714 0.098997 0.973063 0.126471 -0.192751
0.464288 -0.000000 0.000000 0.973063 0.066878 0.220624
0.406252 0.686714 0.098997 0.973063 0.066878 0.220624
0.361113 0.474378 0.311256 0.973063 0.066878 0.220624
0.406252 -0.046304 0.321198 0.973063 0.066878 0.220624
0.232144 -0.915619 -0.131996 -0.000000 -0.888836 0.458225
0.232144 -0.733018 0.222201 -0.000000 -0.888836 0.458225
0.232144 -0.915619 -0.131996 0.000000 -0.723218 -0.690620
0.232144 -0.640410 -0.420195 0.000000 -0.723218 -0.690620
0.232144 -0.915619 -0.131996 0.771190 -0.419826 -0.478553
0.232144 -0.640410 -0.420195 0.771190 -0.419826 -0.478553
0.361113 -0.474378 -0.311256 0.771190 -0.419826 -0.478553
0.406252 -0.686714 -0.098997 0.771190 -0.419826 -0.478553
0.232144 -0.915619 -0.131996 0.771190 -0.537900 0.340486
0.406252 -0.686714 -0.098997 0.771190 -0.537900 0.340486
0.361113 -0.542976 0.164593 0.771190 -0.537900 0.340486
0.232144 -0.733018 0.222201 0.771190 -0.537900 0.340486
0.232144 -0.061739 0.428264 -0.000000 -0.293456 0.955973
0.232144 -0.733018 0.222201 -0.000000 -0.293456 0.955973
0.232144 -0.061739 0.428264 0.591105 -0.259943 0.763560
0.232144 -0.733018 0.222201 0.591105 -0.259943 0.763560
0.361113 -0.542976 0.164593 0.591105 -0.259943 0.763560
0.406252 -0.046304 0.321198 0.591105 -0.259943 0.763560
0.232144 -0.061739 0.428264 0.591105 0.033690 0.805891
0.406252 -0.046304 0.321198 0.591105 0.033690 0.805891
0.361113 0.474378 0.311256 0.591105 0.033690 0.805891
0.232144 0.640410 0.420195 0.591105 0.033690 0.805891
0.232144 -0.061739 0.428264 0.000000 0.011491 0.999934
0.232144 0.640410 0.420195 0.000000 0.011491 0.999934
0.232144 0.915619 0.131996 0.771190 0.419826 0.478553
0.232144 0.640410 0.420195 0.771190 0.419826 0.478553
0.361113 0.474378 0.311256 0.771190 0.419826 0.478553
0.406252 0.686714 0.098997 0.771190 0.419826 0.478553
0.232144 0.915619 0.131996 0.771190 0.537900 -0.340486
0.406252 0.686714 0.098997 0.771190 0.537900 -0.340486
0.361113 0.542976 -0.164593 0.771190 0.537900 -0.340486
0.232144 0.733018 -0.222201 0.771190 0.537900 -0.340486
0.232144 0.915619 0.131996 -0.000000 0.888836 -0.458225
0.232144 0.733018 -0.222201 -0.000000 0.888836 -0.458225
0.232144 0.915619 0.131996 0.000000 0.723218 0.690620
0.232144 0.640410 0.420195 0.000000 0.723218 0.690620
0.232144 0.061739 -0.428264 0.591105 -0.033690 -0.805891
0.406252 0.046304 -0.321198 0.591105 -0.033690 -0.805891
0.361113 -0.474378 -0.311256 0.591105 -0.033690 -0.805891
0.232144 -0.640410 -0.420195 0.591105 -0.033690 -0.805891
0.232144 0.061739 -0.428264 0.000000 -0.011491 -0.999934
0.232144 -0.640410 -0.420195 0.000000 -0.011491 -0.999934
0.232144 0.061739 -0.428264 -0.000000 0.293456 -0.955973
0.232144 0.733018 -0.222201 -0.000000 0.293456 -0.955973
0.232144 0.061739 -0.428264 0.591105 0.259943 -0.763560
0.232144 0.733018 -0.222201 0.591105 0.259943 -0.763560
0.361113 0.542976 -0.164593 0.591105 0.259943 -0.763560
0.406252 0.046304 -0.321198 0.591105 0.259943 -0.763560
4 0 1 2 3
4 4 5 6 7
4 8 9 10 11
4 12 13 14 15
4 16 17 18 19
4 20 21 22 23
4 24 25 26 27
4 28 29 30 31
4 32 33 34 35
4 36 37 38 39
4 40 41 42 43
4 44 45 46 47
4 48 49 50 51
4 52 53 54 55
4 56 57 58 59
4 60 61 62 63
4 64 65 66 67
4 68 69 70 71
4 72 73 74 75
4 76 77 78 79
4 80 81 82 83
4 84 85 86 87
4 88 89 90 91
4 92 93 94 95
4 96 97 18 17
4 98 31 30 99
4 100 101 102 103
4 104 105 106 107
4 108 35 34 109
4 110 111 112 113
4 114 115 116 117
4 118 119 38 37
4 120 121 122 123
4 124 125 126 127
4 128 129 58 57
4 130 55 54 131
4 132 133 134 135
4 136 137 78 77
4 138 75 74 139
4 140 141 142 143
