ply
format ascii 1.0
comment Created by Blender 2.72 (sub 0) - www.blender.org, source file: 'ralfs hexaboard.blend'
element vertex 297
property float x
property float y
property float z
property float nx
property float ny
property float nz
element face 88
property list uchar uint vertex_indices
end_header
-0.312859 0.456460 -0.141408 -0.872924 -0.453884 0.178865
-0.235470 0.323231 -0.101801 -0.872924 -0.453884 0.178865
-0.234381 0.332239 -0.073629 -0.872924 -0.453884 0.178865
-0.311770 0.465467 -0.113236 -0.872924 -0.453884 0.178865
-0.312859 0.456460 -0.141408 -0.945495 -0.282444 0.162065
-0.311770 0.465467 -0.113236 -0.945495 -0.282444 0.162065
-0.319137 0.485976 -0.126591 -0.945495 -0.282444 0.162065
-0.324209 0.486267 -0.149556 -0.945495 -0.282444 0.162065
-0.312859 0.456460 -0.141408 -0.898163 -0.372542 -0.233484
-0.324209 0.486267 -0.149556 -0.898163 -0.372542 -0.233484
-0.314133 0.476451 -0.168406 -0.898163 -0.372542 -0.233484
-0.305016 0.452609 -0.169687 -0.898163 -0.372542 -0.233484
-0.312859 0.456460 -0.141408 -0.832537 -0.530764 -0.158657
-0.305016 0.452609 -0.169687 -0.832537 -0.530764 -0.158657
-0.227627 0.319380 -0.130080 -0.832537 -0.530764 -0.158657
-0.235470 0.323231 -0.101801 -0.832537 -0.530764 -0.158657
0.280351 -0.523708 0.152836 0.372017 -0.630367 0.681352
0.298216 -0.513394 0.152624 0.372017 -0.630367 0.681352
0.287130 -0.493693 0.176905 0.372017 -0.630367 0.681352
0.269264 -0.504007 0.177116 0.372017 -0.630367 0.681352
0.280351 -0.523708 0.152836 -0.381353 -0.763338 0.521425
0.269264 -0.504007 0.177116 -0.381353 -0.763338 0.521425
0.254218 -0.501082 0.166847 -0.381353 -0.763338 0.521425
0.259242 -0.518173 0.149049 -0.381353 -0.763338 0.521425
0.280351 -0.523708 0.152836 -0.293098 -0.931336 -0.216119
0.259242 -0.518173 0.149049 -0.293098 -0.931336 -0.216119
0.259222 -0.510607 0.125032 -0.293098 -0.931336 -0.216119
0.276019 -0.516866 0.120665 -0.293098 -0.931336 -0.216119
0.280351 -0.523708 0.152836 0.482734 -0.841119 -0.243900
0.276019 -0.516866 0.120665 0.482734 -0.841119 -0.243900
0.293885 -0.506551 0.120453 0.482734 -0.841119 -0.243900
0.298216 -0.513394 0.152624 0.482734 -0.841119 -0.243900
-0.299497 0.475347 -0.103986 -0.115885 0.220594 0.968457
-0.222108 0.342118 -0.064379 -0.115885 0.220594 0.968457
-0.204242 0.352432 -0.064590 -0.115885 0.220594 0.968457
-0.281631 0.485661 -0.104197 -0.115885 0.220594 0.968457
-0.299497 0.475347 -0.103986 -0.250309 0.451128 0.856638
-0.281631 0.485661 -0.104197 -0.250309 0.451128 0.856638
-0.296322 0.510747 -0.121701 -0.250309 0.451128 0.856638
-0.314187 0.500432 -0.121489 -0.250309 0.451128 0.856638
-0.299497 0.475347 -0.103986 -0.723880 0.110706 0.680986
-0.314187 0.500432 -0.121489 -0.723880 0.110706 0.680986
-0.319137 0.485976 -0.126591 -0.723880 0.110706 0.680986
-0.311770 0.465467 -0.113236 -0.723880 0.110706 0.680986
-0.299497 0.475347 -0.103986 -0.558623 -0.079036 0.825647
-0.311770 0.465467 -0.113236 -0.558623 -0.079036 0.825647
-0.234381 0.332239 -0.073629 -0.558623 -0.079036 0.825647
-0.222108 0.342118 -0.064379 -0.558623 -0.079036 0.825647
-0.316082 0.503079 -0.152413 -0.917137 0.373569 0.138942
-0.324209 0.486267 -0.149556 -0.917137 0.373569 0.138942
-0.319137 0.485976 -0.126591 -0.917137 0.373569 0.138942
-0.314187 0.500432 -0.121489 -0.917137 0.373569 0.138942
-0.316082 0.503079 -0.152413 -0.496352 0.861848 0.104180
-0.314187 0.500432 -0.121489 -0.496352 0.861848 0.104180
-0.296322 0.510747 -0.121701 -0.496352 0.861848 0.104180
-0.298216 0.513394 -0.152624 -0.496352 0.861848 0.104180
-0.316082 0.503079 -0.152413 -0.415573 0.708079 -0.570897
-0.298216 0.513394 -0.152624 -0.415573 0.708079 -0.570897
-0.289567 0.497888 -0.178152 -0.415573 0.708079 -0.570897
-0.307432 0.487574 -0.177940 -0.415573 0.708079 -0.570897
-0.316082 0.503079 -0.152413 -0.842217 0.230957 -0.487165
-0.307432 0.487574 -0.177940 -0.842217 0.230957 -0.487165
-0.314133 0.476451 -0.168406 -0.842217 0.230957 -0.487165
-0.324209 0.486267 -0.149556 -0.842217 0.230957 -0.487165
-0.290490 0.458202 -0.179254 -0.362336 -0.452680 -0.814735
-0.213101 0.324973 -0.139647 -0.362336 -0.452680 -0.814735
-0.227627 0.319380 -0.130080 -0.362336 -0.452680 -0.814735
-0.305016 0.452609 -0.169687 -0.362336 -0.452680 -0.814735
-0.290490 0.458202 -0.179254 -0.545923 -0.228043 -0.806204
-0.305016 0.452609 -0.169687 -0.545923 -0.228043 -0.806204
-0.314133 0.476451 -0.168406 -0.545923 -0.228043 -0.806204
-0.307432 0.487574 -0.177940 -0.545923 -0.228043 -0.806204
-0.290490 0.458202 -0.179254 -0.028240 0.028409 -0.999197
-0.307432 0.487574 -0.177940 -0.028240 0.028409 -0.999197
-0.289567 0.497888 -0.178152 -0.028240 0.028409 -0.999197
-0.272625 0.468517 -0.179466 -0.028240 0.028409 -0.999197
-0.290490 0.458202 -0.179254 0.115885 -0.220594 -0.968457
-0.272625 0.468517 -0.179466 0.115885 -0.220594 -0.968457
-0.195236 0.335288 -0.139859 0.115885 -0.220594 -0.968457
-0.213101 0.324973 -0.139647 0.115885 -0.220594 -0.968457
0.231648 -0.480936 0.137266 -0.802732 -0.545486 0.240970
0.259242 -0.518173 0.149049 -0.802732 -0.545486 0.240970
0.254218 -0.501082 0.166847 -0.802732 -0.545486 0.240970
0.232737 -0.471928 0.165438 -0.802732 -0.545486 0.240970
0.231648 -0.480936 0.137266 -0.872924 -0.453884 0.178864
0.232737 -0.471928 0.165438 -0.872924 -0.453884 0.178864
0.148037 -0.326112 0.122089 -0.872924 -0.453884 0.178864
0.146948 -0.335120 0.093917 -0.872924 -0.453884 0.178864
0.231648 -0.480936 0.137266 -0.832536 -0.530764 -0.158658
0.146948 -0.335120 0.093917 -0.832536 -0.530764 -0.158658
0.154791 -0.338971 0.065638 -0.832536 -0.530764 -0.158658
0.239492 -0.484786 0.108987 -0.832536 -0.530764 -0.158658
0.231648 -0.480936 0.137266 -0.754973 -0.636398 -0.158156
0.239492 -0.484786 0.108987 -0.754973 -0.636398 -0.158156
0.259222 -0.510607 0.125032 -0.754973 -0.636398 -0.158156
0.259242 -0.518173 0.149049 -0.754973 -0.636398 -0.158156
0.245010 -0.462049 0.174688 -0.016145 0.048459 0.998695
0.269264 -0.504007 0.177116 -0.016145 0.048459 0.998695
0.287130 -0.493693 0.176905 -0.016145 0.048459 0.998695
0.262876 -0.451734 0.174477 -0.016145 0.048459 0.998695
0.245010 -0.462049 0.174688 -0.115885 0.220593 0.968457
0.262876 -0.451734 0.174477 -0.115885 0.220593 0.968457
0.178176 -0.305918 0.131128 -0.115885 0.220593 0.968457
0.160310 -0.316233 0.131339 -0.115885 0.220593 0.968457
0.245010 -0.462049 0.174688 -0.558623 -0.079036 0.825647
0.160310 -0.316233 0.131339 -0.558623 -0.079036 0.825647
0.148037 -0.326112 0.122089 -0.558623 -0.079036 0.825647
0.232737 -0.471928 0.165438 -0.558623 -0.079036 0.825647
0.245010 -0.462049 0.174688 -0.508728 -0.283314 0.812976
0.232737 -0.471928 0.165438 -0.508728 -0.283314 0.812976
0.254218 -0.501082 0.166847 -0.508728 -0.283314 0.812976
0.269264 -0.504007 0.177116 -0.508728 -0.283314 0.812976
0.254017 -0.479193 0.099420 -0.327069 -0.629111 -0.705156
0.276019 -0.516866 0.120665 -0.327069 -0.629111 -0.705156
0.259222 -0.510607 0.125032 -0.327069 -0.629111 -0.705156
0.239492 -0.484786 0.108987 -0.327069 -0.629111 -0.705156
0.254017 -0.479193 0.099420 -0.362336 -0.452680 -0.814735
0.239492 -0.484786 0.108987 -0.362336 -0.452680 -0.814735
0.154791 -0.338971 0.065638 -0.362336 -0.452680 -0.814735
0.169317 -0.333378 0.056071 -0.362336 -0.452680 -0.814735
0.254017 -0.479193 0.099420 0.115885 -0.220593 -0.968457
0.169317 -0.333378 0.056071 0.115885 -0.220593 -0.968457
0.187182 -0.323063 0.055859 0.115885 -0.220593 -0.968457
0.271883 -0.468879 0.099208 0.115885 -0.220593 -0.968457
0.254017 -0.479193 0.099420 0.210933 -0.383795 -0.899004
0.271883 -0.468879 0.099208 0.210933 -0.383795 -0.899004
0.293885 -0.506551 0.120453 0.210933 -0.383795 -0.899004
0.276019 -0.516866 0.120665 0.210933 -0.383795 -0.899004
-0.045480 -0.003847 -0.004566 -0.872924 -0.453884 0.178865
0.146948 -0.335120 0.093917 -0.872924 -0.453884 0.178865
0.148037 -0.326112 0.122089 -0.872924 -0.453884 0.178865
-0.044391 0.005161 0.023607 -0.872924 -0.453884 0.178865
-0.045480 -0.003847 -0.004566 -0.832536 -0.530764 -0.158658
-0.235470 0.323231 -0.101801 -0.832536 -0.530764 -0.158658
-0.227627 0.319380 -0.130080 -0.832536 -0.530764 -0.158658
-0.037636 -0.007697 -0.032844 -0.832536 -0.530764 -0.158658
-0.045480 -0.003847 -0.004566 -0.832537 -0.530764 -0.158658
-0.037636 -0.007697 -0.032844 -0.832537 -0.530764 -0.158658
0.154791 -0.338971 0.065638 -0.832537 -0.530764 -0.158658
0.146948 -0.335120 0.093917 -0.832537 -0.530764 -0.158658
-0.032118 0.015040 0.032857 -0.115885 0.220594 0.968457
0.160310 -0.316233 0.131339 -0.115885 0.220594 0.968457
0.178176 -0.305918 0.131128 -0.115885 0.220594 0.968457
-0.014252 0.025355 0.032645 -0.115885 0.220594 0.968457
-0.032118 0.015040 0.032857 -0.558623 -0.079036 0.825647
-0.044391 0.005161 0.023607 -0.558623 -0.079036 0.825647
-0.032118 0.015040 0.032857 -0.558624 -0.079036 0.825647
-0.044391 0.005161 0.023607 -0.558624 -0.079036 0.825647
0.148037 -0.326112 0.122089 -0.558624 -0.079036 0.825647
0.160310 -0.316233 0.131339 -0.558624 -0.079036 0.825647
-0.023111 -0.002104 -0.042412 -0.362336 -0.452680 -0.814735
-0.037636 -0.007697 -0.032844 -0.362336 -0.452680 -0.814735
-0.023111 -0.002104 -0.042412 0.115885 -0.220594 -0.968457
-0.005245 0.008210 -0.042623 0.115885 -0.220594 -0.968457
0.187182 -0.323063 0.055859 0.115885 -0.220594 -0.968457
0.169317 -0.333378 0.056071 0.115885 -0.220594 -0.968457
-0.241397 0.497719 -0.142255 0.832536 0.530764 0.158658
-0.249241 0.501569 -0.113976 0.832536 0.530764 0.158658
-0.171851 0.368340 -0.074369 0.832536 0.530764 0.158658
-0.164008 0.364490 -0.102648 0.832536 0.530764 0.158658
-0.241397 0.497719 -0.142255 0.872924 0.453884 -0.178865
-0.164008 0.364490 -0.102648 0.872924 0.453884 -0.178865
-0.165097 0.355482 -0.130821 0.872924 0.453884 -0.178865
-0.242486 0.488711 -0.170428 0.872924 0.453884 -0.178865
-0.241397 0.497719 -0.142255 0.767386 0.589065 -0.253220
-0.242486 0.488711 -0.170428 0.767386 0.589065 -0.253220
-0.258551 0.508541 -0.169065 0.767386 0.589065 -0.253220
-0.261679 0.522368 -0.150297 0.767386 0.589065 -0.253220
-0.241397 0.497719 -0.142255 0.720056 0.679163 0.142331
-0.261679 0.522368 -0.150297 0.720056 0.679163 0.142331
-0.263555 0.518066 -0.127249 0.720056 0.679163 0.142331
-0.249241 0.501569 -0.113976 0.720056 0.679163 0.142331
0.316082 -0.503079 0.152413 0.372014 -0.630369 0.681352
0.304995 -0.483378 0.176693 0.372014 -0.630369 0.681352
0.287130 -0.493693 0.176905 0.372014 -0.630369 0.681352
0.298216 -0.513394 0.152624 0.372014 -0.630369 0.681352
0.316082 -0.503079 0.152413 0.482729 -0.841121 -0.243900
0.298216 -0.513394 0.152624 0.482729 -0.841121 -0.243900
0.293885 -0.506551 0.120453 0.482729 -0.841121 -0.243900
0.311750 -0.496236 0.120242 0.482729 -0.841121 -0.243900
0.316082 -0.503079 0.152413 0.949138 -0.214129 -0.230838
0.311750 -0.496236 0.120242 0.949138 -0.214129 -0.230838
0.314804 -0.478517 0.124373 0.949138 -0.214129 -0.230838
0.321772 -0.482071 0.148308 0.949138 -0.214129 -0.230838
0.316082 -0.503079 0.152413 0.860884 -0.046133 0.506706
0.321772 -0.482071 0.148308 0.860884 -0.046133 0.506706
0.309800 -0.468992 0.166189 0.860884 -0.046133 0.506706
0.304995 -0.483378 0.176693 0.860884 -0.046133 0.506706
-0.263766 0.495976 -0.104409 -0.115885 0.220594 0.968457
-0.186377 0.362747 -0.064802 -0.115885 0.220594 0.968457
-0.263766 0.495976 -0.104409 0.362336 0.452680 0.814735
-0.186377 0.362747 -0.064802 0.362336 0.452680 0.814735
-0.171851 0.368340 -0.074369 0.362336 0.452680 0.814735
-0.249241 0.501569 -0.113976 0.362336 0.452680 0.814735
-0.263766 0.495976 -0.104409 0.278062 0.689178 0.669115
-0.249241 0.501569 -0.113976 0.278062 0.689178 0.669115
-0.263555 0.518066 -0.127249 0.278062 0.689178 0.669115
-0.278456 0.521061 -0.121912 0.278062 0.689178 0.669115
-0.263766 0.495976 -0.104409 -0.250309 0.451127 0.856638
-0.278456 0.521061 -0.121912 -0.250309 0.451127 0.856638
-0.296322 0.510747 -0.121701 -0.250309 0.451127 0.856638
-0.281631 0.485661 -0.104197 -0.250309 0.451127 0.856638
-0.280351 0.523708 -0.152836 0.137405 0.982411 0.126447
-0.278456 0.521061 -0.121912 0.137405 0.982411 0.126447
-0.263555 0.518066 -0.127249 0.137405 0.982411 0.126447
-0.261679 0.522368 -0.150297 0.137405 0.982411 0.126447
-0.280351 0.523708 -0.152836 0.212326 0.839797 -0.499659
-0.261679 0.522368 -0.150297 0.212326 0.839797 -0.499659
-0.258551 0.508541 -0.169065 0.212326 0.839797 -0.499659
-0.271701 0.508203 -0.178364 0.212326 0.839797 -0.499659
-0.280351 0.523708 -0.152836 -0.415574 0.708078 -0.570897
-0.271701 0.508203 -0.178364 -0.415574 0.708078 -0.570897
-0.289567 0.497888 -0.178152 -0.415574 0.708078 -0.570897
-0.298216 0.513394 -0.152624 -0.415574 0.708078 -0.570897
-0.280351 0.523708 -0.152836 -0.496354 0.861846 0.104181
-0.298216 0.513394 -0.152624 -0.496354 0.861846 0.104181
-0.296322 0.510747 -0.121701 -0.496354 0.861846 0.104181
-0.278456 0.521061 -0.121912 -0.496354 0.861846 0.104181
-0.254759 0.478832 -0.179677 0.558623 0.079036 -0.825647
-0.242486 0.488711 -0.170428 0.558623 0.079036 -0.825647
-0.165097 0.355482 -0.130821 0.558623 0.079036 -0.825647
-0.177370 0.345603 -0.140070 0.558623 0.079036 -0.825647
-0.254759 0.478832 -0.179677 0.115886 -0.220593 -0.968457
-0.177370 0.345603 -0.140070 0.115886 -0.220593 -0.968457
-0.195236 0.335288 -0.139859 0.115886 -0.220593 -0.968457
-0.272625 0.468517 -0.179466 0.115886 -0.220593 -0.968457
-0.254759 0.478832 -0.179677 -0.028241 0.028409 -0.999197
-0.272625 0.468517 -0.179466 -0.028241 0.028409 -0.999197
-0.289567 0.497888 -0.178152 -0.028241 0.028409 -0.999197
-0.271701 0.508203 -0.178364 -0.028241 0.028409 -0.999197
-0.254759 0.478832 -0.179677 0.456018 0.350429 -0.818075
-0.271701 0.508203 -0.178364 0.456018 0.350429 -0.818075
-0.258551 0.508541 -0.169065 0.456018 0.350429 -0.818075
-0.242486 0.488711 -0.170428 0.456018 0.350429 -0.818075
0.303111 -0.439677 0.136419 0.877876 0.424814 0.221057
0.295267 -0.435826 0.164698 0.877876 0.424814 0.221057
0.309800 -0.468992 0.166189 0.877876 0.424814 0.221057
0.321772 -0.482071 0.148308 0.877876 0.424814 0.221057
0.303111 -0.439677 0.136419 0.925636 0.333901 -0.178069
0.321772 -0.482071 0.148308 0.925636 0.333901 -0.178069
0.314804 -0.478517 0.124373 0.925636 0.333901 -0.178069
0.302022 -0.448685 0.108246 0.925636 0.333901 -0.178069
0.303111 -0.439677 0.136419 0.872924 0.453884 -0.178864
0.302022 -0.448685 0.108246 0.872924 0.453884 -0.178864
0.217321 -0.302869 0.064897 0.872924 0.453884 -0.178864
0.218410 -0.293861 0.093070 0.872924 0.453884 -0.178864
0.303111 -0.439677 0.136419 0.832536 0.530764 0.158658
0.218410 -0.293861 0.093070 0.832536 0.530764 0.158658
0.210566 -0.290011 0.121349 0.832536 0.530764 0.158658
0.295267 -0.435826 0.164698 0.832536 0.530764 0.158658
0.280742 -0.441419 0.174265 -0.016145 0.048459 0.998695
0.304995 -0.483378 0.176693 -0.016145 0.048459 0.998695
0.280742 -0.441419 0.174265 0.514061 0.307194 0.800858
0.304995 -0.483378 0.176693 0.514061 0.307194 0.800858
0.309800 -0.468992 0.166189 0.514061 0.307194 0.800858
0.295267 -0.435826 0.164698 0.514061 0.307194 0.800858
0.280742 -0.441419 0.174265 0.362336 0.452680 0.814735
0.295267 -0.435826 0.164698 0.362336 0.452680 0.814735
0.210566 -0.290011 0.121349 0.362336 0.452680 0.814735
0.196041 -0.295604 0.130916 0.362336 0.452680 0.814735
0.280742 -0.441419 0.174265 -0.115885 0.220593 0.968457
0.196041 -0.295604 0.130916 -0.115885 0.220593 0.968457
0.289748 -0.458564 0.098997 0.695720 -0.038604 -0.717275
0.302022 -0.448685 0.108246 0.695720 -0.038604 -0.717275
0.314804 -0.478517 0.124373 0.695720 -0.038604 -0.717275
0.311750 -0.496236 0.120242 0.695720 -0.038604 -0.717275
0.289748 -0.458564 0.098997 0.210933 -0.383795 -0.899004
0.311750 -0.496236 0.120242 0.210933 -0.383795 -0.899004
0.289748 -0.458564 0.098997 0.115886 -0.220593 -0.968457
0.271883 -0.468879 0.099208 0.115886 -0.220593 -0.968457
0.187182 -0.323063 0.055859 0.115886 -0.220593 -0.968457
0.205048 -0.312748 0.055648 0.115886 -0.220593 -0.968457
0.289748 -0.458564 0.098997 0.558623 0.079036 -0.825647
0.205048 -0.312748 0.055648 0.558623 0.079036 -0.825647
0.217321 -0.302869 0.064897 0.558623 0.079036 -0.825647
0.302022 -0.448685 0.108246 0.558623 0.079036 -0.825647
0.025983 0.037412 -0.005413 0.832536 0.530764 0.158658
0.018139 0.041263 0.022866 0.832536 0.530764 0.158658
0.025983 0.037412 -0.005413 0.872924 0.453884 -0.178865
0.218410 -0.293861 0.093070 0.872924 0.453884 -0.178865
0.217321 -0.302869 0.064897 0.872924 0.453884 -0.178865
0.024894 0.028404 -0.033585 0.872924 0.453884 -0.178865
0.025983 0.037412 -0.005413 0.872924 0.453884 -0.178864
0.024894 0.028404 -0.033585 0.872924 0.453884 -0.178864
-0.165097 0.355482 -0.130821 0.872924 0.453884 -0.178864
-0.164008 0.364490 -0.102648 0.872924 0.453884 -0.178864
0.003614 0.035670 0.032433 -0.115885 0.220593 0.968457
-0.014252 0.025355 0.032645 -0.115885 0.220593 0.968457
0.003614 0.035670 0.032433 0.362336 0.452680 0.814735
0.018139 0.041263 0.022866 0.362336 0.452680 0.814735
0.003614 0.035670 0.032433 -0.115885 0.220594 0.968457
0.012620 0.018525 -0.042835 0.558623 0.079036 -0.825647
0.024894 0.028404 -0.033585 0.558623 0.079036 -0.825647
0.012620 0.018525 -0.042835 0.115885 -0.220594 -0.968457
0.205048 -0.312748 0.055648 0.115885 -0.220594 -0.968457
0.012620 0.018525 -0.042835 0.115886 -0.220593 -0.968457
-0.005245 0.008210 -0.042623 0.115886 -0.220593 -0.968457
4 0 1 2 3
4 4 5 6 7
4 8 9 10 11
4 12 13 14 15
4 16 17 18 19
4 20 21 22 23
4 24 25 26 27
4 28 29 30 31
4 32 33 34 35
4 36 37 38 39
4 40 41 42 43
4 44 45 46 47
4 48 49 50 51
4 52 53 54 55
4 56 57 58 59
4 60 61 62 63
4 64 65 66 67
4 68 69 70 71
4 72 73 74 75
4 76 77 78 79
4 80 81 82 83
4 84 85 86 87
4 88 89 90 91
4 92 93 94 95
4 96 97 98 99
4 100 101 102 103
4 104 105 106 107
4 108 109 110 111
4 112 113 114 115
4 116 117 118 119
4 120 121 122 123
4 124 125 126 127
4 128 129 130 131
4 128 131 2 1
4 132 133 134 135
4 136 137 138 139
4 140 141 142 143
4 140 143 34 33
4 144 47 46 145
4 146 147 148 149
4 150 119 118 151
4 150 151 66 65
4 152 79 78 153
4 152 153 154 155
4 156 157 158 159
4 160 161 162 163
4 164 165 166 167
4 168 169 170 171
4 172 173 174 175
4 176 177 178 179
4 180 181 182 183
4 184 185 186 187
4 188 35 34 189
4 190 191 192 193
4 194 195 196 197
4 198 199 200 201
4 202 203 204 205
4 206 207 208 209
4 210 211 212 213
4 214 215 216 217
4 218 219 220 221
4 222 223 224 225
4 226 227 228 229
4 230 231 232 233
4 234 235 236 237
4 238 239 240 241
4 242 243 244 245
4 246 247 248 249
4 250 99 98 251
4 252 253 254 255
4 256 257 258 259
4 260 261 102 101
4 262 263 264 265
4 266 267 126 125
4 268 269 270 271
4 272 273 274 275
4 276 277 248 247
4 278 279 280 281
4 282 283 284 285
4 276 159 158 277
4 286 287 102 261
4 288 259 258 289
4 288 289 192 191
4 290 189 34 143
4 291 292 274 273
4 293 294 154 153
4 295 296 224 223
4 291 221 220 292
