ply
format ascii 1.0
comment Created by Blender 2.72 (sub 0) - www.blender.org, source file: 'ralfs hexaboard.blend'
element vertex 283
property float x
property float y
property float z
property float nx
property float ny
property float nz
element face 88
property list uchar uint vertex_indices
end_header
0.238876 0.499174 -0.141408 -0.829537 0.529033 0.178865
0.162191 0.365539 -0.101801 -0.829537 0.529033 0.178865
0.170536 0.369099 -0.073629 -0.829537 0.529033 0.178865
0.247221 0.502735 -0.113236 -0.829537 0.529033 0.178865
0.238876 0.499174 -0.141408 -0.717351 0.677601 0.162065
0.247221 0.502735 -0.113236 -0.717351 0.677601 0.162065
0.261299 0.519368 -0.126591 -0.717351 0.677601 0.162065
0.259015 0.523907 -0.149556 -0.717351 0.677601 0.162065
0.238876 0.499174 -0.141408 -0.771712 0.591562 -0.233484
0.259015 0.523907 -0.149556 -0.771712 0.591562 -0.233484
0.255552 0.510273 -0.168406 -0.771712 0.591562 -0.233484
0.239463 0.490456 -0.169687 -0.771712 0.591562 -0.233484
0.238876 0.499174 -0.141408 -0.875924 0.455616 -0.158658
0.239463 0.490456 -0.169687 -0.875924 0.455616 -0.158658
0.162778 0.356820 -0.130080 -0.875924 0.455616 -0.158658
0.162191 0.365539 -0.101801 -0.875924 0.455616 -0.158658
-0.313370 -0.504645 0.152836 -0.359907 -0.637359 0.681352
-0.295504 -0.514960 0.152624 -0.359907 -0.637359 0.681352
-0.283986 -0.495508 0.176905 -0.359907 -0.637359 0.681352
-0.301851 -0.485193 0.177116 -0.359907 -0.637359 0.681352
-0.313370 -0.504645 0.152836 -0.851747 -0.051408 0.521425
-0.301851 -0.485193 0.177116 -0.851747 -0.051408 0.521425
-0.306841 -0.470700 0.166847 -0.851747 -0.051408 0.521425
-0.319130 -0.483597 0.149049 -0.851747 -0.051408 0.521425
-0.313370 -0.504645 0.152836 -0.953110 -0.211837 -0.216119
-0.319130 -0.483597 0.149049 -0.953110 -0.211837 -0.216119
-0.312588 -0.479796 0.125032 -0.953110 -0.211837 -0.216119
-0.309610 -0.497472 0.120665 -0.953110 -0.211837 -0.216119
-0.313370 -0.504645 0.152836 -0.487066 -0.838618 -0.243900
-0.309610 -0.497472 0.120665 -0.487066 -0.838618 -0.243900
-0.291744 -0.507787 0.120453 -0.487066 -0.838618 -0.243900
-0.295504 -0.514960 0.152624 -0.487066 -0.838618 -0.243900
0.261914 0.497045 -0.103986 0.133097 0.210656 0.968457
0.185229 0.363410 -0.064379 0.133097 0.210656 0.968457
0.203094 0.353095 -0.064590 0.133097 0.210656 0.968457
0.279779 0.486730 -0.104197 0.133097 0.210656 0.968457
0.261914 0.497045 -0.103986 0.265533 0.442338 0.856638
0.279779 0.486730 -0.104197 0.265533 0.442338 0.856638
0.294159 0.511995 -0.121701 0.265533 0.442338 0.856638
0.276293 0.522310 -0.121489 0.265533 0.442338 0.856638
0.261914 0.497045 -0.103986 -0.266065 0.682251 0.680987
0.276293 0.522310 -0.121489 -0.266065 0.682251 0.680987
0.261299 0.519368 -0.126591 -0.266065 0.682251 0.680987
0.247221 0.502735 -0.113236 -0.266065 0.682251 0.680987
0.261914 0.497045 -0.103986 -0.347759 0.444264 0.825647
0.247221 0.502735 -0.113236 -0.347759 0.444264 0.825647
0.170536 0.369099 -0.073629 -0.347759 0.444264 0.825647
0.185229 0.363410 -0.064379 -0.347759 0.444264 0.825647
0.277638 0.525275 -0.152413 -0.135047 0.981049 0.138941
0.259015 0.523907 -0.149556 -0.135047 0.981049 0.138941
0.261299 0.519368 -0.126591 -0.135047 0.981049 0.138941
0.276293 0.522310 -0.121489 -0.135047 0.981049 0.138941
0.277638 0.525275 -0.152413 0.498205 0.860778 0.104181
0.276293 0.522310 -0.121489 0.498205 0.860778 0.104181
0.294159 0.511995 -0.121701 0.498205 0.860778 0.104181
0.295504 0.514960 -0.152624 0.498205 0.860778 0.104181
0.277638 0.525275 -0.152413 0.405427 0.713936 -0.570898
0.295504 0.514960 -0.152624 0.405427 0.713936 -0.570898
0.286401 0.499716 -0.178152 0.405427 0.713936 -0.570898
0.268535 0.510031 -0.177940 0.405427 0.713936 -0.570898
0.277638 0.525275 -0.152413 -0.221094 0.844860 -0.487164
0.268535 0.510031 -0.177940 -0.221094 0.844860 -0.487164
0.255552 0.510273 -0.168406 -0.221094 0.844860 -0.487164
0.259015 0.523907 -0.149556 -0.221094 0.844860 -0.487164
0.251569 0.480673 -0.179254 -0.573200 0.087452 -0.814735
0.174884 0.347038 -0.139647 -0.573200 0.087452 -0.814735
0.162778 0.356820 -0.130080 -0.573200 0.087452 -0.814735
0.239463 0.490456 -0.169687 -0.573200 0.087452 -0.814735
0.251569 0.480673 -0.179254 -0.470452 0.358762 -0.806204
0.239463 0.490456 -0.169687 -0.470452 0.358762 -0.806204
0.255552 0.510273 -0.168406 -0.470452 0.358762 -0.806204
0.268535 0.510031 -0.177940 -0.470452 0.358762 -0.806204
0.251569 0.480673 -0.179254 0.010483 0.038661 -0.999197
0.268535 0.510031 -0.177940 0.010483 0.038661 -0.999197
0.286401 0.499716 -0.178152 0.010483 0.038661 -0.999197
0.269435 0.470358 -0.179466 0.010483 0.038661 -0.999197
0.251569 0.480673 -0.179254 -0.133097 -0.210656 -0.968457
0.269435 0.470358 -0.179466 -0.133097 -0.210656 -0.968457
0.192750 0.336723 -0.139859 -0.133097 -0.210656 -0.968457
0.174884 0.347038 -0.139647 -0.133097 -0.210656 -0.968457
-0.300679 -0.441081 0.137266 -0.873771 0.422443 0.240970
-0.319130 -0.483597 0.149049 -0.873771 0.422443 0.240970
-0.306841 -0.470700 0.166847 -0.873771 0.422443 0.240970
-0.292333 -0.437520 0.165438 -0.873771 0.422443 0.240970
-0.300679 -0.441081 0.137266 -0.829537 0.529033 0.178865
-0.292333 -0.437520 0.165438 -0.829537 0.529033 0.178865
-0.208403 -0.291259 0.122089 -0.829537 0.529033 0.178865
-0.216749 -0.294820 0.093917 -0.829537 0.529033 0.178865
-0.300679 -0.441081 0.137266 -0.875924 0.455615 -0.158658
-0.216749 -0.294820 0.093917 -0.875924 0.455615 -0.158658
-0.216161 -0.303539 0.065638 -0.875924 0.455615 -0.158658
-0.300091 -0.449799 0.108987 -0.875924 0.455615 -0.158658
-0.300679 -0.441081 0.137266 -0.928624 0.335626 -0.158157
-0.300091 -0.449799 0.108987 -0.928624 0.335626 -0.158157
-0.312588 -0.479796 0.125032 -0.928624 0.335626 -0.158157
-0.319130 -0.483597 0.149049 -0.928624 0.335626 -0.158157
-0.277641 -0.443210 0.174688 0.033894 0.038212 0.998695
-0.301851 -0.485193 0.177116 0.033894 0.038212 0.998695
-0.283986 -0.495508 0.176905 0.033894 0.038212 0.998695
-0.259775 -0.453525 0.174477 0.033894 0.038212 0.998695
-0.277641 -0.443210 0.174688 0.133097 0.210657 0.968457
-0.259775 -0.453525 0.174477 0.133097 0.210657 0.968457
-0.175845 -0.307264 0.131128 0.133097 0.210657 0.968457
-0.193711 -0.296949 0.131339 0.133097 0.210657 0.968457
-0.277641 -0.443210 0.174688 -0.347758 0.444264 0.825648
-0.193711 -0.296949 0.131339 -0.347758 0.444264 0.825648
-0.208403 -0.291259 0.122089 -0.347758 0.444264 0.825648
-0.292333 -0.437520 0.165438 -0.347758 0.444264 0.825648
-0.277641 -0.443210 0.174688 -0.499721 0.298914 0.812976
-0.292333 -0.437520 0.165438 -0.499721 0.298914 0.812976
-0.306841 -0.470700 0.166847 -0.499721 0.298914 0.812976
-0.301851 -0.485193 0.177116 -0.499721 0.298914 0.812976
-0.287985 -0.459582 0.099420 -0.708361 -0.031306 -0.705156
-0.309610 -0.497472 0.120665 -0.708361 -0.031306 -0.705156
-0.312588 -0.479796 0.125032 -0.708361 -0.031306 -0.705156
-0.300091 -0.449799 0.108987 -0.708361 -0.031306 -0.705156
-0.287985 -0.459582 0.099420 -0.573201 0.087452 -0.814735
-0.300091 -0.449799 0.108987 -0.573201 0.087452 -0.814735
-0.216161 -0.303539 0.065638 -0.573201 0.087452 -0.814735
-0.204055 -0.313321 0.056071 -0.573201 0.087452 -0.814735
-0.287985 -0.459582 0.099420 -0.133097 -0.210656 -0.968457
-0.204055 -0.313321 0.056071 -0.133097 -0.210656 -0.968457
-0.186189 -0.323636 0.055859 -0.133097 -0.210656 -0.968457
-0.270120 -0.469897 0.099208 -0.133097 -0.210656 -0.968457
-0.287985 -0.459582 0.099420 -0.226910 -0.374571 -0.899004
-0.270120 -0.469897 0.099208 -0.226910 -0.374571 -0.899004
-0.291744 -0.507787 0.120453 -0.226910 -0.374571 -0.899004
-0.309610 -0.497472 0.120665 -0.226910 -0.374571 -0.899004
-0.026071 0.037463 -0.004566 -0.829537 0.529033 0.178864
-0.216749 -0.294820 0.093917 -0.829537 0.529033 0.178864
-0.208403 -0.291259 0.122089 -0.829537 0.529033 0.178864
-0.017726 0.041024 0.023607 -0.829537 0.529033 0.178864
-0.026071 0.037463 -0.004566 -0.829537 0.529033 0.178865
-0.017726 0.041024 0.023607 -0.829537 0.529033 0.178865
-0.026071 0.037463 -0.004566 -0.875924 0.455616 -0.158658
-0.025484 0.028745 -0.032844 -0.875924 0.455616 -0.158658
-0.026071 0.037463 -0.004566 -0.875924 0.455615 -0.158658
-0.025484 0.028745 -0.032844 -0.875924 0.455615 -0.158658
-0.003034 0.035335 0.032857 0.133097 0.210656 0.968457
-0.193711 -0.296949 0.131339 0.133097 0.210656 0.968457
-0.175845 -0.307264 0.131128 0.133097 0.210656 0.968457
0.014832 0.025020 0.032645 0.133097 0.210656 0.968457
-0.003034 0.035335 0.032857 -0.347759 0.444264 0.825647
-0.017726 0.041024 0.023607 -0.347759 0.444264 0.825647
-0.208403 -0.291259 0.122089 -0.347759 0.444264 0.825647
-0.193711 -0.296949 0.131339 -0.347759 0.444264 0.825647
-0.013378 0.018963 -0.042412 -0.573200 0.087452 -0.814735
-0.204055 -0.313321 0.056071 -0.573200 0.087452 -0.814735
-0.216161 -0.303539 0.065638 -0.573200 0.087452 -0.814735
-0.025484 0.028745 -0.032844 -0.573200 0.087452 -0.814735
-0.013378 0.018963 -0.042412 -0.133097 -0.210656 -0.968457
0.004488 0.008648 -0.042623 -0.133097 -0.210656 -0.968457
0.310339 0.457915 -0.142255 0.875924 -0.455615 0.158658
0.309751 0.466633 -0.113976 0.875924 -0.455615 0.158658
0.233066 0.332998 -0.074369 0.875924 -0.455615 0.158658
0.233654 0.324280 -0.102648 0.875924 -0.455615 0.158658
0.310339 0.457915 -0.142255 0.829537 -0.529033 -0.178865
0.233654 0.324280 -0.102648 0.829537 -0.529033 -0.178865
0.225308 0.320719 -0.130821 0.829537 -0.529033 -0.178865
0.301993 0.454354 -0.170428 0.829537 -0.529033 -0.178865
0.310339 0.457915 -0.142255 0.893839 -0.370043 -0.253219
0.301993 0.454354 -0.170428 0.893839 -0.370043 -0.253219
0.311134 0.478182 -0.169065 0.893839 -0.370043 -0.253219
0.321545 0.487805 -0.150297 0.893839 -0.370043 -0.253219
0.310339 0.457915 -0.142255 0.948200 -0.284005 0.142330
0.321545 0.487805 -0.150297 0.948200 -0.284005 0.142330
0.316881 0.487278 -0.127249 0.948200 -0.284005 0.142330
0.309751 0.466633 -0.113976 0.948200 -0.284005 0.142330
-0.277638 -0.525275 0.152413 -0.359907 -0.637359 0.681352
-0.266120 -0.505823 0.176693 -0.359907 -0.637359 0.681352
-0.277638 -0.525275 0.152413 -0.487066 -0.838618 -0.243900
-0.273878 -0.518102 0.120242 -0.487066 -0.838618 -0.243900
-0.277638 -0.525275 0.152413 0.289127 -0.929042 -0.230837
-0.273878 -0.518102 0.120242 0.289127 -0.929042 -0.230837
-0.257006 -0.511886 0.124373 0.289127 -0.929042 -0.230837
-0.256600 -0.519698 0.148308 0.289127 -0.929042 -0.230837
-0.277638 -0.525275 0.152413 0.390489 -0.768614 0.506706
-0.256600 -0.519698 0.148308 0.390489 -0.768614 0.506706
-0.251259 -0.502791 0.166189 0.390489 -0.768614 0.506706
-0.266120 -0.505823 0.176693 0.390489 -0.768614 0.506706
0.297645 0.476416 -0.104409 0.133097 0.210656 0.968457
0.220960 0.342780 -0.064802 0.133097 0.210656 0.968457
0.297645 0.476416 -0.104409 0.573200 -0.087452 0.814735
0.220960 0.342780 -0.064802 0.573200 -0.087452 0.814735
0.233066 0.332998 -0.074369 0.573200 -0.087452 0.814735
0.309751 0.466633 -0.113976 0.573200 -0.087452 0.814735
0.297645 0.476416 -0.104409 0.735877 0.103780 0.669115
0.309751 0.466633 -0.113976 0.735877 0.103780 0.669115
0.316881 0.487278 -0.127249 0.735877 0.103780 0.669115
0.312024 0.501681 -0.121912 0.735877 0.103780 0.669115
0.297645 0.476416 -0.104409 0.265533 0.442338 0.856638
0.312024 0.501681 -0.121912 0.265533 0.442338 0.856638
0.313370 0.504645 -0.152836 0.919495 0.372208 0.126447
0.312024 0.501681 -0.121912 0.919495 0.372208 0.126447
0.316881 0.487278 -0.127249 0.919495 0.372208 0.126447
0.321545 0.487805 -0.150297 0.919495 0.372208 0.126447
0.313370 0.504645 -0.152836 0.833449 0.236019 -0.499658
0.321545 0.487805 -0.150297 0.833449 0.236019 -0.499658
0.311134 0.478182 -0.169065 0.833449 0.236019 -0.499658
0.304266 0.489402 -0.178364 0.833449 0.236019 -0.499658
0.313370 0.504645 -0.152836 0.405427 0.713936 -0.570898
0.304266 0.489402 -0.178364 0.405427 0.713936 -0.570898
0.313370 0.504645 -0.152836 0.498205 0.860778 0.104181
0.312024 0.501681 -0.121912 0.498205 0.860778 0.104181
0.287301 0.460044 -0.179677 0.347759 -0.444264 -0.825647
0.301993 0.454354 -0.170428 0.347759 -0.444264 -0.825647
0.225308 0.320719 -0.130821 0.347759 -0.444264 -0.825647
0.210616 0.326408 -0.140070 0.347759 -0.444264 -0.825647
0.287301 0.460044 -0.179677 -0.133097 -0.210656 -0.968457
0.210616 0.326408 -0.140070 -0.133097 -0.210656 -0.968457
0.287301 0.460044 -0.179677 0.010482 0.038662 -0.999197
0.269435 0.470358 -0.179466 0.010482 0.038662 -0.999197
0.286401 0.499716 -0.178152 0.010482 0.038662 -0.999197
0.304266 0.489402 -0.178364 0.010482 0.038662 -0.999197
0.287301 0.460044 -0.179677 0.531490 -0.219709 -0.818075
0.304266 0.489402 -0.178364 0.531490 -0.219709 -0.818075
0.311134 0.478182 -0.169065 0.531490 -0.219709 -0.818075
0.301993 0.454354 -0.170428 0.531490 -0.219709 -0.818075
-0.229216 -0.482340 0.136419 0.806838 -0.547856 0.221057
-0.229803 -0.473622 0.164698 0.806838 -0.547856 0.221057
-0.251259 -0.502791 0.166189 0.806838 -0.547856 0.221057
-0.256600 -0.519698 0.148308 0.806838 -0.547856 0.221057
-0.229216 -0.482340 0.136419 0.751985 -0.634673 -0.178068
-0.256600 -0.519698 0.148308 0.751985 -0.634673 -0.178068
-0.257006 -0.511886 0.124373 0.751985 -0.634673 -0.178068
-0.237562 -0.485901 0.108246 0.751985 -0.634673 -0.178068
-0.229216 -0.482340 0.136419 0.829537 -0.529033 -0.178864
-0.237562 -0.485901 0.108246 0.829537 -0.529033 -0.178864
-0.153631 -0.339640 0.064897 0.829537 -0.529033 -0.178864
-0.145286 -0.336079 0.093070 0.829537 -0.529033 -0.178864
-0.229216 -0.482340 0.136419 0.875924 -0.455615 0.158658
-0.145286 -0.336079 0.093070 0.875924 -0.455615 0.158658
-0.145873 -0.327361 0.121349 0.875924 -0.455615 0.158658
-0.229803 -0.473622 0.164698 0.875924 -0.455615 0.158658
-0.241910 -0.463839 0.174265 0.033894 0.038212 0.998695
-0.266120 -0.505823 0.176693 0.033894 0.038212 0.998695
-0.241910 -0.463839 0.174265 0.523069 -0.291593 0.800857
-0.266120 -0.505823 0.176693 0.523069 -0.291593 0.800857
-0.251259 -0.502791 0.166189 0.523069 -0.291593 0.800857
-0.229803 -0.473622 0.164698 0.523069 -0.291593 0.800857
-0.241910 -0.463839 0.174265 0.573201 -0.087453 0.814735
-0.229803 -0.473622 0.164698 0.573201 -0.087453 0.814735
-0.145873 -0.327361 0.121349 0.573201 -0.087453 0.814735
-0.157980 -0.317579 0.130916 0.573201 -0.087453 0.814735
-0.241910 -0.463839 0.174265 0.133097 0.210656 0.968457
-0.157980 -0.317579 0.130916 0.133097 0.210656 0.968457
-0.259775 -0.453525 0.174477 0.133097 0.210656 0.968457
-0.252254 -0.480211 0.098997 0.314428 -0.621813 -0.717275
-0.237562 -0.485901 0.108246 0.314428 -0.621813 -0.717275
-0.257006 -0.511886 0.124373 0.314428 -0.621813 -0.717275
-0.273878 -0.518102 0.120242 0.314428 -0.621813 -0.717275
-0.252254 -0.480211 0.098997 -0.226910 -0.374571 -0.899004
-0.273878 -0.518102 0.120242 -0.226910 -0.374571 -0.899004
-0.252254 -0.480211 0.098997 -0.133097 -0.210656 -0.968457
-0.168324 -0.333951 0.055648 -0.133097 -0.210656 -0.968457
-0.252254 -0.480211 0.098997 0.347758 -0.444264 -0.825648
-0.168324 -0.333951 0.055648 0.347758 -0.444264 -0.825648
-0.153631 -0.339640 0.064897 0.347758 -0.444264 -0.825648
-0.237562 -0.485901 0.108246 0.347758 -0.444264 -0.825648
0.045391 -0.003796 -0.005413 0.875924 -0.455616 0.158658
0.044804 0.004923 0.022866 0.875924 -0.455616 0.158658
-0.145873 -0.327361 0.121349 0.875924 -0.455616 0.158658
-0.145286 -0.336079 0.093070 0.875924 -0.455616 0.158658
0.045391 -0.003796 -0.005413 0.829537 -0.529033 -0.178865
-0.145286 -0.336079 0.093070 0.829537 -0.529033 -0.178865
-0.153631 -0.339640 0.064897 0.829537 -0.529033 -0.178865
0.037046 -0.007357 -0.033585 0.829537 -0.529033 -0.178865
0.233654 0.324280 -0.102648 0.875924 -0.455616 0.158658
0.233066 0.332998 -0.074369 0.875924 -0.455616 0.158658
0.032698 0.014705 0.032433 0.133097 0.210656 0.968457
0.032698 0.014705 0.032433 0.573200 -0.087452 0.814735
-0.157980 -0.317579 0.130916 0.573200 -0.087452 0.814735
-0.145873 -0.327361 0.121349 0.573200 -0.087452 0.814735
0.044804 0.004923 0.022866 0.573200 -0.087452 0.814735
0.022353 -0.001667 -0.042835 0.347759 -0.444264 -0.825647
0.037046 -0.007357 -0.033585 0.347759 -0.444264 -0.825647
-0.153631 -0.339640 0.064897 0.347759 -0.444264 -0.825647
-0.168324 -0.333951 0.055648 0.347759 -0.444264 -0.825647
0.022353 -0.001667 -0.042835 -0.133097 -0.210656 -0.968457
0.022353 -0.001667 -0.042835 -0.133097 -0.210657 -0.968457
0.004488 0.008648 -0.042623 -0.133097 -0.210657 -0.968457
0.192750 0.336723 -0.139859 -0.133097 -0.210657 -0.968457
0.210616 0.326408 -0.140070 -0.133097 -0.210657 -0.968457
4 0 1 2 3
4 4 5 6 7
4 8 9 10 11
4 12 13 14 15
4 16 17 18 19
4 20 21 22 23
4 24 25 26 27
4 28 29 30 31
4 32 33 34 35
4 36 37 38 39
4 40 41 42 43
4 44 45 46 47
4 48 49 50 51
4 52 53 54 55
4 56 57 58 59
4 60 61 62 63
4 64 65 66 67
4 68 69 70 71
4 72 73 74 75
4 76 77 78 79
4 80 81 82 83
4 84 85 86 87
4 88 89 90 91
4 92 93 94 95
4 96 97 98 99
4 100 101 102 103
4 104 105 106 107
4 108 109 110 111
4 112 113 114 115
4 116 117 118 119
4 120 121 122 123
4 124 125 126 127
4 128 129 130 131
4 132 133 2 1
4 134 15 14 135
4 136 137 90 89
4 138 139 140 141
4 138 141 34 33
4 142 47 46 143
4 142 143 144 145
4 146 147 148 149
4 146 149 66 65
4 150 79 78 151
4 150 151 122 121
4 152 153 154 155
4 156 157 158 159
4 160 161 162 163
4 164 165 166 167
4 168 169 18 17
4 170 31 30 171
4 172 173 174 175
4 176 177 178 179
4 180 35 34 181
4 182 183 184 185
4 186 187 188 189
4 190 191 38 37
4 192 193 194 195
4 196 197 198 199
4 200 201 58 57
4 202 55 54 203
4 204 205 206 207
4 208 209 78 77
4 210 211 212 213
4 214 215 216 217
4 218 219 220 221
4 222 223 224 225
4 226 227 228 229
4 230 231 232 233
4 234 99 98 235
4 236 237 238 239
4 240 241 242 243
4 244 245 140 246
4 247 248 249 250
4 251 252 126 125
4 253 123 122 254
4 255 256 257 258
4 259 260 261 262
4 263 264 265 266
4 263 266 158 157
4 259 267 268 260
4 269 141 140 245
4 270 271 272 273
4 270 273 184 183
4 269 181 34 141
4 274 275 276 277
4 278 254 122 151
4 279 280 281 282
4 274 207 206 275
