ply
format ascii 1.0
comment Created by Blender 2.72 (sub 0) - www.blender.org, source file: 'ralfs hexaboard.blend'
element vertex 284
property float x
property float y
property float z
property float nx
property float ny
property float nz
element face 88
property list uchar uint vertex_indices
end_header
-0.330080 0.605337 0.176882 -0.415137 0.719038 0.557356
-0.344638 0.596931 0.176882 -0.415137 0.719038 0.557356
-0.335601 0.581278 0.203807 -0.415137 0.719038 0.557356
-0.321043 0.589684 0.203807 -0.415137 0.719038 0.557356
-0.330080 0.605337 0.176882 0.307288 0.843355 0.440825
-0.321043 0.589684 0.203807 0.307288 0.843355 0.440825
-0.309867 0.589004 0.194039 0.307288 0.843355 0.440825
-0.313924 0.602569 0.174194 0.307288 0.843355 0.440825
-0.330080 0.605337 0.176882 0.236786 0.965468 -0.108645
-0.313924 0.602569 0.174194 0.236786 0.965468 -0.108645
-0.315496 0.598753 0.150167 0.236786 0.965468 -0.108645
-0.328642 0.602846 0.144581 0.236786 0.965468 -0.108645
-0.330080 0.605337 0.176882 -0.498030 0.862613 -0.088684
-0.328642 0.602846 0.144581 -0.498030 0.862613 -0.088684
-0.343201 0.594441 0.144581 -0.498030 0.862613 -0.088684
-0.344638 0.596931 0.176882 -0.498030 0.862613 -0.088684
0.344064 -0.528695 -0.161644 0.874882 0.466027 0.131908
0.248297 -0.362821 -0.112492 0.874882 0.466027 0.131908
0.248457 -0.371504 -0.082879 0.874882 0.466027 0.131908
0.344224 -0.537378 -0.132030 0.874882 0.466027 0.131908
0.344064 -0.528695 -0.161644 0.921736 0.365385 0.129988
0.344224 -0.537378 -0.132030 0.921736 0.365385 0.129988
0.356903 -0.565876 -0.148174 0.921736 0.365385 0.129988
0.362693 -0.569366 -0.173072 0.921736 0.365385 0.129988
0.344064 -0.528695 -0.161644 0.881516 0.435049 -0.183475
0.362693 -0.569366 -0.173072 0.881516 0.435049 -0.183475
0.351274 -0.556126 -0.192045 0.881516 0.435049 -0.183475
0.336625 -0.524215 -0.191257 0.881516 0.435049 -0.183475
0.344064 -0.528695 -0.161644 0.841032 0.524657 -0.131908
0.336625 -0.524215 -0.191257 0.841032 0.524657 -0.131908
0.240857 -0.358341 -0.142105 0.841032 0.524657 -0.131908
0.248297 -0.362821 -0.112492 0.841032 0.524657 -0.131908
0.324440 -0.528325 -0.201128 -0.124283 0.215264 -0.968615
0.309881 -0.536730 -0.201128 -0.124283 0.215264 -0.968615
0.214114 -0.370856 -0.151976 -0.124283 0.215264 -0.968615
0.228672 -0.362451 -0.151976 -0.124283 0.215264 -0.968615
0.324440 -0.528325 -0.201128 0.447751 0.481726 -0.753299
0.228672 -0.362451 -0.151976 0.447751 0.481726 -0.753299
0.240857 -0.358341 -0.142105 0.447751 0.481726 -0.753299
0.336625 -0.524215 -0.191257 0.447751 0.481726 -0.753299
0.324440 -0.528325 -0.201128 0.595462 0.336417 -0.729553
0.336625 -0.524215 -0.191257 0.595462 0.336417 -0.729553
0.351274 -0.556126 -0.192045 0.595462 0.336417 -0.729553
0.347974 -0.569089 -0.202686 0.595462 0.336417 -0.729553
0.324440 -0.528325 -0.201128 -0.016539 0.028647 -0.999453
0.347974 -0.569089 -0.202686 -0.016539 0.028647 -0.999453
0.333416 -0.577494 -0.202686 -0.016539 0.028647 -0.999453
0.309881 -0.536730 -0.201128 -0.016539 0.028647 -0.999453
-0.304064 0.560274 0.205614 0.124283 -0.215264 0.968615
-0.318622 0.551869 0.205614 0.124283 -0.215264 0.968615
-0.229410 0.397349 0.159827 0.124283 -0.215264 0.968615
-0.214852 0.405754 0.159827 0.124283 -0.215264 0.968615
-0.304064 0.560274 0.205614 0.641062 0.146901 0.753299
-0.214852 0.405754 0.159827 0.641062 0.146901 0.753299
-0.205200 0.414252 0.149955 0.641062 0.146901 0.753299
-0.294412 0.568772 0.195743 0.641062 0.146901 0.753299
-0.304064 0.560274 0.205614 0.541666 0.405968 0.736062
-0.294412 0.568772 0.195743 0.541666 0.405968 0.736062
-0.309867 0.589004 0.194039 0.541666 0.405968 0.736062
-0.321043 0.589684 0.203807 0.541666 0.405968 0.736062
-0.304064 0.560274 0.205614 -0.026562 0.046007 0.998588
-0.321043 0.589684 0.203807 -0.026562 0.046007 0.998588
-0.335601 0.581278 0.203807 -0.026562 0.046007 0.998588
-0.318622 0.551869 0.205614 -0.026562 0.046007 0.998588
0.359197 -0.588526 -0.176882 0.975525 -0.127914 0.178857
0.362693 -0.569366 -0.173072 0.975525 -0.127914 0.178857
0.356903 -0.565876 -0.148174 0.975525 -0.127914 0.178857
0.355574 -0.582251 -0.143459 0.975525 -0.127914 0.178857
0.359197 -0.588526 -0.176882 0.488648 -0.846363 0.211879
0.355574 -0.582251 -0.143459 0.488648 -0.846363 0.211879
0.341015 -0.590656 -0.143459 0.488648 -0.846363 0.211879
0.344638 -0.596931 -0.176882 0.488648 -0.846363 0.211879
0.359197 -0.588526 -0.176882 0.377253 -0.653422 -0.656293
0.344638 -0.596931 -0.176882 0.377253 -0.653422 -0.656293
0.333416 -0.577494 -0.202686 0.377253 -0.653422 -0.656293
0.347974 -0.569089 -0.202686 0.377253 -0.653422 -0.656293
0.359197 -0.588526 -0.176882 0.895482 0.010725 -0.444969
0.347974 -0.569089 -0.202686 0.895482 0.010725 -0.444969
0.351274 -0.556126 -0.192045 0.895482 0.010725 -0.444969
0.362693 -0.569366 -0.173072 0.895482 0.010725 -0.444969
0.020376 0.031949 0.004486 0.874882 0.466027 0.131907
-0.205360 0.422935 0.120342 0.874882 0.466027 0.131907
-0.205200 0.414252 0.149955 0.874882 0.466027 0.131907
0.020536 0.023267 0.034099 0.874882 0.466027 0.131907
0.020376 0.031949 0.004486 0.874883 0.466027 0.131908
0.020536 0.023267 0.034099 0.874883 0.466027 0.131908
0.248457 -0.371504 -0.082879 0.874883 0.466027 0.131908
0.248297 -0.362821 -0.112492 0.874883 0.466027 0.131908
0.020376 0.031949 0.004486 0.841032 0.524657 -0.131907
0.248297 -0.362821 -0.112492 0.841032 0.524657 -0.131907
0.240857 -0.358341 -0.142105 0.841032 0.524657 -0.131907
0.012937 0.036429 -0.025127 0.841032 0.524657 -0.131907
0.020376 0.031949 0.004486 0.841033 0.524657 -0.131907
0.012937 0.036429 -0.025127 0.841033 0.524657 -0.131907
-0.212799 0.427415 0.090729 0.841033 0.524657 -0.131907
-0.205360 0.422935 0.120342 0.841033 0.524657 -0.131907
0.000752 0.032319 -0.034998 -0.124283 0.215264 -0.968615
-0.013807 0.023914 -0.034998 -0.124283 0.215264 -0.968615
-0.239542 0.414899 0.080858 -0.124283 0.215264 -0.968615
-0.224984 0.423304 0.080858 -0.124283 0.215264 -0.968615
0.000752 0.032319 -0.034998 0.447750 0.481725 -0.753300
-0.224984 0.423304 0.080858 0.447750 0.481725 -0.753300
-0.212799 0.427415 0.090729 0.447750 0.481725 -0.753300
0.012937 0.036429 -0.025127 0.447750 0.481725 -0.753300
0.000752 0.032319 -0.034998 0.447750 0.481726 -0.753300
0.012937 0.036429 -0.025127 0.447750 0.481726 -0.753300
0.240857 -0.358341 -0.142105 0.447750 0.481726 -0.753300
0.228672 -0.362451 -0.151976 0.447750 0.481726 -0.753300
0.334572 -0.545875 -0.122159 0.226137 -0.391681 0.891879
0.320014 -0.554280 -0.122159 0.226137 -0.391681 0.891879
0.341015 -0.590656 -0.143459 0.226137 -0.391681 0.891879
0.355574 -0.582251 -0.143459 0.226137 -0.391681 0.891879
0.334572 -0.545875 -0.122159 0.770718 0.032865 0.636328
0.355574 -0.582251 -0.143459 0.770718 0.032865 0.636328
0.356903 -0.565876 -0.148174 0.770718 0.032865 0.636328
0.344224 -0.537378 -0.132030 0.770718 0.032865 0.636328
0.334572 -0.545875 -0.122159 0.641062 0.146901 0.753299
0.344224 -0.537378 -0.132030 0.641062 0.146901 0.753299
0.248457 -0.371504 -0.082879 0.641062 0.146901 0.753299
0.238805 -0.380001 -0.073008 0.641062 0.146901 0.753299
0.334572 -0.545875 -0.122159 0.124283 -0.215264 0.968615
0.238805 -0.380001 -0.073008 0.124283 -0.215264 0.968615
0.224246 -0.388406 -0.073008 0.124283 -0.215264 0.968615
0.320014 -0.554280 -0.122159 0.124283 -0.215264 0.968615
0.010884 0.014769 0.043970 0.124283 -0.215264 0.968615
-0.003674 0.006364 0.043970 0.124283 -0.215264 0.968615
0.010884 0.014769 0.043970 0.641062 0.146900 0.753299
0.238805 -0.380001 -0.073008 0.641062 0.146900 0.753299
0.248457 -0.371504 -0.082879 0.641062 0.146900 0.753299
0.020536 0.023267 0.034099 0.641062 0.146900 0.753299
0.010884 0.014769 0.043970 0.641062 0.146900 0.753300
0.020536 0.023267 0.034099 0.641062 0.146900 0.753300
-0.205200 0.414252 0.149955 0.641062 0.146900 0.753300
-0.214852 0.405754 0.159827 0.641062 0.146900 0.753300
-0.294572 0.577455 0.166129 0.791178 0.580167 0.193506
-0.313924 0.602569 0.174194 0.791178 0.580167 0.193506
-0.309867 0.589004 0.194039 0.791178 0.580167 0.193506
-0.294412 0.568772 0.195743 0.791178 0.580167 0.193506
-0.294572 0.577455 0.166129 0.874882 0.466027 0.131907
-0.294412 0.568772 0.195743 0.874882 0.466027 0.131907
-0.294572 0.577455 0.166129 0.841033 0.524657 -0.131907
-0.302011 0.581934 0.136516 0.841033 0.524657 -0.131907
-0.294572 0.577455 0.166129 0.751189 0.649428 -0.118143
-0.302011 0.581934 0.136516 0.751189 0.649428 -0.118143
-0.315496 0.598753 0.150167 0.751189 0.649428 -0.118143
-0.313924 0.602569 0.174194 0.751189 0.649428 -0.118143
-0.314196 0.577824 0.126645 -0.263705 0.456751 -0.849611
-0.328754 0.569419 0.126645 -0.263705 0.456751 -0.849611
-0.343201 0.594441 0.144581 -0.263705 0.456751 -0.849611
-0.328642 0.602846 0.144581 -0.263705 0.456751 -0.849611
-0.314196 0.577824 0.126645 0.369437 0.704278 -0.606225
-0.328642 0.602846 0.144581 0.369437 0.704278 -0.606225
-0.315496 0.598753 0.150167 0.369437 0.704278 -0.606225
-0.302011 0.581934 0.136516 0.369437 0.704278 -0.606225
-0.314196 0.577824 0.126645 0.447750 0.481726 -0.753300
-0.302011 0.581934 0.136516 0.447750 0.481726 -0.753300
-0.212799 0.427415 0.090729 0.447750 0.481726 -0.753300
-0.224984 0.423304 0.080858 0.447750 0.481726 -0.753300
-0.314196 0.577824 0.126645 -0.124283 0.215264 -0.968615
-0.328754 0.569419 0.126645 -0.124283 0.215264 -0.968615
-0.359197 0.588526 0.176882 -0.415137 0.719038 0.557356
-0.350159 0.572873 0.203807 -0.415137 0.719038 0.557356
-0.359197 0.588526 0.176882 -0.498030 0.862613 -0.088684
-0.357759 0.586036 0.144581 -0.498030 0.862613 -0.088684
-0.359197 0.588526 0.176882 -0.954513 0.277671 -0.108645
-0.357759 0.586036 0.144581 -0.954513 0.277671 -0.108645
-0.360788 0.572604 0.150167 -0.954513 0.277671 -0.108645
-0.364878 0.573151 0.174194 -0.954513 0.277671 -0.108645
-0.359197 0.588526 0.176882 -0.884011 0.155557 0.440825
-0.364878 0.573151 0.174194 -0.884011 0.155557 0.440825
-0.355159 0.562854 0.194039 -0.884011 0.155557 0.440825
-0.350159 0.572873 0.203807 -0.884011 0.155557 0.440825
0.285831 -0.562316 -0.161644 -0.841032 -0.524657 0.131907
0.293271 -0.566796 -0.132030 -0.841032 -0.524657 0.131907
0.197503 -0.400922 -0.082879 -0.841032 -0.524657 0.131907
0.190064 -0.396442 -0.112492 -0.841032 -0.524657 0.131907
0.285831 -0.562316 -0.161644 -0.874882 -0.466027 -0.131907
0.190064 -0.396442 -0.112492 -0.874882 -0.466027 -0.131907
0.189904 -0.387759 -0.142105 -0.874882 -0.466027 -0.131907
0.285671 -0.553633 -0.191257 -0.874882 -0.466027 -0.131907
0.285831 -0.562316 -0.161644 -0.817521 -0.545890 -0.183476
0.285671 -0.553633 -0.191257 -0.817521 -0.545890 -0.183476
0.305982 -0.582275 -0.192045 -0.817521 -0.545890 -0.183476
0.311739 -0.598784 -0.173072 -0.817521 -0.545890 -0.183476
0.285831 -0.562316 -0.161644 -0.777301 -0.615554 0.129989
0.311739 -0.598784 -0.173072 -0.777301 -0.615554 0.129989
0.311611 -0.592025 -0.148174 -0.777301 -0.615554 0.129989
0.293271 -0.566796 -0.132030 -0.777301 -0.615554 0.129989
0.295323 -0.545136 -0.201128 -0.124283 0.215264 -0.968615
0.199556 -0.379262 -0.151976 -0.124283 0.215264 -0.968615
0.295323 -0.545136 -0.201128 -0.016539 0.028647 -0.999453
0.318858 -0.585899 -0.202686 -0.016539 0.028647 -0.999453
0.295323 -0.545136 -0.201128 -0.589078 -0.347477 -0.729552
0.318858 -0.585899 -0.202686 -0.589078 -0.347477 -0.729552
0.305982 -0.582275 -0.192045 -0.589078 -0.347477 -0.729552
0.285671 -0.553633 -0.191257 -0.589078 -0.347477 -0.729552
0.295323 -0.545136 -0.201128 -0.641062 -0.146901 -0.753299
0.285671 -0.553633 -0.191257 -0.641062 -0.146901 -0.753299
0.189904 -0.387759 -0.142105 -0.641062 -0.146901 -0.753299
0.199556 -0.379262 -0.151976 -0.641062 -0.146901 -0.753299
-0.333180 0.543464 0.205614 0.124283 -0.215264 0.968615
-0.243968 0.388944 0.159827 0.124283 -0.215264 0.968615
-0.333180 0.543464 0.205614 -0.026562 0.046007 0.998588
-0.350159 0.572873 0.203807 -0.026562 0.046007 0.998588
-0.333180 0.543464 0.205614 -0.622411 -0.266114 0.736062
-0.350159 0.572873 0.203807 -0.622411 -0.266114 0.736062
-0.355159 0.562854 0.194039 -0.622411 -0.266114 0.736062
-0.345365 0.539354 0.195743 -0.622411 -0.266114 0.736062
-0.333180 0.543464 0.205614 -0.447750 -0.481725 0.753299
-0.345365 0.539354 0.195743 -0.447750 -0.481725 0.753299
-0.256153 0.384834 0.149955 -0.447750 -0.481725 0.753299
-0.243968 0.388944 0.159827 -0.447750 -0.481725 0.753299
0.330080 -0.605337 -0.176882 -0.376987 -0.908785 0.178858
0.326457 -0.599061 -0.143459 -0.376987 -0.908785 0.178858
0.311611 -0.592025 -0.148174 -0.376987 -0.908785 0.178858
0.311739 -0.598784 -0.173072 -0.376987 -0.908785 0.178858
0.330080 -0.605337 -0.176882 -0.457030 -0.770147 -0.444969
0.311739 -0.598784 -0.173072 -0.457030 -0.770147 -0.444969
0.305982 -0.582275 -0.192045 -0.457030 -0.770147 -0.444969
0.318858 -0.585899 -0.202686 -0.457030 -0.770147 -0.444969
0.330080 -0.605337 -0.176882 0.377253 -0.653422 -0.656293
0.318858 -0.585899 -0.202686 0.377253 -0.653422 -0.656293
0.330080 -0.605337 -0.176882 0.488648 -0.846363 0.211879
0.326457 -0.599061 -0.143459 0.488648 -0.846363 0.211879
-0.037857 -0.001671 0.004486 -0.841033 -0.524657 0.131907
-0.030417 -0.006151 0.034099 -0.841033 -0.524657 0.131907
-0.256153 0.384834 0.149955 -0.841033 -0.524657 0.131907
-0.263592 0.389314 0.120342 -0.841033 -0.524657 0.131907
-0.037857 -0.001671 0.004486 -0.874882 -0.466027 -0.131907
-0.263592 0.389314 0.120342 -0.874882 -0.466027 -0.131907
-0.263752 0.397997 0.090729 -0.874882 -0.466027 -0.131907
-0.038017 0.007011 -0.025127 -0.874882 -0.466027 -0.131907
0.190064 -0.396442 -0.112492 -0.841033 -0.524657 0.131907
0.197503 -0.400922 -0.082879 -0.841033 -0.524657 0.131907
-0.028365 0.015509 -0.034998 -0.124283 0.215264 -0.968615
-0.254100 0.406494 0.080858 -0.124283 0.215264 -0.968615
-0.028365 0.015509 -0.034998 -0.641062 -0.146900 -0.753299
0.199556 -0.379262 -0.151976 -0.641062 -0.146900 -0.753299
0.189904 -0.387759 -0.142105 -0.641062 -0.146900 -0.753299
-0.038017 0.007011 -0.025127 -0.641062 -0.146900 -0.753299
-0.263752 0.397997 0.090729 -0.641062 -0.146900 -0.753299
-0.254100 0.406494 0.080858 -0.641062 -0.146900 -0.753299
0.305456 -0.562685 -0.122159 0.226137 -0.391681 0.891879
0.326457 -0.599061 -0.143459 0.226137 -0.391681 0.891879
0.305456 -0.562685 -0.122159 0.124283 -0.215264 0.968615
0.209688 -0.396811 -0.073008 0.124283 -0.215264 0.968615
0.305456 -0.562685 -0.122159 -0.447750 -0.481726 0.753300
0.209688 -0.396811 -0.073008 -0.447750 -0.481726 0.753300
0.197503 -0.400922 -0.082879 -0.447750 -0.481726 0.753300
0.293271 -0.566796 -0.132030 -0.447750 -0.481726 0.753300
0.305456 -0.562685 -0.122159 -0.413823 -0.651029 0.636327
0.293271 -0.566796 -0.132030 -0.413823 -0.651029 0.636327
0.311611 -0.592025 -0.148174 -0.413823 -0.651029 0.636327
0.326457 -0.599061 -0.143459 -0.413823 -0.651029 0.636327
-0.018232 -0.002041 0.043970 0.124283 -0.215264 0.968615
-0.018232 -0.002041 0.043970 -0.447750 -0.481726 0.753300
-0.243968 0.388944 0.159827 -0.447750 -0.481726 0.753300
-0.256153 0.384834 0.149955 -0.447750 -0.481726 0.753300
-0.030417 -0.006151 0.034099 -0.447750 -0.481726 0.753300
-0.018232 -0.002041 0.043970 -0.447750 -0.481725 0.753300
-0.030417 -0.006151 0.034099 -0.447750 -0.481725 0.753300
0.197503 -0.400922 -0.082879 -0.447750 -0.481725 0.753300
0.209688 -0.396811 -0.073008 -0.447750 -0.481725 0.753300
-0.352804 0.543834 0.166129 -0.898027 -0.395098 0.193506
-0.345365 0.539354 0.195743 -0.898027 -0.395098 0.193506
-0.355159 0.562854 0.194039 -0.898027 -0.395098 0.193506
-0.364878 0.573151 0.174194 -0.898027 -0.395098 0.193506
-0.352804 0.543834 0.166129 -0.938015 -0.325837 -0.118143
-0.364878 0.573151 0.174194 -0.938015 -0.325837 -0.118143
-0.360788 0.572604 0.150167 -0.938015 -0.325837 -0.118143
-0.352964 0.552516 0.136516 -0.938015 -0.325837 -0.118143
-0.352804 0.543834 0.166129 -0.874882 -0.466027 -0.131907
-0.352964 0.552516 0.136516 -0.874882 -0.466027 -0.131907
-0.352804 0.543834 0.166129 -0.841033 -0.524657 0.131907
-0.345365 0.539354 0.195743 -0.841033 -0.524657 0.131907
-0.343312 0.561014 0.126645 -0.263705 0.456751 -0.849611
-0.357759 0.586036 0.144581 -0.263705 0.456751 -0.849611
-0.343312 0.561014 0.126645 -0.124283 0.215264 -0.968615
-0.343312 0.561014 0.126645 -0.641062 -0.146900 -0.753299
-0.352964 0.552516 0.136516 -0.641062 -0.146900 -0.753299
-0.343312 0.561014 0.126645 -0.794641 0.032196 -0.606226
-0.352964 0.552516 0.136516 -0.794641 0.032196 -0.606226
-0.360788 0.572604 0.150167 -0.794641 0.032196 -0.606226
-0.357759 0.586036 0.144581 -0.794641 0.032196 -0.606226
4 0 1 2 3
4 4 5 6 7
4 8 9 10 11
4 12 13 14 15
4 16 17 18 19
4 20 21 22 23
4 24 25 26 27
4 28 29 30 31
4 32 33 34 35
4 36 37 38 39
4 40 41 42 43
4 44 45 46 47
4 48 49 50 51
4 52 53 54 55
4 56 57 58 59
4 60 61 62 63
4 64 65 66 67
4 68 69 70 71
4 72 73 74 75
4 76 77 78 79
4 80 81 82 83
4 84 85 86 87
4 88 89 90 91
4 92 93 94 95
4 96 97 98 99
4 100 101 102 103
4 104 105 106 107
4 96 35 34 97
4 108 109 110 111
4 112 113 114 115
4 116 117 118 119
4 120 121 122 123
4 124 125 122 121
4 126 127 128 129
4 130 131 132 133
4 124 51 50 125
4 134 135 136 137
4 138 139 82 81
4 140 95 94 141
4 142 143 144 145
4 146 147 148 149
4 150 151 152 153
4 154 155 156 157
4 158 99 98 159
4 160 161 2 1
4 162 15 14 163
4 164 165 166 167
4 168 169 170 171
4 172 173 174 175
4 176 177 178 179
4 180 181 182 183
4 184 185 186 187
4 188 189 34 33
4 190 47 46 191
4 192 193 194 195
4 196 197 198 199
4 200 201 50 49
4 202 63 62 203
4 204 205 206 207
4 208 209 210 211
4 212 213 214 215
4 216 217 218 219
4 220 221 74 73
4 222 71 70 223
4 224 225 226 227
4 228 229 230 231
4 228 231 178 177
4 224 232 233 225
4 234 235 98 97
4 234 97 34 189
4 236 237 238 239
4 236 239 240 241
4 242 243 110 109
4 244 123 122 245
4 246 247 248 249
4 250 251 252 253
4 254 245 122 125
4 254 125 50 201
4 255 256 257 258
4 259 260 261 262
4 263 264 265 266
4 267 268 269 270
4 271 272 230 229
4 273 227 226 274
4 275 276 148 147
4 277 159 98 235
4 278 241 240 279
4 280 281 282 283
