ply
format ascii 1.0
comment Created by Blender 2.72 (sub 0) - www.blender.org, source file: 'ralfs hexaboard.blend'
element vertex 276
property float x
property float y
property float z
property float nx
property float ny
property float nz
element face 88
property list uchar uint vertex_indices
end_header
-0.491809 -0.012907 -0.173151 -0.985541 0.000001 0.169440
-0.487398 -0.012907 -0.147496 -0.985541 0.000001 0.169440
-0.487398 -0.000000 -0.147496 -0.985541 0.000001 0.169440
-0.491809 -0.000000 -0.173151 -0.985541 0.000001 0.169440
-0.491809 -0.012907 -0.173151 -0.588768 -0.794042 0.151159
-0.479848 -0.022588 -0.168940 -0.588768 -0.794042 0.151159
-0.476138 -0.020078 -0.149780 -0.588768 -0.794042 0.151159
-0.487398 -0.012907 -0.147496 -0.588768 -0.794042 0.151159
-0.491809 -0.012907 -0.173151 -0.364206 -0.794042 -0.486673
-0.472298 -0.012907 -0.190385 -0.364206 -0.794042 -0.486673
-0.464952 -0.020078 -0.181550 -0.364206 -0.794042 -0.486673
-0.479848 -0.022588 -0.168940 -0.364206 -0.794042 -0.486673
-0.491809 -0.012907 -0.173151 -0.662011 0.000002 -0.749494
-0.491809 -0.000000 -0.173151 -0.662011 0.000002 -0.749494
-0.472298 -0.000000 -0.190385 -0.662011 0.000002 -0.749494
-0.472298 -0.012907 -0.190385 -0.662011 0.000002 -0.749494
0.457629 -0.025815 0.161118 -0.046667 -0.990077 0.132550
0.450079 -0.022588 0.182562 -0.046667 -0.990077 0.132550
0.321998 -0.022588 0.137469 -0.046667 -0.990077 0.132550
0.329548 -0.025815 0.116024 -0.046667 -0.990077 0.132550
0.457629 -0.025815 0.161118 0.075983 -0.976221 0.203025
0.483264 -0.022588 0.170143 0.075983 -0.976221 0.203025
0.471025 -0.020078 0.183688 0.075983 -0.976221 0.203025
0.450079 -0.022588 0.182562 0.075983 -0.976221 0.203025
0.457629 -0.025815 0.161118 0.186416 -0.976221 -0.110643
0.465179 -0.022588 0.139673 0.186416 -0.976221 -0.110643
0.482210 -0.020078 0.151918 0.186416 -0.976221 -0.110643
0.483264 -0.022588 0.170143 0.186416 -0.976221 -0.110643
0.457629 -0.025815 0.161118 0.046667 -0.990077 -0.132550
0.329548 -0.025815 0.116024 0.046667 -0.990077 -0.132550
0.337098 -0.022588 0.094580 0.046667 -0.990077 -0.132550
0.465179 -0.022588 0.139673 0.046667 -0.990077 -0.132550
0.491809 -0.012907 0.173151 0.497164 -0.711692 0.496309
0.475714 -0.012907 0.191587 0.497164 -0.711692 0.496309
0.471025 -0.020078 0.183688 0.497164 -0.711692 0.496309
0.483264 -0.022588 0.170143 0.497164 -0.711692 0.496309
0.491809 -0.012907 0.173151 0.753321 -0.000002 0.657653
0.491809 0.000000 0.173151 0.753321 -0.000002 0.657653
0.475714 0.000000 0.191587 0.753321 -0.000002 0.657653
0.475714 -0.012907 0.191587 0.753321 -0.000002 0.657653
0.491809 -0.012907 0.173151 0.999173 -0.000001 -0.040652
0.490814 -0.012907 0.148698 0.999173 -0.000001 -0.040652
0.490814 0.000000 0.148698 0.999173 -0.000001 -0.040652
0.491809 0.000000 0.173151 0.999173 -0.000001 -0.040652
0.491809 -0.012907 0.173151 0.698437 -0.711691 -0.075373
0.483264 -0.022588 0.170143 0.698437 -0.711691 -0.075373
0.482210 -0.020078 0.151918 0.698437 -0.711691 -0.075373
0.490814 -0.012907 0.148698 0.698437 -0.711691 -0.075373
-0.433899 -0.012907 -0.184900 0.261493 -0.616420 -0.742729
-0.295570 -0.012907 -0.136198 0.261493 -0.616420 -0.742729
-0.298086 -0.022588 -0.129050 0.261493 -0.616420 -0.742729
-0.436415 -0.022588 -0.177752 0.261493 -0.616420 -0.742729
-0.433899 -0.012907 -0.184900 0.332090 0.000000 -0.943248
-0.433899 -0.000000 -0.184900 0.332090 0.000000 -0.943248
-0.295570 -0.000000 -0.136198 0.332090 0.000000 -0.943248
-0.295570 -0.012907 -0.136198 0.332090 0.000000 -0.943248
-0.433899 -0.012907 -0.184900 0.141406 0.000001 -0.989952
-0.472298 -0.012907 -0.190385 0.141406 0.000001 -0.989952
-0.472298 -0.000000 -0.190385 0.141406 0.000001 -0.989952
-0.433899 -0.000000 -0.184900 0.141406 0.000001 -0.989952
-0.433899 -0.012907 -0.184900 0.076545 -0.674518 -0.734280
-0.436415 -0.022588 -0.177752 0.076545 -0.674518 -0.734280
-0.464952 -0.020078 -0.181550 0.076545 -0.674518 -0.734280
-0.472298 -0.012907 -0.190385 0.076545 -0.674518 -0.734280
0.447563 -0.012907 0.189710 -0.261493 -0.616421 0.742729
0.319482 -0.012907 0.144617 -0.261493 -0.616421 0.742729
0.321998 -0.022588 0.137469 -0.261493 -0.616421 0.742729
0.450079 -0.022588 0.182562 -0.261493 -0.616421 0.742729
0.447563 -0.012907 0.189710 -0.332090 0.000000 0.943248
0.447563 0.000000 0.189710 -0.332090 0.000000 0.943248
0.319482 0.000000 0.144617 -0.332090 0.000000 0.943248
0.319482 -0.012907 0.144617 -0.332090 0.000000 0.943248
0.447563 -0.012907 0.189710 -0.066528 -0.000001 0.997784
0.475714 -0.012907 0.191587 -0.066528 -0.000001 0.997784
0.475714 0.000000 0.191587 -0.066528 -0.000001 0.997784
0.447563 0.000000 0.189710 -0.066528 -0.000001 0.997784
0.447563 -0.012907 0.189710 -0.011656 -0.665182 0.746590
0.450079 -0.022588 0.182562 -0.011656 -0.665182 0.746590
0.471025 -0.020078 0.183688 -0.011656 -0.665182 0.746590
0.475714 -0.012907 0.191587 -0.011656 -0.665182 0.746590
0.013664 -0.025815 0.004811 -0.046667 -0.990077 0.132550
0.006114 -0.022588 0.026255 -0.046667 -0.990077 0.132550
-0.313186 -0.022588 -0.086161 -0.046667 -0.990077 0.132550
-0.305636 -0.025815 -0.107606 -0.046667 -0.990077 0.132550
0.013664 -0.025815 0.004811 0.046667 -0.990077 -0.132550
0.021214 -0.022588 -0.016634 0.046667 -0.990077 -0.132550
-0.305636 -0.025815 -0.107606 0.046667 -0.990077 -0.132550
-0.298086 -0.022588 -0.129050 0.046667 -0.990077 -0.132550
0.467696 -0.012907 0.132525 0.458643 -0.665182 -0.589219
0.490814 -0.012907 0.148698 0.458643 -0.665182 -0.589219
0.482210 -0.020078 0.151918 0.458643 -0.665182 -0.589219
0.465179 -0.022588 0.139673 0.458643 -0.665182 -0.589219
0.467696 -0.012907 0.132525 0.573244 -0.000001 -0.819385
0.467696 0.000000 0.132525 0.573244 -0.000001 -0.819385
0.490814 0.000000 0.148698 0.573244 -0.000001 -0.819385
0.490814 -0.012907 0.148698 0.573244 -0.000001 -0.819385
0.467696 -0.012907 0.132525 0.332090 0.000000 -0.943248
0.339615 -0.012907 0.087432 0.332090 0.000000 -0.943248
0.339615 0.000000 0.087432 0.332090 0.000000 -0.943248
0.467696 0.000000 0.132525 0.332090 0.000000 -0.943248
0.467696 -0.012907 0.132525 0.261493 -0.616420 -0.742730
0.465179 -0.022588 0.139673 0.261493 -0.616420 -0.742730
0.337098 -0.022588 0.094580 0.261493 -0.616420 -0.742730
0.339615 -0.012907 0.087432 0.261493 -0.616420 -0.742730
0.003597 -0.012907 0.033403 -0.261493 -0.616420 0.742730
-0.315703 -0.012907 -0.079013 -0.261493 -0.616420 0.742730
-0.313186 -0.022588 -0.086161 -0.261493 -0.616420 0.742730
0.006114 -0.022588 0.026255 -0.261493 -0.616420 0.742730
0.003597 -0.012907 0.033403 -0.332090 0.000000 0.943248
0.003597 0.000000 0.033403 -0.332090 0.000000 0.943248
-0.315703 -0.000000 -0.079013 -0.332090 0.000000 0.943248
-0.315703 -0.012907 -0.079013 -0.332090 0.000000 0.943248
0.321998 -0.022588 0.137469 -0.261493 -0.616420 0.742730
0.319482 -0.012907 0.144617 -0.261493 -0.616420 0.742730
0.023731 -0.012907 -0.023782 0.261493 -0.616420 -0.742730
0.021214 -0.022588 -0.016634 0.261493 -0.616420 -0.742730
0.023731 -0.012907 -0.023782 0.332090 0.000000 -0.943248
0.023731 0.000000 -0.023782 0.332090 0.000000 -0.943248
-0.298086 -0.022588 -0.129050 0.261493 -0.616420 -0.742730
-0.295570 -0.012907 -0.136198 0.261493 -0.616420 -0.742730
-0.443965 -0.025815 -0.156307 -0.149656 -0.980878 0.124426
-0.451515 -0.022588 -0.134863 -0.149656 -0.980878 0.124426
-0.476138 -0.020078 -0.149780 -0.149656 -0.980878 0.124426
-0.479848 -0.022588 -0.168940 -0.149656 -0.980878 0.124426
-0.443965 -0.025815 -0.156307 -0.046667 -0.990077 0.132550
-0.451515 -0.022588 -0.134863 -0.046667 -0.990077 0.132550
-0.443965 -0.025815 -0.156307 0.046667 -0.990077 -0.132550
-0.436415 -0.022588 -0.177752 0.046667 -0.990077 -0.132550
-0.443965 -0.025815 -0.156307 -0.038696 -0.980878 -0.190739
-0.479848 -0.022588 -0.168940 -0.038696 -0.980878 -0.190739
-0.464952 -0.020078 -0.181550 -0.038696 -0.980878 -0.190739
-0.436415 -0.022588 -0.177752 -0.038696 -0.980878 -0.190739
-0.454032 -0.012907 -0.127714 -0.400354 -0.674518 0.620276
-0.487398 -0.012907 -0.147496 -0.400354 -0.674518 0.620276
-0.476138 -0.020078 -0.149780 -0.400354 -0.674518 0.620276
-0.451515 -0.022588 -0.134863 -0.400354 -0.674518 0.620276
-0.454032 -0.012907 -0.127714 -0.509974 0.000001 0.860190
-0.454032 -0.000000 -0.127714 -0.509974 0.000001 0.860190
-0.487398 -0.000000 -0.147496 -0.509974 0.000001 0.860190
-0.487398 -0.012907 -0.147496 -0.509974 0.000001 0.860190
-0.454032 -0.012907 -0.127714 -0.332090 0.000000 0.943248
-0.454032 -0.000000 -0.127714 -0.332090 0.000000 0.943248
-0.454032 -0.012907 -0.127714 -0.261493 -0.616420 0.742730
-0.451515 -0.022588 -0.134863 -0.261493 -0.616420 0.742730
-0.491809 0.012907 -0.173151 -0.985541 -0.000001 0.169440
-0.491809 -0.000000 -0.173151 -0.985541 -0.000001 0.169440
-0.487398 -0.000000 -0.147496 -0.985541 -0.000001 0.169440
-0.487398 0.012907 -0.147496 -0.985541 -0.000001 0.169440
-0.491809 0.012907 -0.173151 -0.662011 -0.000002 -0.749494
-0.472298 0.012907 -0.190385 -0.662011 -0.000002 -0.749494
-0.472298 -0.000000 -0.190385 -0.662011 -0.000002 -0.749494
-0.491809 -0.000000 -0.173151 -0.662011 -0.000002 -0.749494
-0.491809 0.012907 -0.173151 -0.364206 0.794042 -0.486673
-0.479848 0.022588 -0.168940 -0.364206 0.794042 -0.486673
-0.464952 0.020078 -0.181550 -0.364206 0.794042 -0.486673
-0.472298 0.012907 -0.190385 -0.364206 0.794042 -0.486673
-0.491809 0.012907 -0.173151 -0.588768 0.794042 0.151159
-0.487398 0.012907 -0.147496 -0.588768 0.794042 0.151159
-0.476138 0.020078 -0.149780 -0.588768 0.794042 0.151159
-0.479848 0.022588 -0.168940 -0.588768 0.794042 0.151159
0.457629 0.025815 0.161118 -0.046667 0.990077 0.132550
0.329548 0.025815 0.116024 -0.046667 0.990077 0.132550
0.321998 0.022588 0.137469 -0.046667 0.990077 0.132550
0.450079 0.022588 0.182562 -0.046667 0.990077 0.132550
0.457629 0.025815 0.161118 0.046667 0.990077 -0.132550
0.465179 0.022588 0.139673 0.046667 0.990077 -0.132550
0.337098 0.022588 0.094580 0.046667 0.990077 -0.132550
0.329548 0.025815 0.116024 0.046667 0.990077 -0.132550
0.457629 0.025815 0.161118 0.186416 0.976221 -0.110643
0.483264 0.022588 0.170143 0.186416 0.976221 -0.110643
0.482210 0.020078 0.151918 0.186416 0.976221 -0.110643
0.465179 0.022588 0.139673 0.186416 0.976221 -0.110643
0.457629 0.025815 0.161118 0.075982 0.976221 0.203025
0.450079 0.022588 0.182562 0.075982 0.976221 0.203025
0.471025 0.020078 0.183688 0.075982 0.976221 0.203025
0.483264 0.022588 0.170143 0.075982 0.976221 0.203025
0.491809 0.012907 0.173151 0.497164 0.711692 0.496309
0.483264 0.022588 0.170143 0.497164 0.711692 0.496309
0.471025 0.020078 0.183688 0.497164 0.711692 0.496309
0.475714 0.012907 0.191587 0.497164 0.711692 0.496309
0.491809 0.012907 0.173151 0.698437 0.711692 -0.075373
0.490814 0.012907 0.148698 0.698437 0.711692 -0.075373
0.482210 0.020078 0.151918 0.698437 0.711692 -0.075373
0.483264 0.022588 0.170143 0.698437 0.711692 -0.075373
0.491809 0.012907 0.173151 0.999173 0.000001 -0.040652
0.491809 0.000000 0.173151 0.999173 0.000001 -0.040652
0.490814 0.000000 0.148698 0.999173 0.000001 -0.040652
0.490814 0.012907 0.148698 0.999173 0.000001 -0.040652
0.491809 0.012907 0.173151 0.753321 0.000002 0.657653
0.475714 0.012907 0.191587 0.753321 0.000002 0.657653
0.475714 0.000000 0.191587 0.753321 0.000002 0.657653
0.491809 0.000000 0.173151 0.753321 0.000002 0.657653
-0.433899 0.012907 -0.184900 0.261493 0.616420 -0.742730
-0.436415 0.022588 -0.177752 0.261493 0.616420 -0.742730
-0.298086 0.022588 -0.129050 0.261493 0.616420 -0.742730
-0.295570 0.012907 -0.136198 0.261493 0.616420 -0.742730
-0.433899 0.012907 -0.184900 0.076545 0.674518 -0.734280
-0.472298 0.012907 -0.190385 0.076545 0.674518 -0.734280
-0.464952 0.020078 -0.181550 0.076545 0.674518 -0.734280
-0.436415 0.022588 -0.177752 0.076545 0.674518 -0.734280
-0.433899 0.012907 -0.184900 0.141406 -0.000001 -0.989952
-0.433899 -0.000000 -0.184900 0.141406 -0.000001 -0.989952
-0.472298 -0.000000 -0.190385 0.141406 -0.000001 -0.989952
-0.472298 0.012907 -0.190385 0.141406 -0.000001 -0.989952
-0.433899 0.012907 -0.184900 0.332090 0.000000 -0.943248
-0.295570 0.012907 -0.136198 0.332090 0.000000 -0.943248
0.447563 0.012907 0.189710 -0.261493 0.616421 0.742729
0.450079 0.022588 0.182562 -0.261493 0.616421 0.742729
0.321998 0.022588 0.137469 -0.261493 0.616421 0.742729
0.319482 0.012907 0.144617 -0.261493 0.616421 0.742729
0.447563 0.012907 0.189710 -0.011656 0.665183 0.746590
0.475714 0.012907 0.191587 -0.011656 0.665183 0.746590
0.471025 0.020078 0.183688 -0.011656 0.665183 0.746590
0.450079 0.022588 0.182562 -0.011656 0.665183 0.746590
0.447563 0.012907 0.189710 -0.066528 0.000001 0.997784
0.447563 0.000000 0.189710 -0.066528 0.000001 0.997784
0.475714 0.000000 0.191587 -0.066528 0.000001 0.997784
0.475714 0.012907 0.191587 -0.066528 0.000001 0.997784
0.447563 0.012907 0.189710 -0.332090 0.000000 0.943248
0.319482 0.012907 0.144617 -0.332090 0.000000 0.943248
0.013664 0.025815 0.004811 -0.046667 0.990077 0.132550
-0.305636 0.025815 -0.107606 -0.046667 0.990077 0.132550
-0.313186 0.022588 -0.086161 -0.046667 0.990077 0.132550
0.006114 0.022588 0.026255 -0.046667 0.990077 0.132550
0.013664 0.025815 0.004811 0.046667 0.990077 -0.132550
0.021214 0.022588 -0.016634 0.046667 0.990077 -0.132550
-0.298086 0.022588 -0.129050 0.046667 0.990077 -0.132550
-0.305636 0.025815 -0.107606 0.046667 0.990077 -0.132550
0.467696 0.012907 0.132525 0.458642 0.665182 -0.589219
0.465179 0.022588 0.139673 0.458642 0.665182 -0.589219
0.482210 0.020078 0.151918 0.458642 0.665182 -0.589219
0.490814 0.012907 0.148698 0.458642 0.665182 -0.589219
0.467696 0.012907 0.132525 0.261493 0.616420 -0.742730
0.339615 0.012907 0.087432 0.261493 0.616420 -0.742730
0.337098 0.022588 0.094580 0.261493 0.616420 -0.742730
0.465179 0.022588 0.139673 0.261493 0.616420 -0.742730
0.467696 0.012907 0.132525 0.332090 0.000000 -0.943248
0.339615 0.012907 0.087432 0.332090 0.000000 -0.943248
0.467696 0.012907 0.132525 0.573244 0.000001 -0.819385
0.490814 0.012907 0.148698 0.573244 0.000001 -0.819385
0.490814 0.000000 0.148698 0.573244 0.000001 -0.819385
0.467696 0.000000 0.132525 0.573244 0.000001 -0.819385
0.003597 0.012907 0.033403 -0.261493 0.616420 0.742730
0.006114 0.022588 0.026255 -0.261493 0.616420 0.742730
-0.313186 0.022588 -0.086161 -0.261493 0.616420 0.742730
-0.315703 0.012907 -0.079013 -0.261493 0.616420 0.742730
0.319482 0.012907 0.144617 -0.261493 0.616420 0.742730
0.321998 0.022588 0.137469 -0.261493 0.616420 0.742730
0.003597 0.012907 0.033403 -0.332090 -0.000000 0.943248
-0.315703 0.012907 -0.079013 -0.332090 -0.000000 0.943248
0.023731 0.012907 -0.023782 0.261493 0.616420 -0.742730
0.021214 0.022588 -0.016634 0.261493 0.616420 -0.742730
0.023731 0.012907 -0.023782 0.332090 0.000000 -0.943248
-0.443965 0.025815 -0.156307 -0.149656 0.980878 0.124426
-0.479848 0.022588 -0.168940 -0.149656 0.980878 0.124426
-0.476138 0.020078 -0.149780 -0.149656 0.980878 0.124426
-0.451515 0.022588 -0.134863 -0.149656 0.980878 0.124426
-0.443965 0.025815 -0.156307 -0.038696 0.980878 -0.190739
-0.436415 0.022588 -0.177752 -0.038696 0.980878 -0.190739
-0.464952 0.020078 -0.181550 -0.038696 0.980878 -0.190739
-0.479848 0.022588 -0.168940 -0.038696 0.980878 -0.190739
-0.443965 0.025815 -0.156307 0.046667 0.990077 -0.132550
-0.436415 0.022588 -0.177752 0.046667 0.990077 -0.132550
-0.443965 0.025815 -0.156307 -0.046667 0.990077 0.132550
-0.451515 0.022588 -0.134863 -0.046667 0.990077 0.132550
-0.454032 0.012907 -0.127714 -0.400354 0.674518 0.620276
-0.451515 0.022588 -0.134863 -0.400354 0.674518 0.620276
-0.476138 0.020078 -0.149780 -0.400354 0.674518 0.620276
-0.487398 0.012907 -0.147496 -0.400354 0.674518 0.620276
-0.454032 0.012907 -0.127714 -0.261493 0.616420 0.742730
-0.451515 0.022588 -0.134863 -0.261493 0.616420 0.742730
-0.454032 0.012907 -0.127714 -0.332090 0.000000 0.943248
-0.454032 0.012907 -0.127714 -0.509974 -0.000001 0.860190
-0.487398 0.012907 -0.147496 -0.509974 -0.000001 0.860190
-0.487398 -0.000000 -0.147496 -0.509974 -0.000001 0.860190
-0.454032 -0.000000 -0.127714 -0.509974 -0.000001 0.860190
4 0 1 2 3
4 4 5 6 7
4 8 9 10 11
4 12 13 14 15
4 16 17 18 19
4 20 21 22 23
4 24 25 26 27
4 28 29 30 31
4 32 33 34 35
4 36 37 38 39
4 40 41 42 43
4 44 45 46 47
4 48 49 50 51
4 52 53 54 55
4 56 57 58 59
4 60 61 62 63
4 64 65 66 67
4 68 69 70 71
4 72 73 74 75
4 76 77 78 79
4 80 81 82 83
4 80 19 18 81
4 84 85 30 29
4 84 86 87 85
4 88 89 90 91
4 92 93 94 95
4 96 97 98 99
4 100 101 102 103
4 104 105 106 107
4 108 109 110 111
4 108 71 70 109
4 104 107 112 113
4 114 103 102 115
4 116 117 98 97
4 116 55 54 117
4 114 115 118 119
4 120 121 122 123
4 124 83 82 125
4 126 127 87 86
4 128 129 130 131
4 132 133 134 135
4 136 137 138 139
4 140 111 110 141
4 142 143 106 105
4 144 145 146 147
4 148 149 150 151
4 152 153 154 155
4 156 157 158 159
4 160 161 162 163
4 164 165 166 167
4 168 169 170 171
4 172 173 174 175
4 176 177 178 179
4 180 181 182 183
4 184 185 186 187
4 188 189 190 191
4 192 193 194 195
4 196 197 198 199
4 200 201 202 203
4 204 205 54 53
4 206 207 208 209
4 210 211 212 213
4 214 215 216 217
4 218 219 70 69
4 220 221 222 223
4 224 225 226 227
4 224 167 166 225
4 220 223 162 161
4 228 229 230 231
4 232 233 234 235
4 236 99 98 237
4 238 239 240 241
4 242 243 244 245
4 242 246 247 243
4 248 109 70 219
4 248 249 110 109
4 250 251 234 233
4 250 195 194 251
4 252 117 54 205
4 252 237 98 117
4 253 254 255 256
4 257 258 259 260
4 261 227 226 262
4 263 264 222 221
4 265 266 267 268
4 269 245 244 270
4 271 141 110 249
4 272 273 274 275
