ply
format ascii 1.0
comment Created by Blender 2.72 (sub 0) - www.blender.org, source file: 'ralfs hexaboard.blend'
element vertex 281
property float x
property float y
property float z
property float nx
property float ny
property float nz
element face 88
property list uchar uint vertex_indices
end_header
0.134670 0.183927 0.459507 0.072721 0.125954 0.989367
0.113310 0.196259 0.459507 0.072721 0.125954 0.989367
0.096168 0.166567 0.464547 0.072721 0.125954 0.989367
0.117528 0.154235 0.464547 0.072721 0.125954 0.989367
0.134670 0.183927 0.459507 0.506070 -0.206238 0.837472
0.117528 0.154235 0.464547 0.506070 -0.206238 0.837472
0.131397 0.150853 0.453340 0.506070 -0.206238 0.837472
0.148336 0.170601 0.449960 0.506070 -0.206238 0.837472
0.134670 0.183927 0.459507 0.778424 0.265493 0.568831
0.148336 0.170601 0.449960 0.778424 0.265493 0.568831
0.153306 0.188801 0.431730 0.778424 0.265493 0.568831
0.147105 0.205464 0.435374 0.778424 0.265493 0.568831
0.134670 0.183927 0.459507 0.348212 0.603119 0.717632
0.147105 0.205464 0.435374 0.348212 0.603119 0.717632
0.125745 0.217796 0.435374 0.348212 0.603119 0.717632
0.113310 0.196259 0.459507 0.348212 0.603119 0.717632
-0.059737 -0.202125 -0.415493 0.768857 -0.634232 0.081292
-0.028337 -0.147738 -0.288155 0.768857 -0.634232 0.081292
-0.048465 -0.170270 -0.273568 0.768857 -0.634232 0.081292
-0.079865 -0.224656 -0.400906 0.768857 -0.634232 0.081292
-0.059737 -0.202125 -0.415493 0.690309 -0.719340 -0.077608
-0.079865 -0.224656 -0.400906 0.690309 -0.719340 -0.077608
-0.086214 -0.226061 -0.429140 0.690309 -0.719340 -0.077608
-0.073217 -0.213141 -0.448504 0.690309 -0.719340 -0.077608
-0.059737 -0.202125 -0.415493 0.882983 -0.385620 -0.267654
-0.073217 -0.213141 -0.448504 0.882983 -0.385620 -0.267654
-0.064305 -0.188114 -0.450750 0.882983 -0.385620 -0.267654
-0.050288 -0.173427 -0.430080 0.882983 -0.385620 -0.267654
-0.059737 -0.202125 -0.415493 0.933689 -0.348734 -0.081292
-0.050288 -0.173427 -0.430080 0.933689 -0.348734 -0.081292
-0.018888 -0.119040 -0.302742 0.933689 -0.348734 -0.081292
-0.028337 -0.147738 -0.288155 0.933689 -0.348734 -0.081292
0.144972 0.201770 0.401871 0.448430 0.776703 -0.442315
0.114649 0.149250 0.278904 0.448430 0.776703 -0.442315
0.093289 0.161582 0.278904 0.448430 0.776703 -0.442315
0.123612 0.214102 0.401871 0.448430 0.776703 -0.442315
0.144972 0.201770 0.401871 0.495996 0.859089 -0.126312
0.123612 0.214102 0.401871 0.495996 0.859089 -0.126312
0.125745 0.217796 0.435374 0.495996 0.859089 -0.126312
0.147105 0.205464 0.435374 0.495996 0.859089 -0.126312
0.144972 0.201770 0.401871 0.893145 0.446340 -0.055440
0.147105 0.205464 0.435374 0.893145 0.446340 -0.055440
0.153306 0.188801 0.431730 0.893145 0.446340 -0.055440
0.156062 0.183982 0.406733 0.893145 0.446340 -0.055440
0.144972 0.201770 0.401871 0.827919 0.412269 -0.380241
0.156062 0.183982 0.406733 0.827919 0.412269 -0.380241
0.125740 0.131462 0.283766 0.827919 0.412269 -0.380241
0.114649 0.149250 0.278904 0.827919 0.412269 -0.380241
-0.091950 -0.208592 -0.459507 0.197902 -0.833033 -0.516615
-0.073217 -0.213141 -0.448504 0.197902 -0.833033 -0.516615
-0.086214 -0.226061 -0.429140 0.197902 -0.833033 -0.516615
-0.104026 -0.229506 -0.433917 0.197902 -0.833033 -0.516615
-0.091950 -0.208592 -0.459507 -0.363638 -0.629840 -0.686345
-0.104026 -0.229506 -0.433917 -0.363638 -0.629840 -0.686345
-0.125386 -0.217174 -0.433917 -0.363638 -0.629840 -0.686345
-0.113310 -0.196259 -0.459507 -0.363638 -0.629840 -0.686345
-0.091950 -0.208592 -0.459507 -0.050917 -0.088192 -0.994801
-0.113310 -0.196259 -0.459507 -0.050917 -0.088192 -0.994801
-0.095808 -0.165945 -0.463091 -0.050917 -0.088192 -0.994801
-0.074448 -0.178277 -0.463091 -0.050917 -0.088192 -0.994801
-0.091950 -0.208592 -0.459507 0.493657 -0.320770 -0.808337
-0.074448 -0.178277 -0.463091 0.493657 -0.320770 -0.808337
-0.064305 -0.188114 -0.450750 0.493657 -0.320770 -0.808337
-0.073217 -0.213141 -0.448504 0.493657 -0.320770 -0.808337
0.105536 0.133464 0.440769 0.056924 -0.923134 0.380241
0.075213 0.080944 0.317802 0.056924 -0.923134 0.380241
0.096163 0.080233 0.312940 0.056924 -0.923134 0.380241
0.126485 0.132753 0.435907 0.056924 -0.923134 0.380241
0.105536 0.133464 0.440769 0.201031 -0.752437 0.627236
0.126485 0.132753 0.435907 0.201031 -0.752437 0.627236
0.131397 0.150853 0.453340 0.201031 -0.752437 0.627236
0.117528 0.154235 0.464547 0.201031 -0.752437 0.627236
0.105536 0.133464 0.440769 -0.352027 -0.609729 0.710146
0.117528 0.154235 0.464547 -0.352027 -0.609729 0.710146
0.096168 0.166567 0.464547 -0.352027 -0.609729 0.710146
0.084176 0.145796 0.440769 -0.352027 -0.609729 0.710146
0.105536 0.133464 0.440769 -0.448430 -0.776703 0.442315
0.084176 0.145796 0.440769 -0.448430 -0.776703 0.442315
0.053853 0.093276 0.317802 -0.448430 -0.776703 0.442315
0.075213 0.080944 0.317802 -0.448430 -0.776703 0.442315
0.044157 -0.022176 0.005827 0.768857 -0.634232 0.081292
0.116291 0.102765 0.298353 0.768857 -0.634232 0.081292
0.096163 0.080233 0.312940 0.768857 -0.634232 0.081292
0.024028 -0.044707 0.020414 0.768857 -0.634232 0.081292
0.044157 -0.022176 0.005827 0.933690 -0.348734 -0.081292
-0.028337 -0.147738 -0.288155 0.933690 -0.348734 -0.081292
-0.018888 -0.119040 -0.302742 0.933690 -0.348734 -0.081292
0.053606 0.006522 -0.008760 0.933690 -0.348734 -0.081292
0.125740 0.131462 0.283766 0.933690 -0.348734 -0.081292
0.116291 0.102765 0.298353 0.933690 -0.348734 -0.081292
-0.061379 -0.155640 -0.434942 0.366387 0.634602 -0.680471
-0.074448 -0.178277 -0.463091 0.366387 0.634602 -0.680471
-0.095808 -0.165945 -0.463091 0.366387 0.634602 -0.680471
-0.082739 -0.143308 -0.434942 0.366387 0.634602 -0.680471
-0.061379 -0.155640 -0.434942 0.448430 0.776703 -0.442315
-0.082739 -0.143308 -0.434942 0.448430 0.776703 -0.442315
-0.051338 -0.088921 -0.307605 0.448430 0.776703 -0.442315
-0.029978 -0.101253 -0.307605 0.448430 0.776703 -0.442315
-0.061379 -0.155640 -0.434942 0.827919 0.412270 -0.380241
-0.029978 -0.101253 -0.307605 0.827919 0.412270 -0.380241
-0.018888 -0.119040 -0.302742 0.827919 0.412270 -0.380241
-0.050288 -0.173427 -0.430080 0.827919 0.412270 -0.380241
-0.061379 -0.155640 -0.434942 0.771228 0.221083 -0.596933
-0.050288 -0.173427 -0.430080 0.771228 0.221083 -0.596933
-0.064305 -0.188114 -0.450750 0.771228 0.221083 -0.596933
-0.074448 -0.178277 -0.463091 0.771228 0.221083 -0.596933
-0.100815 -0.223945 -0.396043 0.070252 -0.993044 0.094485
-0.104026 -0.229506 -0.433917 0.070252 -0.993044 0.094485
-0.086214 -0.226061 -0.429140 0.070252 -0.993044 0.094485
-0.079865 -0.224656 -0.400906 0.070252 -0.993044 0.094485
-0.100815 -0.223945 -0.396043 0.056924 -0.923134 0.380241
-0.079865 -0.224656 -0.400906 0.056924 -0.923134 0.380241
-0.048465 -0.170270 -0.273568 0.056924 -0.923134 0.380241
-0.069415 -0.169559 -0.268706 0.056924 -0.923134 0.380241
-0.100815 -0.223945 -0.396043 -0.448430 -0.776703 0.442315
-0.069415 -0.169559 -0.268706 -0.448430 -0.776703 0.442315
-0.090775 -0.157226 -0.268706 -0.448430 -0.776703 0.442315
-0.122175 -0.211613 -0.396043 -0.448430 -0.776703 0.442315
-0.100815 -0.223945 -0.396043 -0.492964 -0.853840 0.167163
-0.122175 -0.211613 -0.396043 -0.492964 -0.853840 0.167163
-0.125386 -0.217174 -0.433917 -0.492964 -0.853840 0.167163
-0.104026 -0.229506 -0.433917 -0.492964 -0.853840 0.167163
0.042515 0.024309 -0.013622 0.448430 0.776703 -0.442315
0.021155 0.036642 -0.013622 0.448430 0.776703 -0.442315
0.042515 0.024309 -0.013622 0.827919 0.412269 -0.380241
0.053606 0.006522 -0.008760 0.827919 0.412269 -0.380241
0.042515 0.024309 -0.013622 0.827919 0.412270 -0.380241
0.053606 0.006522 -0.008760 0.827919 0.412270 -0.380241
0.003079 -0.043996 0.025276 0.056924 -0.923134 0.380241
0.024028 -0.044707 0.020414 0.056924 -0.923134 0.380241
0.003079 -0.043996 0.025276 -0.448430 -0.776703 0.442315
-0.018281 -0.031664 0.025276 -0.448430 -0.776703 0.442315
0.146614 0.155285 0.421320 0.777229 -0.557244 0.292223
0.148336 0.170601 0.449960 0.777229 -0.557244 0.292223
0.131397 0.150853 0.453340 0.777229 -0.557244 0.292223
0.126485 0.132753 0.435907 0.777229 -0.557244 0.292223
0.146614 0.155285 0.421320 0.768857 -0.634232 0.081292
0.126485 0.132753 0.435907 0.768857 -0.634232 0.081292
0.146614 0.155285 0.421320 0.933689 -0.348734 -0.081292
0.116291 0.102765 0.298353 0.933689 -0.348734 -0.081292
0.125740 0.131462 0.283766 0.933689 -0.348734 -0.081292
0.156062 0.183982 0.406733 0.933689 -0.348734 -0.081292
0.146614 0.155285 0.421320 0.968740 -0.225537 0.103324
0.156062 0.183982 0.406733 0.968740 -0.225537 0.103324
0.153306 0.188801 0.431730 0.968740 -0.225537 0.103324
0.148336 0.170601 0.449960 0.968740 -0.225537 0.103324
0.091950 0.208592 0.459507 0.072719 0.125955 0.989367
0.074808 0.178900 0.464547 0.072719 0.125955 0.989367
0.096168 0.166567 0.464547 0.072719 0.125955 0.989367
0.113310 0.196259 0.459507 0.072719 0.125955 0.989367
0.091950 0.208592 0.459507 0.348211 0.603120 0.717632
0.113310 0.196259 0.459507 0.348211 0.603120 0.717632
0.125745 0.217796 0.435374 0.348211 0.603120 0.717632
0.104385 0.230129 0.435374 0.348211 0.603120 0.717632
0.091950 0.208592 0.459507 -0.159288 0.806882 0.568831
0.104385 0.230129 0.435374 -0.159288 0.806882 0.568831
0.086853 0.227168 0.431730 -0.159288 0.806882 0.568831
0.073576 0.213763 0.449960 -0.159288 0.806882 0.568831
0.091950 0.208592 0.459507 -0.431642 0.335150 0.837472
0.073576 0.213763 0.449960 -0.431642 0.335150 0.837472
0.064944 0.189220 0.453340 -0.431642 0.335150 0.837472
0.074808 0.178900 0.464547 -0.431642 0.335150 0.837472
-0.145177 -0.152796 -0.415493 -0.933690 0.348734 0.081292
-0.154625 -0.181494 -0.400906 -0.933690 0.348734 0.081292
-0.123225 -0.127107 -0.273568 -0.933690 0.348734 0.081292
-0.113777 -0.098409 -0.288155 -0.933690 0.348734 0.081292
-0.145177 -0.152796 -0.415493 -0.768857 0.634232 -0.081292
-0.113777 -0.098409 -0.288155 -0.768857 0.634232 -0.081292
-0.093648 -0.075878 -0.302742 -0.768857 0.634232 -0.081292
-0.125048 -0.130264 -0.430080 -0.768857 0.634232 -0.081292
-0.145177 -0.152796 -0.415493 -0.775448 0.571875 -0.267654
-0.125048 -0.130264 -0.430080 -0.775448 0.571875 -0.267654
-0.130759 -0.149747 -0.450750 -0.775448 0.571875 -0.267654
-0.147977 -0.169978 -0.448504 -0.775448 0.571875 -0.267654
-0.145177 -0.152796 -0.415493 -0.968121 0.238156 -0.077608
-0.147977 -0.169978 -0.448504 -0.968121 0.238156 -0.077608
-0.152668 -0.187695 -0.429140 -0.968121 0.238156 -0.077608
-0.154625 -0.181494 -0.400906 -0.968121 0.238156 -0.077608
0.102252 0.226434 0.401871 0.448429 0.776703 -0.442315
0.123612 0.214102 0.401871 0.448429 0.776703 -0.442315
0.093289 0.161582 0.278904 0.448429 0.776703 -0.442315
0.071929 0.173914 0.278904 0.448429 0.776703 -0.442315
0.102252 0.226434 0.401871 -0.056924 0.923134 -0.380241
0.071929 0.173914 0.278904 -0.056924 0.923134 -0.380241
0.050980 0.174625 0.283766 -0.056924 0.923134 -0.380241
0.081302 0.227145 0.406733 -0.056924 0.923134 -0.380241
0.102252 0.226434 0.401871 -0.060031 0.996656 -0.055440
0.081302 0.227145 0.406733 -0.060031 0.996656 -0.055440
0.086853 0.227168 0.431730 -0.060031 0.996656 -0.055440
0.104385 0.230129 0.435374 -0.060031 0.996656 -0.055440
0.102252 0.226434 0.401871 0.495995 0.859089 -0.126312
0.104385 0.230129 0.435374 0.495995 0.859089 -0.126312
0.125745 0.217796 0.435374 0.495995 0.859089 -0.126312
0.123612 0.214102 0.401871 0.495995 0.859089 -0.126312
-0.134670 -0.183927 -0.459507 -0.820379 -0.245128 -0.516615
-0.146746 -0.204842 -0.433917 -0.820379 -0.245128 -0.516615
-0.152668 -0.187695 -0.429140 -0.820379 -0.245128 -0.516615
-0.147977 -0.169978 -0.448504 -0.820379 -0.245128 -0.516615
-0.134670 -0.183927 -0.459507 -0.524624 0.267134 -0.808337
-0.147977 -0.169978 -0.448504 -0.524624 0.267134 -0.808337
-0.130759 -0.149747 -0.450750 -0.524624 0.267134 -0.808337
-0.117169 -0.153613 -0.463091 -0.524624 0.267134 -0.808337
-0.134670 -0.183927 -0.459507 -0.050917 -0.088192 -0.994801
-0.117169 -0.153613 -0.463091 -0.050917 -0.088192 -0.994801
-0.134670 -0.183927 -0.459507 -0.363638 -0.629840 -0.686345
-0.146746 -0.204842 -0.433917 -0.363638 -0.629840 -0.686345
0.062816 0.158129 0.440769 -0.827919 -0.412269 0.380241
0.051725 0.175916 0.435907 -0.827919 -0.412269 0.380241
0.021403 0.123396 0.312940 -0.827919 -0.412269 0.380241
0.032493 0.105608 0.317802 -0.827919 -0.412269 0.380241
0.062816 0.158129 0.440769 -0.448430 -0.776703 0.442315
0.032493 0.105608 0.317802 -0.448430 -0.776703 0.442315
0.062816 0.158129 0.440769 -0.352027 -0.609728 0.710147
0.084176 0.145796 0.440769 -0.352027 -0.609728 0.710147
0.096168 0.166567 0.464547 -0.352027 -0.609728 0.710147
0.074808 0.178900 0.464547 -0.352027 -0.609728 0.710147
0.062816 0.158129 0.440769 -0.752145 -0.202121 0.627236
0.074808 0.178900 0.464547 -0.752145 -0.202121 0.627236
0.064944 0.189220 0.453340 -0.752145 -0.202121 0.627236
0.051725 0.175916 0.435907 -0.752145 -0.202121 0.627236
-0.041283 0.027153 0.005827 -0.933689 0.348734 0.081292
-0.050732 -0.001544 0.020414 -0.933689 0.348734 0.081292
0.021403 0.123396 0.312940 -0.933689 0.348734 0.081292
0.030851 0.152093 0.298353 -0.933689 0.348734 0.081292
-0.041283 0.027153 0.005827 -0.768857 0.634232 -0.081292
0.030851 0.152093 0.298353 -0.768857 0.634232 -0.081292
0.050980 0.174625 0.283766 -0.768857 0.634232 -0.081292
-0.021155 0.049685 -0.008760 -0.768857 0.634232 -0.081292
-0.041283 0.027153 0.005827 -0.933690 0.348734 0.081292
-0.050732 -0.001544 0.020414 -0.933690 0.348734 0.081292
-0.104099 -0.130975 -0.434942 0.366387 0.634602 -0.680471
-0.117169 -0.153613 -0.463091 0.366387 0.634602 -0.680471
-0.104099 -0.130975 -0.434942 -0.194152 0.778445 -0.596933
-0.117169 -0.153613 -0.463091 -0.194152 0.778445 -0.596933
-0.130759 -0.149747 -0.450750 -0.194152 0.778445 -0.596933
-0.125048 -0.130264 -0.430080 -0.194152 0.778445 -0.596933
-0.104099 -0.130975 -0.434942 -0.056923 0.923134 -0.380241
-0.125048 -0.130264 -0.430080 -0.056923 0.923134 -0.380241
-0.093648 -0.075878 -0.302742 -0.056923 0.923134 -0.380241
-0.072698 -0.076589 -0.307605 -0.056923 0.923134 -0.380241
-0.104099 -0.130975 -0.434942 0.448430 0.776703 -0.442315
-0.072698 -0.076589 -0.307605 0.448430 0.776703 -0.442315
-0.143535 -0.199281 -0.396043 -0.895129 -0.435680 0.094485
-0.154625 -0.181494 -0.400906 -0.895129 -0.435680 0.094485
-0.152668 -0.187695 -0.429140 -0.895129 -0.435680 0.094485
-0.146746 -0.204842 -0.433917 -0.895129 -0.435680 0.094485
-0.143535 -0.199281 -0.396043 -0.492964 -0.853840 0.167164
-0.146746 -0.204842 -0.433917 -0.492964 -0.853840 0.167164
-0.125386 -0.217174 -0.433917 -0.492964 -0.853840 0.167164
-0.122175 -0.211613 -0.396043 -0.492964 -0.853840 0.167164
-0.143535 -0.199281 -0.396043 -0.448430 -0.776703 0.442315
-0.112135 -0.144894 -0.268706 -0.448430 -0.776703 0.442315
-0.143535 -0.199281 -0.396043 -0.827920 -0.412269 0.380241
-0.112135 -0.144894 -0.268706 -0.827920 -0.412269 0.380241
-0.123225 -0.127107 -0.273568 -0.827920 -0.412269 0.380241
-0.154625 -0.181494 -0.400906 -0.827920 -0.412269 0.380241
-0.000205 0.048974 -0.013622 0.448430 0.776703 -0.442315
-0.000205 0.048974 -0.013622 -0.056924 0.923134 -0.380241
-0.072698 -0.076589 -0.307605 -0.056924 0.923134 -0.380241
-0.093648 -0.075878 -0.302742 -0.056924 0.923134 -0.380241
-0.021155 0.049685 -0.008760 -0.056924 0.923134 -0.380241
0.071929 0.173914 0.278904 0.448430 0.776703 -0.442315
-0.039641 -0.019332 0.025276 -0.827920 -0.412269 0.380241
-0.050732 -0.001544 0.020414 -0.827920 -0.412269 0.380241
-0.039641 -0.019332 0.025276 -0.448430 -0.776703 0.442315
-0.039641 -0.019332 0.025276 -0.827919 -0.412270 0.380241
0.032493 0.105608 0.317802 -0.827919 -0.412270 0.380241
0.021403 0.123396 0.312940 -0.827919 -0.412270 0.380241
-0.050732 -0.001544 0.020414 -0.827919 -0.412270 0.380241
0.061174 0.204614 0.421320 -0.871202 0.394478 0.292223
0.051725 0.175916 0.435907 -0.871202 0.394478 0.292223
0.064944 0.189220 0.453340 -0.871202 0.394478 0.292223
0.073576 0.213763 0.449960 -0.871202 0.394478 0.292223
0.061174 0.204614 0.421320 -0.679690 0.726186 0.103324
0.073576 0.213763 0.449960 -0.679690 0.726186 0.103324
0.086853 0.227168 0.431730 -0.679690 0.726186 0.103324
0.081302 0.227145 0.406733 -0.679690 0.726186 0.103324
0.061174 0.204614 0.421320 -0.768857 0.634232 -0.081292
0.081302 0.227145 0.406733 -0.768857 0.634232 -0.081292
0.061174 0.204614 0.421320 -0.933689 0.348734 0.081292
0.051725 0.175916 0.435907 -0.933689 0.348734 0.081292
4 0 1 2 3
4 4 5 6 7
4 8 9 10 11
4 12 13 14 15
4 16 17 18 19
4 20 21 22 23
4 24 25 26 27
4 28 29 30 31
4 32 33 34 35
4 36 37 38 39
4 40 41 42 43
4 44 45 46 47
4 48 49 50 51
4 52 53 54 55
4 56 57 58 59
4 60 61 62 63
4 64 65 66 67
4 68 69 70 71
4 72 73 74 75
4 76 77 78 79
4 80 81 82 83
4 80 83 18 17
4 84 85 86 87
4 84 87 88 89
4 90 91 92 93
4 94 95 96 97
4 98 99 100 101
4 102 103 104 105
4 106 107 108 109
4 110 111 112 113
4 114 115 116 117
4 118 119 120 121
4 122 97 96 123
4 122 123 34 33
4 124 47 46 125
4 126 127 100 99
4 128 113 112 129
4 128 129 66 65
4 130 79 78 131
4 130 131 116 115
4 132 133 134 135
4 136 137 82 81
4 138 139 140 141
4 142 143 144 145
4 146 147 148 149
4 150 151 152 153
4 154 155 156 157
4 158 159 160 161
4 162 163 164 165
4 166 167 168 169
4 170 171 172 173
4 174 175 176 177
4 178 179 180 181
4 182 183 184 185
4 186 187 188 189
4 190 191 192 193
4 194 195 196 197
4 198 199 200 201
4 202 203 58 57
4 204 55 54 205
4 206 207 208 209
4 210 211 78 77
4 212 213 214 215
4 216 217 218 219
4 220 221 222 223
4 224 225 226 227
4 224 227 168 167
4 228 165 164 229
4 230 93 92 231
4 232 233 234 235
4 236 237 238 239
4 240 241 96 95
4 242 243 244 245
4 246 247 248 249
4 250 117 116 251
4 252 253 254 255
4 256 123 96 241
4 257 258 259 260
4 257 260 184 183
4 256 261 34 123
4 262 263 254 253
4 264 251 116 131
4 264 131 78 211
4 265 266 267 268
4 269 270 271 272
4 273 274 275 276
4 277 278 226 225
4 279 223 222 280
