ply
format ascii 1.0
comment Created by Blender 2.72 (sub 0) - www.blender.org, source file: 'ralfs hexaboard.blend'
element vertex 278
property float x
property float y
property float z
property float nx
property float ny
property float nz
element face 88
property list uchar uint vertex_indices
end_header
0.021009 0.123083 -0.402684 -0.933172 0.356486 -0.045905
0.010093 0.093339 -0.411762 -0.933172 0.356486 -0.045905
-0.007912 0.062153 -0.287928 -0.933172 0.356486 -0.045905
0.003004 0.091897 -0.278851 -0.933172 0.356486 -0.045905
0.021009 0.123083 -0.402684 -0.775312 0.629908 0.045905
0.003004 0.091897 -0.278851 -0.775312 0.629908 0.045905
0.023305 0.116223 -0.269773 -0.775312 0.629908 0.045905
0.041310 0.147408 -0.393606 -0.775312 0.629908 0.045905
0.021009 0.123083 -0.402684 -0.729644 0.679816 -0.073956
0.041310 0.147408 -0.393606 -0.729644 0.679816 -0.073956
0.045807 0.146768 -0.429616 -0.729644 0.679816 -0.073956
0.032308 0.131816 -0.448119 -0.729644 0.679816 -0.073956
0.021009 0.123083 -0.402684 -0.916273 0.356566 -0.182496
0.032308 0.131816 -0.448119 -0.916273 0.356566 -0.182496
0.022683 0.106716 -0.443064 -0.916273 0.356566 -0.182496
0.010093 0.093339 -0.411762 -0.916273 0.356566 -0.182496
0.018968 0.076200 -0.414788 -0.480113 -0.831579 -0.279226
0.037737 0.065363 -0.414788 -0.480113 -0.831579 -0.279226
0.019733 0.034178 -0.290954 -0.480113 -0.831579 -0.279226
0.000963 0.045014 -0.290954 -0.480113 -0.831579 -0.279226
0.018968 0.076200 -0.414788 -0.879862 -0.414566 -0.232330
0.000963 0.045014 -0.290954 -0.879862 -0.414566 -0.232330
-0.007912 0.062153 -0.287928 -0.879862 -0.414566 -0.232330
0.010093 0.093339 -0.411762 -0.879862 -0.414566 -0.232330
0.018968 0.076200 -0.414788 -0.866223 -0.278766 -0.414665
0.010093 0.093339 -0.411762 -0.866223 -0.278766 -0.414665
0.022683 0.106716 -0.443064 -0.866223 -0.278766 -0.414665
0.030777 0.096654 -0.457197 -0.866223 -0.278766 -0.414665
0.018968 0.076200 -0.414788 -0.436829 -0.756609 -0.486541
0.030777 0.096654 -0.457197 -0.436829 -0.756609 -0.486541
0.049546 0.085817 -0.457197 -0.436829 -0.756609 -0.486541
0.037737 0.065363 -0.414788 -0.436829 -0.756609 -0.486541
-0.077097 -0.090189 0.401162 -0.328974 -0.569799 0.753064
-0.090596 -0.113570 0.377575 -0.328974 -0.569799 0.753064
-0.071826 -0.124407 0.377575 -0.328974 -0.569799 0.753064
-0.058327 -0.101026 0.401162 -0.328974 -0.569799 0.753064
-0.077097 -0.090189 0.401162 0.075764 0.131227 0.988453
-0.058327 -0.101026 0.401162 0.075764 0.131227 0.988453
-0.040609 -0.070337 0.395730 0.075764 0.131227 0.988453
-0.059379 -0.059501 0.395730 0.075764 0.131227 0.988453
-0.077097 -0.090189 0.401162 -0.524149 0.487791 0.698089
-0.059379 -0.059501 0.395730 -0.524149 0.487791 0.698089
-0.072212 -0.057647 0.382091 -0.524149 0.487791 0.698089
-0.089065 -0.078408 0.386652 -0.524149 0.487791 0.698089
-0.077097 -0.090189 0.401162 -0.859182 -0.092503 0.503239
-0.089065 -0.078408 0.386652 -0.859182 -0.092503 0.503239
-0.095336 -0.097699 0.368642 -0.859182 -0.092503 0.503239
-0.090596 -0.113570 0.377575 -0.859182 -0.092503 0.503239
0.060590 0.148292 -0.390581 -0.080906 0.969266 0.232330
0.041310 0.147408 -0.393606 -0.080906 0.969266 0.232330
0.023305 0.116223 -0.269773 -0.080906 0.969266 0.232330
0.042585 0.117107 -0.266747 -0.080906 0.969266 0.232330
0.060590 0.148292 -0.390581 0.480113 0.831579 0.279226
0.042585 0.117107 -0.266747 0.480113 0.831579 0.279226
0.061355 0.106270 -0.266747 0.480113 0.831579 0.279226
0.079360 0.137456 -0.390581 0.480113 0.831579 0.279226
0.060590 0.148292 -0.390581 0.499164 0.864577 0.057817
0.079360 0.137456 -0.390581 0.499164 0.864577 0.057817
0.080763 0.139886 -0.439042 0.499164 0.864577 0.057817
0.061994 0.150723 -0.439042 0.499164 0.864577 0.057817
0.060590 0.148292 -0.390581 -0.133104 0.991033 0.011706
0.061994 0.150723 -0.439042 -0.133104 0.991033 0.011706
0.045807 0.146768 -0.429616 -0.133104 0.991033 0.011706
0.041310 0.147408 -0.393606 -0.133104 0.991033 0.011706
0.048587 0.127502 -0.463264 -0.699506 0.207041 -0.683977
0.030777 0.096654 -0.457197 -0.699506 0.207041 -0.683977
0.022683 0.106716 -0.443064 -0.699506 0.207041 -0.683977
0.032308 0.131816 -0.448119 -0.699506 0.207041 -0.683977
0.048587 0.127502 -0.463264 -0.358957 0.796889 -0.485919
0.032308 0.131816 -0.448119 -0.358957 0.796889 -0.485919
0.045807 0.146768 -0.429616 -0.358957 0.796889 -0.485919
0.061994 0.150723 -0.439042 -0.358957 0.796889 -0.485919
0.048587 0.127502 -0.463264 0.335178 0.580547 -0.742038
0.061994 0.150723 -0.439042 0.335178 0.580547 -0.742038
0.080763 0.139886 -0.439042 0.335178 0.580547 -0.742038
0.067357 0.116666 -0.463264 0.335178 0.580547 -0.742038
0.048587 0.127502 -0.463264 -0.083958 -0.145417 -0.985802
0.067357 0.116666 -0.463264 -0.083958 -0.145417 -0.985802
0.049546 0.085817 -0.457197 -0.083958 -0.145417 -0.985802
0.030777 0.096654 -0.457197 -0.083958 -0.145417 -0.985802
-0.087428 -0.064736 0.343122 -0.953616 0.290337 0.079505
-0.098344 -0.094480 0.334045 -0.953616 0.290337 0.079505
-0.095336 -0.097699 0.368642 -0.953616 0.290337 0.079505
-0.089065 -0.078408 0.386652 -0.953616 0.290337 0.079505
-0.087428 -0.064736 0.343122 -0.767136 0.613330 0.187960
-0.089065 -0.078408 0.386652 -0.767136 0.613330 0.187960
-0.072212 -0.057647 0.382091 -0.767136 0.613330 0.187960
-0.067127 -0.040411 0.352200 -0.767136 0.613330 0.187960
-0.087428 -0.064736 0.343122 -0.775312 0.629908 0.045905
-0.067127 -0.040411 0.352200 -0.775312 0.629908 0.045905
-0.049399 -0.009705 0.230272 -0.775312 0.629908 0.045905
-0.069700 -0.034031 0.221194 -0.775312 0.629908 0.045905
-0.087428 -0.064736 0.343122 -0.933172 0.356486 -0.045904
-0.069700 -0.034031 0.221194 -0.933172 0.356486 -0.045904
-0.080616 -0.063775 0.212117 -0.933172 0.356486 -0.045904
-0.098344 -0.094480 0.334045 -0.933172 0.356486 -0.045904
-0.089470 -0.111619 0.331019 -0.499416 -0.865014 -0.048326
-0.070700 -0.122456 0.331019 -0.499416 -0.865014 -0.048326
-0.071826 -0.124407 0.377575 -0.499416 -0.865014 -0.048326
-0.090596 -0.113570 0.377575 -0.499416 -0.865014 -0.048326
-0.089470 -0.111619 0.331019 -0.924276 -0.381715 -0.002880
-0.090596 -0.113570 0.377575 -0.924276 -0.381715 -0.002880
-0.095336 -0.097699 0.368642 -0.924276 -0.381715 -0.002880
-0.098344 -0.094480 0.334045 -0.924276 -0.381715 -0.002880
-0.089470 -0.111619 0.331019 -0.879862 -0.414566 -0.232330
-0.098344 -0.094480 0.334045 -0.879862 -0.414566 -0.232330
-0.080616 -0.063775 0.212117 -0.879862 -0.414566 -0.232330
-0.071742 -0.080914 0.209091 -0.879862 -0.414566 -0.232330
-0.089470 -0.111619 0.331019 -0.480113 -0.831580 -0.279226
-0.071742 -0.080914 0.209091 -0.480113 -0.831580 -0.279226
-0.052972 -0.091750 0.209091 -0.480113 -0.831580 -0.279226
-0.070700 -0.122456 0.331019 -0.480113 -0.831580 -0.279226
-0.047847 -0.039527 0.355226 -0.192597 0.885591 0.422653
-0.067127 -0.040411 0.352200 -0.192597 0.885591 0.422653
-0.072212 -0.057647 0.382091 -0.192597 0.885591 0.422653
-0.059379 -0.059501 0.395730 -0.192597 0.885591 0.422653
-0.047847 -0.039527 0.355226 0.434497 0.752570 0.494824
-0.059379 -0.059501 0.395730 0.434497 0.752570 0.494824
-0.040609 -0.070337 0.395730 0.434497 0.752570 0.494824
-0.029077 -0.050364 0.355226 0.434497 0.752570 0.494824
-0.047847 -0.039527 0.355226 0.480113 0.831580 0.279226
-0.029077 -0.050364 0.355226 0.480113 0.831580 0.279226
-0.011350 -0.019658 0.233298 0.480113 0.831580 0.279226
-0.030119 -0.008821 0.233298 0.480113 0.831580 0.279226
-0.047847 -0.039527 0.355226 -0.080907 0.969266 0.232330
-0.030119 -0.008821 0.233298 -0.080907 0.969266 0.232330
-0.049399 -0.009705 0.230272 -0.080907 0.969266 0.232330
-0.067127 -0.040411 0.352200 -0.080907 0.969266 0.232330
-0.033394 0.028853 -0.028511 -0.933172 0.356486 -0.045904
-0.044310 -0.000891 -0.037588 -0.933172 0.356486 -0.045904
-0.033394 0.028853 -0.028511 -0.775312 0.629908 0.045905
-0.013093 0.053179 -0.019433 -0.775312 0.629908 0.045905
0.003004 0.091897 -0.278851 -0.933172 0.356486 -0.045904
-0.007912 0.062153 -0.287928 -0.933172 0.356486 -0.045904
-0.035436 -0.018030 -0.040614 -0.480112 -0.831580 -0.279226
-0.016666 -0.028866 -0.040614 -0.480112 -0.831580 -0.279226
-0.052972 -0.091750 0.209091 -0.480112 -0.831580 -0.279226
-0.071742 -0.080914 0.209091 -0.480112 -0.831580 -0.279226
-0.035436 -0.018030 -0.040614 -0.879862 -0.414566 -0.232330
-0.044310 -0.000891 -0.037588 -0.879862 -0.414566 -0.232330
-0.035436 -0.018030 -0.040614 -0.480113 -0.831580 -0.279226
0.000963 0.045014 -0.290954 -0.480113 -0.831580 -0.279226
0.019733 0.034178 -0.290954 -0.480113 -0.831580 -0.279226
-0.016666 -0.028866 -0.040614 -0.480113 -0.831580 -0.279226
0.006187 0.054063 -0.016407 -0.080906 0.969266 0.232330
-0.013093 0.053179 -0.019433 -0.080906 0.969266 0.232330
-0.049399 -0.009705 0.230272 -0.080906 0.969266 0.232330
-0.030119 -0.008821 0.233298 -0.080906 0.969266 0.232330
0.006187 0.054063 -0.016407 0.480113 0.831580 0.279226
0.024957 0.043226 -0.016407 0.480113 0.831580 0.279226
0.061355 0.106270 -0.266747 0.480113 0.831580 0.279226
0.042585 0.117107 -0.266747 0.480113 0.831580 0.279226
0.096088 0.079736 -0.402684 0.775312 -0.629908 -0.045905
0.078083 0.048551 -0.278851 0.775312 -0.629908 -0.045905
0.057782 0.024225 -0.287928 0.775312 -0.629908 -0.045905
0.075787 0.055411 -0.411762 0.775312 -0.629908 -0.045905
0.096088 0.079736 -0.402684 0.766931 -0.615233 -0.182496
0.075787 0.055411 -0.411762 0.766931 -0.615233 -0.182496
0.081078 0.073002 -0.443064 0.766931 -0.615233 -0.182496
0.098002 0.093887 -0.448119 0.766931 -0.615233 -0.182496
0.096088 0.079736 -0.402684 0.953560 -0.291982 -0.073956
0.098002 0.093887 -0.448119 0.953560 -0.291982 -0.073956
0.104201 0.113054 -0.429616 0.953560 -0.291982 -0.073956
0.107004 0.109480 -0.393606 0.953560 -0.291982 -0.073956
0.096088 0.079736 -0.402684 0.933172 -0.356486 0.045905
0.107004 0.109480 -0.393606 0.933172 -0.356486 0.045905
0.088999 0.078294 -0.269773 0.933172 -0.356486 0.045905
0.078083 0.048551 -0.278851 0.933172 -0.356486 0.045905
0.056507 0.054526 -0.414788 -0.480113 -0.831579 -0.279226
0.038502 0.023341 -0.290954 -0.480113 -0.831579 -0.279226
0.056507 0.054526 -0.414788 -0.436828 -0.756610 -0.486541
0.037737 0.065363 -0.414788 -0.436828 -0.756610 -0.486541
0.049546 0.085817 -0.457197 -0.436828 -0.756610 -0.486541
0.068316 0.074980 -0.457197 -0.436828 -0.756610 -0.486541
0.056507 0.054526 -0.414788 0.191693 -0.889554 -0.414665
0.068316 0.074980 -0.457197 0.191693 -0.889554 -0.414665
0.081078 0.073002 -0.443064 0.191693 -0.889554 -0.414665
0.075787 0.055411 -0.411762 0.191693 -0.889554 -0.414665
0.056507 0.054526 -0.414788 0.080906 -0.969266 -0.232330
0.075787 0.055411 -0.411762 0.080906 -0.969266 -0.232330
0.057782 0.024225 -0.287928 0.080906 -0.969266 -0.232330
0.038502 0.023341 -0.290954 0.080906 -0.969266 -0.232330
-0.039558 -0.111863 0.401162 -0.328974 -0.569799 0.753064
-0.053057 -0.135243 0.377575 -0.328974 -0.569799 0.753064
-0.039558 -0.111863 0.401162 0.349481 -0.790325 0.503239
-0.053057 -0.135243 0.377575 0.349481 -0.790325 0.503239
-0.036941 -0.131413 0.368642 0.349481 -0.790325 0.503239
-0.023371 -0.116336 0.386652 0.349481 -0.790325 0.503239
-0.039558 -0.111863 0.401162 0.684514 -0.210031 0.698089
-0.023371 -0.116336 0.386652 0.684514 -0.210031 0.698089
-0.013818 -0.091361 0.382091 0.684514 -0.210031 0.698089
-0.021840 -0.081174 0.395730 0.684514 -0.210031 0.698089
-0.039558 -0.111863 0.401162 0.075764 0.131227 0.988453
-0.021840 -0.081174 0.395730 0.075764 0.131227 0.988453
0.098130 0.126619 -0.390581 0.879862 0.414566 0.232330
0.080125 0.095433 -0.266747 0.879862 0.414566 0.232330
0.088999 0.078294 -0.269773 0.879862 0.414566 0.232330
0.107004 0.109480 -0.393606 0.879862 0.414566 0.232330
0.098130 0.126619 -0.390581 0.924812 0.380245 0.011706
0.107004 0.109480 -0.393606 0.924812 0.380245 0.011706
0.104201 0.113054 -0.429616 0.924812 0.380245 0.011706
0.099533 0.129049 -0.439042 0.924812 0.380245 0.011706
0.098130 0.126619 -0.390581 0.499163 0.864577 0.057817
0.099533 0.129049 -0.439042 0.499163 0.864577 0.057817
0.080763 0.139886 -0.439042 0.499163 0.864577 0.057817
0.079360 0.137456 -0.390581 0.499163 0.864577 0.057817
0.098130 0.126619 -0.390581 0.480113 0.831579 0.279226
0.080125 0.095433 -0.266747 0.480113 0.831579 0.279226
0.086127 0.105829 -0.463264 0.529056 -0.502270 -0.683977
0.098002 0.093887 -0.448119 0.529056 -0.502270 -0.683977
0.081078 0.073002 -0.443064 0.529056 -0.502270 -0.683977
0.068316 0.074980 -0.457197 0.529056 -0.502270 -0.683977
0.086127 0.105829 -0.463264 -0.083956 -0.145419 -0.985802
0.068316 0.074980 -0.457197 -0.083956 -0.145419 -0.985802
0.049546 0.085817 -0.457197 -0.083956 -0.145419 -0.985802
0.067357 0.116666 -0.463264 -0.083956 -0.145419 -0.985802
0.086127 0.105829 -0.463264 0.335180 0.580546 -0.742038
0.067357 0.116666 -0.463264 0.335180 0.580546 -0.742038
0.080763 0.139886 -0.439042 0.335180 0.580546 -0.742038
0.099533 0.129049 -0.439042 0.335180 0.580546 -0.742038
0.086127 0.105829 -0.463264 0.869605 0.087578 -0.485919
0.099533 0.129049 -0.439042 0.869605 0.087578 -0.485919
0.104201 0.113054 -0.429616 0.869605 0.087578 -0.485919
0.098002 0.093887 -0.448119 0.869605 0.087578 -0.485919
-0.012349 -0.108083 0.343122 0.728247 -0.680687 0.079506
-0.023371 -0.116336 0.386652 0.728247 -0.680687 0.079506
-0.036941 -0.131413 0.368642 0.728247 -0.680687 0.079506
-0.032650 -0.132409 0.334045 0.728247 -0.680687 0.079506
-0.012349 -0.108083 0.343122 0.775312 -0.629908 -0.045904
-0.032650 -0.132409 0.334045 0.775312 -0.629908 -0.045904
-0.014922 -0.101703 0.212117 0.775312 -0.629908 -0.045904
0.005379 -0.077378 0.221194 0.775312 -0.629908 -0.045904
-0.012349 -0.108083 0.343122 0.933172 -0.356486 0.045905
0.005379 -0.077378 0.221194 0.933172 -0.356486 0.045905
0.016295 -0.047634 0.230272 0.933172 -0.356486 0.045905
-0.001433 -0.078339 0.352200 0.933172 -0.356486 0.045905
-0.012349 -0.108083 0.343122 0.914728 -0.357694 0.187960
-0.001433 -0.078339 0.352200 0.914728 -0.357694 0.187960
-0.013818 -0.091361 0.382091 0.914728 -0.357694 0.187960
-0.023371 -0.116336 0.386652 0.914728 -0.357694 0.187960
-0.051930 -0.133293 0.331019 -0.499416 -0.865014 -0.048326
-0.053057 -0.135243 0.377575 -0.499416 -0.865014 -0.048326
-0.051930 -0.133293 0.331019 -0.480113 -0.831580 -0.279226
-0.034202 -0.102587 0.209091 -0.480113 -0.831580 -0.279226
-0.051930 -0.133293 0.331019 0.080906 -0.969266 -0.232330
-0.034202 -0.102587 0.209091 0.080906 -0.969266 -0.232330
-0.014922 -0.101703 0.212117 0.080906 -0.969266 -0.232330
-0.032650 -0.132409 0.334045 0.080906 -0.969266 -0.232330
-0.051930 -0.133293 0.331019 0.131563 -0.991304 -0.002880
-0.032650 -0.132409 0.334045 0.131563 -0.991304 -0.002880
-0.036941 -0.131413 0.368642 0.131563 -0.991304 -0.002880
-0.053057 -0.135243 0.377575 0.131563 -0.991304 -0.002880
-0.010308 -0.061200 0.355226 0.863243 0.276001 0.422653
-0.021840 -0.081174 0.395730 0.863243 0.276001 0.422653
-0.013818 -0.091361 0.382091 0.863243 0.276001 0.422653
-0.001433 -0.078339 0.352200 0.863243 0.276001 0.422653
-0.010308 -0.061200 0.355226 0.879862 0.414566 0.232330
-0.001433 -0.078339 0.352200 0.879862 0.414566 0.232330
0.016295 -0.047634 0.230272 0.879862 0.414566 0.232330
0.007420 -0.030495 0.233298 0.879862 0.414566 0.232330
-0.010308 -0.061200 0.355226 0.480113 0.831580 0.279226
0.007420 -0.030495 0.233298 0.480113 0.831580 0.279226
-0.010308 -0.061200 0.355226 0.434497 0.752570 0.494824
-0.021840 -0.081174 0.395730 0.434497 0.752570 0.494824
0.041685 -0.014493 -0.028511 0.775312 -0.629908 -0.045904
0.021384 -0.038819 -0.037588 0.775312 -0.629908 -0.045904
0.057782 0.024225 -0.287928 0.775312 -0.629908 -0.045904
0.078083 0.048551 -0.278851 0.775312 -0.629908 -0.045904
0.041685 -0.014493 -0.028511 0.933172 -0.356486 0.045905
0.052601 0.015250 -0.019433 0.933172 -0.356486 0.045905
0.002104 -0.039703 -0.040614 -0.480113 -0.831580 -0.279226
0.038502 0.023341 -0.290954 -0.480113 -0.831580 -0.279226
0.002104 -0.039703 -0.040614 0.080906 -0.969266 -0.232330
0.021384 -0.038819 -0.037588 0.080906 -0.969266 -0.232330
0.043726 0.032389 -0.016407 0.879862 0.414566 0.232330
0.052601 0.015250 -0.019433 0.879862 0.414566 0.232330
0.043726 0.032389 -0.016407 0.480113 0.831580 0.279226
0.080125 0.095433 -0.266747 0.480113 0.831580 0.279226
4 0 1 2 3
4 4 5 6 7
4 8 9 10 11
4 12 13 14 15
4 16 17 18 19
4 20 21 22 23
4 24 25 26 27
4 28 29 30 31
4 32 33 34 35
4 36 37 38 39
4 40 41 42 43
4 44 45 46 47
4 48 49 50 51
4 52 53 54 55
4 56 57 58 59
4 60 61 62 63
4 64 65 66 67
4 68 69 70 71
4 72 73 74 75
4 76 77 78 79
4 80 81 82 83
4 84 85 86 87
4 88 89 90 91
4 92 93 94 95
4 96 97 98 99
4 100 101 102 103
4 104 105 106 107
4 108 109 110 111
4 112 113 114 115
4 116 117 118 119
4 120 121 122 123
4 124 125 126 127
4 128 129 94 93
4 130 91 90 131
4 130 131 6 5
4 128 132 133 129
4 134 135 136 137
4 138 107 106 139
4 138 139 22 21
4 140 141 142 143
4 144 145 146 147
4 148 123 122 149
4 148 149 150 151
4 144 51 50 145
4 152 153 154 155
4 156 157 158 159
4 160 161 162 163
4 164 165 166 167
4 168 169 18 17
4 170 171 172 173
4 174 175 176 177
4 178 179 180 181
4 182 35 34 183
4 184 185 186 187
4 188 189 190 191
4 192 193 38 37
4 194 195 196 197
4 198 199 200 201
4 202 203 204 205
4 206 55 54 207
4 208 209 210 211
4 212 213 214 215
4 216 217 218 219
4 220 221 222 223
4 224 225 226 227
4 228 229 230 231
4 232 233 234 235
4 236 237 238 239
4 240 241 98 97
4 242 111 110 243
4 244 245 246 247
4 248 249 250 251
4 252 253 254 255
4 256 257 258 259
4 260 261 122 121
4 262 119 118 263
4 264 231 230 265
4 264 265 266 267
4 268 167 166 269
4 268 269 234 233
4 270 243 110 143
4 270 143 142 271
4 272 181 180 273
4 272 273 246 245
4 274 259 258 275
4 274 275 196 195
4 276 277 150 149
4 276 149 122 261
