ply
format ascii 1.0
comment Created by Blender 2.72 (sub 0) - www.blender.org, source file: 'ralfs hexaboard.blend'
element vertex 258
property float x
property float y
property float z
property float nx
property float ny
property float nz
element face 88
property list uchar uint vertex_indices
end_header
0.050074 -0.017612 -0.337969 1.000000 0.000000 0.000000
0.050074 0.000000 -0.337969 1.000000 0.000000 0.000000
0.050074 0.000000 -0.223252 1.000000 0.000000 0.000000
0.050074 -0.017612 -0.223252 1.000000 0.000000 0.000000
0.050074 -0.017612 -0.337969 0.817318 -0.576187 0.000000
0.050074 -0.017612 -0.223252 0.817318 -0.576187 0.000000
0.040762 -0.030821 -0.223252 0.817318 -0.576187 0.000000
0.040762 -0.030821 -0.337969 0.817318 -0.576187 0.000000
0.050074 -0.017612 -0.337969 0.751560 -0.635795 -0.175847
0.040762 -0.030821 -0.337969 0.751560 -0.635795 -0.175847
0.033520 -0.027397 -0.373345 0.751560 -0.635795 -0.175847
0.040762 -0.017612 -0.385727 0.751560 -0.635795 -0.175847
0.050074 -0.017612 -0.337969 0.981517 0.000000 -0.191376
0.040762 -0.017612 -0.385727 0.981517 0.000000 -0.191376
0.040762 0.000000 -0.385727 0.981517 0.000000 -0.191376
0.050074 0.000000 -0.337969 0.981517 0.000000 -0.191376
0.012826 -0.035224 -0.337969 0.155689 -0.987806 0.000000
0.040762 -0.030821 -0.337969 0.155689 -0.987806 0.000000
0.040762 -0.030821 -0.223252 0.155689 -0.987806 0.000000
0.012826 -0.035224 -0.223252 0.155689 -0.987806 0.000000
0.012826 -0.035224 -0.337969 -0.155688 -0.987806 0.000000
0.012826 -0.035224 -0.223252 -0.155688 -0.987806 0.000000
-0.015110 -0.030821 -0.223252 -0.155688 -0.987806 0.000000
-0.015110 -0.030821 -0.337969 -0.155688 -0.987806 0.000000
0.012826 -0.035224 -0.337969 -0.184749 -0.976826 -0.108067
-0.015110 -0.030821 -0.337969 -0.184749 -0.976826 -0.108067
-0.007867 -0.027397 -0.373345 -0.184749 -0.976826 -0.108067
0.012826 -0.030821 -0.385727 -0.184749 -0.976826 -0.108067
0.012826 -0.035224 -0.337969 0.184750 -0.976826 -0.108067
0.012826 -0.030821 -0.385727 0.184750 -0.976826 -0.108067
0.033520 -0.027397 -0.373345 0.184750 -0.976826 -0.108067
0.040762 -0.030821 -0.337969 0.184750 -0.976826 -0.108067
0.012826 -0.017612 -0.401647 0.495111 0.000000 -0.868830
0.012826 0.000000 -0.401647 0.495111 0.000000 -0.868830
0.040762 0.000000 -0.385727 0.495111 0.000000 -0.868830
0.040762 -0.017612 -0.385727 0.495111 0.000000 -0.868830
0.012826 -0.017612 -0.401647 0.362468 -0.766589 -0.530055
0.040762 -0.017612 -0.385727 0.362468 -0.766589 -0.530055
0.033520 -0.027397 -0.373345 0.362468 -0.766589 -0.530055
0.012826 -0.030821 -0.385727 0.362468 -0.766589 -0.530055
0.012826 -0.017612 -0.401647 -0.362467 -0.766589 -0.530055
0.012826 -0.030821 -0.385727 -0.362467 -0.766589 -0.530055
-0.007867 -0.027397 -0.373345 -0.362467 -0.766589 -0.530055
-0.015110 -0.017612 -0.385727 -0.362467 -0.766589 -0.530055
0.012826 -0.017612 -0.401647 -0.495111 -0.000000 -0.868830
-0.015110 -0.017612 -0.385727 -0.495111 -0.000000 -0.868830
-0.015110 -0.000000 -0.385727 -0.495111 -0.000000 -0.868830
0.012826 0.000000 -0.401647 -0.495111 -0.000000 -0.868830
0.012826 -0.017612 0.401647 -0.531610 -0.000001 0.846989
0.012826 0.000000 0.401647 -0.531610 -0.000001 0.846989
-0.015110 -0.000000 0.384113 -0.531610 -0.000001 0.846989
-0.015110 -0.017612 0.384113 -0.531610 -0.000001 0.846989
0.012826 -0.017612 0.401647 -0.371757 -0.786237 0.493587
-0.015110 -0.017612 0.384113 -0.371757 -0.786237 0.493587
-0.007867 -0.027397 0.370475 -0.371757 -0.786237 0.493587
0.012826 -0.030821 0.384113 -0.371757 -0.786237 0.493587
0.012826 -0.017612 0.401647 0.371758 -0.786237 0.493587
0.012826 -0.030821 0.384113 0.371758 -0.786237 0.493587
0.033520 -0.027397 0.370475 0.371758 -0.786237 0.493587
0.040762 -0.017612 0.384113 0.371758 -0.786237 0.493587
0.012826 -0.017612 0.401647 0.531610 -0.000001 0.846989
0.040762 -0.017612 0.384113 0.531610 -0.000001 0.846989
0.040762 0.000000 0.384113 0.531610 -0.000001 0.846989
0.012826 0.000000 0.401647 0.531610 -0.000001 0.846989
-0.024422 -0.017612 -0.337969 -0.817318 -0.576187 0.000000
-0.015110 -0.030821 -0.337969 -0.817318 -0.576187 0.000000
-0.015110 -0.030821 -0.223252 -0.817318 -0.576187 0.000000
-0.024422 -0.017612 -0.223252 -0.817318 -0.576187 0.000000
-0.024422 -0.017612 -0.337969 -1.000000 -0.000000 0.000000
-0.024422 -0.017612 -0.223252 -1.000000 -0.000000 0.000000
-0.024422 -0.000000 -0.223252 -1.000000 -0.000000 0.000000
-0.024422 -0.000000 -0.337969 -1.000000 -0.000000 0.000000
-0.024422 -0.017612 -0.337969 -0.981517 -0.000000 -0.191376
-0.024422 -0.000000 -0.337969 -0.981517 -0.000000 -0.191376
-0.015110 -0.000000 -0.385727 -0.981517 -0.000000 -0.191376
-0.015110 -0.017612 -0.385727 -0.981517 -0.000000 -0.191376
-0.024422 -0.017612 -0.337969 -0.751560 -0.635795 -0.175847
-0.015110 -0.017612 -0.385727 -0.751560 -0.635795 -0.175847
-0.007867 -0.027397 -0.373345 -0.751560 -0.635795 -0.175847
-0.015110 -0.030821 -0.337969 -0.751560 -0.635795 -0.175847
0.050074 -0.017612 0.331511 0.984689 -0.000000 0.174318
0.050074 0.000000 0.331511 0.984689 -0.000000 0.174318
0.040762 0.000000 0.384113 0.984689 -0.000000 0.174318
0.040762 -0.017612 0.384113 0.984689 -0.000000 0.174318
0.050074 -0.017612 0.331511 0.753610 -0.637529 0.160092
0.040762 -0.017612 0.384113 0.753610 -0.637529 0.160092
0.033520 -0.027397 0.370475 0.753610 -0.637529 0.160092
0.040762 -0.030821 0.331511 0.753610 -0.637529 0.160092
0.050074 -0.017612 0.331511 0.817318 -0.576187 0.000000
0.040762 -0.030821 0.331511 0.817318 -0.576187 0.000000
0.040762 -0.030821 0.211951 0.817318 -0.576187 0.000000
0.050074 -0.017612 0.211951 0.817318 -0.576187 0.000000
0.050074 -0.017612 0.331511 1.000000 0.000000 0.000000
0.050074 -0.017612 0.211951 1.000000 0.000000 0.000000
0.050074 0.000000 0.211951 1.000000 0.000000 0.000000
0.050074 0.000000 0.331511 1.000000 0.000000 0.000000
0.012826 -0.035224 0.331511 0.184939 -0.977829 0.098218
0.040762 -0.030821 0.331511 0.184939 -0.977829 0.098218
0.033520 -0.027397 0.370475 0.184939 -0.977829 0.098218
0.012826 -0.030821 0.384113 0.184939 -0.977829 0.098218
0.012826 -0.035224 0.331511 -0.184939 -0.977830 0.098218
0.012826 -0.030821 0.384113 -0.184939 -0.977830 0.098218
-0.007867 -0.027397 0.370475 -0.184939 -0.977830 0.098218
-0.015110 -0.030821 0.331511 -0.184939 -0.977830 0.098218
0.012826 -0.035224 0.331511 -0.155688 -0.987806 0.000000
-0.015110 -0.030821 0.331511 -0.155688 -0.987806 0.000000
-0.015110 -0.030821 0.211951 -0.155688 -0.987806 0.000000
0.012826 -0.035224 0.211951 -0.155688 -0.987806 0.000000
0.012826 -0.035224 0.331511 0.155689 -0.987806 0.000000
0.012826 -0.035224 0.211951 0.155689 -0.987806 0.000000
0.040762 -0.030821 0.211951 0.155689 -0.987806 0.000000
0.040762 -0.030821 0.331511 0.155689 -0.987806 0.000000
-0.024422 -0.017612 0.331511 -0.753610 -0.637529 0.160092
-0.015110 -0.030821 0.331511 -0.753610 -0.637529 0.160092
-0.007867 -0.027397 0.370475 -0.753610 -0.637529 0.160092
-0.015110 -0.017612 0.384113 -0.753610 -0.637529 0.160092
-0.024422 -0.017612 0.331511 -0.984689 -0.000000 0.174318
-0.015110 -0.017612 0.384113 -0.984689 -0.000000 0.174318
-0.015110 -0.000000 0.384113 -0.984689 -0.000000 0.174318
-0.024422 -0.000000 0.331511 -0.984689 -0.000000 0.174318
-0.024422 -0.017612 0.331511 -1.000000 -0.000000 0.000000
-0.024422 -0.000000 0.331511 -1.000000 -0.000000 0.000000
-0.024422 -0.000000 0.211951 -1.000000 -0.000000 0.000000
-0.024422 -0.017612 0.211951 -1.000000 -0.000000 0.000000
-0.024422 -0.017612 0.331511 -0.817318 -0.576187 0.000000
-0.024422 -0.017612 0.211951 -0.817318 -0.576187 0.000000
-0.015110 -0.030821 0.211951 -0.817318 -0.576187 0.000000
-0.015110 -0.030821 0.331511 -0.817318 -0.576187 0.000000
0.050074 -0.017612 -0.006457 1.000000 0.000000 0.000000
0.050074 0.000000 -0.006457 1.000000 0.000000 0.000000
0.050074 -0.017612 -0.006457 0.817318 -0.576187 0.000000
0.040762 -0.030821 -0.006457 0.817318 -0.576187 0.000000
0.012826 -0.035224 -0.006457 0.155689 -0.987806 0.000000
0.040762 -0.030821 -0.006457 0.155689 -0.987806 0.000000
0.012826 -0.035224 -0.006457 -0.155688 -0.987806 0.000000
-0.015110 -0.030821 -0.006457 -0.155688 -0.987806 0.000000
-0.024422 -0.017612 -0.006457 -0.817318 -0.576187 0.000000
-0.015110 -0.030821 -0.006457 -0.817318 -0.576187 0.000000
-0.024422 -0.017612 -0.006457 -1.000000 -0.000000 0.000000
-0.024422 -0.000000 -0.006457 -1.000000 -0.000000 0.000000
0.050074 0.017612 -0.337969 1.000000 0.000000 0.000000
0.050074 0.017612 -0.223252 1.000000 0.000000 0.000000
0.050074 0.017612 -0.337969 0.981517 0.000000 -0.191376
0.040762 0.017612 -0.385727 0.981517 0.000000 -0.191376
0.050074 0.017612 -0.337969 0.751560 0.635795 -0.175847
0.040762 0.017612 -0.385727 0.751560 0.635795 -0.175847
0.033520 0.027397 -0.373345 0.751560 0.635795 -0.175847
0.040762 0.030821 -0.337969 0.751560 0.635795 -0.175847
0.050074 0.017612 -0.337969 0.817318 0.576187 0.000000
0.040762 0.030821 -0.337969 0.817318 0.576187 0.000000
0.040762 0.030821 -0.223252 0.817318 0.576187 0.000000
0.050074 0.017612 -0.223252 0.817318 0.576187 0.000000
0.012826 0.035224 -0.337969 0.155689 0.987806 0.000000
0.012826 0.035224 -0.223252 0.155689 0.987806 0.000000
0.040762 0.030821 -0.223252 0.155689 0.987806 0.000000
0.040762 0.030821 -0.337969 0.155689 0.987806 0.000000
0.012826 0.035224 -0.337969 0.184749 0.976826 -0.108068
0.040762 0.030821 -0.337969 0.184749 0.976826 -0.108068
0.033520 0.027397 -0.373345 0.184749 0.976826 -0.108068
0.012826 0.030821 -0.385727 0.184749 0.976826 -0.108068
0.012826 0.035224 -0.337969 -0.184750 0.976826 -0.108068
0.012826 0.030821 -0.385727 -0.184750 0.976826 -0.108068
-0.007867 0.027397 -0.373345 -0.184750 0.976826 -0.108068
-0.015110 0.030821 -0.337969 -0.184750 0.976826 -0.108068
0.012826 0.035224 -0.337969 -0.155689 0.987806 0.000000
-0.015110 0.030821 -0.337969 -0.155689 0.987806 0.000000
-0.015110 0.030821 -0.223252 -0.155689 0.987806 0.000000
0.012826 0.035224 -0.223252 -0.155689 0.987806 0.000000
0.012826 0.017612 -0.401647 0.495111 0.000000 -0.868830
0.040762 0.017612 -0.385727 0.495111 0.000000 -0.868830
0.012826 0.017612 -0.401647 -0.495111 -0.000000 -0.868830
-0.015110 0.017612 -0.385727 -0.495111 -0.000000 -0.868830
0.012826 0.017612 -0.401647 -0.362468 0.766589 -0.530055
-0.015110 0.017612 -0.385727 -0.362468 0.766589 -0.530055
-0.007867 0.027397 -0.373345 -0.362468 0.766589 -0.530055
0.012826 0.030821 -0.385727 -0.362468 0.766589 -0.530055
0.012826 0.017612 -0.401647 0.362467 0.766589 -0.530055
0.012826 0.030821 -0.385727 0.362467 0.766589 -0.530055
0.033520 0.027397 -0.373345 0.362467 0.766589 -0.530055
0.040762 0.017612 -0.385727 0.362467 0.766589 -0.530055
0.012826 0.017612 0.401647 -0.531610 0.000001 0.846989
-0.015110 0.017612 0.384113 -0.531610 0.000001 0.846989
-0.015110 -0.000000 0.384113 -0.531610 0.000001 0.846989
0.012826 0.000000 0.401647 -0.531610 0.000001 0.846989
0.012826 0.017612 0.401647 0.531610 0.000001 0.846989
0.012826 0.000000 0.401647 0.531610 0.000001 0.846989
0.040762 0.000000 0.384113 0.531610 0.000001 0.846989
0.040762 0.017612 0.384113 0.531610 0.000001 0.846989
0.012826 0.017612 0.401647 0.371757 0.786237 0.493587
0.040762 0.017612 0.384113 0.371757 0.786237 0.493587
0.033520 0.027397 0.370475 0.371757 0.786237 0.493587
0.012826 0.030821 0.384113 0.371757 0.786237 0.493587
0.012826 0.017612 0.401647 -0.371758 0.786237 0.493587
0.012826 0.030821 0.384113 -0.371758 0.786237 0.493587
-0.007867 0.027397 0.370475 -0.371758 0.786237 0.493587
-0.015110 0.017612 0.384113 -0.371758 0.786237 0.493587
-0.024422 0.017612 -0.337969 -0.817318 0.576187 0.000000
-0.024422 0.017612 -0.223252 -0.817318 0.576187 0.000000
-0.015110 0.030821 -0.223252 -0.817318 0.576187 0.000000
-0.015110 0.030821 -0.337969 -0.817318 0.576187 0.000000
-0.024422 0.017612 -0.337969 -0.751560 0.635795 -0.175847
-0.015110 0.030821 -0.337969 -0.751560 0.635795 -0.175847
-0.007867 0.027397 -0.373345 -0.751560 0.635795 -0.175847
-0.015110 0.017612 -0.385727 -0.751560 0.635795 -0.175847
-0.024422 0.017612 -0.337969 -0.981517 -0.000000 -0.191376
-0.015110 0.017612 -0.385727 -0.981517 -0.000000 -0.191376
-0.024422 0.017612 -0.337969 -1.000000 -0.000000 0.000000
-0.024422 0.017612 -0.223252 -1.000000 -0.000000 0.000000
0.050074 0.017612 0.331511 0.984689 0.000000 0.174318
0.040762 0.017612 0.384113 0.984689 0.000000 0.174318
0.050074 0.017612 0.331511 1.000000 0.000000 0.000000
0.050074 0.017612 0.211951 1.000000 0.000000 0.000000
0.050074 0.017612 0.331511 0.817318 0.576187 0.000000
0.050074 0.017612 0.211951 0.817318 0.576187 0.000000
0.040762 0.030821 0.211951 0.817318 0.576187 0.000000
0.040762 0.030821 0.331511 0.817318 0.576187 0.000000
0.050074 0.017612 0.331511 0.753610 0.637529 0.160092
0.040762 0.030821 0.331511 0.753610 0.637529 0.160092
0.033520 0.027397 0.370475 0.753610 0.637529 0.160092
0.040762 0.017612 0.384113 0.753610 0.637529 0.160092
0.012826 0.035224 0.331511 0.184939 0.977830 0.098218
0.012826 0.030821 0.384113 0.184939 0.977830 0.098218
0.033520 0.027397 0.370475 0.184939 0.977830 0.098218
0.040762 0.030821 0.331511 0.184939 0.977830 0.098218
0.012826 0.035224 0.331511 0.155689 0.987806 0.000000
0.040762 0.030821 0.331511 0.155689 0.987806 0.000000
0.040762 0.030821 0.211951 0.155689 0.987806 0.000000
0.012826 0.035224 0.211951 0.155689 0.987806 0.000000
0.012826 0.035224 0.331511 -0.155689 0.987806 0.000000
0.012826 0.035224 0.211951 -0.155689 0.987806 0.000000
-0.015110 0.030821 0.211951 -0.155689 0.987806 0.000000
-0.015110 0.030821 0.331511 -0.155689 0.987806 0.000000
0.012826 0.035224 0.331511 -0.184940 0.977829 0.098218
-0.015110 0.030821 0.331511 -0.184940 0.977829 0.098218
-0.007867 0.027397 0.370475 -0.184940 0.977829 0.098218
0.012826 0.030821 0.384113 -0.184940 0.977829 0.098218
-0.024422 0.017612 0.331511 -0.753610 0.637529 0.160092
-0.015110 0.017612 0.384113 -0.753610 0.637529 0.160092
-0.007867 0.027397 0.370475 -0.753610 0.637529 0.160092
-0.015110 0.030821 0.331511 -0.753610 0.637529 0.160092
-0.024422 0.017612 0.331511 -0.817318 0.576187 0.000000
-0.015110 0.030821 0.331511 -0.817318 0.576187 0.000000
-0.015110 0.030821 0.211951 -0.817318 0.576187 0.000000
-0.024422 0.017612 0.211951 -0.817318 0.576187 0.000000
-0.024422 0.017612 0.331511 -1.000000 -0.000000 0.000000
-0.024422 0.017612 0.211951 -1.000000 -0.000000 0.000000
-0.024422 0.017612 0.331511 -0.984689 0.000000 0.174318
-0.015110 0.017612 0.384113 -0.984689 0.000000 0.174318
0.050074 0.017612 -0.006457 1.000000 0.000000 0.000000
0.050074 0.017612 -0.006457 0.817318 0.576187 0.000000
0.040762 0.030821 -0.006457 0.817318 0.576187 0.000000
0.012826 0.035224 -0.006457 0.155689 0.987806 0.000000
0.040762 0.030821 -0.006457 0.155689 0.987806 0.000000
0.012826 0.035224 -0.006457 -0.155689 0.987806 0.000000
-0.015110 0.030821 -0.006457 -0.155689 0.987806 0.000000
-0.024422 0.017612 -0.006457 -0.817318 0.576187 0.000000
-0.015110 0.030821 -0.006457 -0.817318 0.576187 0.000000
-0.024422 0.017612 -0.006457 -1.000000 -0.000000 0.000000
4 0 1 2 3
4 4 5 6 7
4 8 9 10 11
4 12 13 14 15
4 16 17 18 19
4 20 21 22 23
4 24 25 26 27
4 28 29 30 31
4 32 33 34 35
4 36 37 38 39
4 40 41 42 43
4 44 45 46 47
4 48 49 50 51
4 52 53 54 55
4 56 57 58 59
4 60 61 62 63
4 64 65 66 67
4 68 69 70 71
4 72 73 74 75
4 76 77 78 79
4 80 81 82 83
4 84 85 86 87
4 88 89 90 91
4 92 93 94 95
4 96 97 98 99
4 100 101 102 103
4 104 105 106 107
4 108 109 110 111
4 112 113 114 115
4 116 117 118 119
4 120 121 122 123
4 124 125 126 127
4 128 129 94 93
4 130 91 90 131
4 130 131 6 5
4 128 3 2 129
4 132 133 110 109
4 134 107 106 135
4 134 135 22 21
4 132 19 18 133
4 136 137 126 125
4 138 123 122 139
4 138 139 70 69
4 136 67 66 137
4 140 141 2 1
4 142 15 14 143
4 144 145 146 147
4 148 149 150 151
4 152 153 154 155
4 156 157 158 159
4 160 161 162 163
4 164 165 166 167
4 168 169 34 33
4 170 47 46 171
4 172 173 174 175
4 176 177 178 179
4 180 181 182 183
4 184 185 186 187
4 188 189 190 191
4 192 193 194 195
4 196 197 198 199
4 200 201 202 203
4 204 205 74 73
4 206 71 70 207
4 208 209 82 81
4 210 95 94 211
4 212 213 214 215
4 216 217 218 219
4 220 221 222 223
4 224 225 226 227
4 228 229 230 231
4 232 233 234 235
4 236 237 238 239
4 240 241 242 243
4 244 245 122 121
4 246 119 118 247
4 248 211 94 129
4 248 129 2 141
4 249 151 150 250
4 249 250 214 213
4 251 227 226 252
4 251 252 154 153
4 253 167 166 254
4 253 254 230 229
4 255 243 242 256
4 255 256 198 197
4 257 207 70 139
4 257 139 122 245
